<svg width="25" height="26" fill="none" xmlns="http://www.w3.org/2000/svg"><path d="M3.88 3.115a1.042 1.042 0 0 0-1.015 1.041v3.49l14.74 14.74h3.515a1.041 1.041 0 0 0 1.041-1.042V4.13a1.041 1.041 0 0 0-1.041-1.015H3.88ZM15.708 5.14a4.411 4.411 0 0 1 4.401 4.4c0 2.563-2.083 4.558-4.4 7.178-2.22-2.51-4.22-4.448-4.386-6.854v-.323a4.4 4.4 0 0 1 4.401-4.401h-.016Zm0 2.286a2.115 2.115 0 1 0 0 4.23 2.115 2.115 0 0 0 0-4.23Zm-12.843 6.98v6.963a1.042 1.042 0 0 0 1.041 1.041h6.938l-7.98-8.005Z" stroke="#fff" stroke-linecap="round" stroke-linejoin="round"/></svg>