<?xml version="1.0" encoding="utf-8"?>
<!-- Generator: $$$/GeneralStr/196=Adobe Illustrator 27.6.0, SVG Export Plug-In . SVG Version: 6.00 Build 0)  -->
<svg version="1.1" xmlns="http://www.w3.org/2000/svg" xmlns:xlink="http://www.w3.org/1999/xlink" x="0px" y="0px"
	 viewBox="0 0 25 20" style="enable-background:new 0 0 25 20;" xml:space="preserve">
<style type="text/css">
	.st0{display:none;}
	.st1{display:inline;}
	.st2{fill-rule:evenodd;clip-rule:evenodd;fill:url(#SVGID_1_);}
	.st3{fill-rule:evenodd;clip-rule:evenodd;fill:#FFFFFF;filter:url(#Adobe_OpacityMaskFilter);}
	
		.st4{mask:url(#path-1-inside-1_5_92_00000147200003259958336240000012180529496308095418_);fill:url(#SVGID_00000114787267191914968790000012739692274536658361_);}
	.st5{fill-rule:evenodd;clip-rule:evenodd;fill:url(#SVGID_00000067946309009628708760000015817682251868778889_);}
	
		.st6{fill-rule:evenodd;clip-rule:evenodd;fill:#FFFFFF;filter:url(#Adobe_OpacityMaskFilter_00000176012482789548812230000010103257275964531634_);}
	
		.st7{mask:url(#path-3-inside-2_5_92_00000126318820436006004390000017495397610203004095_);fill:url(#SVGID_00000003807117259290932620000004898129072883920273_);}
	
		.st8{fill:url(#SVGID_00000077286051054408124340000001361902289708269468_);stroke:url(#SVGID_00000109017077346671008240000003205782670902059651_);stroke-width:0.25;}
	
		.st9{fill:url(#SVGID_00000010283865264629418650000013109496492332753299_);stroke:url(#SVGID_00000042007685947125159380000002806722154251246755_);stroke-width:0.25;}
	
		.st10{fill:url(#SVGID_00000129181980933185126570000000993159552247964578_);stroke:url(#SVGID_00000143603283950104770480000003613670185304153735_);stroke-width:0.25;}
	
		.st11{fill:url(#SVGID_00000109018918518017087550000009781584084629734575_);stroke:url(#SVGID_00000055693416541107270560000011590118760866638246_);stroke-width:0.25;}
	
		.st12{fill:url(#SVGID_00000057136519968370817610000011196595059822025107_);stroke:url(#SVGID_00000056410925928843553790000007825622204139613312_);stroke-width:0.25;}
</style>
<g id="Calque_2" class="st0">
	<rect x="-0.5" class="st1" width="26" height="20"/>
</g>
<g id="Calque_1">
	<g>
		
			<linearGradient id="SVGID_1_" gradientUnits="userSpaceOnUse" x1="-841.7459" y1="415.1848" x2="-841.7459" y2="397.6628" gradientTransform="matrix(1 0 0 -1 852 414.6306)">
			<stop  offset="0" style="stop-color:#FFFFFF"/>
			<stop  offset="1" style="stop-color:#FFFFFF;stop-opacity:0"/>
		</linearGradient>
		<path shape-rendering="crispEdges" class="st2" d="M15.4,15.3C15.4,15.3,15.4,15.3,15.4,15.3c1.7,0,3-1.4,3-3.2
			c0-1.8-1.3-3.2-2.9-3.2c0,0,0,0,0,0v0h-0.8c0-0.2,0-0.4,0-0.7c0-2.7-2-4.9-4.5-4.9c-2.5,0-4.5,2.2-4.5,4.9c0,0.3,0,0.5,0.1,0.8
			C5.5,8.9,5.3,8.9,5.1,8.9c-1.6,0-2.9,1.4-2.9,3.2c0,1.8,1.3,3.2,2.9,3.2c0,0,0,0,0,0l0,0L15.4,15.3L15.4,15.3z"/>
		<defs>
			<filter id="Adobe_OpacityMaskFilter" filterUnits="userSpaceOnUse" x="0.5" y="1.6" width="19.5" height="15.3">
				<feColorMatrix  type="matrix" values="1 0 0 0 0  0 1 0 0 0  0 0 1 0 0  0 0 0 1 0"/>
			</filter>
		</defs>
		
			<mask maskUnits="userSpaceOnUse" x="0.5" y="1.6" width="19.5" height="15.3" id="path-1-inside-1_5_92_00000147200003259958336240000012180529496308095418_">
			<path class="st3" d="M15.4,15.3C15.4,15.3,15.4,15.3,15.4,15.3c1.7,0,3-1.4,3-3.2c0-1.8-1.3-3.2-2.9-3.2c0,0,0,0,0,0v0h-0.8
				c0-0.2,0-0.4,0-0.7c0-2.7-2-4.9-4.5-4.9c-2.5,0-4.5,2.2-4.5,4.9c0,0.3,0,0.5,0.1,0.8C5.5,8.9,5.3,8.9,5.1,8.9
				c-1.6,0-2.9,1.4-2.9,3.2c0,1.8,1.3,3.2,2.9,3.2c0,0,0,0,0,0l0,0L15.4,15.3L15.4,15.3z"/>
		</mask>
		
			<linearGradient id="SVGID_00000161599961295791610190000005572851708303516297_" gradientUnits="userSpaceOnUse" x1="-841.7459" y1="411.3449" x2="-841.7459" y2="399.3404" gradientTransform="matrix(1 0 0 -1 852 414.6306)">
			<stop  offset="0" style="stop-color:#FFFFFF"/>
			<stop  offset="1" style="stop-color:#FFFFFF;stop-opacity:0"/>
		</linearGradient>
		
			<path style="mask:url(#path-1-inside-1_5_92_00000147200003259958336240000012180529496308095418_);fill:url(#SVGID_00000161599961295791610190000005572851708303516297_);" d="
			M15.4,15.3l0-1.7c-0.4,0-0.9,0.2-1.2,0.5c-0.3,0.3-0.5,0.7-0.5,1.2H15.4z M15.4,8.9h-1.7c0,0.4,0.2,0.9,0.5,1.2
			c0.3,0.3,0.7,0.5,1.2,0.5L15.4,8.9z M15.4,8.9H17c0-0.9-0.7-1.7-1.7-1.7V8.9z M14.6,8.9L13,8.7c-0.1,0.5,0.1,0.9,0.4,1.3
			c0.3,0.4,0.8,0.6,1.2,0.6V8.9z M5.7,9l-0.4,1.6c0.5,0.1,1.1,0,1.5-0.4c0.4-0.4,0.6-0.9,0.5-1.5L5.7,9z M5.1,15.3l1.3,1
			c0.4-0.5,0.4-1.2,0.1-1.7c-0.3-0.6-0.9-0.9-1.5-0.9L5.1,15.3z M5.1,15.3l-1.3-1c-0.4,0.5-0.4,1.2-0.1,1.7c0.3,0.6,0.9,0.9,1.5,0.9
			V15.3z M15.4,15.3v1.7c0.9,0,1.7-0.7,1.7-1.7H15.4z M15.4,16.9C15.4,16.9,15.4,16.9,15.4,16.9l0.1-3.3c0,0,0,0,0,0L15.4,16.9z
			 M15.4,16.9c2.7,0,4.6-2.3,4.6-4.9h-3.3c0,1-0.7,1.6-1.3,1.6V16.9z M20,12.1c0-2.5-1.9-4.9-4.6-4.9v3.3c0.6,0,1.3,0.5,1.3,1.6H20z
			 M15.4,7.2C15.4,7.2,15.4,7.2,15.4,7.2l0,3.3c0,0,0,0,0,0V7.2z M13.7,8.9L13.7,8.9l3.3,0v0H13.7z M14.6,10.5h0.8V7.2h-0.8V10.5z
			 M16.3,9.1c0-0.3,0.1-0.6,0.1-0.9H13c0,0.2,0,0.3,0,0.5L16.3,9.1z M16.3,8.2c0-3.5-2.6-6.6-6.1-6.6v3.3c1.4,0,2.8,1.3,2.8,3.3
			H16.3z M10.2,1.6C6.7,1.6,4,4.7,4,8.2h3.3c0-1.9,1.4-3.3,2.8-3.3V1.6z M4,8.2c0,0.3,0,0.7,0.1,1l3.3-0.5c0-0.2,0-0.3,0-0.5H4z
			 M6.2,7.4C5.8,7.3,5.4,7.2,5.1,7.2v3.3c0.1,0,0.2,0,0.3,0L6.2,7.4z M5.1,7.2c-2.7,0-4.6,2.3-4.6,4.9h3.3c0-1,0.7-1.6,1.3-1.6V7.2z
			 M0.5,12.1c0,2.5,1.9,4.9,4.6,4.9v-3.3c-0.6,0-1.3-0.5-1.3-1.6H0.5z M5.1,16.9C5.1,16.9,5.1,16.9,5.1,16.9l0-3.3c0,0,0,0,0,0V16.9
			z M6.5,16.3L6.5,16.3l-2.7-1.9l0,0L6.5,16.3z M15.4,13.6H5.1v3.3h10.3V13.6z M13.7,15.3L13.7,15.3l3.3,0v0H13.7z"/>
	</g>
	<g>
		
			<linearGradient id="SVGID_00000044155931650814512770000006384367293729164673_" gradientUnits="userSpaceOnUse" x1="-835.0082" y1="411.084" x2="-835.0082" y2="401.6891" gradientTransform="matrix(1 0 0 -1 852 414.6306)">
			<stop  offset="0" style="stop-color:#FFFFFF"/>
			<stop  offset="1" style="stop-color:#FFFFFF;stop-opacity:0"/>
		</linearGradient>
		
			<path shape-rendering="crispEdges" style="fill-rule:evenodd;clip-rule:evenodd;fill:url(#SVGID_00000044155931650814512770000006384367293729164673_);" d="
			M20.7,12C20.7,12,20.7,12,20.7,12c1.2,0,2.1-1,2.1-2.3c0-1.3-0.9-2.3-2.1-2.3c0,0,0,0,0,0v0h-0.5c0-0.2,0-0.3,0-0.5
			c0-2-1.5-3.6-3.2-3.6c-1.8,0-3.2,1.6-3.2,3.6c0,0.2,0,0.4,0,0.5c-0.2,0-0.3-0.1-0.5-0.1c-1.2,0-2.1,1-2.1,2.3
			c0,1.3,0.9,2.3,2.1,2.3c0,0,0,0,0,0l0,0L20.7,12L20.7,12z"/>
		<defs>
			
				<filter id="Adobe_OpacityMaskFilter_00000046307531609861037880000012637410583679192461_" filterUnits="userSpaceOnUse" x="9.5" y="1.6" width="15" height="12">
				<feColorMatrix  type="matrix" values="1 0 0 0 0  0 1 0 0 0  0 0 1 0 0  0 0 0 1 0"/>
			</filter>
		</defs>
		
			<mask maskUnits="userSpaceOnUse" x="9.5" y="1.6" width="15" height="12" id="path-3-inside-2_5_92_00000126318820436006004390000017495397610203004095_">
			
				<path style="fill-rule:evenodd;clip-rule:evenodd;fill:#FFFFFF;filter:url(#Adobe_OpacityMaskFilter_00000046307531609861037880000012637410583679192461_);" d="
				M20.7,12C20.7,12,20.7,12,20.7,12c1.2,0,2.1-1,2.1-2.3c0-1.3-0.9-2.3-2.1-2.3c0,0,0,0,0,0v0h-0.5c0-0.2,0-0.3,0-0.5
				c0-2-1.5-3.6-3.2-3.6c-1.8,0-3.2,1.6-3.2,3.6c0,0.2,0,0.4,0,0.5c-0.2,0-0.3-0.1-0.5-0.1c-1.2,0-2.1,1-2.1,2.3
				c0,1.3,0.9,2.3,2.1,2.3c0,0,0,0,0,0l0,0L20.7,12L20.7,12z"/>
		</mask>
		
			<linearGradient id="SVGID_00000011025788586815965320000015888263855091291292_" gradientUnits="userSpaceOnUse" x1="-835.0082" y1="411.3449" x2="-835.0082" y2="402.6694" gradientTransform="matrix(1 0 0 -1 852 414.6306)">
			<stop  offset="0" style="stop-color:#FFFFFF"/>
			<stop  offset="1" style="stop-color:#FFFFFF;stop-opacity:0"/>
		</linearGradient>
		
			<path style="mask:url(#path-3-inside-2_5_92_00000126318820436006004390000017495397610203004095_);fill:url(#SVGID_00000011025788586815965320000015888263855091291292_);" d="
			M20.7,12l0-1.7c-0.4,0-0.9,0.2-1.2,0.5c-0.3,0.3-0.5,0.7-0.5,1.2H20.7z M20.7,7.3h-1.7c0,0.4,0.2,0.9,0.5,1.2
			C19.9,8.8,20.3,9,20.7,9L20.7,7.3z M20.7,7.3h1.7c0-0.9-0.7-1.7-1.7-1.7V7.3z M20.2,7.3l-1.6-0.2c-0.1,0.5,0.1,0.9,0.4,1.3
			C19.2,8.8,19.7,9,20.2,9V7.3z M13.7,7.4L13.3,9c0.5,0.1,1.1,0,1.5-0.4c0.4-0.4,0.6-0.9,0.5-1.5L13.7,7.4z M13.3,12l1.3,1
			c0.4-0.5,0.4-1.2,0.1-1.7c-0.3-0.6-0.9-0.9-1.5-0.9L13.3,12z M13.3,12l-1.3-1c-0.4,0.5-0.4,1.2-0.1,1.7c0.3,0.6,0.9,0.9,1.5,0.9
			V12z M20.7,12v1.7c0.9,0,1.7-0.7,1.7-1.7H20.7z M20.7,13.6C20.7,13.6,20.7,13.6,20.7,13.6l0-3.3c0,0,0,0,0,0L20.7,13.6z
			 M20.7,13.6c2.2,0,3.8-1.9,3.8-4h-3.3c0,0.2-0.1,0.4-0.2,0.5c-0.1,0.1-0.2,0.1-0.3,0.1V13.6z M24.5,9.6c0-2-1.5-4-3.8-4V9
			c0.1,0,0.2,0,0.3,0.1c0.1,0.1,0.2,0.3,0.2,0.5H24.5z M20.7,5.7C20.7,5.7,20.7,5.7,20.7,5.7l0,3.3c0,0,0,0,0,0V5.7z M19.1,7.3
			L19.1,7.3l3.3,0v0H19.1z M20.2,9h0.5V5.7h-0.5V9z M21.8,7.5c0-0.2,0-0.5,0-0.7h-3.3c0,0.1,0,0.2,0,0.3L21.8,7.5z M21.8,6.8
			c0-2.7-2.1-5.2-4.9-5.2v3.3c0.7,0,1.6,0.7,1.6,1.9H21.8z M16.9,1.6c-2.8,0-4.9,2.5-4.9,5.2h3.3c0-1.2,0.9-1.9,1.6-1.9V1.6z
			 M12,6.8c0,0.3,0,0.5,0.1,0.8l3.3-0.5c0-0.1,0-0.2,0-0.3H12z M14.1,5.8c-0.3-0.1-0.6-0.1-0.9-0.1V9c0,0,0,0,0.1,0L14.1,5.8z
			 M13.3,5.7c-2.2,0-3.8,1.9-3.8,4h3.3c0-0.2,0.1-0.4,0.2-0.5C13.1,9,13.2,9,13.3,9V5.7z M9.5,9.6c0,2,1.5,4,3.8,4v-3.3
			c-0.1,0-0.2,0-0.3-0.1c-0.1-0.1-0.2-0.3-0.2-0.5H9.5z M13.3,13.6C13.3,13.6,13.3,13.6,13.3,13.6l0-3.3c0,0,0,0,0,0V13.6z
			 M14.6,12.9L14.6,12.9L11.9,11l0,0L14.6,12.9z M20.7,10.3h-7.4v3.3h7.4V10.3z M19.1,12L19.1,12l3.3,0v0H19.1z"/>
	</g>
	<g>
		
			<linearGradient id="SVGID_00000064348638090569854060000018384750342111197335_" gradientUnits="userSpaceOnUse" x1="-836.889" y1="424.1874" x2="-848.1826" y2="390.2976" gradientTransform="matrix(1 0 0 -1 852 414.6306)">
			<stop  offset="0" style="stop-color:#138EFF"/>
			<stop  offset="1" style="stop-color:#00E0FF"/>
		</linearGradient>
		
			<linearGradient id="SVGID_00000078038783064666580850000005488753880488580258_" gradientUnits="userSpaceOnUse" x1="-844.3038" y1="401.9371" x2="-845.6964" y2="397.7583" gradientTransform="matrix(1 0 0 -1 852 414.6306)">
			<stop  offset="0" style="stop-color:#FFFFFF"/>
			<stop  offset="1" style="stop-color:#FFFFFF;stop-opacity:0"/>
		</linearGradient>
		
			<path style="fill:url(#SVGID_00000064348638090569854060000018384750342111197335_);stroke:url(#SVGID_00000078038783064666580850000005488753880488580258_);stroke-width:0.25;" d="
			M5.9,15.2L7.4,13l0.2,2.8c0,0.7-0.6,1.2-1.2,1C5.7,16.6,5.5,15.8,5.9,15.2z"/>
		
			<linearGradient id="SVGID_00000151513249965314096510000009790091777583811225_" gradientUnits="userSpaceOnUse" x1="-832.0746" y1="424.1874" x2="-843.3682" y2="390.2976" gradientTransform="matrix(1 0 0 -1 852 414.6306)">
			<stop  offset="0" style="stop-color:#138EFF"/>
			<stop  offset="1" style="stop-color:#00E0FF"/>
		</linearGradient>
		
			<linearGradient id="SVGID_00000029025645193721059130000015400681850202431401_" gradientUnits="userSpaceOnUse" x1="-839.4894" y1="401.9371" x2="-840.882" y2="397.7583" gradientTransform="matrix(1 0 0 -1 852 414.6306)">
			<stop  offset="0" style="stop-color:#FFFFFF"/>
			<stop  offset="1" style="stop-color:#FFFFFF;stop-opacity:0"/>
		</linearGradient>
		
			<path style="fill:url(#SVGID_00000151513249965314096510000009790091777583811225_);stroke:url(#SVGID_00000029025645193721059130000015400681850202431401_);stroke-width:0.25;" d="
			M10.7,15.2l1.6-2.2l0.2,2.8c0,0.7-0.6,1.2-1.2,1C10.6,16.6,10.3,15.8,10.7,15.2z"/>
		
			<linearGradient id="SVGID_00000001661733874209727230000007742321869057716106_" gradientUnits="userSpaceOnUse" x1="-827.2601" y1="424.1873" x2="-838.5538" y2="390.2975" gradientTransform="matrix(1 0 0 -1 852 414.6306)">
			<stop  offset="0" style="stop-color:#138EFF"/>
			<stop  offset="1" style="stop-color:#00E0FF"/>
		</linearGradient>
		
			<linearGradient id="SVGID_00000051379496998833952900000015257787163680927360_" gradientUnits="userSpaceOnUse" x1="-834.675" y1="401.937" x2="-836.066" y2="397.7628" gradientTransform="matrix(1 0 0 -1 852 414.6306)">
			<stop  offset="0" style="stop-color:#FFFFFF"/>
			<stop  offset="1" style="stop-color:#FFFFFF;stop-opacity:0"/>
		</linearGradient>
		
			<path style="fill:url(#SVGID_00000001661733874209727230000007742321869057716106_);stroke:url(#SVGID_00000051379496998833952900000015257787163680927360_);stroke-width:0.25;" d="
			M15.5,15.2l1.6-2.2l0.2,2.8c0,0.7-0.6,1.2-1.2,1C15.4,16.6,15.1,15.8,15.5,15.2z"/>
	</g>
	<g>
		
			<linearGradient id="SVGID_00000089536820374387838320000012624896643000967073_" gradientUnits="userSpaceOnUse" x1="-835.742" y1="421.0576" x2="-847.0357" y2="387.1678" gradientTransform="matrix(1 0 0 -1 852 414.6306)">
			<stop  offset="0" style="stop-color:#138EFF"/>
			<stop  offset="1" style="stop-color:#00E0FF"/>
		</linearGradient>
		
			<linearGradient id="SVGID_00000086659793857568289490000000280933692640627082_" gradientUnits="userSpaceOnUse" x1="-843.1567" y1="398.8079" x2="-844.5477" y2="394.6336" gradientTransform="matrix(1 0 0 -1 852 414.6306)">
			<stop  offset="0" style="stop-color:#FFFFFF"/>
			<stop  offset="1" style="stop-color:#FFFFFF;stop-opacity:0"/>
		</linearGradient>
		
			<path style="fill:url(#SVGID_00000089536820374387838320000012624896643000967073_);stroke:url(#SVGID_00000086659793857568289490000000280933692640627082_);stroke-width:0.25;" d="
			M7,18.3l1.6-2.2l0.2,2.8c0,0.7-0.6,1.2-1.2,1C6.9,19.7,6.6,18.9,7,18.3z"/>
		
			<linearGradient id="SVGID_00000083056982113610748030000013843888233434039472_" gradientUnits="userSpaceOnUse" x1="-830.301" y1="421.0575" x2="-841.5947" y2="387.1677" gradientTransform="matrix(1 0 0 -1 852 414.6306)">
			<stop  offset="0" style="stop-color:#138EFF"/>
			<stop  offset="1" style="stop-color:#00E0FF"/>
		</linearGradient>
		
			<linearGradient id="SVGID_00000000209254721557516950000015050958078715789457_" gradientUnits="userSpaceOnUse" x1="-837.7156" y1="398.8079" x2="-839.107" y2="394.6326" gradientTransform="matrix(1 0 0 -1 852 414.6306)">
			<stop  offset="0" style="stop-color:#FFFFFF"/>
			<stop  offset="1" style="stop-color:#FFFFFF;stop-opacity:0"/>
		</linearGradient>
		
			<path style="fill:url(#SVGID_00000083056982113610748030000013843888233434039472_);stroke:url(#SVGID_00000000209254721557516950000015050958078715789457_);stroke-width:0.25;" d="
			M12.5,18.3l1.6-2.2l0.2,2.8c0,0.7-0.6,1.2-1.2,1C12.3,19.7,12.1,18.9,12.5,18.3z"/>
	</g>
</g>
</svg>
