<?xml version="1.0" encoding="utf-8"?>
<!-- Generator: $$$/GeneralStr/196=Adobe Illustrator 27.6.0, SVG Export Plug-In . SVG Version: 6.00 Build 0)  -->
<svg version="1.1" xmlns="http://www.w3.org/2000/svg" xmlns:xlink="http://www.w3.org/1999/xlink" x="0px" y="0px"
	 viewBox="0 0 25 20" style="enable-background:new 0 0 25 20;" xml:space="preserve">
<style type="text/css">
	.st0{display:none;}
	.st1{display:inline;stroke:#000000;stroke-miterlimit:10;}
	.st2{fill-rule:evenodd;clip-rule:evenodd;fill:url(#SVGID_1_);}
	.st3{fill-rule:evenodd;clip-rule:evenodd;fill:#FFFFFF;filter:url(#Adobe_OpacityMaskFilter);}
	
		.st4{mask:url(#path-1-inside-1_5_92_00000147200003259958336240000012180529496308095418_);fill:url(#SVGID_00000125589606513081990240000003562047468379794350_);}
	.st5{fill-rule:evenodd;clip-rule:evenodd;fill:url(#SVGID_00000177448133532536482360000004727553481722061725_);}
	
		.st6{fill-rule:evenodd;clip-rule:evenodd;fill:#FFFFFF;filter:url(#Adobe_OpacityMaskFilter_00000067923251067754595180000009785719096212938649_);}
	
		.st7{mask:url(#path-3-inside-2_5_92_00000126318820436006004390000017495397610203004095_);fill:url(#SVGID_00000181769047000040161410000010507210512946715045_);}
	
		.st8{fill:url(#SVGID_00000143611932859795863990000009342041536828226235_);stroke:url(#SVGID_00000042728269126734196510000009285243475601145510_);stroke-width:0.25;}
	
		.st9{fill:url(#SVGID_00000012440882838302762450000004304458295042420902_);stroke:url(#SVGID_00000069398652328844124940000016178846988507798673_);stroke-width:0.25;}
	
		.st10{fill:url(#SVGID_00000140004318624749940430000002409745718116717994_);stroke:url(#SVGID_00000120519106570788648350000005386285040924356776_);stroke-width:0.25;}
	
		.st11{fill:url(#SVGID_00000116193473257196648020000008682319088934939817_);stroke:url(#SVGID_00000127741410698978115340000018384068418249473677_);stroke-width:0.25;}
	
		.st12{fill:url(#SVGID_00000074406750883481234950000001837741881206341773_);stroke:url(#SVGID_00000152984940665396825150000008172735870553567129_);stroke-width:0.25;}
</style>
<g id="Calque_2" class="st0">
	<rect x="-3" y="-1.5" class="st1" width="33" height="41"/>
</g>
<g id="Calque_1">
	<g>
		
			<linearGradient id="SVGID_1_" gradientUnits="userSpaceOnUse" x1="-841.7459" y1="415.1848" x2="-841.7459" y2="397.6628" gradientTransform="matrix(1 0 0 -1 852 414.6306)">
			<stop  offset="0" style="stop-color:#FFFFFF"/>
			<stop  offset="1" style="stop-color:#FFFFFF;stop-opacity:0"/>
		</linearGradient>
		<path shape-rendering="crispEdges" class="st2" d="M15.4,15.3C15.4,15.3,15.4,15.3,15.4,15.3c1.7,0,3-1.4,3-3.2
			c0-1.8-1.3-3.2-2.9-3.2c0,0,0,0,0,0v0h-0.8c0-0.2,0-0.4,0-0.7c0-2.7-2-4.9-4.5-4.9c-2.5,0-4.5,2.2-4.5,4.9c0,0.3,0,0.5,0.1,0.8
			C5.5,8.9,5.3,8.9,5.1,8.9c-1.6,0-2.9,1.4-2.9,3.2c0,1.8,1.3,3.2,2.9,3.2c0,0,0,0,0,0l0,0L15.4,15.3L15.4,15.3z"/>
		<defs>
			<filter id="Adobe_OpacityMaskFilter" filterUnits="userSpaceOnUse" x="0.5" y="1.6" width="19.5" height="15.3">
				<feColorMatrix  type="matrix" values="1 0 0 0 0  0 1 0 0 0  0 0 1 0 0  0 0 0 1 0"/>
			</filter>
		</defs>
		
			<mask maskUnits="userSpaceOnUse" x="0.5" y="1.6" width="19.5" height="15.3" id="path-1-inside-1_5_92_00000147200003259958336240000012180529496308095418_">
			<path class="st3" d="M15.4,15.3C15.4,15.3,15.4,15.3,15.4,15.3c1.7,0,3-1.4,3-3.2c0-1.8-1.3-3.2-2.9-3.2c0,0,0,0,0,0v0h-0.8
				c0-0.2,0-0.4,0-0.7c0-2.7-2-4.9-4.5-4.9c-2.5,0-4.5,2.2-4.5,4.9c0,0.3,0,0.5,0.1,0.8C5.5,8.9,5.3,8.9,5.1,8.9
				c-1.6,0-2.9,1.4-2.9,3.2c0,1.8,1.3,3.2,2.9,3.2c0,0,0,0,0,0l0,0L15.4,15.3L15.4,15.3z"/>
		</mask>
		
			<linearGradient id="SVGID_00000002343504184589138300000013966509251758951057_" gradientUnits="userSpaceOnUse" x1="-841.7459" y1="411.3449" x2="-841.7459" y2="399.3404" gradientTransform="matrix(1 0 0 -1 852 414.6306)">
			<stop  offset="0" style="stop-color:#FFFFFF"/>
			<stop  offset="1" style="stop-color:#FFFFFF;stop-opacity:0"/>
		</linearGradient>
		
			<path style="mask:url(#path-1-inside-1_5_92_00000147200003259958336240000012180529496308095418_);fill:url(#SVGID_00000002343504184589138300000013966509251758951057_);" d="
			M15.4,15.3l0-1.7c-0.4,0-0.9,0.2-1.2,0.5c-0.3,0.3-0.5,0.7-0.5,1.2H15.4z M15.4,8.9h-1.7c0,0.4,0.2,0.9,0.5,1.2
			c0.3,0.3,0.7,0.5,1.2,0.5L15.4,8.9z M15.4,8.9H17c0-0.9-0.7-1.7-1.7-1.7V8.9z M14.6,8.9L13,8.7c-0.1,0.5,0.1,0.9,0.4,1.3
			c0.3,0.4,0.8,0.6,1.2,0.6V8.9z M5.7,9l-0.4,1.6c0.5,0.1,1.1,0,1.5-0.4c0.4-0.4,0.6-0.9,0.5-1.5L5.7,9z M5.1,15.3l1.3,1
			c0.4-0.5,0.4-1.2,0.1-1.7c-0.3-0.6-0.9-0.9-1.5-0.9L5.1,15.3z M5.1,15.3l-1.3-1c-0.4,0.5-0.4,1.2-0.1,1.7c0.3,0.6,0.9,0.9,1.5,0.9
			V15.3z M15.4,15.3v1.7c0.9,0,1.7-0.7,1.7-1.7H15.4z M15.4,16.9C15.4,16.9,15.4,16.9,15.4,16.9l0.1-3.3c0,0,0,0,0,0L15.4,16.9z
			 M15.4,16.9c2.7,0,4.6-2.3,4.6-4.9h-3.3c0,1-0.7,1.6-1.3,1.6V16.9z M20,12.1c0-2.5-1.9-4.9-4.6-4.9v3.3c0.6,0,1.3,0.5,1.3,1.6H20z
			 M15.4,7.2C15.4,7.2,15.4,7.2,15.4,7.2l0,3.3c0,0,0,0,0,0V7.2z M13.7,8.9L13.7,8.9l3.3,0v0H13.7z M14.6,10.5h0.8V7.2h-0.8V10.5z
			 M16.3,9.1c0-0.3,0.1-0.6,0.1-0.9H13c0,0.2,0,0.3,0,0.5L16.3,9.1z M16.3,8.2c0-3.5-2.6-6.6-6.1-6.6v3.3c1.4,0,2.8,1.3,2.8,3.3
			H16.3z M10.2,1.6C6.7,1.6,4,4.7,4,8.2h3.3c0-1.9,1.4-3.3,2.8-3.3V1.6z M4,8.2c0,0.3,0,0.7,0.1,1l3.3-0.5c0-0.2,0-0.3,0-0.5H4z
			 M6.2,7.4C5.8,7.3,5.4,7.2,5.1,7.2v3.3c0.1,0,0.2,0,0.3,0L6.2,7.4z M5.1,7.2c-2.7,0-4.6,2.3-4.6,4.9h3.3c0-1,0.7-1.6,1.3-1.6V7.2z
			 M0.5,12.1c0,2.5,1.9,4.9,4.6,4.9v-3.3c-0.6,0-1.3-0.5-1.3-1.6H0.5z M5.1,16.9C5.1,16.9,5.1,16.9,5.1,16.9l0-3.3c0,0,0,0,0,0V16.9
			z M6.5,16.3L6.5,16.3l-2.7-1.9l0,0L6.5,16.3z M15.4,13.6H5.1v3.3h10.3V13.6z M13.7,15.3L13.7,15.3l3.3,0v0H13.7z"/>
	</g>
	<g>
		
			<linearGradient id="SVGID_00000126312066000673685460000009790363693426517175_" gradientUnits="userSpaceOnUse" x1="-835.0082" y1="411.084" x2="-835.0082" y2="401.6891" gradientTransform="matrix(1 0 0 -1 852 414.6306)">
			<stop  offset="0" style="stop-color:#FFFFFF"/>
			<stop  offset="1" style="stop-color:#FFFFFF;stop-opacity:0"/>
		</linearGradient>
		
			<path shape-rendering="crispEdges" style="fill-rule:evenodd;clip-rule:evenodd;fill:url(#SVGID_00000126312066000673685460000009790363693426517175_);" d="
			M20.7,12C20.7,12,20.7,12,20.7,12c1.2,0,2.1-1,2.1-2.3c0-1.3-0.9-2.3-2.1-2.3c0,0,0,0,0,0v0h-0.5c0-0.2,0-0.3,0-0.5
			c0-2-1.5-3.6-3.2-3.6c-1.8,0-3.2,1.6-3.2,3.6c0,0.2,0,0.4,0,0.5c-0.2,0-0.3-0.1-0.5-0.1c-1.2,0-2.1,1-2.1,2.3
			c0,1.3,0.9,2.3,2.1,2.3c0,0,0,0,0,0l0,0L20.7,12L20.7,12z"/>
		<defs>
			
				<filter id="Adobe_OpacityMaskFilter_00000150084839181348064290000000300336656134167979_" filterUnits="userSpaceOnUse" x="9.5" y="1.6" width="15" height="12">
				<feColorMatrix  type="matrix" values="1 0 0 0 0  0 1 0 0 0  0 0 1 0 0  0 0 0 1 0"/>
			</filter>
		</defs>
		
			<mask maskUnits="userSpaceOnUse" x="9.5" y="1.6" width="15" height="12" id="path-3-inside-2_5_92_00000126318820436006004390000017495397610203004095_">
			
				<path style="fill-rule:evenodd;clip-rule:evenodd;fill:#FFFFFF;filter:url(#Adobe_OpacityMaskFilter_00000150084839181348064290000000300336656134167979_);" d="
				M20.7,12C20.7,12,20.7,12,20.7,12c1.2,0,2.1-1,2.1-2.3c0-1.3-0.9-2.3-2.1-2.3c0,0,0,0,0,0v0h-0.5c0-0.2,0-0.3,0-0.5
				c0-2-1.5-3.6-3.2-3.6c-1.8,0-3.2,1.6-3.2,3.6c0,0.2,0,0.4,0,0.5c-0.2,0-0.3-0.1-0.5-0.1c-1.2,0-2.1,1-2.1,2.3
				c0,1.3,0.9,2.3,2.1,2.3c0,0,0,0,0,0l0,0L20.7,12L20.7,12z"/>
		</mask>
		
			<linearGradient id="SVGID_00000030468715507802414570000009273320021492305311_" gradientUnits="userSpaceOnUse" x1="-835.0082" y1="411.3449" x2="-835.0082" y2="402.6694" gradientTransform="matrix(1 0 0 -1 852 414.6306)">
			<stop  offset="0" style="stop-color:#FFFFFF"/>
			<stop  offset="1" style="stop-color:#FFFFFF;stop-opacity:0"/>
		</linearGradient>
		
			<path style="mask:url(#path-3-inside-2_5_92_00000126318820436006004390000017495397610203004095_);fill:url(#SVGID_00000030468715507802414570000009273320021492305311_);" d="
			M20.7,12l0-1.7c-0.4,0-0.9,0.2-1.2,0.5c-0.3,0.3-0.5,0.7-0.5,1.2H20.7z M20.7,7.3h-1.7c0,0.4,0.2,0.9,0.5,1.2
			C19.9,8.8,20.3,9,20.7,9L20.7,7.3z M20.7,7.3h1.7c0-0.9-0.7-1.7-1.7-1.7V7.3z M20.2,7.3l-1.6-0.2c-0.1,0.5,0.1,0.9,0.4,1.3
			C19.2,8.8,19.7,9,20.2,9V7.3z M13.7,7.4L13.3,9c0.5,0.1,1.1,0,1.5-0.4c0.4-0.4,0.6-0.9,0.5-1.5L13.7,7.4z M13.3,12l1.3,1
			c0.4-0.5,0.4-1.2,0.1-1.7c-0.3-0.6-0.9-0.9-1.5-0.9L13.3,12z M13.3,12l-1.3-1c-0.4,0.5-0.4,1.2-0.1,1.7c0.3,0.6,0.9,0.9,1.5,0.9
			V12z M20.7,12v1.7c0.9,0,1.7-0.7,1.7-1.7H20.7z M20.7,13.6C20.7,13.6,20.7,13.6,20.7,13.6l0-3.3c0,0,0,0,0,0L20.7,13.6z
			 M20.7,13.6c2.2,0,3.8-1.9,3.8-4h-3.3c0,0.2-0.1,0.4-0.2,0.5c-0.1,0.1-0.2,0.1-0.3,0.1V13.6z M24.5,9.6c0-2-1.5-4-3.8-4V9
			c0.1,0,0.2,0,0.3,0.1c0.1,0.1,0.2,0.3,0.2,0.5H24.5z M20.7,5.7C20.7,5.7,20.7,5.7,20.7,5.7l0,3.3c0,0,0,0,0,0V5.7z M19.1,7.3
			L19.1,7.3l3.3,0v0H19.1z M20.2,9h0.5V5.7h-0.5V9z M21.8,7.5c0-0.2,0-0.5,0-0.7h-3.3c0,0.1,0,0.2,0,0.3L21.8,7.5z M21.8,6.8
			c0-2.7-2.1-5.2-4.9-5.2v3.3c0.7,0,1.6,0.7,1.6,1.9H21.8z M16.9,1.6c-2.8,0-4.9,2.5-4.9,5.2h3.3c0-1.2,0.9-1.9,1.6-1.9V1.6z
			 M12,6.8c0,0.3,0,0.5,0.1,0.8l3.3-0.5c0-0.1,0-0.2,0-0.3H12z M14.1,5.8c-0.3-0.1-0.6-0.1-0.9-0.1V9c0,0,0,0,0.1,0L14.1,5.8z
			 M13.3,5.7c-2.2,0-3.8,1.9-3.8,4h3.3c0-0.2,0.1-0.4,0.2-0.5C13.1,9,13.2,9,13.3,9V5.7z M9.5,9.6c0,2,1.5,4,3.8,4v-3.3
			c-0.1,0-0.2,0-0.3-0.1c-0.1-0.1-0.2-0.3-0.2-0.5H9.5z M13.3,13.6C13.3,13.6,13.3,13.6,13.3,13.6l0-3.3c0,0,0,0,0,0V13.6z
			 M14.6,12.9L14.6,12.9L11.9,11l0,0L14.6,12.9z M20.7,10.3h-7.4v3.3h7.4V10.3z M19.1,12L19.1,12l3.3,0v0H19.1z"/>
	</g>
	<g>
		
			<linearGradient id="SVGID_00000120552349178798722210000006273233138273528252_" gradientUnits="userSpaceOnUse" x1="-844.71" y1="404.1422" x2="-847.4695" y2="395.8614" gradientTransform="matrix(1 0 0 -1 852 414.6306)">
			<stop  offset="0" style="stop-color:#138EFF"/>
			<stop  offset="1" style="stop-color:#00E0FF"/>
		</linearGradient>
		
			<linearGradient id="SVGID_00000146480994209623124180000003219117580460123316_" gradientUnits="userSpaceOnUse" x1="-846.4327" y1="398.9726" x2="-846.8919" y2="397.5948" gradientTransform="matrix(1 0 0 -1 852 414.6306)">
			<stop  offset="0" style="stop-color:#FFFFFF"/>
			<stop  offset="1" style="stop-color:#FFFFFF;stop-opacity:0"/>
		</linearGradient>
		
			<path style="fill:url(#SVGID_00000120552349178798722210000006273233138273528252_);stroke:url(#SVGID_00000146480994209623124180000003219117580460123316_);stroke-width:0.25;" d="
			M5,16.5L5.4,16l0,0.7c0,0.2-0.1,0.3-0.3,0.2C5,16.9,4.9,16.7,5,16.5z"/>
		
			<linearGradient id="SVGID_00000066489889991755602560000003948914737259968432_" gradientUnits="userSpaceOnUse" x1="-839.4661" y1="404.1422" x2="-842.2256" y2="395.8614" gradientTransform="matrix(1 0 0 -1 852 414.6306)">
			<stop  offset="0" style="stop-color:#138EFF"/>
			<stop  offset="1" style="stop-color:#00E0FF"/>
		</linearGradient>
		
			<linearGradient id="SVGID_00000068653305987272513700000005241592267252202634_" gradientUnits="userSpaceOnUse" x1="-841.1888" y1="398.9726" x2="-841.6479" y2="397.5948" gradientTransform="matrix(1 0 0 -1 852 414.6306)">
			<stop  offset="0" style="stop-color:#FFFFFF"/>
			<stop  offset="1" style="stop-color:#FFFFFF;stop-opacity:0"/>
		</linearGradient>
		
			<path style="fill:url(#SVGID_00000066489889991755602560000003948914737259968432_);stroke:url(#SVGID_00000068653305987272513700000005241592267252202634_);stroke-width:0.25;" d="
			M10.3,16.5l0.4-0.5l0,0.7c0,0.2-0.1,0.3-0.3,0.2C10.2,16.9,10.2,16.7,10.3,16.5z"/>
		
			<linearGradient id="SVGID_00000008844600101929402770000007041366768702771109_" gradientUnits="userSpaceOnUse" x1="-835.222" y1="404.1422" x2="-837.9816" y2="395.8614" gradientTransform="matrix(1 0 0 -1 852 414.6306)">
			<stop  offset="0" style="stop-color:#138EFF"/>
			<stop  offset="1" style="stop-color:#00E0FF"/>
		</linearGradient>
		
			<linearGradient id="SVGID_00000003805993061811027060000003457801120949216907_" gradientUnits="userSpaceOnUse" x1="-836.9448" y1="398.9727" x2="-837.4034" y2="397.5963" gradientTransform="matrix(1 0 0 -1 852 414.6306)">
			<stop  offset="0" style="stop-color:#FFFFFF"/>
			<stop  offset="1" style="stop-color:#FFFFFF;stop-opacity:0"/>
		</linearGradient>
		
			<path style="fill:url(#SVGID_00000008844600101929402770000007041366768702771109_);stroke:url(#SVGID_00000003805993061811027060000003457801120949216907_);stroke-width:0.25;" d="
			M14.5,16.5l0.4-0.5l0,0.7c0,0.2-0.1,0.3-0.3,0.2C14.5,16.9,14.4,16.7,14.5,16.5z"/>
	</g>
	<g>
		
			<linearGradient id="SVGID_00000090273332977725294990000009452509258681114542_" gradientUnits="userSpaceOnUse" x1="-842.2711" y1="402.1259" x2="-845.0306" y2="393.845" gradientTransform="matrix(1 0 0 -1 852 414.6306)">
			<stop  offset="0" style="stop-color:#138EFF"/>
			<stop  offset="1" style="stop-color:#00E0FF"/>
		</linearGradient>
		
			<linearGradient id="SVGID_00000003826579391727574520000006113322824054560932_" gradientUnits="userSpaceOnUse" x1="-843.9937" y1="396.9565" x2="-844.4524" y2="395.5801" gradientTransform="matrix(1 0 0 -1 852 414.6306)">
			<stop  offset="0" style="stop-color:#FFFFFF"/>
			<stop  offset="1" style="stop-color:#FFFFFF;stop-opacity:0"/>
		</linearGradient>
		
			<path style="fill:url(#SVGID_00000090273332977725294990000009452509258681114542_);stroke:url(#SVGID_00000003826579391727574520000006113322824054560932_);stroke-width:0.25;" d="
			M7.5,18.6L7.9,18l0,0.7c0,0.2-0.1,0.3-0.3,0.2C7.4,18.9,7.4,18.7,7.5,18.6z"/>
		
			<linearGradient id="SVGID_00000088828790480405198230000010625894424579744150_" gradientUnits="userSpaceOnUse" x1="-837.461" y1="402.1259" x2="-840.2206" y2="393.845" gradientTransform="matrix(1 0 0 -1 852 414.6306)">
			<stop  offset="0" style="stop-color:#138EFF"/>
			<stop  offset="1" style="stop-color:#00E0FF"/>
		</linearGradient>
		
			<linearGradient id="SVGID_00000181069386274495362300000012856846958264573626_" gradientUnits="userSpaceOnUse" x1="-839.1837" y1="396.9565" x2="-839.6425" y2="395.5798" gradientTransform="matrix(1 0 0 -1 852 414.6306)">
			<stop  offset="0" style="stop-color:#FFFFFF"/>
			<stop  offset="1" style="stop-color:#FFFFFF;stop-opacity:0"/>
		</linearGradient>
		
			<path style="fill:url(#SVGID_00000088828790480405198230000010625894424579744150_);stroke:url(#SVGID_00000181069386274495362300000012856846958264573626_);stroke-width:0.25;" d="
			M12.3,18.6l0.4-0.5l0,0.7c0,0.2-0.1,0.3-0.3,0.2C12.3,18.9,12.2,18.7,12.3,18.6z"/>
	</g>
</g>
</svg>
