<svg width="25" height="25" viewBox="0 0 25 25" fill="none" xmlns="http://www.w3.org/2000/svg">
<g id="icon-park-solid:local-two">
<g id="Mask group">
<mask id="mask0_19_554" style="mask-type:luminance" maskUnits="userSpaceOnUse" x="2" y="0" width="21" height="25">
<g id="Group">
<g id="Group_2">
<path id="Vector" d="M12.5 22.9167C12.5 22.9167 20.3125 16.6667 20.3125 9.89584C20.3125 5.58126 16.8146 2.08334 12.5 2.08334C8.18542 2.08334 4.6875 5.58126 4.6875 9.89584C4.6875 16.6667 12.5 22.9167 12.5 22.9167Z" fill="white" stroke="white" stroke-width="4" stroke-linejoin="round"/>
<path id="Vector_2" d="M12.5 13.0208C12.9104 13.0208 13.3167 12.94 13.6959 12.783C14.075 12.6259 14.4195 12.3957 14.7097 12.1056C14.9999 11.8154 15.2301 11.4709 15.3871 11.0917C15.5442 10.7126 15.625 10.3062 15.625 9.89584C15.625 9.48546 15.5442 9.0791 15.3871 8.69996C15.2301 8.32082 14.9999 7.97632 14.7097 7.68613C14.4195 7.39595 14.075 7.16577 13.6959 7.00872C13.3167 6.85167 12.9104 6.77084 12.5 6.77084C11.6712 6.77084 10.8763 7.10008 10.2903 7.68613C9.70424 8.27219 9.375 9.06704 9.375 9.89584C9.375 10.7246 9.70424 11.5195 10.2903 12.1056C10.8763 12.6916 11.6712 13.0208 12.5 13.0208Z" fill="black" stroke="black" stroke-width="4" stroke-linejoin="round"/>
</g>
</g>
</mask>
<g mask="url(#mask0_19_554)">
<path id="Vector_3" d="M0 0H25V25H0V0Z" fill="white"/>
</g>
</g>
</g>
</svg>
