<?xml version="1.0" encoding="utf-8"?>
<!-- Generator: $$$/GeneralStr/196=Adobe Illustrator 27.6.0, SVG Export Plug-In . SVG Version: 6.00 Build 0)  -->
<svg version="1.1" xmlns="http://www.w3.org/2000/svg" xmlns:xlink="http://www.w3.org/1999/xlink" x="0px" y="0px"
	 viewBox="0 0 30 30" style="enable-background:new 0 0 30 30;" xml:space="preserve">
<style type="text/css">
	.st0{display:none;}
	.st1{display:inline;}
	.st2{fill:#FFC701;fill-opacity:0.35;}
	.st3{fill:url(#SVGID_1_);stroke:url(#SVGID_00000009555081293581314880000016569879785355175848_);stroke-width:2;}
	.st4{fill-rule:evenodd;clip-rule:evenodd;fill:url(#SVGID_00000096782317447610620500000017510031775622963104_);}
	.st5{fill-rule:evenodd;clip-rule:evenodd;fill:#FFFFFF;filter:url(#Adobe_OpacityMaskFilter);}
	
		.st6{mask:url(#path-1-inside-1_34_1120_00000124144887191606585630000013910473347130966695_);fill:url(#SVGID_00000010310412974373119690000013591006493454400652_);}
	.st7{fill:url(#SVGID_00000152237455370806729940000003820614847062959012_);}
	.st8{fill:#FFFFFF;filter:url(#Adobe_OpacityMaskFilter_00000013192532555573094500000006438263861930345354_);}
	
		.st9{mask:url(#path-3-inside-2_34_1120_00000159460253971488864520000008752651479130153406_);fill:url(#SVGID_00000149384211181994936570000006816228239644762027_);}
	.st10{fill:url(#SVGID_00000099650948186910683530000003007961220823484064_);}
	.st11{fill:none;stroke:url(#SVGID_00000148643886129698079810000002656253785384153989_);stroke-width:2;}
	.st12{fill:url(#SVGID_00000132780589190747109500000001270508411856319150_);}
	.st13{fill:none;stroke:url(#SVGID_00000119102161662799619230000010814177003118092471_);stroke-width:2;}
	.st14{fill:url(#SVGID_00000075145139989867417740000005978257748850851990_);}
	.st15{fill:none;stroke:url(#SVGID_00000083775042990955596860000004211658684365176222_);stroke-width:2;}
</style>
<g id="Calque_1" class="st0">
	<g class="st1">
		<g>
			<circle class="st2" cx="15" cy="15" r="15"/>
		</g>
		
			<linearGradient id="SVGID_1_" gradientUnits="userSpaceOnUse" x1="-837" y1="423.6465" x2="-837" y2="394.6306" gradientTransform="matrix(1 0 0 -1 852 424.6306)">
			<stop  offset="0" style="stop-color:#FFE600"/>
			<stop  offset="1" style="stop-color:#FF7A00"/>
		</linearGradient>
		
			<linearGradient id="SVGID_00000068641633481207837590000016987950924527201679_" gradientUnits="userSpaceOnUse" x1="-837" y1="423.6468" x2="-837" y2="394.6304" gradientTransform="matrix(1 0 0 -1 852 424.6306)">
			<stop  offset="0" style="stop-color:#FFFFFF"/>
			<stop  offset="1" style="stop-color:#FFFFFF;stop-opacity:0"/>
		</linearGradient>
		
			<circle style="fill:url(#SVGID_1_);stroke:url(#SVGID_00000068641633481207837590000016987950924527201679_);stroke-width:2;" cx="15" cy="15.5" r="13.5"/>
	</g>
</g>
<g id="Calque_2">
	<g>
		<g>
			
				<linearGradient id="SVGID_00000070081491370547605410000001315816118530918810_" gradientUnits="userSpaceOnUse" x1="-844.9346" y1="419.6291" x2="-835.3584" y2="397.8876" gradientTransform="matrix(1 0 0 -1 852 424.6306)">
				<stop  offset="1.000000e-04" style="stop-color:#D6C2FF"/>
				<stop  offset="1" style="stop-color:#7E2FFF"/>
			</linearGradient>
			<path style="fill-rule:evenodd;clip-rule:evenodd;fill:url(#SVGID_00000070081491370547605410000001315816118530918810_);" d="
				M10.1,3.8c1-0.2,1.8,1,1.4,1.8c-1.3,2.8-0.9,6.2,1.3,9c2.5,3.2,6.8,4.8,10.8,4.4c1.1-0.1,2.1,0.8,1.6,1.6c-0.9,1.5-2.3,2.8-4,3.7
				c-5.8,3.3-14,1.7-18.1-3.6C-1.2,15.5,0.1,8.6,6,5.3C7.3,4.6,8.7,4.1,10.1,3.8z"/>
			<defs>
				<filter id="Adobe_OpacityMaskFilter" filterUnits="userSpaceOnUse" x="-2" y="1.5" width="29.8" height="26.9">
					<feColorMatrix  type="matrix" values="1 0 0 0 0  0 1 0 0 0  0 0 1 0 0  0 0 0 1 0"/>
				</filter>
			</defs>
			
				<mask maskUnits="userSpaceOnUse" x="-2" y="1.5" width="29.8" height="26.9" id="path-1-inside-1_34_1120_00000124144887191606585630000013910473347130966695_">
				<path class="st5" d="M10.1,3.8c1-0.2,1.8,1,1.4,1.8c-1.3,2.8-0.9,6.2,1.3,9c2.5,3.2,6.8,4.8,10.8,4.4c1.1-0.1,2.1,0.8,1.6,1.6
					c-0.9,1.5-2.3,2.8-4,3.7c-5.8,3.3-14,1.7-18.1-3.6C-1.2,15.5,0.1,8.6,6,5.3C7.3,4.6,8.7,4.1,10.1,3.8z"/>
			</mask>
			
				<linearGradient id="SVGID_00000108295973324811311970000012175233379041309854_" gradientUnits="userSpaceOnUse" x1="-843.5724" y1="430.2376" x2="-838.3536" y2="402.9588" gradientTransform="matrix(1 0 0 -1 852 424.6306)">
				<stop  offset="0" style="stop-color:#FFFFFF"/>
				<stop  offset="1" style="stop-color:#FFFFFF;stop-opacity:0"/>
			</linearGradient>
			
				<path style="mask:url(#path-1-inside-1_34_1120_00000124144887191606585630000013910473347130966695_);fill:url(#SVGID_00000108295973324811311970000012175233379041309854_);" d="
				M12.7,14.7l2-1.2L12.7,14.7z M21.1,24.5l-1.5-2L21.1,24.5z M3,20.8l-2,1.2L3,20.8z M6,5.3l1.5,2L6,5.3z M23.5,19.1l-0.4-2.3
				L23.5,19.1z M25.1,20.7l-2.2-1.2L25.1,20.7z M11.5,5.7l-2.4-1L11.5,5.7z M14.8,13.5c-1.7-2.1-1.9-4.6-1-6.8l-4.7-2
				c-1.6,3.5-1.2,7.7,1.6,11.2L14.8,13.5z M23.1,16.8c-3.1,0.3-6.4-1-8.3-3.4l-4.1,2.5c3.1,4,8.4,5.9,13.3,5.5L23.1,16.8z
				 M22.8,19.5c-0.7,1.2-1.8,2.2-3.2,3l2.9,3.9c2.1-1.2,3.7-2.7,4.8-4.5L22.8,19.5z M19.6,22.5C14.9,25.2,8.3,23.8,5,19.6l-4.1,2.5
				c5,6.4,14.7,8.3,21.6,4.4L19.6,22.5z M5,19.6C1.7,15.4,2.7,9.9,7.4,7.3L4.5,3.3c-7,3.9-8.7,12.3-3.6,18.7L5,19.6z M7.4,7.3
				c1-0.6,2.2-1,3.3-1.2L9.4,1.6C7.7,1.9,6.1,2.5,4.5,3.3L7.4,7.3z M24,21.4c-0.3,0-0.6-0.1-0.9-0.3c-0.1-0.1-0.3-0.4-0.4-0.7
				c-0.1-0.3,0-0.6,0.1-0.9l4.5,2.5c0.9-1.4,0.4-2.9-0.6-3.9c-0.9-0.9-2.3-1.4-3.6-1.3L24,21.4z M13.8,6.7c0.5-1.1,0.3-2.4-0.4-3.4
				c-0.8-1.1-2.2-2-4-1.7l1.3,4.5c-0.3,0.1-0.6,0-1-0.1C9.5,5.8,9.3,5.6,9.2,5.5C9,5.2,9,4.9,9.1,4.7L13.8,6.7z"/>
		</g>
		<g>
			
				<linearGradient id="SVGID_00000115490575877604659910000010404545908245538981_" gradientUnits="userSpaceOnUse" x1="-834.5015" y1="421.6362" x2="-834.5015" y2="416.2315" gradientTransform="matrix(1 0 0 -1 852 424.6306)">
				<stop  offset="1.000000e-04" style="stop-color:#D6C2FF"/>
				<stop  offset="1" style="stop-color:#7E2FFF"/>
			</linearGradient>
			<path style="fill:url(#SVGID_00000115490575877604659910000010404545908245538981_);" d="M16.9,4.7c0.2-0.6,1-0.6,1.2,0l0,0
				c0.1,0.2,0.2,0.3,0.4,0.4l0,0c0.6,0.1,0.6,0.9,0,1.1l0,0c-0.2,0-0.3,0.2-0.4,0.4l0,0c-0.2,0.6-1,0.6-1.2,0l0,0
				c-0.1-0.2-0.2-0.3-0.4-0.4l0,0c-0.6-0.1-0.6-0.9,0-1.1l0,0C16.7,5.1,16.8,4.9,16.9,4.7L16.9,4.7z"/>
			<defs>
				
					<filter id="Adobe_OpacityMaskFilter_00000080916776283884684340000003756606424484797110_" filterUnits="userSpaceOnUse" x="13.6" y="1.9" width="7.7" height="7.6">
					<feColorMatrix  type="matrix" values="1 0 0 0 0  0 1 0 0 0  0 0 1 0 0  0 0 0 1 0"/>
				</filter>
			</defs>
			
				<mask maskUnits="userSpaceOnUse" x="13.6" y="1.9" width="7.7" height="7.6" id="path-3-inside-2_34_1120_00000159460253971488864520000008752651479130153406_">
				<path style="fill:#FFFFFF;filter:url(#Adobe_OpacityMaskFilter_00000080916776283884684340000003756606424484797110_);" d="
					M16.9,4.7c0.2-0.6,1-0.6,1.2,0l0,0c0.1,0.2,0.2,0.3,0.4,0.4l0,0c0.6,0.1,0.6,0.9,0,1.1l0,0c-0.2,0-0.3,0.2-0.4,0.4l0,0
					c-0.2,0.6-1,0.6-1.2,0l0,0c-0.1-0.2-0.2-0.3-0.4-0.4l0,0c-0.6-0.1-0.6-0.9,0-1.1l0,0C16.7,5.1,16.8,4.9,16.9,4.7L16.9,4.7z"/>
			</mask>
			
				<linearGradient id="SVGID_00000129911340222992956580000003349875966529782952_" gradientUnits="userSpaceOnUse" x1="-834.5015" y1="421.6839" x2="-834.5015" y2="418.3415" gradientTransform="matrix(1 0 0 -1 852 424.6306)">
				<stop  offset="0" style="stop-color:#FFFFFF"/>
				<stop  offset="1" style="stop-color:#FFFFFF;stop-opacity:0"/>
			</linearGradient>
			
				<path style="mask:url(#path-3-inside-2_34_1120_00000159460253971488864520000008752651479130153406_);fill:url(#SVGID_00000129911340222992956580000003349875966529782952_);" d="
				M16.5,5.1l-0.6-2.3L16.5,5.1z M16.9,6.6l2.3-0.8L16.9,6.6z M18.1,6.6l-2.3-0.8L18.1,6.6z M16.9,6.6l-2.3,0.8L16.9,6.6z M18.1,6.6
				l-2.3-0.8L18.1,6.6z M18.5,6.2l-0.6-2.3L18.5,6.2z M18.1,4.7L20.4,4L18.1,4.7z M15.8,5.5L15.8,5.5L20.4,4l0,0L15.8,5.5z
				 M15.8,5.8L15.8,5.8l4.6,1.6l0,0L15.8,5.8z M19.2,5.8L19.2,5.8l-4.6,1.5l0,0L19.2,5.8z M19.2,5.5L19.2,5.5l-4.6-1.6l0,0L19.2,5.5
				z M17.1,7.5c1-0.2,1.8-1,2.1-1.9L14.6,4c0.2-0.6,0.7-1,1.3-1.2L17.1,7.5z M17.1,3.8C19,4.3,19,7,17.1,7.5l-1.2-4.7
				c-3,0.8-3,5,0,5.8L17.1,3.8z M19.2,5.8c-0.3-1-1.1-1.7-2.1-1.9l-1.2,4.7c-0.6-0.2-1.1-0.6-1.3-1.2L19.2,5.8z M15.8,5.8
				c0.6-1.6,2.8-1.6,3.4,0l-4.6,1.6c0.9,2.8,4.8,2.8,5.8,0L15.8,5.8z M17.9,3.8c-1,0.2-1.8,1-2.1,1.9l4.6,1.6
				c-0.2,0.6-0.7,1-1.3,1.2L17.9,3.8z M17.9,7.5C16,7,16,4.3,17.9,3.8l1.2,4.7c3-0.8,3-5,0-5.8L17.9,7.5z M15.8,5.5
				c0.3,1,1.1,1.7,2.1,1.9l1.2-4.7c0.6,0.2,1.1,0.6,1.3,1.2L15.8,5.5z M20.4,3.9c-0.9-2.8-4.8-2.8-5.8,0l4.6,1.6
				c-0.6,1.6-2.8,1.6-3.4,0L20.4,3.9z"/>
		</g>
		<g>
			
				<linearGradient id="SVGID_00000085240342766960204790000004196869286836936121_" gradientUnits="userSpaceOnUse" x1="-831.8439" y1="414.5724" x2="-831.8439" y2="407.461" gradientTransform="matrix(1 0 0 -1 852 424.6306)">
				<stop  offset="0" style="stop-color:#FFE600"/>
				<stop  offset="1" style="stop-color:#FF7A00"/>
			</linearGradient>
			<path style="fill:url(#SVGID_00000085240342766960204790000004196869286836936121_);" d="M19.4,12.4c0.3-0.8,1.3-0.8,1.6,0l0,0.1
				c0.1,0.2,0.3,0.4,0.5,0.5l0,0c0.7,0.2,0.7,1.2,0,1.4l0,0c-0.2,0.1-0.4,0.2-0.5,0.5l0,0.1c-0.3,0.8-1.3,0.8-1.6,0l0-0.1
				c-0.1-0.2-0.3-0.4-0.5-0.5l0,0c-0.7-0.2-0.7-1.2,0-1.4l0,0C19.1,12.8,19.3,12.7,19.4,12.4L19.4,12.4z"/>
			
				<linearGradient id="SVGID_00000019637722434070984730000002725804532237616827_" gradientUnits="userSpaceOnUse" x1="-831.8446" y1="414.0148" x2="-831.8446" y2="410.3066" gradientTransform="matrix(1 0 0 -1 852 424.6306)">
				<stop  offset="0" style="stop-color:#FFFFFF"/>
				<stop  offset="1" style="stop-color:#FFFFFF;stop-opacity:0"/>
			</linearGradient>
			<path style="fill:none;stroke:url(#SVGID_00000019637722434070984730000002725804532237616827_);stroke-width:2;" d="M20,13.6
				c0.1-0.1,0.1-0.1,0.2-0.2c0.1,0.1,0.1,0.1,0.2,0.2c-0.1,0.1-0.1,0.1-0.2,0.2C20.1,13.7,20,13.7,20,13.6z"/>
		</g>
		<g>
			
				<linearGradient id="SVGID_00000071519507769208382910000009482999476476828837_" gradientUnits="userSpaceOnUse" x1="-823.2068" y1="416.0969" x2="-823.2068" y2="411.5455" gradientTransform="matrix(1 0 0 -1 852 424.6306)">
				<stop  offset="1.000000e-04" style="stop-color:#D6C2FF"/>
				<stop  offset="1" style="stop-color:#7E2FFF"/>
			</linearGradient>
			<path style="fill:url(#SVGID_00000071519507769208382910000009482999476476828837_);" d="M28.3,10c0.2-0.5,0.9-0.5,1,0l0,0
				c0.1,0.2,0.2,0.3,0.3,0.3l0,0c0.5,0.1,0.5,0.8,0,0.9l0,0c-0.2,0-0.3,0.2-0.3,0.3l0,0c-0.2,0.5-0.9,0.5-1,0l0,0
				c-0.1-0.2-0.2-0.3-0.3-0.3l0,0c-0.5-0.1-0.5-0.8,0-0.9l0,0C28.1,10.3,28.2,10.2,28.3,10L28.3,10z"/>
			
				<linearGradient id="SVGID_00000048469332152564612490000001723709750203099818_" gradientUnits="userSpaceOnUse" x1="-823.2069" y1="415.8444" x2="-823.2069" y2="413.3916" gradientTransform="matrix(1 0 0 -1 852 424.6306)">
				<stop  offset="0" style="stop-color:#FFFFFF"/>
				<stop  offset="1" style="stop-color:#FFFFFF;stop-opacity:0"/>
			</linearGradient>
			<path style="fill:none;stroke:url(#SVGID_00000048469332152564612490000001723709750203099818_);stroke-width:2;" d="M28.8,10.8
				c0,0,0-0.1,0-0.1c0,0,0,0,0,0C28.8,10.8,28.8,10.8,28.8,10.8C28.8,10.8,28.8,10.8,28.8,10.8z"/>
		</g>
		<g>
			
				<linearGradient id="SVGID_00000069374648883976747730000010439630583226141111_" gradientUnits="userSpaceOnUse" x1="-826.1966" y1="422.8216" x2="-826.1966" y2="418.2704" gradientTransform="matrix(1 0 0 -1 852 424.6306)">
				<stop  offset="0" style="stop-color:#FFE600"/>
				<stop  offset="1" style="stop-color:#FF7A00"/>
			</linearGradient>
			<path style="fill:url(#SVGID_00000069374648883976747730000010439630583226141111_);" d="M25.3,3.3c0.2-0.5,0.9-0.5,1,0l0,0
				c0.1,0.2,0.2,0.3,0.3,0.3l0,0c0.5,0.1,0.5,0.8,0,0.9l0,0c-0.2,0-0.3,0.2-0.3,0.3l0,0c-0.2,0.5-0.9,0.5-1,0l0,0
				c-0.1-0.2-0.2-0.3-0.3-0.3l0,0c-0.5-0.1-0.5-0.8,0-0.9l0,0C25.1,3.6,25.2,3.5,25.3,3.3L25.3,3.3z"/>
			
				<linearGradient id="SVGID_00000181781410136280731330000001247107556389845645_" gradientUnits="userSpaceOnUse" x1="-826.1966" y1="422.5293" x2="-826.1966" y2="420.0762" gradientTransform="matrix(1 0 0 -1 852 424.6306)">
				<stop  offset="0" style="stop-color:#FFFFFF"/>
				<stop  offset="1" style="stop-color:#FFFFFF;stop-opacity:0"/>
			</linearGradient>
			<path style="fill:none;stroke:url(#SVGID_00000181781410136280731330000001247107556389845645_);stroke-width:2;" d="M25.8,4.1
				c0,0,0-0.1,0-0.1c0,0,0,0,0,0C25.8,4.1,25.8,4.1,25.8,4.1C25.8,4.1,25.8,4.1,25.8,4.1z"/>
		</g>
	</g>
</g>
</svg>
