<svg width="25" height="25" viewBox="0 0 25 25" fill="none" xmlns="http://www.w3.org/2000/svg">
<g id="octicon:search-16">
<path id="Vector" d="M16.6875 18.3438C14.8037 19.806 12.4335 20.4953 10.0593 20.2716C7.68514 20.0478 5.48548 18.9276 3.90808 17.1392C2.33068 15.3507 1.49412 13.0284 1.56867 10.6448C1.64323 8.2613 2.6233 5.99577 4.30938 4.30938C5.99577 2.6233 8.2613 1.64323 10.6448 1.56867C13.0284 1.49412 15.3507 2.33068 17.1392 3.90808C18.9276 5.48548 20.0478 7.68514 20.2716 10.0593C20.4953 12.4335 19.806 14.8037 18.3438 16.6875L23.0938 21.4375C23.248 21.5807 23.3608 21.7629 23.4202 21.9649C23.4796 22.1668 23.4834 22.3811 23.4313 22.585C23.3791 22.789 23.2729 22.9751 23.1239 23.1237C22.9748 23.2724 22.7885 23.3781 22.5844 23.4297C22.3807 23.4819 22.1667 23.4783 21.9648 23.4192C21.763 23.36 21.5809 23.2476 21.4375 23.0938L16.6875 18.3438ZM17.9688 10.9375C17.9827 10.0056 17.8111 9.08031 17.4641 8.21535C17.1171 7.35039 16.6016 6.56306 15.9475 5.89916C15.2934 5.23526 14.5139 4.70805 13.6542 4.3482C12.7945 3.98834 11.8718 3.80302 10.9399 3.80302C10.0079 3.80302 9.08521 3.98834 8.22552 4.3482C7.36583 4.70805 6.58627 5.23526 5.9322 5.89916C5.27813 6.56306 4.7626 7.35039 4.4156 8.21535C4.0686 9.08031 3.89705 10.0056 3.91095 10.9375C3.93847 12.7835 4.69112 14.5446 6.00631 15.8404C7.32149 17.1361 9.09362 17.8624 10.9399 17.8624C12.7861 17.8624 14.5582 17.1361 15.8734 15.8404C17.1886 14.5446 17.9412 12.7835 17.9688 10.9375Z" fill="white"/>
</g>
</svg>
