<svg width="20" height="21" viewBox="0 0 20 21" fill="none" xmlns="http://www.w3.org/2000/svg">
<path d="M10.8316 2.20833C15.0425 2.62583 18.3316 6.17916 18.3316 10.5V11.3333H10.8316V16.3333C10.8316 16.7754 11.0072 17.1993 11.3198 17.5118C11.6324 17.8244 12.0563 18 12.4983 18C12.9403 18 13.3643 17.8244 13.6768 17.5118C13.9894 17.1993 14.165 16.7754 14.165 16.3333V15.5H15.8316V16.3333C15.8316 17.2174 15.4805 18.0652 14.8553 18.6904C14.2302 19.3155 13.3824 19.6667 12.4983 19.6667C11.6143 19.6667 10.7664 19.3155 10.1413 18.6904C9.51617 18.0652 9.16498 17.2174 9.16498 16.3333V11.3333H1.66498V10.5C1.66498 6.17916 4.95414 2.62583 9.16498 2.20833V2.16666C9.16498 1.94565 9.25278 1.73369 9.40906 1.57741C9.56534 1.42113 9.7773 1.33333 9.99831 1.33333C10.2193 1.33333 10.4313 1.42113 10.5876 1.57741C10.7438 1.73369 10.8316 1.94565 10.8316 2.16666V2.20833Z" fill="white"/>
</svg>
