<svg width="25" height="26" fill="none" xmlns="http://www.w3.org/2000/svg"><path d="M5.684 11.376h1.778m1.185 0h1.294m5.118 0h-1.562m-1.186 0H11.18m-1.886 0 2.532 6.25 2.425-6.25" stroke="#fff" stroke-linecap="round" stroke-linejoin="round"/><path d="m11.719 11.376-2.748 6.25-2.425-6.25" stroke="#fff" stroke-linecap="round" stroke-linejoin="round"/><path d="M20.878 16.171c1.455.216 1.778-2.909 1.778-4.202 0-2.533-2.802-1.293-3.717-.916-.216.107-.539.27-.917 0-.377-.27-.322-.916-.322-.916l.43-4.742c0-.484-.592-.807-1.023-.807l-4.365-.162s-.754 0-.538.808c.161.7 1.024 1.885.862 2.532-.216.7-1.617.97-2.21 1.078-3.34.485-2.909-2.856-2.855-4.095 0-.484-.377-.484-.862-.484l-3.987.268c-.485 0-.808.27-.808.809V20.32c0 .485.377.916.808.916h13.685c.485 0 .808-.43.808-.916v-3.61s.055-1.185.432-1.455c.484-.323 2.046.809 2.802.917h0Z" stroke="#fff" stroke-linecap="round" stroke-linejoin="round"/></svg>