<svg xmlns="http://www.w3.org/2000/svg" width="180" height="184" fill="none"><g filter="url(#a)"><mask id="d" fill="#fff"><path fill-rule="evenodd" d="M107.632 97.605h.195c9.234 0 16.72-7.486 16.72-16.72 0-9.235-7.486-16.72-16.72-16.72h-4.514a25.9 25.9 0 0 0 .236-3.5C103.549 46.49 92.059 35 77.885 35 63.71 35 52.22 46.49 52.22 60.664c0 1.338.103 2.651.3 3.934a16.77 16.77 0 0 0-3.8-.434c-9.234 0-16.72 7.486-16.72 16.72 0 9.235 7.486 16.722 16.72 16.722l.196-.001h58.716Z" clip-rule="evenodd"/></mask><path fill="url(#b)" fill-rule="evenodd" d="M107.632 97.605h.195c9.234 0 16.72-7.486 16.72-16.72 0-9.235-7.486-16.72-16.72-16.72h-4.514a25.9 25.9 0 0 0 .236-3.5C103.549 46.49 92.059 35 77.885 35 63.71 35 52.22 46.49 52.22 60.664c0 1.338.103 2.651.3 3.934a16.77 16.77 0 0 0-3.8-.434c-9.234 0-16.72 7.486-16.72 16.72 0 9.235 7.486 16.722 16.72 16.722l.196-.001h58.716Z" clip-rule="evenodd" shape-rendering="crispEdges"/><path fill="url(#c)" d="m107.632 97.605.023-2a2 2 0 0 0-2.023 2h2Zm0-33.44h-2a2 2 0 0 0 2.023 2l-.023-2Zm0 0h2a2 2 0 0 0-2-2v2Zm-4.319 0-1.982-.271a2 2 0 0 0 1.982 2.27v-2Zm-50.793.433-.453 1.948a2 2 0 0 0 2.43-2.252l-1.977.304Zm-3.604 33.007 1.57 1.238a2 2 0 0 0-1.593-3.238l.023 2Zm0 0-1.572-1.238a2 2 0 0 0 1.571 3.239v-2Zm58.716 0v2a2 2 0 0 0 2-2h-2Zm-.023 2h.218v-4h-.172l-.046 4Zm.218 0c10.339 0 18.72-8.381 18.72-18.72h-4c0 8.13-6.59 14.72-14.72 14.72v4Zm18.72-18.72c0-10.34-8.381-18.72-18.72-18.72v4c8.13 0 14.72 6.59 14.72 14.72h4Zm-18.72-18.72h-.218l.046 4h.172v-4Zm-2.195 2h4-4Zm-2.319 2h4.319v-4h-4.319v4Zm1.981-1.73c.168-1.234.255-2.493.255-3.77h-4a23.87 23.87 0 0 1-.218 3.229l3.963.54Zm.255-3.77C105.549 45.384 93.163 33 77.885 33v4c13.07 0 23.664 10.595 23.664 23.664h4ZM77.885 33C62.606 33 50.22 45.386 50.22 60.664h4C54.22 47.594 64.815 37 77.885 37v-4ZM50.22 60.664c0 1.44.11 2.855.323 4.238l3.954-.608a23.874 23.874 0 0 1-.277-3.63h-4Zm2.752 1.986a18.772 18.772 0 0 0-4.251-.486v4c1.153 0 2.273.132 3.346.382l.905-3.897Zm-4.251-.486C38.38 62.164 30 70.546 30 80.884h4c0-8.13 6.59-14.72 14.72-14.72v-4ZM30 80.884c0 10.34 8.382 18.722 18.72 18.722v-4c-8.13 0-14.72-6.591-14.72-14.721h-4Zm18.72 18.722c.074 0 .146 0 .219-.002l-.046-4-.172.002v4Zm1.766-.762v-.001l-3.14-2.477-.002.001 3.142 2.477Zm57.146-3.238H48.915v4h58.717v-4Zm-2 1.999h4-4Z" mask="url(#d)"/></g><g filter="url(#e)"><mask id="h" fill="#fff"><path fill-rule="evenodd" d="m137.987 80.243.141.001c6.674 0 12.084-5.41 12.084-12.084 0-6.673-5.41-12.083-12.084-12.083h-3.262c.112-.827.171-1.672.171-2.53 0-10.243-8.304-18.547-18.548-18.547-10.243 0-18.547 8.304-18.547 18.547 0 .967.074 1.916.216 2.843a12.122 12.122 0 0 0-2.745-.313c-6.674 0-12.084 5.41-12.084 12.083 0 6.674 5.41 12.084 12.084 12.084h42.574Z" clip-rule="evenodd"/></mask><path fill="url(#f)" fill-rule="evenodd" d="m137.987 80.243.141.001c6.674 0 12.084-5.41 12.084-12.084 0-6.673-5.41-12.083-12.084-12.083h-3.262c.112-.827.171-1.672.171-2.53 0-10.243-8.304-18.547-18.548-18.547-10.243 0-18.547 8.304-18.547 18.547 0 .967.074 1.916.216 2.843a12.122 12.122 0 0 0-2.745-.313c-6.674 0-12.084 5.41-12.084 12.083 0 6.674 5.41 12.084 12.084 12.084h42.574Z" clip-rule="evenodd" shape-rendering="crispEdges"/><path fill="url(#g)" d="m137.987 80.243.023-2a2 2 0 0 0-2.023 2h2Zm0-24.166h-2a2 2 0 0 0 2.023 2l-.023-2Zm0 0h2a2 2 0 0 0-2-2v2Zm-3.121 0-1.982-.27a2 2 0 0 0 1.982 2.27v-2Zm-36.708.313-.452 1.948a2 2 0 0 0 2.429-2.252l-1.977.304Zm-2.604 23.853 1.572 1.237a2 2 0 0 0-1.595-3.236l.023 2Zm0 .001-1.573-1.236a2 2 0 0 0 1.572 3.236v-2Zm42.433 0v2a2 2 0 0 0 2-2h-2Zm-.022 2h.163v-4h-.118l-.045 4Zm.163 0c7.778 0 14.084-6.305 14.084-14.084h-4c0 5.57-4.515 10.084-10.084 10.084v4Zm14.084-14.084c0-7.778-6.306-14.083-14.084-14.083v4c5.569 0 10.084 4.514 10.084 10.083h4Zm-14.084-14.083h-.163l.045 4h.118v-4Zm-2.141 2h4-4Zm-1.121 2h3.121v-4h-3.121v4Zm1.981-1.73c.125-.916.19-1.851.19-2.8h-4c0 .768-.052 1.522-.153 2.26l3.963.54Zm.19-2.8c0-11.348-9.2-20.547-20.548-20.547v4c9.139 0 16.548 7.408 16.548 16.547h4ZM116.489 33c-11.348 0-20.547 9.2-20.547 20.547h4c0-9.139 7.409-16.547 16.547-16.547v-4ZM95.942 53.547c0 1.07.082 2.12.24 3.147l3.953-.608a16.703 16.703 0 0 1-.193-2.539h-4Zm2.67.895a14.12 14.12 0 0 0-3.2-.365v4c.792 0 1.56.09 2.294.26l.905-3.895Zm-3.2-.365c-7.778 0-14.083 6.305-14.083 14.083h4c0-5.569 4.515-10.083 10.084-10.083v-4ZM81.33 68.16c0 7.779 6.305 14.084 14.084 14.084v-4c-5.57 0-10.084-4.514-10.084-10.084h-4Zm14.084 14.084h.164l-.046-4h-.118v4Zm1.712-.763v-.001l-3.143-2.473 3.143 2.474Zm40.862-3.237H95.553v4h42.434v-4Zm-2 2h4-4Z" mask="url(#h)"/></g><g filter="url(#i)"><g stroke-width="2"><path fill="url(#j)" stroke="url(#k)" d="M69.31 87.599c.94-1.206 2.872-.619 2.98.906l.457 6.39c.206 2.89-2.549 5.087-5.32 4.244-2.77-.843-3.834-4.202-2.055-6.486l3.938-5.054Z"/><path fill="url(#l)" stroke="url(#m)" d="M91.672 87.599c.94-1.206 2.872-.619 2.98.906l.457 6.39c.206 2.89-2.548 5.087-5.32 4.244-2.77-.843-3.834-4.202-2.054-6.486l3.937-5.054Z"/><path fill="url(#n)" stroke="url(#o)" d="M114.034 87.599c.94-1.206 2.872-.619 2.981.906l.456 6.39c.206 2.89-2.548 5.087-5.319 4.244s-3.835-4.202-2.055-6.486l3.937-5.054Z"/></g></g><g filter="url(#p)"><g stroke-width="2"><path fill="url(#q)" stroke="url(#r)" d="M75.21 105.3c.94-1.207 2.872-.619 2.98.906l.457 6.39c.206 2.889-2.548 5.087-5.32 4.244-2.77-.843-3.834-4.202-2.054-6.487l3.937-5.053Z"/><path fill="url(#s)" stroke="url(#t)" d="M94.103 105.3c.94-1.207 2.872-.619 2.981.906l.456 6.39c.207 2.889-2.548 5.087-5.319 4.244-2.77-.843-3.835-4.202-2.055-6.487l3.937-5.053Z"/></g></g><defs><linearGradient id="k" x1="72.793" x2="67.137" y1="81.501" y2="100.096" gradientUnits="userSpaceOnUse"><stop stop-color="#fff"/><stop offset="1" stop-color="#fff" stop-opacity="0"/></linearGradient><linearGradient id="t" x1="97.586" x2="91.93" y1="99.202" y2="117.797" gradientUnits="userSpaceOnUse"><stop stop-color="#fff"/><stop offset="1" stop-color="#fff" stop-opacity="0"/></linearGradient><linearGradient id="s" x1="97.586" x2="91.93" y1="99.202" y2="117.797" gradientUnits="userSpaceOnUse"><stop stop-color="#fff"/><stop offset=".608" stop-color="#64ECFF"/><stop offset="1" stop-color="#00E0FF"/></linearGradient><linearGradient id="r" x1="78.693" x2="73.037" y1="99.202" y2="117.797" gradientUnits="userSpaceOnUse"><stop stop-color="#fff"/><stop offset="1" stop-color="#fff" stop-opacity="0"/></linearGradient><linearGradient id="b" x1="78.274" x2="78.274" y1="14.974" y2="106.355" gradientUnits="userSpaceOnUse"><stop stop-color="#fff"/><stop offset="1" stop-color="#fff" stop-opacity="0"/></linearGradient><linearGradient id="c" x1="78.274" x2="78.274" y1="35" y2="97.606" gradientUnits="userSpaceOnUse"><stop stop-color="#fff"/><stop offset="1" stop-color="#fff" stop-opacity="0"/></linearGradient><linearGradient id="f" x1="119.881" x2="119.881" y1="36.361" y2="85.357" gradientUnits="userSpaceOnUse"><stop stop-color="#fff"/><stop offset="1" stop-color="#fff" stop-opacity="0"/></linearGradient><linearGradient id="g" x1="116.77" x2="116.77" y1="35" y2="80.244" gradientUnits="userSpaceOnUse"><stop stop-color="#fff"/><stop offset="1" stop-color="#fff" stop-opacity="0"/></linearGradient><linearGradient id="j" x1="72.793" x2="67.137" y1="81.501" y2="100.096" gradientUnits="userSpaceOnUse"><stop stop-color="#fff"/><stop offset="1" stop-color="#00E0FF"/></linearGradient><linearGradient id="q" x1="78.693" x2="73.037" y1="99.202" y2="117.797" gradientUnits="userSpaceOnUse"><stop stop-color="#fff"/><stop offset="1" stop-color="#00E0FF"/></linearGradient><linearGradient id="l" x1="95.155" x2="89.499" y1="81.501" y2="100.096" gradientUnits="userSpaceOnUse"><stop stop-color="#fff"/><stop offset="1" stop-color="#00E0FF"/></linearGradient><linearGradient id="m" x1="95.155" x2="89.499" y1="81.501" y2="100.096" gradientUnits="userSpaceOnUse"><stop stop-color="#fff"/><stop offset="1" stop-color="#fff" stop-opacity="0"/></linearGradient><linearGradient id="n" x1="117.517" x2="111.861" y1="81.501" y2="100.096" gradientUnits="userSpaceOnUse"><stop stop-color="#fff"/><stop offset="1" stop-color="#00E0FF"/></linearGradient><linearGradient id="o" x1="117.517" x2="111.861" y1="81.501" y2="100.096" gradientUnits="userSpaceOnUse"><stop stop-color="#fff"/><stop offset="1" stop-color="#fff" stop-opacity="0"/></linearGradient><filter id="e" width="166.883" height="145.244" x="12.329" y="0" color-interpolation-filters="sRGB" filterUnits="userSpaceOnUse"><feFlood flood-opacity="0" result="BackgroundImageFix"/><feGaussianBlur in="BackgroundImageFix" stdDeviation="7"/><feComposite in2="SourceAlpha" operator="in" result="effect1_backgroundBlur_3_2303"/><feColorMatrix in="SourceAlpha" result="hardAlpha" values="0 0 0 0 0 0 0 0 0 0 0 0 0 0 0 0 0 0 127 0"/><feOffset dx="-21" dy="15"/><feGaussianBlur stdDeviation="25"/><feComposite in2="hardAlpha" operator="out"/><feColorMatrix values="0 0 0 0 0.113438 0 0 0 0 0.148981 0 0 0 0 0.275 0 0 0 0.25 0"/><feBlend in2="effect1_backgroundBlur_3_2303" result="effect2_dropShadow_3_2303"/><feBlend in="SourceGraphic" in2="effect2_dropShadow_3_2303" result="shape"/></filter><filter id="p" width="141.153" height="127.37" x="-1.602" y="55.653" color-interpolation-filters="sRGB" filterUnits="userSpaceOnUse"><feFlood flood-opacity="0" result="BackgroundImageFix"/><feGaussianBlur in="BackgroundImageFix" stdDeviation="7"/><feComposite in2="SourceAlpha" operator="in" result="effect1_backgroundBlur_3_2303"/><feColorMatrix in="SourceAlpha" result="hardAlpha" values="0 0 0 0 0 0 0 0 0 0 0 0 0 0 0 0 0 0 127 0"/><feOffset dx="-21" dy="15"/><feGaussianBlur stdDeviation="25"/><feComposite in2="hardAlpha" operator="out"/><feColorMatrix values="0 0 0 0 0.113438 0 0 0 0 0.148981 0 0 0 0 0.275 0 0 0 0.25 0"/><feBlend in2="effect1_backgroundBlur_3_2303" result="effect2_dropShadow_3_2303"/><feColorMatrix in="SourceAlpha" result="hardAlpha" values="0 0 0 0 0 0 0 0 0 0 0 0 0 0 0 0 0 0 127 0"/><feOffset dy="-7"/><feGaussianBlur stdDeviation="20.5"/><feComposite in2="hardAlpha" operator="out"/><feColorMatrix values="0 0 0 0 0.1375 0 0 0 0 0.74125 0 0 0 0 1 0 0 0 0.3 0"/><feBlend in2="effect2_dropShadow_3_2303" result="effect3_dropShadow_3_2303"/><feBlend in="SourceGraphic" in2="effect3_dropShadow_3_2303" result="shape"/></filter><filter id="i" width="166.984" height="127.37" x="-7.502" y="37.952" color-interpolation-filters="sRGB" filterUnits="userSpaceOnUse"><feFlood flood-opacity="0" result="BackgroundImageFix"/><feGaussianBlur in="BackgroundImageFix" stdDeviation="7"/><feComposite in2="SourceAlpha" operator="in" result="effect1_backgroundBlur_3_2303"/><feColorMatrix in="SourceAlpha" result="hardAlpha" values="0 0 0 0 0 0 0 0 0 0 0 0 0 0 0 0 0 0 127 0"/><feOffset dx="-21" dy="15"/><feGaussianBlur stdDeviation="25"/><feComposite in2="hardAlpha" operator="out"/><feColorMatrix values="0 0 0 0 0.113438 0 0 0 0 0.148981 0 0 0 0 0.275 0 0 0 0.25 0"/><feBlend in2="effect1_backgroundBlur_3_2303" result="effect2_dropShadow_3_2303"/><feColorMatrix in="SourceAlpha" result="hardAlpha" values="0 0 0 0 0 0 0 0 0 0 0 0 0 0 0 0 0 0 127 0"/><feOffset dy="-7"/><feGaussianBlur stdDeviation="20.5"/><feComposite in2="hardAlpha" operator="out"/><feColorMatrix values="0 0 0 0 0.1375 0 0 0 0 0.74125 0 0 0 0 1 0 0 0 0.3 0"/><feBlend in2="effect2_dropShadow_3_2303" result="effect3_dropShadow_3_2303"/><feBlend in="SourceGraphic" in2="effect3_dropShadow_3_2303" result="shape"/></filter><filter id="a" width="192.547" height="162.606" x="-39" y="0" color-interpolation-filters="sRGB" filterUnits="userSpaceOnUse"><feFlood flood-opacity="0" result="BackgroundImageFix"/><feGaussianBlur in="BackgroundImageFix" stdDeviation="7"/><feComposite in2="SourceAlpha" operator="in" result="effect1_backgroundBlur_3_2303"/><feColorMatrix in="SourceAlpha" result="hardAlpha" values="0 0 0 0 0 0 0 0 0 0 0 0 0 0 0 0 0 0 127 0"/><feOffset dx="-21" dy="15"/><feGaussianBlur stdDeviation="25"/><feComposite in2="hardAlpha" operator="out"/><feColorMatrix values="0 0 0 0 0.113725 0 0 0 0 0.14902 0 0 0 0 0.27451 0 0 0 0.25 0"/><feBlend in2="effect1_backgroundBlur_3_2303" result="effect2_dropShadow_3_2303"/><feBlend in="SourceGraphic" in2="effect2_dropShadow_3_2303" result="shape"/></filter></defs></svg>