<svg xmlns="http://www.w3.org/2000/svg" width="219" height="221" fill="none"><g filter="url(#a)"><circle cx="138.272" cy="67.72" r="23.72" fill="#FFC701" fill-opacity=".5"/></g><circle cx="138.272" cy="68.498" r="21.942" fill="url(#b)" stroke="url(#c)" stroke-width="2"/><mask id="e" width="47" height="34" x="115" y="58" maskUnits="userSpaceOnUse" style="mask-type:alpha"><path fill="url(#d)" d="M161.214 68.498c0 12.67-10.271 22.942-22.942 22.942s-22.943-10.272-22.943-22.942 8.522-9.722 21.193-9.722c12.671 0 24.692-2.949 24.692 9.722Z"/></mask><g filter="url(#f)" mask="url(#e)"><path fill="#E18700" fill-rule="evenodd" d="m156.353 127.214.195.001c9.234 0 16.721-7.486 16.721-16.721s-7.487-16.72-16.721-16.72H145.694c.233-1.392.355-2.82.355-4.278 0-14.174-11.491-25.664-25.665-25.664S94.72 75.322 94.72 89.495c0 1.514.131 2.998.383 4.44-8.128 1.137-14.382 8.117-14.382 16.558 0 9.235 7.486 16.721 16.72 16.721l.196-.001v.001h58.716v-.001Z" clip-rule="evenodd"/></g><g filter="url(#g)"><mask id="j" fill="#fff"><path fill-rule="evenodd" d="m146.632 129.158.195.001c9.234 0 16.72-7.486 16.72-16.721 0-9.234-7.486-16.72-16.72-16.72h-4.514a25.9 25.9 0 0 0 .236-3.5c0-14.174-11.49-25.665-25.664-25.665-14.174 0-25.665 11.49-25.665 25.665 0 1.337.103 2.65.3 3.933a16.77 16.77 0 0 0-3.8-.433c-9.234 0-16.72 7.486-16.72 16.72 0 9.235 7.486 16.721 16.72 16.721l.196-.001v.001h58.716v-.001Z" clip-rule="evenodd"/></mask><path fill="url(#h)" fill-rule="evenodd" d="m146.632 129.158.195.001c9.234 0 16.72-7.486 16.72-16.721 0-9.234-7.486-16.72-16.72-16.72h-4.514a25.9 25.9 0 0 0 .236-3.5c0-14.174-11.49-25.665-25.664-25.665-14.174 0-25.665 11.49-25.665 25.665 0 1.337.103 2.65.3 3.933a16.77 16.77 0 0 0-3.8-.433c-9.234 0-16.72 7.486-16.72 16.72 0 9.235 7.486 16.721 16.72 16.721l.196-.001v.001h58.716v-.001Z" clip-rule="evenodd" shape-rendering="crispEdges"/><path fill="url(#i)" d="m146.632 129.158.023-2a2 2 0 0 0-2.023 2h2Zm0-33.44h-2a2 2 0 0 0 2.023 2l-.023-2Zm0 0h2a2 2 0 0 0-2-2v2Zm-4.319 0-1.982-.27a2 2 0 0 0 1.982 2.27v-2Zm-50.793.433-.453 1.948a2 2 0 0 0 2.43-2.252l-1.977.304Zm-3.604 33.007 1.57 1.238a2 2 0 0 0-1.593-3.238l.023 2Zm0 .001-1.571-1.238a2 2 0 0 0 1.57 3.238v-2Zm58.716 0v2a2 2 0 0 0 2-2h-2Zm-.023 1.999.218.001v-4l-.172-.001-.046 4Zm.218.001c10.339 0 18.72-8.381 18.72-18.721h-4c0 8.13-6.59 14.721-14.72 14.721v4Zm18.72-18.721c0-10.339-8.381-18.72-18.72-18.72v4c8.13 0 14.72 6.59 14.72 14.72h4Zm-18.72-18.72h-.218l.046 4h.172v-4Zm-2.195 2h4-4Zm-2.319 2h4.319v-4h-4.319v4Zm1.981-1.73c.168-1.234.255-2.492.255-3.77h-4a23.87 23.87 0 0 1-.218 3.23l3.963.54Zm.255-3.77c0-15.279-12.386-27.665-27.664-27.665v4c13.069 0 23.664 10.595 23.664 23.665h4Zm-27.664-27.665c-15.279 0-27.665 12.386-27.665 27.665h4c0-13.07 10.595-23.665 23.665-23.665v-4ZM89.22 92.219c0 1.44.11 2.855.323 4.237l3.954-.608a23.861 23.861 0 0 1-.277-3.63h-4Zm2.753 1.985a18.772 18.772 0 0 0-4.252-.485v4c1.153 0 2.273.132 3.346.381l.906-3.896Zm-4.252-.485c-10.34 0-18.721 8.381-18.721 18.72h4c0-8.13 6.59-14.72 14.72-14.72v-4ZM69 112.438c0 10.34 8.382 18.721 18.72 18.721v-4c-8.13 0-14.72-6.591-14.72-14.721h-4Zm18.72 18.721.219-.001-.046-4-.172.001v4Zm1.766-.762v-.001l-3.14-2.476-.001.001 3.14 2.476Zm57.146-3.238H87.915v4h58.717v-4Zm-2 1.999v.001h4v-.001h-4Z" mask="url(#j)"/></g><g filter="url(#k)"><mask id="n" fill="#fff"><path fill-rule="evenodd" d="m176.987 111.797.141.001c6.674 0 12.084-5.41 12.084-12.084 0-6.674-5.41-12.084-12.084-12.084h-3.262c.112-.827.171-1.671.171-2.53 0-10.242-8.304-18.546-18.548-18.546-10.243 0-18.547 8.303-18.547 18.547 0 .966.074 1.916.216 2.842a12.114 12.114 0 0 0-2.745-.313c-6.674 0-12.084 5.41-12.084 12.084 0 6.674 5.41 12.084 12.084 12.084l.141-.001-.001.001h42.434v-.001Z" clip-rule="evenodd"/></mask><path fill="url(#l)" fill-rule="evenodd" d="m176.987 111.797.141.001c6.674 0 12.084-5.41 12.084-12.084 0-6.674-5.41-12.084-12.084-12.084h-3.262c.112-.827.171-1.671.171-2.53 0-10.242-8.304-18.546-18.548-18.546-10.243 0-18.547 8.303-18.547 18.547 0 .966.074 1.916.216 2.842a12.114 12.114 0 0 0-2.745-.313c-6.674 0-12.084 5.41-12.084 12.084 0 6.674 5.41 12.084 12.084 12.084l.141-.001-.001.001h42.434v-.001Z" clip-rule="evenodd" shape-rendering="crispEdges"/><path fill="url(#m)" d="m176.987 111.797.023-2a2 2 0 0 0-2.023 2h2Zm0-24.166h-2a2 2 0 0 0 2.023 2l-.023-2Zm0 0h2a2 2 0 0 0-2-2v2Zm-3.121 0-1.982-.271a2 2 0 0 0 1.982 2.27v-2Zm-36.708.312-.452 1.948a2 2 0 0 0 2.429-2.252l-1.977.304Zm-2.604 23.854 1.571 1.238a2 2 0 0 0-1.594-3.238l.023 2Zm-.001.001-1.571-1.238a2 2 0 0 0 1.571 3.238v-2Zm42.434 0v2a2 2 0 0 0 2-2h-2Zm-.022 1.999.163.001v-4l-.118-.001-.045 4Zm.163.001c7.778 0 14.084-6.306 14.084-14.084h-4c0 5.569-4.515 10.084-10.084 10.084v4Zm14.084-14.084c0-7.778-6.306-14.084-14.084-14.084v4c5.569 0 10.084 4.515 10.084 10.084h4ZM177.128 85.63l-.163.001.045 4h.118v-4Zm-2.141 2h4-4Zm-1.121 2h3.121v-4h-3.121v4Zm1.981-1.73c.125-.916.19-1.85.19-2.8h-4c0 .768-.052 1.522-.153 2.26l3.963.54Zm.19-2.8c0-11.347-9.2-20.546-20.548-20.546v4c9.139 0 16.548 7.408 16.548 16.547h4Zm-20.548-20.546c-11.348 0-20.547 9.199-20.547 20.547h4c0-9.139 7.408-16.547 16.547-16.547v-4ZM134.942 85.1c0 1.069.082 2.12.24 3.146l3.953-.608a16.704 16.704 0 0 1-.193-2.538h-4Zm2.669.894c-1.029-.239-2.1-.365-3.198-.365v4c.791 0 1.558.09 2.293.261l.905-3.896Zm-3.198-.365c-7.779 0-14.084 6.306-14.084 14.084h4c0-5.57 4.515-10.084 10.084-10.084v-4Zm-14.084 14.084c0 7.778 6.305 14.084 14.084 14.084v-4c-5.569 0-10.084-4.515-10.084-10.084h-4Zm14.084 14.084.164-.001-.046-4-.118.001v4Zm1.711-.763h.001l-3.142-2.475h-.001l3.142 2.475Zm40.863-3.237h-42.434v4h42.434v-4Zm-2 1.999v.001h4v-.001h-4Z" mask="url(#n)"/></g><g filter="url(#o)"><g stroke-width="2"><path fill="url(#p)" stroke="url(#q)" d="M94.311 125.374c.94-1.206 2.872-.618 2.98.907l.457 6.39c.206 2.889-2.548 5.086-5.32 4.243-2.77-.842-3.834-4.202-2.054-6.486l3.937-5.054Z"/><path fill="url(#r)" stroke="url(#s)" d="M116.673 125.374c.94-1.206 2.872-.618 2.981.907l.456 6.39c.206 2.889-2.549 5.086-5.319 4.243-2.771-.842-3.835-4.202-2.055-6.486l3.937-5.054Z"/><path fill="url(#t)" stroke="url(#u)" d="M139.035 125.374c.94-1.206 2.872-.618 2.981.907l.456 6.39c.206 2.889-2.548 5.086-5.319 4.243-2.771-.842-3.835-4.202-2.055-6.486l3.937-5.054Z"/></g></g><g filter="url(#v)"><g stroke-width="2"><path fill="url(#w)" stroke="url(#x)" d="M100.211 143.075c.94-1.206 2.872-.619 2.981.906l.456 6.391c.207 2.888-2.548 5.086-5.319 4.243-2.77-.843-3.835-4.202-2.055-6.487l3.937-5.053Z"/><path fill="url(#y)" stroke="url(#z)" d="M119.104 143.075c.94-1.206 2.872-.619 2.981.906l.457 6.391c.206 2.888-2.549 5.086-5.32 4.243-2.77-.843-3.835-4.202-2.055-6.487l3.937-5.053Z"/></g></g><defs><linearGradient id="l" x1="158.881" x2="158.881" y1="67.915" y2="116.91" gradientUnits="userSpaceOnUse"><stop stop-color="#fff"/><stop offset="1" stop-color="#fff" stop-opacity="0"/></linearGradient><linearGradient id="z" x1="122.588" x2="116.931" y1="136.977" y2="155.572" gradientUnits="userSpaceOnUse"><stop stop-color="#fff"/><stop offset="1" stop-color="#fff" stop-opacity="0"/></linearGradient><linearGradient id="y" x1="122.588" x2="116.931" y1="136.977" y2="155.572" gradientUnits="userSpaceOnUse"><stop stop-color="#138EFF"/><stop offset="1" stop-color="#00E0FF"/></linearGradient><linearGradient id="x" x1="103.694" x2="98.038" y1="136.977" y2="155.572" gradientUnits="userSpaceOnUse"><stop stop-color="#fff"/><stop offset="1" stop-color="#fff" stop-opacity="0"/></linearGradient><linearGradient id="w" x1="103.694" x2="98.038" y1="136.977" y2="155.572" gradientUnits="userSpaceOnUse"><stop stop-color="#138EFF"/><stop offset="1" stop-color="#00E0FF"/></linearGradient><linearGradient id="u" x1="142.518" x2="136.862" y1="119.276" y2="137.871" gradientUnits="userSpaceOnUse"><stop stop-color="#fff"/><stop offset="1" stop-color="#fff" stop-opacity="0"/></linearGradient><linearGradient id="b" x1="138.272" x2="138.272" y1="45.555" y2="91.44" gradientUnits="userSpaceOnUse"><stop stop-color="#FFE600"/><stop offset="1" stop-color="#FF7A00"/></linearGradient><linearGradient id="c" x1="138.272" x2="138.272" y1="45.555" y2="91.44" gradientUnits="userSpaceOnUse"><stop stop-color="#fff"/><stop offset="1" stop-color="#fff" stop-opacity="0"/></linearGradient><linearGradient id="d" x1="138.272" x2="138.272" y1="45.555" y2="91.44" gradientUnits="userSpaceOnUse"><stop stop-color="#FFD600"/><stop offset="1" stop-color="#FF7A00"/></linearGradient><linearGradient id="h" x1="117.274" x2="117.274" y1="46.528" y2="137.908" gradientUnits="userSpaceOnUse"><stop stop-color="#fff"/><stop offset="1" stop-color="#fff" stop-opacity="0"/></linearGradient><linearGradient id="i" x1="117.274" x2="117.274" y1="66.553" y2="129.159" gradientUnits="userSpaceOnUse"><stop stop-color="#fff"/><stop offset="1" stop-color="#fff" stop-opacity="0"/></linearGradient><linearGradient id="t" x1="142.518" x2="136.862" y1="119.276" y2="137.871" gradientUnits="userSpaceOnUse"><stop stop-color="#138EFF"/><stop offset="1" stop-color="#00E0FF"/></linearGradient><linearGradient id="m" x1="155.77" x2="155.77" y1="66.553" y2="111.798" gradientUnits="userSpaceOnUse"><stop stop-color="#fff"/><stop offset="1" stop-color="#fff" stop-opacity="0"/></linearGradient><linearGradient id="p" x1="97.794" x2="92.138" y1="119.276" y2="137.871" gradientUnits="userSpaceOnUse"><stop stop-color="#138EFF"/><stop offset="1" stop-color="#00E0FF"/></linearGradient><linearGradient id="q" x1="97.794" x2="92.138" y1="119.276" y2="137.871" gradientUnits="userSpaceOnUse"><stop stop-color="#fff"/><stop offset="1" stop-color="#fff" stop-opacity="0"/></linearGradient><linearGradient id="r" x1="120.156" x2="114.5" y1="119.276" y2="137.871" gradientUnits="userSpaceOnUse"><stop stop-color="#138EFF"/><stop offset="1" stop-color="#00E0FF"/></linearGradient><linearGradient id="s" x1="120.156" x2="114.5" y1="119.276" y2="137.871" gradientUnits="userSpaceOnUse"><stop stop-color="#fff"/><stop offset="1" stop-color="#fff" stop-opacity="0"/></linearGradient><filter id="f" width="120.547" height="91.383" x="66.721" y="49.831" color-interpolation-filters="sRGB" filterUnits="userSpaceOnUse"><feFlood flood-opacity="0" result="BackgroundImageFix"/><feBlend in="SourceGraphic" in2="BackgroundImageFix" result="shape"/><feGaussianBlur result="effect1_foregroundBlur_3_2417" stdDeviation="7"/></filter><filter id="v" width="141.153" height="127.37" x="23.399" y="93.428" color-interpolation-filters="sRGB" filterUnits="userSpaceOnUse"><feFlood flood-opacity="0" result="BackgroundImageFix"/><feGaussianBlur in="BackgroundImageFix" stdDeviation="7"/><feComposite in2="SourceAlpha" operator="in" result="effect1_backgroundBlur_3_2417"/><feColorMatrix in="SourceAlpha" result="hardAlpha" values="0 0 0 0 0 0 0 0 0 0 0 0 0 0 0 0 0 0 127 0"/><feOffset dx="-21" dy="15"/><feGaussianBlur stdDeviation="25"/><feComposite in2="hardAlpha" operator="out"/><feColorMatrix values="0 0 0 0 0.113438 0 0 0 0 0.148981 0 0 0 0 0.275 0 0 0 0.25 0"/><feBlend in2="effect1_backgroundBlur_3_2417" result="effect2_dropShadow_3_2417"/><feColorMatrix in="SourceAlpha" result="hardAlpha" values="0 0 0 0 0 0 0 0 0 0 0 0 0 0 0 0 0 0 127 0"/><feOffset dy="-7"/><feGaussianBlur stdDeviation="20.5"/><feComposite in2="hardAlpha" operator="out"/><feColorMatrix values="0 0 0 0 0.1375 0 0 0 0 0.74125 0 0 0 0 1 0 0 0 0.3 0"/><feBlend in2="effect2_dropShadow_3_2417" result="effect3_dropShadow_3_2417"/><feBlend in="SourceGraphic" in2="effect3_dropShadow_3_2417" result="shape"/></filter><filter id="o" width="166.984" height="127.37" x="17.499" y="75.727" color-interpolation-filters="sRGB" filterUnits="userSpaceOnUse"><feFlood flood-opacity="0" result="BackgroundImageFix"/><feGaussianBlur in="BackgroundImageFix" stdDeviation="7"/><feComposite in2="SourceAlpha" operator="in" result="effect1_backgroundBlur_3_2417"/><feColorMatrix in="SourceAlpha" result="hardAlpha" values="0 0 0 0 0 0 0 0 0 0 0 0 0 0 0 0 0 0 127 0"/><feOffset dx="-21" dy="15"/><feGaussianBlur stdDeviation="25"/><feComposite in2="hardAlpha" operator="out"/><feColorMatrix values="0 0 0 0 0.113438 0 0 0 0 0.148981 0 0 0 0 0.275 0 0 0 0.25 0"/><feBlend in2="effect1_backgroundBlur_3_2417" result="effect2_dropShadow_3_2417"/><feColorMatrix in="SourceAlpha" result="hardAlpha" values="0 0 0 0 0 0 0 0 0 0 0 0 0 0 0 0 0 0 127 0"/><feOffset dy="-7"/><feGaussianBlur stdDeviation="20.5"/><feComposite in2="hardAlpha" operator="out"/><feColorMatrix values="0 0 0 0 0.1375 0 0 0 0 0.74125 0 0 0 0 1 0 0 0 0.3 0"/><feBlend in2="effect2_dropShadow_3_2417" result="effect3_dropShadow_3_2417"/><feBlend in="SourceGraphic" in2="effect3_dropShadow_3_2417" result="shape"/></filter><filter id="k" width="166.883" height="145.244" x="51.329" y="31.553" color-interpolation-filters="sRGB" filterUnits="userSpaceOnUse"><feFlood flood-opacity="0" result="BackgroundImageFix"/><feGaussianBlur in="BackgroundImageFix" stdDeviation="7"/><feComposite in2="SourceAlpha" operator="in" result="effect1_backgroundBlur_3_2417"/><feColorMatrix in="SourceAlpha" result="hardAlpha" values="0 0 0 0 0 0 0 0 0 0 0 0 0 0 0 0 0 0 127 0"/><feOffset dx="-21" dy="15"/><feGaussianBlur stdDeviation="25"/><feComposite in2="hardAlpha" operator="out"/><feColorMatrix values="0 0 0 0 0.113438 0 0 0 0 0.148981 0 0 0 0 0.275 0 0 0 0.25 0"/><feBlend in2="effect1_backgroundBlur_3_2417" result="effect2_dropShadow_3_2417"/><feBlend in="SourceGraphic" in2="effect2_dropShadow_3_2417" result="shape"/></filter><filter id="g" width="192.547" height="162.606" x="0" y="31.553" color-interpolation-filters="sRGB" filterUnits="userSpaceOnUse"><feFlood flood-opacity="0" result="BackgroundImageFix"/><feGaussianBlur in="BackgroundImageFix" stdDeviation="7"/><feComposite in2="SourceAlpha" operator="in" result="effect1_backgroundBlur_3_2417"/><feColorMatrix in="SourceAlpha" result="hardAlpha" values="0 0 0 0 0 0 0 0 0 0 0 0 0 0 0 0 0 0 127 0"/><feOffset dx="-21" dy="15"/><feGaussianBlur stdDeviation="25"/><feComposite in2="hardAlpha" operator="out"/><feColorMatrix values="0 0 0 0 0.113725 0 0 0 0 0.14902 0 0 0 0 0.27451 0 0 0 0.25 0"/><feBlend in2="effect1_backgroundBlur_3_2417" result="effect2_dropShadow_3_2417"/><feBlend in="SourceGraphic" in2="effect2_dropShadow_3_2417" result="shape"/></filter><filter id="a" width="135.44" height="135.44" x="70.552" y="0" color-interpolation-filters="sRGB" filterUnits="userSpaceOnUse"><feFlood flood-opacity="0" result="BackgroundImageFix"/><feBlend in="SourceGraphic" in2="BackgroundImageFix" result="shape"/><feGaussianBlur result="effect1_foregroundBlur_3_2417" stdDeviation="22"/></filter></defs></svg>