<svg width="163" height="74" fill="none" xmlns="http://www.w3.org/2000/svg"><g filter="url(#a)"><mask id="d" fill="#fff"><path fill-rule="evenodd" clip-rule="evenodd" d="M85.302 32.03h.036c1.746 0 3.162-1.439 3.162-3.213s-1.416-3.213-3.162-3.213h-.853c.03-.22.044-.444.044-.672 0-2.724-2.172-4.932-4.852-4.932s-4.854 2.208-4.854 4.932c0 .257.02.509.057.755a3.128 3.128 0 0 0-.718-.083c-1.746 0-3.162 1.439-3.162 3.213s1.416 3.213 3.162 3.213h11.14Z"/></mask><path fill-rule="evenodd" clip-rule="evenodd" d="M85.302 32.03h.036c1.746 0 3.162-1.439 3.162-3.213s-1.416-3.213-3.162-3.213h-.853c.03-.22.044-.444.044-.672 0-2.724-2.172-4.932-4.852-4.932s-4.854 2.208-4.854 4.932c0 .257.02.509.057.755a3.128 3.128 0 0 0-.718-.083c-1.746 0-3.162 1.439-3.162 3.213s1.416 3.213 3.162 3.213h11.14Z" fill="url(#b)" shape-rendering="crispEdges"/><path d="m85.302 32.03.023-2a2 2 0 0 0-2.023 2h2Zm0-6.426h-2a2 2 0 0 0 2.023 2l-.023-2Zm0 0h2a2 2 0 0 0-2-2v2Zm-.817 0-1.983-.266a2 2 0 0 0 1.983 2.266v-2Zm-9.605.083-.46 1.947a2 2 0 0 0 2.438-2.246l-1.978.3ZM74.2 32.03l1.58 1.227a2 2 0 0 0-1.604-3.227l.024 2Zm0 0-1.58-1.227a2 2 0 0 0 1.58 3.227v-2Zm11.103 0v2a2 2 0 0 0 2-2h-2Zm-.024 2h.06v-4h-.013l-.047 4Zm.06 0c2.881 0 5.162-2.364 5.162-5.213h-4c0 .7-.55 1.213-1.162 1.213v4Zm5.162-5.213c0-2.849-2.28-5.213-5.162-5.213v4c.612 0 1.162.513 1.162 1.213h4Zm-5.162-5.213h-.06l.047 4h.013v-4Zm-2.036 2h4-4Zm1.183 2h.817v-4h-.817v4Zm1.982-1.734c.041-.308.062-.621.062-.938h-4c0 .139-.009.274-.027.406l3.965.532Zm.062-.938c0-3.798-3.038-6.932-6.852-6.932v4c1.545 0 2.852 1.282 2.852 2.932h4ZM79.677 18c-3.816 0-6.854 3.134-6.854 6.932h4c0-1.65 1.308-2.932 2.854-2.932v-4Zm-6.854 6.932c0 .357.028.71.08 1.055l3.955-.599a3.055 3.055 0 0 1-.035-.456h-4Zm2.517-1.191a5.121 5.121 0 0 0-1.178-.137v4c.09 0 .177.01.259.03l.919-3.893Zm-1.178-.137c-2.881 0-5.162 2.364-5.162 5.213h4c0-.7.55-1.213 1.162-1.213v-4ZM69 28.817c0 2.849 2.28 5.213 5.162 5.213v-4c-.612 0-1.162-.513-1.162-1.213h-4Zm5.162 5.213h.06l-.047-4h-.013v4Zm1.616-.773-3.159-2.454 3.16 2.454Zm9.523-3.227H74.199v4h11.104v-4Zm-2 2h4-4Z" fill="url(#c)" mask="url(#d)"/></g><g filter="url(#e)"><mask id="h" fill="#fff"><path fill-rule="evenodd" clip-rule="evenodd" d="M94.859 40.265h.05c2.417 0 4.376-1.99 4.376-4.446 0-2.455-1.959-4.446-4.375-4.446H93.729c.04-.304.062-.615.062-.93 0-3.77-3.007-6.824-6.715-6.824-3.71 0-6.716 3.055-6.716 6.824 0 .355.027.704.079 1.045a4.317 4.317 0 0 0-.994-.115c-2.416 0-4.375 1.99-4.375 4.446 0 2.456 1.959 4.446 4.375 4.446H94.859Z"/></mask><path fill-rule="evenodd" clip-rule="evenodd" d="M94.859 40.265h.05c2.417 0 4.376-1.99 4.376-4.446 0-2.455-1.959-4.446-4.375-4.446H93.729c.04-.304.062-.615.062-.93 0-3.77-3.007-6.824-6.715-6.824-3.71 0-6.716 3.055-6.716 6.824 0 .355.027.704.079 1.045a4.317 4.317 0 0 0-.994-.115c-2.416 0-4.375 1.99-4.375 4.446 0 2.456 1.959 4.446 4.375 4.446H94.859Z" fill="url(#f)" shape-rendering="crispEdges"/><path d="m94.859 40.265.023-2a2 2 0 0 0-2.023 2h2Zm0-8.892h-2a2 2 0 0 0 2.023 2l-.023-2Zm0 0h2a2 2 0 0 0-2-2v2Zm-1.13 0-1.983-.266a2 2 0 0 0 1.983 2.266v-2Zm-13.29.115-.46 1.947a2 2 0 0 0 2.437-2.246l-1.977.3Zm-.943 8.777 1.58 1.225a2 2 0 0 0-1.603-3.225l.023 2Zm0 0-1.58-1.226a2 2 0 0 0 1.58 3.226v-2Zm15.363 0v2a2 2 0 0 0 2-2h-2Zm-.023 2h.074v-4h-.028l-.046 4Zm.074 0c3.55 0 6.375-2.916 6.375-6.446h-4c0 1.381-1.094 2.446-2.375 2.446v4Zm6.375-6.446c0-3.53-2.824-6.446-6.375-6.446v4c1.281 0 2.375 1.065 2.375 2.446h4Zm-6.375-6.446h-.074l.046 4h.028v-4Zm-2.051 2h4-4Zm.87 2h1.13v-4h-1.13v4Zm1.982-1.734c.053-.392.08-.791.08-1.196h-4c0 .226-.016.448-.044.664l3.964.532Zm.08-1.196c0-4.843-3.872-8.824-8.715-8.824v4c2.573 0 4.715 2.13 4.715 4.824h4Zm-8.715-8.824c-4.844 0-8.716 3.98-8.716 8.824h4c0-2.695 2.142-4.824 4.716-4.824v-4Zm-8.716 8.824c0 .456.035.905.101 1.345l3.955-.599a4.98 4.98 0 0 1-.056-.746h-4Zm2.538-.901a6.32 6.32 0 0 0-1.453-.169v4c.186 0 .364.022.534.062l.92-3.893Zm-1.453-.169c-3.551 0-6.375 2.916-6.375 6.446h4c0-1.381 1.093-2.446 2.375-2.446v-4ZM73.07 35.82c0 3.53 2.824 6.446 6.375 6.446v-4c-1.282 0-2.375-1.065-2.375-2.446h-4Zm6.375 6.446h.074l-.047-4h-.027v4Zm1.63-.774h.001l-3.16-2.452 3.16 2.452Zm13.784-3.226H79.496v4h15.363v-4Zm-2 2h4-4Z" fill="url(#g)" mask="url(#h)"/></g><g filter="url(#i)"><path d="m92.437 40.344 3.535-6.574a2 2 0 0 1 1.761-1.053h.764c1.497 0 2.463 1.586 1.777 2.917l-.97 1.884a1.175 1.175 0 0 0 1.044 1.713c1.011 0 1.55 1.192.881 1.951l-4.07 4.623c-1.128 1.282-3.195.051-2.605-1.552l.147-.401a1.245 1.245 0 0 0-1.168-1.674 1.245 1.245 0 0 1-1.096-1.834Z" fill="url(#j)"/><path d="m93.318 40.817 3.534-6.573a1 1 0 0 1 .881-.527h.764a1 1 0 0 1 .888 1.459l-.97 1.883c-.747 1.448.304 3.172 1.933 3.172.05 0 .078.013.097.026a.19.19 0 0 1 .062.077c.016.036.02.07.017.098a.164.164 0 0 1-.045.09l-4.07 4.622c-.397.451-1.124.018-.917-.546l.148-.401a2.245 2.245 0 0 0-2.107-3.02.245.245 0 0 1-.215-.36Z" stroke="url(#k)" stroke-width="2"/></g><g filter="url(#l)"><mask id="o" fill="#fff"><path fill-rule="evenodd" clip-rule="evenodd" d="M102.801 35.649h.037c1.746 0 3.162-1.439 3.162-3.213 0-1.775-1.416-3.213-3.162-3.213h-.853c.029-.22.044-.445.044-.673 0-2.723-2.172-4.931-4.853-4.931-2.68 0-4.853 2.208-4.853 4.931 0 .257.02.51.057.756a3.121 3.121 0 0 0-.718-.083c-1.746 0-3.162 1.438-3.162 3.213 0 1.774 1.416 3.213 3.162 3.213H102.8Z"/></mask><path fill-rule="evenodd" clip-rule="evenodd" d="M102.801 35.649h.037c1.746 0 3.162-1.439 3.162-3.213 0-1.775-1.416-3.213-3.162-3.213h-.853c.029-.22.044-.445.044-.673 0-2.723-2.172-4.931-4.853-4.931-2.68 0-4.853 2.208-4.853 4.931 0 .257.02.51.057.756a3.121 3.121 0 0 0-.718-.083c-1.746 0-3.162 1.438-3.162 3.213 0 1.774 1.416 3.213 3.162 3.213H102.8Z" fill="url(#m)" shape-rendering="crispEdges"/><path d="m102.801 35.649.024-2a2.003 2.003 0 0 0-2.024 2h2Zm0-6.426h-2a2 2 0 0 0 2.024 2l-.024-2Zm0 0h2a2 2 0 0 0-2-2v2Zm-.816 0-1.983-.266a2.001 2.001 0 0 0 1.983 2.266v-2Zm-9.605.083-.46 1.947a2 2 0 0 0 2.438-2.246l-1.978.3ZM91.7 35.65l1.58 1.225a2 2 0 0 0-1.604-3.225l.024 2Zm0 0-1.58-1.226a2 2 0 0 0 1.58 3.226v-2Zm11.102 0v2a2 2 0 0 0 2-2h-2Zm-.023 2a4 4 0 0 0 .06 0v-4h-.013l-.047 4Zm.06 0c2.881 0 5.162-2.365 5.162-5.213h-4c0 .7-.55 1.213-1.162 1.213v4ZM108 32.436c0-2.849-2.281-5.213-5.162-5.213v4c.612 0 1.162.512 1.162 1.213h4Zm-5.162-5.213a6 6 0 0 0-.06 0l.047 4h.013v-4Zm-2.037 2h4-4Zm1.184 2h.816v-4h-.816v4Zm1.982-1.734c.041-.308.062-.621.062-.939h-4c0 .14-.009.275-.027.407l3.965.532Zm.062-.939c0-3.797-3.038-6.931-6.853-6.931v4c1.546 0 2.853 1.282 2.853 2.931h4Zm-6.853-6.931c-3.814 0-6.853 3.134-6.853 6.931h4c0-1.65 1.308-2.931 2.853-2.931v-4Zm-6.853 6.931c0 .358.027.71.08 1.055l3.955-.598a3.054 3.054 0 0 1-.035-.457h-4Zm2.517-1.19a5.121 5.121 0 0 0-1.178-.137v4c.09 0 .177.01.259.03l.919-3.893Zm-1.178-.137c-2.881 0-5.162 2.364-5.162 5.213h4c0-.7.55-1.213 1.162-1.213v-4ZM86.5 32.436c0 2.848 2.28 5.213 5.162 5.213v-4c-.612 0-1.162-.513-1.162-1.213h-4Zm5.162 5.213h.06l-.047-4h-.013v4Zm1.617-.775-3.16-2.451 3.16 2.451Zm9.522-3.225H91.698v4h11.103v-4Zm-2 2h4-4Z" fill="url(#n)" mask="url(#o)"/></g><g filter="url(#p)"><g stroke-width="2"><path d="m75.318 43.554.56-.731.066.924a.347.347 0 0 1-.45.358.353.353 0 0 1-.176-.551Z" fill="url(#q)" stroke="url(#r)"/><path d="m81.17 43.554.56-.731.065.924a.347.347 0 0 1-.45.358.353.353 0 0 1-.176-.551Z" fill="url(#s)" stroke="url(#t)"/><path d="m87.02 43.554.56-.731.066.924a.347.347 0 0 1-.45.358.353.353 0 0 1-.176-.551Z" fill="url(#u)" stroke="url(#v)"/></g></g><g filter="url(#w)"><g stroke-width="2"><path d="m77.556 48.26.561-.73.065.924a.347.347 0 0 1-.449.357.353.353 0 0 1-.177-.55Z" fill="url(#x)" stroke="url(#y)"/><path d="m83.457 48.26.561-.73.065.924a.347.347 0 0 1-.449.357.353.353 0 0 1-.177-.55Z" fill="url(#z)" stroke="url(#A)"/></g></g><defs><linearGradient id="m" x1="98.064" y1="23.981" x2="98.064" y2="37.008" gradientUnits="userSpaceOnUse"><stop stop-color="#fff"/><stop offset="1" stop-color="#fff" stop-opacity="0"/></linearGradient><linearGradient id="A" x1="84.828" y1="44.825" x2="83.303" y2="49.756" gradientUnits="userSpaceOnUse"><stop stop-color="#fff"/><stop offset="1" stop-color="#fff" stop-opacity="0"/></linearGradient><linearGradient id="z" x1="84.828" y1="44.825" x2="83.303" y2="49.756" gradientUnits="userSpaceOnUse"><stop stop-color="#138EFF"/><stop offset="1" stop-color="#00E0FF"/></linearGradient><linearGradient id="y" x1="78.926" y1="44.825" x2="77.402" y2="49.756" gradientUnits="userSpaceOnUse"><stop stop-color="#fff"/><stop offset="1" stop-color="#fff" stop-opacity="0"/></linearGradient><linearGradient id="x" x1="78.926" y1="44.825" x2="77.402" y2="49.756" gradientUnits="userSpaceOnUse"><stop stop-color="#138EFF"/><stop offset="1" stop-color="#00E0FF"/></linearGradient><linearGradient id="v" x1="88.39" y1="40.119" x2="86.866" y2="45.049" gradientUnits="userSpaceOnUse"><stop stop-color="#fff"/><stop offset="1" stop-color="#fff" stop-opacity="0"/></linearGradient><linearGradient id="b" x1="80.564" y1="20.362" x2="80.564" y2="33.389" gradientUnits="userSpaceOnUse"><stop stop-color="#fff"/><stop offset="1" stop-color="#fff" stop-opacity="0"/></linearGradient><linearGradient id="c" x1="79.75" y1="20" x2="79.75" y2="32.03" gradientUnits="userSpaceOnUse"><stop stop-color="#fff"/><stop offset="1" stop-color="#fff" stop-opacity="0"/></linearGradient><linearGradient id="f" x1="87.177" y1="18.294" x2="87.177" y2="42.591" gradientUnits="userSpaceOnUse"><stop stop-color="#fff"/><stop offset="1" stop-color="#fff" stop-opacity="0"/></linearGradient><linearGradient id="g" x1="87.177" y1="23.619" x2="87.177" y2="40.265" gradientUnits="userSpaceOnUse"><stop stop-color="#fff"/><stop offset="1" stop-color="#fff" stop-opacity="0"/></linearGradient><linearGradient id="j" x1="98.318" y1="33.855" x2="95.696" y2="45.054" gradientUnits="userSpaceOnUse"><stop stop-color="#FF4D00"/><stop offset="1" stop-color="#FFB800"/></linearGradient><linearGradient id="k" x1="94.91" y1="44.918" x2="99.663" y2="34.895" gradientUnits="userSpaceOnUse"><stop stop-color="#fff"/><stop offset="1" stop-color="#fff" stop-opacity="0"/></linearGradient><linearGradient id="u" x1="88.39" y1="40.119" x2="86.866" y2="45.049" gradientUnits="userSpaceOnUse"><stop stop-color="#138EFF"/><stop offset="1" stop-color="#00E0FF"/></linearGradient><linearGradient id="n" x1="97.25" y1="23.619" x2="97.25" y2="35.649" gradientUnits="userSpaceOnUse"><stop stop-color="#fff"/><stop offset="1" stop-color="#fff" stop-opacity="0"/></linearGradient><linearGradient id="q" x1="76.688" y1="40.119" x2="75.164" y2="45.049" gradientUnits="userSpaceOnUse"><stop stop-color="#138EFF"/><stop offset="1" stop-color="#00E0FF"/></linearGradient><linearGradient id="r" x1="76.688" y1="40.119" x2="75.164" y2="45.049" gradientUnits="userSpaceOnUse"><stop stop-color="#fff"/><stop offset="1" stop-color="#fff" stop-opacity="0"/></linearGradient><linearGradient id="s" x1="82.539" y1="40.119" x2="81.015" y2="45.049" gradientUnits="userSpaceOnUse"><stop stop-color="#138EFF"/><stop offset="1" stop-color="#00E0FF"/></linearGradient><linearGradient id="t" x1="82.539" y1="40.119" x2="81.015" y2="45.049" gradientUnits="userSpaceOnUse"><stop stop-color="#fff"/><stop offset="1" stop-color="#fff" stop-opacity="0"/></linearGradient><filter id="e" x="4.07" y="-11.381" width="124.215" height="116.646" filterUnits="userSpaceOnUse" color-interpolation-filters="sRGB"><feFlood flood-opacity="0" result="BackgroundImageFix"/><feGaussianBlur in="BackgroundImageFix" stdDeviation="7"/><feComposite in2="SourceAlpha" operator="in" result="effect1_backgroundBlur_53_669"/><feColorMatrix in="SourceAlpha" values="0 0 0 0 0 0 0 0 0 0 0 0 0 0 0 0 0 0 127 0" result="hardAlpha"/><feOffset dx="-21" dy="15"/><feGaussianBlur stdDeviation="25"/><feComposite in2="hardAlpha" operator="out"/><feColorMatrix values="0 0 0 0 0.113725 0 0 0 0 0.14902 0 0 0 0 0.27451 0 0 0 0.25 0"/><feBlend in2="effect1_backgroundBlur_53_669" result="effect2_dropShadow_53_669"/><feBlend in="SourceGraphic" in2="effect2_dropShadow_53_669" result="shape"/></filter><filter id="w" x="5.486" y="-1.974" width="120.595" height="116.804" filterUnits="userSpaceOnUse" color-interpolation-filters="sRGB"><feFlood flood-opacity="0" result="BackgroundImageFix"/><feGaussianBlur in="BackgroundImageFix" stdDeviation="7"/><feComposite in2="SourceAlpha" operator="in" result="effect1_backgroundBlur_53_669"/><feColorMatrix in="SourceAlpha" values="0 0 0 0 0 0 0 0 0 0 0 0 0 0 0 0 0 0 127 0" result="hardAlpha"/><feOffset dx="-21" dy="15"/><feGaussianBlur stdDeviation="25"/><feComposite in2="hardAlpha" operator="out"/><feColorMatrix values="0 0 0 0 0.113438 0 0 0 0 0.148981 0 0 0 0 0.275 0 0 0 0.25 0"/><feBlend in2="effect1_backgroundBlur_53_669" result="effect2_dropShadow_53_669"/><feColorMatrix in="SourceAlpha" values="0 0 0 0 0 0 0 0 0 0 0 0 0 0 0 0 0 0 127 0" result="hardAlpha"/><feOffset dy="-7"/><feGaussianBlur stdDeviation="20.5"/><feComposite in2="hardAlpha" operator="out"/><feColorMatrix values="0 0 0 0 0.1375 0 0 0 0 0.74125 0 0 0 0 1 0 0 0 0.3 0"/><feBlend in2="effect2_dropShadow_53_669" result="effect3_dropShadow_53_669"/><feBlend in="SourceGraphic" in2="effect3_dropShadow_53_669" result="shape"/></filter><filter id="p" x="3.248" y="-6.68" width="126.396" height="116.804" filterUnits="userSpaceOnUse" color-interpolation-filters="sRGB"><feFlood flood-opacity="0" result="BackgroundImageFix"/><feGaussianBlur in="BackgroundImageFix" stdDeviation="7"/><feComposite in2="SourceAlpha" operator="in" result="effect1_backgroundBlur_53_669"/><feColorMatrix in="SourceAlpha" values="0 0 0 0 0 0 0 0 0 0 0 0 0 0 0 0 0 0 127 0" result="hardAlpha"/><feOffset dx="-21" dy="15"/><feGaussianBlur stdDeviation="25"/><feComposite in2="hardAlpha" operator="out"/><feColorMatrix values="0 0 0 0 0.113438 0 0 0 0 0.148981 0 0 0 0 0.275 0 0 0 0.25 0"/><feBlend in2="effect1_backgroundBlur_53_669" result="effect2_dropShadow_53_669"/><feColorMatrix in="SourceAlpha" values="0 0 0 0 0 0 0 0 0 0 0 0 0 0 0 0 0 0 127 0" result="hardAlpha"/><feOffset dy="-7"/><feGaussianBlur stdDeviation="20.5"/><feComposite in2="hardAlpha" operator="out"/><feColorMatrix values="0 0 0 0 0.1375 0 0 0 0 0.74125 0 0 0 0 1 0 0 0 0.3 0"/><feBlend in2="effect2_dropShadow_53_669" result="effect3_dropShadow_53_669"/><feBlend in="SourceGraphic" in2="effect3_dropShadow_53_669" result="shape"/></filter><filter id="l" x="17.5" y="-11.381" width="117.5" height="112.03" filterUnits="userSpaceOnUse" color-interpolation-filters="sRGB"><feFlood flood-opacity="0" result="BackgroundImageFix"/><feGaussianBlur in="BackgroundImageFix" stdDeviation="7"/><feComposite in2="SourceAlpha" operator="in" result="effect1_backgroundBlur_53_669"/><feColorMatrix in="SourceAlpha" values="0 0 0 0 0 0 0 0 0 0 0 0 0 0 0 0 0 0 127 0" result="hardAlpha"/><feOffset dx="-21" dy="15"/><feGaussianBlur stdDeviation="25"/><feComposite in2="hardAlpha" operator="out"/><feColorMatrix values="0 0 0 0 0.113438 0 0 0 0 0.148981 0 0 0 0 0.275 0 0 0 0.25 0"/><feBlend in2="effect1_backgroundBlur_53_669" result="effect2_dropShadow_53_669"/><feBlend in="SourceGraphic" in2="effect2_dropShadow_53_669" result="shape"/></filter><filter id="i" x="21.287" y="-28.283" width="141.238" height="139.621" filterUnits="userSpaceOnUse" color-interpolation-filters="sRGB"><feFlood flood-opacity="0" result="BackgroundImageFix"/><feGaussianBlur in="BackgroundImageFix" stdDeviation="7"/><feComposite in2="SourceAlpha" operator="in" result="effect1_backgroundBlur_53_669"/><feColorMatrix in="SourceAlpha" values="0 0 0 0 0 0 0 0 0 0 0 0 0 0 0 0 0 0 127 0" result="hardAlpha"/><feOffset dx="-21" dy="15"/><feGaussianBlur stdDeviation="25"/><feComposite in2="hardAlpha" operator="out"/><feColorMatrix values="0 0 0 0 0.113438 0 0 0 0 0.148981 0 0 0 0 0.275 0 0 0 0.25 0"/><feBlend in2="effect1_backgroundBlur_53_669" result="effect2_dropShadow_53_669"/><feColorMatrix in="SourceAlpha" values="0 0 0 0 0 0 0 0 0 0 0 0 0 0 0 0 0 0 127 0" result="hardAlpha"/><feOffset/><feGaussianBlur stdDeviation="30.5"/><feComposite in2="hardAlpha" operator="out"/><feColorMatrix values="0 0 0 0 1 0 0 0 0 0.721569 0 0 0 0 0.00392157 0 0 0 0.49 0"/><feBlend in2="effect2_dropShadow_53_669" result="effect3_dropShadow_53_669"/><feBlend in="SourceGraphic" in2="effect3_dropShadow_53_669" result="shape"/></filter><filter id="a" x="0" y="-15" width="117.5" height="112.03" filterUnits="userSpaceOnUse" color-interpolation-filters="sRGB"><feFlood flood-opacity="0" result="BackgroundImageFix"/><feGaussianBlur in="BackgroundImageFix" stdDeviation="7"/><feComposite in2="SourceAlpha" operator="in" result="effect1_backgroundBlur_53_669"/><feColorMatrix in="SourceAlpha" values="0 0 0 0 0 0 0 0 0 0 0 0 0 0 0 0 0 0 127 0" result="hardAlpha"/><feOffset dx="-21" dy="15"/><feGaussianBlur stdDeviation="25"/><feComposite in2="hardAlpha" operator="out"/><feColorMatrix values="0 0 0 0 0.113438 0 0 0 0 0.148981 0 0 0 0 0.275 0 0 0 0.25 0"/><feBlend in2="effect1_backgroundBlur_53_669" result="effect2_dropShadow_53_669"/><feBlend in="SourceGraphic" in2="effect2_dropShadow_53_669" result="shape"/></filter></defs></svg>