<svg xmlns="http://www.w3.org/2000/svg" width="185" height="167" fill="none"><g filter="url(#a)"><circle cx="91.794" cy="45.794" r="29.794" fill="#FFC701" fill-opacity=".5"/></g><circle cx="91.794" cy="46.771" r="27.817" fill="url(#b)" stroke="url(#c)" stroke-width="2"/><mask id="e" width="59" height="42" x="62" y="34" maskUnits="userSpaceOnUse" style="mask-type:alpha"><path fill="url(#d)" d="M120.612 46.771c0 15.915-12.902 28.817-28.818 28.817-15.915 0-28.817-12.902-28.817-28.817 0-15.915 10.704-12.21 26.62-12.21 15.915 0 31.015-3.705 31.015 12.21Z"/></mask><g filter="url(#f)" mask="url(#e)"><path fill="#E18700" fill-rule="evenodd" d="M135.753 99.521c0 11.6-9.403 21.003-21.003 21.003l-.244-.002v.002H40.753l.001-.001-.245.001c-11.6 0-21.002-9.403-21.002-21.002 0-11.6 9.403-21.003 21.002-21.003 9.998 0 18.365 6.987 20.484 16.344l7.113-9.018 22.223-7.326h24.177v.001l.244-.001c11.6 0 21.003 9.403 21.003 21.002Z" clip-rule="evenodd"/></g><g filter="url(#g)"><mask id="j" fill="#fff"><path fill-rule="evenodd" d="m140.423 101.158.177.001c8.383 0 15.178-6.795 15.178-15.178 0-8.383-6.795-15.178-15.178-15.178h-4.098c.142-1.04.215-2.1.215-3.177 0-12.867-10.43-23.297-23.297-23.297-12.866 0-23.296 10.43-23.296 23.297 0 1.214.092 2.406.272 3.57a15.225 15.225 0 0 0-3.45-.393c-8.382 0-15.177 6.795-15.177 15.178 0 8.383 6.795 15.178 15.178 15.178l.177-.001-.001.001h53.3v-.001Z" clip-rule="evenodd"/></mask><path fill="url(#h)" fill-rule="evenodd" d="m140.423 101.158.177.001c8.383 0 15.178-6.795 15.178-15.178 0-8.383-6.795-15.178-15.178-15.178h-4.098c.142-1.04.215-2.1.215-3.177 0-12.867-10.43-23.297-23.297-23.297-12.866 0-23.296 10.43-23.296 23.297 0 1.214.092 2.406.272 3.57a15.225 15.225 0 0 0-3.45-.393c-8.382 0-15.177 6.795-15.177 15.178 0 8.383 6.795 15.178 15.178 15.178l.177-.001-.001.001h53.3v-.001Z" clip-rule="evenodd" shape-rendering="crispEdges"/><path fill="url(#i)" d="m140.423 101.158.023-2a2 2 0 0 0-2.023 2h2Zm0-30.354h-2a2 2 0 0 0 2.023 2l-.023-2Zm0-.001h2a2 2 0 0 0-2-2v2Zm-3.921 0-1.981-.27a2 2 0 0 0 1.981 2.27v-2Zm-46.107.393-.452 1.948a2 2 0 0 0 2.43-2.252l-1.978.304Zm-3.271 29.962 1.57 1.239a2.001 2.001 0 0 0-1.593-3.239l.023 2Zm-.001.001-1.57-1.238a2 2 0 0 0 1.57 3.238v-2Zm53.3 0v2a2 2 0 0 0 2-2h-2Zm-.023 1.999.2.001v-4h-.154l-.046 3.999Zm.2.001c9.487 0 17.178-7.69 17.178-17.178h-4c0 7.278-5.9 13.178-13.178 13.178v4Zm17.178-17.178c0-9.487-7.691-17.178-17.178-17.178v4c7.278 0 13.178 5.9 13.178 13.178h4ZM140.6 68.803h-.2l.046 4h.154v-4Zm-2.177 2h4-4Zm-1.921 2h3.921v-4h-3.921v4Zm1.982-1.73c.154-1.128.233-2.28.233-3.447h-4c0 .987-.067 1.957-.196 2.906l3.963.54Zm.233-3.447c0-13.972-11.326-25.297-25.297-25.297v4c11.762 0 21.297 9.535 21.297 21.297h4ZM113.42 42.329c-13.97 0-25.296 11.325-25.296 25.297h4c0-11.762 9.534-21.297 21.296-21.297v-4ZM88.124 67.626c0 1.316.1 2.61.295 3.874l3.953-.608a21.48 21.48 0 0 1-.248-3.266h-4Zm2.724 1.622a17.227 17.227 0 0 0-3.901-.445v4c1.033 0 2.035.118 2.996.341l.905-3.896Zm-3.901-.445c-9.487 0-17.178 7.69-17.178 17.178h4c0-7.278 5.9-13.178 13.178-13.178v-4ZM69.769 85.98c0 9.487 7.69 17.178 17.178 17.178v-4c-7.278 0-13.178-5.9-13.178-13.178h-4Zm17.178 17.178.2-.001-.046-4-.154.001v4Zm1.746-.761.001-.001-3.14-2.477h-.001l3.14 2.478Zm51.73-3.239h-53.3v4h53.3v-4Zm-2 1.999v.001h4v-.001h-4Z" mask="url(#j)"/></g><defs><linearGradient id="b" x1="91.794" x2="91.794" y1="17.954" y2="75.588" gradientUnits="userSpaceOnUse"><stop stop-color="#FFE600"/><stop offset="1" stop-color="#FF7A00"/></linearGradient><linearGradient id="c" x1="91.794" x2="91.794" y1="17.954" y2="75.588" gradientUnits="userSpaceOnUse"><stop stop-color="#fff"/><stop offset="1" stop-color="#fff" stop-opacity="0"/></linearGradient><linearGradient id="d" x1="91.794" x2="91.794" y1="17.954" y2="75.588" gradientUnits="userSpaceOnUse"><stop stop-color="#FFD600"/><stop offset="1" stop-color="#FF7A00"/></linearGradient><linearGradient id="h" x1="117.681" x2="117.681" y1="46.038" y2="107.58" gradientUnits="userSpaceOnUse"><stop stop-color="#fff"/><stop offset="1" stop-color="#fff" stop-opacity="0"/></linearGradient><linearGradient id="i" x1="113.773" x2="113.773" y1="44.329" y2="101.159" gradientUnits="userSpaceOnUse"><stop stop-color="#fff"/><stop offset="1" stop-color="#fff" stop-opacity="0"/></linearGradient><filter id="a" width="147.588" height="147.588" x="18" y="-28" color-interpolation-filters="sRGB" filterUnits="userSpaceOnUse"><feFlood flood-opacity="0" result="BackgroundImageFix"/><feBlend in="SourceGraphic" in2="BackgroundImageFix" result="shape"/><feGaussianBlur result="effect1_foregroundBlur_3_2371" stdDeviation="22"/></filter><filter id="f" width="144.246" height="70.005" x="5.507" y="64.519" color-interpolation-filters="sRGB" filterUnits="userSpaceOnUse"><feFlood flood-opacity="0" result="BackgroundImageFix"/><feBlend in="SourceGraphic" in2="BackgroundImageFix" result="shape"/><feGaussianBlur result="effect1_foregroundBlur_3_2371" stdDeviation="7"/></filter><filter id="g" width="184.01" height="156.83" x=".769" y="9.329" color-interpolation-filters="sRGB" filterUnits="userSpaceOnUse"><feFlood flood-opacity="0" result="BackgroundImageFix"/><feGaussianBlur in="BackgroundImageFix" stdDeviation="7"/><feComposite in2="SourceAlpha" operator="in" result="effect1_backgroundBlur_3_2371"/><feColorMatrix in="SourceAlpha" result="hardAlpha" values="0 0 0 0 0 0 0 0 0 0 0 0 0 0 0 0 0 0 127 0"/><feOffset dx="-21" dy="15"/><feGaussianBlur stdDeviation="25"/><feComposite in2="hardAlpha" operator="out"/><feColorMatrix values="0 0 0 0 0.113438 0 0 0 0 0.148981 0 0 0 0 0.275 0 0 0 0.25 0"/><feBlend in2="effect1_backgroundBlur_3_2371" result="effect2_dropShadow_3_2371"/><feBlend in="SourceGraphic" in2="effect2_dropShadow_3_2371" result="shape"/></filter></defs></svg>