<svg xmlns="http://www.w3.org/2000/svg" width="172" height="207" fill="none"><g filter="url(#a)"><mask id="d" fill="#fff"><path fill-rule="evenodd" d="M80.093 38.885c.867-.108 1.376.911.88 1.629-4.297 6.21-5.117 14.525-1.422 21.709 4.844 9.417 15.781 13.653 25.519 10.37.828-.279 1.667.495 1.322 1.297a25.115 25.115 0 0 1-11.625 12.446c-12.384 6.37-27.587 1.494-33.958-10.89C54.44 63.062 59.315 47.86 71.7 41.49a25.17 25.17 0 0 1 8.394-2.604Z" clip-rule="evenodd"/></mask><path fill="url(#b)" fill-rule="evenodd" d="M80.093 38.885c.867-.108 1.376.911.88 1.629-4.297 6.21-5.117 14.525-1.422 21.709 4.844 9.417 15.781 13.653 25.519 10.37.828-.279 1.667.495 1.322 1.297a25.115 25.115 0 0 1-11.625 12.446c-12.384 6.37-27.587 1.494-33.958-10.89C54.44 63.062 59.315 47.86 71.7 41.49a25.17 25.17 0 0 1 8.394-2.604Z" clip-rule="evenodd"/><path fill="url(#c)" d="m105.07 72.593-.638-1.895.638 1.895Zm1.322 1.297-1.837-.79 1.837.79Zm-25.42-33.376-1.644-1.138 1.645 1.138Zm-.879-1.629-.248-1.984.248 1.984Zm1.236 22.423c-3.344-6.502-2.605-14.03 1.288-19.656l-3.289-2.276c-4.7 6.792-5.602 15.896-1.556 23.762l3.557-1.83Zm23.103 9.39c-8.815 2.972-18.718-.866-23.103-9.39l-3.557 1.83c5.303 10.31 17.276 14.944 27.937 11.35l-1.277-3.79Zm.123 2.402a23.114 23.114 0 0 1-10.703 11.457l1.83 3.557a27.111 27.111 0 0 0 12.547-13.434l-3.674-1.58ZM93.852 84.556c-11.402 5.865-25.4 1.376-31.264-10.026l-3.557 1.83c6.875 13.366 23.284 18.629 36.65 11.753l-1.829-3.557ZM62.588 74.531c-5.865-11.402-1.376-25.4 10.026-31.264l-1.83-3.557c-13.366 6.875-18.628 23.285-11.753 36.651l3.557-1.83Zm10.026-31.264a23.167 23.167 0 0 1 7.728-2.397l-.497-3.97a27.167 27.167 0 0 0-9.06 2.81l1.829 3.557Zm33.095 31.221a.915.915 0 0 1-.922-.208 1.08 1.08 0 0 1-.232-1.18l3.674 1.58c.544-1.264.118-2.529-.674-3.288a3.086 3.086 0 0 0-3.123-.694l1.277 3.79ZM82.617 41.652a3.086 3.086 0 0 0 .198-3.191c-.51-.972-1.605-1.731-2.97-1.56l.497 3.969a1.08 1.08 0 0 1-1.069-.551.914.914 0 0 1 .055-.943l3.29 2.276Z" mask="url(#d)"/></g><mask id="f" width="47" height="34" x="68" y="70" maskUnits="userSpaceOnUse" style="mask-type:alpha"><path fill="url(#e)" d="M114.214 81.018c0 12.671-10.271 22.943-22.942 22.943S68.329 93.689 68.329 81.018c0-12.67 8.522-9.72 21.193-9.72 12.671 0 24.692-2.95 24.692 9.72Z"/></mask><g filter="url(#g)" mask="url(#f)"><path fill="#E18700" fill-rule="evenodd" d="M126.269 123.015c0 9.234-7.486 16.72-16.721 16.72l-.194-.001v.001H50.636l.001-.001-.195.001c-9.234 0-16.72-7.486-16.72-16.72 0-9.235 7.486-16.721 16.72-16.721 7.96 0 14.621 5.562 16.308 13.012l5.662-7.179 17.693-5.833h19.249v.001l.194-.001c9.235 0 16.721 7.486 16.721 16.721Z" clip-rule="evenodd"/></g><g filter="url(#h)"><mask id="k" fill="#fff"><path fill-rule="evenodd" d="m99.632 141.679.194.001c9.235 0 16.721-7.486 16.721-16.721s-7.486-16.721-16.72-16.721l-.195.001v-.001h-4.32a25.87 25.87 0 0 0 .237-3.499c0-14.175-11.49-25.665-25.664-25.665-14.174 0-25.665 11.49-25.665 25.665 0 1.337.103 2.651.3 3.933a16.747 16.747 0 0 0-3.8-.434c-9.234 0-16.72 7.486-16.72 16.721s7.486 16.721 16.72 16.721l.196-.001v.001h58.716v-.001Z" clip-rule="evenodd"/></mask><path fill="url(#i)" fill-rule="evenodd" d="m99.632 141.679.194.001c9.235 0 16.721-7.486 16.721-16.721s-7.486-16.721-16.72-16.721l-.195.001v-.001h-4.32a25.87 25.87 0 0 0 .237-3.499c0-14.175-11.49-25.665-25.664-25.665-14.174 0-25.665 11.49-25.665 25.665 0 1.337.103 2.651.3 3.933a16.747 16.747 0 0 0-3.8-.434c-9.234 0-16.72 7.486-16.72 16.721s7.486 16.721 16.72 16.721l.196-.001v.001h58.716v-.001Z" clip-rule="evenodd" shape-rendering="crispEdges"/><path fill="url(#j)" d="m99.632 141.679.023-2a2.003 2.003 0 0 0-2.023 2h2Zm0-33.44h-2a2.001 2.001 0 0 0 2.023 2l-.023-2Zm0-.001h2a2 2 0 0 0-2-2v2Zm-4.32 0-1.981-.27a2 2 0 0 0 1.981 2.27v-2Zm-50.792.434-.453 1.948a1.999 1.999 0 0 0 2.43-2.252l-1.977.304Zm-3.604 33.007 1.57 1.238a2 2 0 0 0-1.593-3.238l.023 2Zm0 .001-1.572-1.238a2 2 0 0 0 1.571 3.238v-2Zm58.716 0v2a2 2 0 0 0 2-2h-2Zm-.023 1.999.218.001v-4l-.172-.001-.046 4Zm.218.001c10.339 0 18.72-8.382 18.72-18.721h-4c0 8.13-6.59 14.721-14.72 14.721v4Zm18.72-18.721c0-10.339-8.381-18.721-18.72-18.721v4c8.13 0 14.72 6.591 14.72 14.721h4Zm-18.72-18.721-.218.001.046 4 .171-.001v-4Zm-2.195 2v.001h4v-.001h-4Zm-2.32 2h4.32v-4h-4.32v4Zm1.982-1.73c.168-1.233.255-2.492.255-3.769h-4a23.9 23.9 0 0 1-.218 3.229l3.963.54Zm.255-3.769c0-15.28-12.386-27.665-27.664-27.665v4c13.07 0 23.664 10.595 23.664 23.665h4ZM69.885 77.074c-15.279 0-27.665 12.386-27.665 27.665h4c0-13.07 10.595-23.665 23.665-23.665v-4ZM42.22 104.74c0 1.439.11 2.854.323 4.237l3.954-.608a23.874 23.874 0 0 1-.277-3.629h-4Zm2.752 1.985a18.76 18.76 0 0 0-4.251-.486v4c1.153 0 2.273.133 3.346.382l.905-3.896Zm-4.251-.486C30.38 106.238 22 114.62 22 124.959h4c0-8.13 6.59-14.721 14.72-14.721v-4ZM22 124.959c0 10.339 8.382 18.721 18.72 18.721v-4c-8.13 0-14.72-6.591-14.72-14.721h-4Zm18.72 18.721.219-.001-.046-4-.172.001v4Zm1.766-.762v-.001l-3.14-2.477-.002.002 3.142 2.476Zm57.146-3.238H40.915v4h58.717v-4Zm-2 1.999v.001h4v-.001h-4Z" mask="url(#k)"/></g><g filter="url(#l)"><mask id="o" fill="#fff"><path fill-rule="evenodd" d="m129.987 124.318.141.001c6.673 0 12.084-5.411 12.084-12.084 0-6.674-5.411-12.084-12.084-12.084l-.141.001v-.001h-3.122a18.68 18.68 0 0 0 .171-2.53c0-10.243-8.303-18.547-18.547-18.547-10.243 0-18.547 8.304-18.547 18.547 0 .967.074 1.916.216 2.843a12.117 12.117 0 0 0-2.746-.313c-6.673 0-12.083 5.41-12.083 12.084 0 6.673 5.41 12.084 12.084 12.084l.14-.001v.001h42.434v-.001Z" clip-rule="evenodd"/></mask><path fill="url(#m)" fill-rule="evenodd" d="m129.987 124.318.141.001c6.673 0 12.084-5.411 12.084-12.084 0-6.674-5.411-12.084-12.084-12.084l-.141.001v-.001h-3.122a18.68 18.68 0 0 0 .171-2.53c0-10.243-8.303-18.547-18.547-18.547-10.243 0-18.547 8.304-18.547 18.547 0 .967.074 1.916.216 2.843a12.117 12.117 0 0 0-2.746-.313c-6.673 0-12.083 5.41-12.083 12.084 0 6.673 5.41 12.084 12.084 12.084l.14-.001v.001h42.434v-.001Z" clip-rule="evenodd" shape-rendering="crispEdges"/><path fill="url(#n)" d="m129.987 124.318.023-2a2.001 2.001 0 0 0-2.023 2h2Zm0-24.166h-2a2 2 0 0 0 2.023 1.999l-.023-1.999Zm0-.001h2a2 2 0 0 0-2-2v2Zm-3.122 0-1.981-.27a2 2 0 0 0 1.981 2.27v-2Zm-36.707.313-.452 1.948a2.001 2.001 0 0 0 2.429-2.252l-1.977.304Zm-2.604 23.854 1.57 1.237a2 2 0 0 0-1.593-3.237l.023 2Zm-.001.001-1.571-1.238a2 2 0 0 0 1.571 3.238v-2Zm42.434 0v2a2 2 0 0 0 2-2h-2Zm-.023 1.999.164.001v-4l-.118-.001-.046 4Zm.164.001c7.778 0 14.084-6.306 14.084-14.084h-4c0 5.569-4.515 10.084-10.084 10.084v4Zm14.084-14.084c0-7.779-6.306-14.084-14.084-14.084v4c5.569 0 10.084 4.514 10.084 10.084h4Zm-14.084-14.084h-.164l.046 4h.118v-4Zm-2.141 2v.001h4v-.001h-4Zm-1.122 2h3.122v-4h-3.122v4Zm1.982-1.73c.125-.916.189-1.85.189-2.8h-4c0 .768-.052 1.522-.152 2.26l3.963.54Zm.189-2.8c0-11.347-9.199-20.547-20.547-20.547v4c9.139 0 16.547 7.409 16.547 16.547h4Zm-20.547-20.547c-11.348 0-20.547 9.2-20.547 20.547h4c0-9.138 7.408-16.547 16.547-16.547v-4ZM87.942 97.621c0 1.07.082 2.12.24 3.147l3.953-.608a16.69 16.69 0 0 1-.193-2.538h-4Zm2.669.895c-1.03-.24-2.1-.365-3.199-.365v4c.791 0 1.559.09 2.294.261l.905-3.896Zm-3.199-.365c-7.778 0-14.083 6.305-14.083 14.084h4c0-5.57 4.514-10.084 10.084-10.084v-4ZM73.33 112.235c0 7.778 6.305 14.084 14.084 14.084v-4c-5.57 0-10.084-4.515-10.084-10.084h-4Zm14.084 14.084.163-.001-.045-4-.119.001v4Zm1.711-.763v-.001l-3.142-2.475v.001l3.142 2.475Zm40.863-3.237H87.553v4h42.434v-4Zm-2 1.999v.001h4v-.001h-4Z" mask="url(#o)"/></g><defs><linearGradient id="c" x1="69.74" x2="84.204" y1="19.627" y2="78.486" gradientUnits="userSpaceOnUse"><stop stop-color="#fff"/><stop offset="1" stop-color="#fff" stop-opacity="0"/></linearGradient><linearGradient id="n" x1="108.77" x2="108.77" y1="79.074" y2="124.319" gradientUnits="userSpaceOnUse"><stop stop-color="#fff"/><stop offset="1" stop-color="#fff" stop-opacity="0"/></linearGradient><linearGradient id="m" x1="111.881" x2="111.881" y1="80.435" y2="129.431" gradientUnits="userSpaceOnUse"><stop stop-color="#fff"/><stop offset="1" stop-color="#fff" stop-opacity="0"/></linearGradient><linearGradient id="j" x1="70.274" x2="70.274" y1="79.074" y2="141.68" gradientUnits="userSpaceOnUse"><stop stop-color="#fff"/><stop offset="1" stop-color="#fff" stop-opacity="0"/></linearGradient><linearGradient id="b" x1="67.13" x2="90.198" y1="44.338" y2="89.186" gradientUnits="userSpaceOnUse"><stop offset="0" stop-color="#D4C0FF"/><stop offset="1" stop-color="#7E2FFF"/></linearGradient><linearGradient id="i" x1="70.274" x2="70.274" y1="59.048" y2="150.429" gradientUnits="userSpaceOnUse"><stop stop-color="#fff"/><stop offset="1" stop-color="#fff" stop-opacity="0"/></linearGradient><linearGradient id="e" x1="91.272" x2="91.272" y1="58.076" y2="103.961" gradientUnits="userSpaceOnUse"><stop stop-color="#FFD600"/><stop offset="1" stop-color="#FF7A00"/></linearGradient><filter id="g" width="120.547" height="61.441" x="19.721" y="92.294" color-interpolation-filters="sRGB" filterUnits="userSpaceOnUse"><feFlood flood-opacity="0" result="BackgroundImageFix"/><feBlend in="SourceGraphic" in2="BackgroundImageFix" result="shape"/><feGaussianBlur result="effect1_foregroundBlur_3_2324" stdDeviation="7"/></filter><filter id="l" width="166.883" height="145.244" x="4.329" y="44.074" color-interpolation-filters="sRGB" filterUnits="userSpaceOnUse"><feFlood flood-opacity="0" result="BackgroundImageFix"/><feGaussianBlur in="BackgroundImageFix" stdDeviation="7"/><feComposite in2="SourceAlpha" operator="in" result="effect1_backgroundBlur_3_2324"/><feColorMatrix in="SourceAlpha" result="hardAlpha" values="0 0 0 0 0 0 0 0 0 0 0 0 0 0 0 0 0 0 127 0"/><feOffset dx="-21" dy="15"/><feGaussianBlur stdDeviation="25"/><feComposite in2="hardAlpha" operator="out"/><feColorMatrix values="0 0 0 0 0.113438 0 0 0 0 0.148981 0 0 0 0 0.275 0 0 0 0.25 0"/><feBlend in2="effect1_backgroundBlur_3_2324" result="effect2_dropShadow_3_2324"/><feBlend in="SourceGraphic" in2="effect2_dropShadow_3_2324" result="shape"/></filter><filter id="h" width="192.547" height="162.606" x="-47" y="44.074" color-interpolation-filters="sRGB" filterUnits="userSpaceOnUse"><feFlood flood-opacity="0" result="BackgroundImageFix"/><feGaussianBlur in="BackgroundImageFix" stdDeviation="7"/><feComposite in2="SourceAlpha" operator="in" result="effect1_backgroundBlur_3_2324"/><feColorMatrix in="SourceAlpha" result="hardAlpha" values="0 0 0 0 0 0 0 0 0 0 0 0 0 0 0 0 0 0 127 0"/><feOffset dx="-21" dy="15"/><feGaussianBlur stdDeviation="25"/><feComposite in2="hardAlpha" operator="out"/><feColorMatrix values="0 0 0 0 0.113725 0 0 0 0 0.14902 0 0 0 0 0.27451 0 0 0 0.25 0"/><feBlend in2="effect1_backgroundBlur_3_2324" result="effect2_dropShadow_3_2324"/><feBlend in="SourceGraphic" in2="effect2_dropShadow_3_2324" result="shape"/></filter><filter id="a" width="157.46" height="153.256" x="-12.988" y=".877" color-interpolation-filters="sRGB" filterUnits="userSpaceOnUse"><feFlood flood-opacity="0" result="BackgroundImageFix"/><feGaussianBlur in="BackgroundImageFix" stdDeviation="7"/><feComposite in2="SourceAlpha" operator="in" result="effect1_backgroundBlur_3_2324"/><feColorMatrix in="SourceAlpha" result="hardAlpha" values="0 0 0 0 0 0 0 0 0 0 0 0 0 0 0 0 0 0 127 0"/><feOffset dx="-21" dy="15"/><feGaussianBlur stdDeviation="25"/><feComposite in2="hardAlpha" operator="out"/><feColorMatrix values="0 0 0 0 0.113438 0 0 0 0 0.148981 0 0 0 0 0.275 0 0 0 0.25 0"/><feBlend in2="effect1_backgroundBlur_3_2324" result="effect2_dropShadow_3_2324"/><feColorMatrix in="SourceAlpha" result="hardAlpha" values="0 0 0 0 0 0 0 0 0 0 0 0 0 0 0 0 0 0 127 0"/><feOffset/><feGaussianBlur stdDeviation="19"/><feComposite in2="hardAlpha" operator="out"/><feColorMatrix values="0 0 0 0 0.619608 0 0 0 0 0.423529 0 0 0 0 1 0 0 0 0.4 0"/><feBlend in2="effect2_dropShadow_3_2324" result="effect3_dropShadow_3_2324"/><feBlend in="SourceGraphic" in2="effect3_dropShadow_3_2324" result="shape"/></filter></defs></svg>