<svg xmlns="http://www.w3.org/2000/svg" width="172" height="173" fill="none"><g filter="url(#a)"><circle cx="91.156" cy="46.066" r="23.72" fill="#FFC701" fill-opacity=".5"/></g><circle cx="91.156" cy="46.843" r="21.942" fill="url(#b)" stroke="url(#c)" stroke-width="2"/><mask id="e" width="47" height="34" x="68" y="36" maskUnits="userSpaceOnUse" style="mask-type:alpha"><path fill="url(#d)" d="M114.098 46.843c0 12.671-10.272 22.943-22.942 22.943-12.671 0-22.943-10.272-22.943-22.943 0-12.67 8.522-9.721 21.193-9.721 12.67 0 24.692-2.95 24.692 9.721Z"/></mask><g filter="url(#f)" mask="url(#e)"><path fill="#E18700" fill-rule="evenodd" d="m109.237 105.559.195.001c9.234 0 16.72-7.486 16.72-16.72 0-9.235-7.486-16.721-16.72-16.721l-.195.001v-.001h-10.66c.234-1.391.356-2.82.356-4.277 0-14.174-11.49-25.665-25.665-25.665-14.174 0-25.664 11.49-25.664 25.665 0 1.514.13 2.997.382 4.44-8.127 1.137-14.381 8.117-14.381 16.558 0 9.234 7.486 16.72 16.72 16.72l.196-.001v.001h58.716v-.001Z" clip-rule="evenodd"/></g><g filter="url(#g)"><mask id="j" fill="#fff"><path fill-rule="evenodd" d="m99.516 107.504.194.001c9.235 0 16.721-7.486 16.721-16.721s-7.486-16.72-16.72-16.72H95.195c.156-1.145.237-2.313.237-3.5 0-14.174-11.49-25.665-25.664-25.665-14.175 0-25.665 11.49-25.665 25.665 0 1.337.102 2.65.3 3.933a16.77 16.77 0 0 0-3.8-.434c-9.234 0-16.72 7.486-16.72 16.721s7.486 16.721 16.72 16.721l.196-.001-.001.001h58.717v-.001Z" clip-rule="evenodd"/></mask><path fill="url(#h)" fill-rule="evenodd" d="m99.516 107.504.194.001c9.235 0 16.721-7.486 16.721-16.721s-7.486-16.72-16.72-16.72H95.195c.156-1.145.237-2.313.237-3.5 0-14.174-11.49-25.665-25.664-25.665-14.175 0-25.665 11.49-25.665 25.665 0 1.337.102 2.65.3 3.933a16.77 16.77 0 0 0-3.8-.434c-9.234 0-16.72 7.486-16.72 16.721s7.486 16.721 16.72 16.721l.196-.001-.001.001h58.717v-.001Z" clip-rule="evenodd" shape-rendering="crispEdges"/><path fill="url(#i)" d="m99.516 107.504.023-2a2.003 2.003 0 0 0-2.023 2h2Zm0-33.44h-2a2 2 0 0 0 2.023 2l-.023-2Zm0 0h2a2 2 0 0 0-2-2v2Zm-4.32 0-1.981-.27a2 2 0 0 0 1.981 2.27v-2Zm-50.792.433-.453 1.948a2 2 0 0 0 2.43-2.252l-1.977.304ZM40.8 107.504l1.57 1.238a2 2 0 0 0-1.593-3.238l.023 2Zm-.001.001-1.57-1.238a2 2 0 0 0 1.57 3.238v-2Zm58.717 0v2a2 2 0 0 0 2-2h-2Zm-.023 1.999.218.001v-4l-.172-.001-.046 4Zm.218.001c10.339 0 18.72-8.382 18.72-18.721h-4c0 8.13-6.59 14.721-14.72 14.721v4Zm18.72-18.721c0-10.34-8.381-18.72-18.72-18.72v4c8.13 0 14.72 6.59 14.72 14.72h4Zm-18.72-18.72h-.218l.046 4h.171v-4Zm-2.195 2h4-4Zm-2.32 2h4.32v-4h-4.32v4Zm1.982-1.73c.168-1.234.255-2.493.255-3.77h-4c0 1.096-.075 2.174-.218 3.23l3.963.54Zm.255-3.77c0-15.28-12.386-27.665-27.664-27.665v4c13.07 0 23.664 10.595 23.664 23.665h4ZM69.769 42.899c-15.28 0-27.665 12.386-27.665 27.665h4c0-13.07 10.595-23.665 23.665-23.665v-4ZM42.104 70.564c0 1.44.11 2.854.323 4.237l3.953-.608a23.874 23.874 0 0 1-.276-3.63h-4Zm2.752 1.985a18.772 18.772 0 0 0-4.252-.486v4c1.154 0 2.274.132 3.347.382l.905-3.896Zm-4.252-.486c-10.339 0-18.72 8.382-18.72 18.721h4c0-8.13 6.59-14.72 14.72-14.72v-4Zm-18.72 18.721c0 10.339 8.381 18.721 18.72 18.721v-4c-8.13 0-14.72-6.591-14.72-14.721h-4Zm18.72 18.721.219-.001-.046-4-.172.001v4Zm1.766-.762v-.001l-3.14-2.477-.002.002 3.142 2.476Zm57.146-3.238H40.799v4h58.717v-4Zm-2 1.999v.001h4v-.001h-4Z" mask="url(#j)"/></g><g filter="url(#k)"><mask id="n" fill="#fff"><path fill-rule="evenodd" d="M129.871 90.143h.141c6.673 0 12.084-5.41 12.084-12.083 0-6.674-5.411-12.084-12.084-12.084h-3.262c.112-.827.171-1.672.171-2.53 0-10.243-8.304-18.547-18.548-18.547-10.243 0-18.547 8.304-18.547 18.547 0 .967.074 1.916.216 2.843a12.117 12.117 0 0 0-2.746-.313c-6.673 0-12.083 5.41-12.083 12.084 0 6.673 5.41 12.084 12.084 12.084l.14-.001h42.434Z" clip-rule="evenodd"/></mask><path fill="url(#l)" fill-rule="evenodd" d="M129.871 90.143h.141c6.673 0 12.084-5.41 12.084-12.083 0-6.674-5.411-12.084-12.084-12.084h-3.262c.112-.827.171-1.672.171-2.53 0-10.243-8.304-18.547-18.548-18.547-10.243 0-18.547 8.304-18.547 18.547 0 .967.074 1.916.216 2.843a12.117 12.117 0 0 0-2.746-.313c-6.673 0-12.083 5.41-12.083 12.084 0 6.673 5.41 12.084 12.084 12.084l.14-.001h42.434Z" clip-rule="evenodd" shape-rendering="crispEdges"/><path fill="url(#m)" d="m129.871 90.143.023-2a2 2 0 0 0-2.023 2h2Zm0-24.166h-2a2 2 0 0 0 2.023 2l-.023-2Zm0-.001h2a2 2 0 0 0-2-2v2Zm-3.121 0-1.982-.27a2 2 0 0 0 1.982 2.27v-2Zm-36.708.313-.452 1.948a2 2 0 0 0 2.429-2.252l-1.977.304Zm-2.604 23.854 1.571 1.237a2 2 0 0 0-1.594-3.237l.023 2Zm0 0-1.572-1.237a2 2 0 0 0 1.571 3.237v-2Zm42.433 0v2a2 2 0 0 0 2-2h-2Zm-.023 2h.164v-4h-.118l-.046 4Zm.164 0c7.778 0 14.084-6.305 14.084-14.083h-4c0 5.569-4.515 10.084-10.084 10.084v4Zm14.084-14.083c0-7.779-6.306-14.084-14.084-14.084v4c5.569 0 10.084 4.514 10.084 10.084h4Zm-14.084-14.084h-.163l.045 4h.118v-4Zm-2.141 2h4-4Zm-1.121 2h3.121v-4h-3.121v4Zm1.981-1.73c.125-.916.19-1.851.19-2.8h-4c0 .768-.053 1.522-.153 2.26l3.963.54Zm.19-2.8c0-11.347-9.2-20.547-20.548-20.547v4c9.139 0 16.548 7.409 16.548 16.547h4ZM108.373 42.9c-11.348 0-20.547 9.2-20.547 20.547h4c0-9.138 7.408-16.547 16.547-16.547v-4ZM87.826 63.446c0 1.07.082 2.12.24 3.147l3.953-.608a16.691 16.691 0 0 1-.193-2.538h-4Zm2.669.895a14.12 14.12 0 0 0-3.199-.365v4c.792 0 1.559.09 2.294.261l.905-3.896Zm-3.199-.365c-7.778 0-14.083 6.305-14.083 14.084h4c0-5.57 4.514-10.084 10.084-10.084v-4ZM73.213 78.06c0 7.778 6.305 14.084 14.084 14.084v-4c-5.57 0-10.084-4.515-10.084-10.084h-4Zm14.084 14.084.164-.001-.046-4h-.119v4Zm1.711-.763h.001l-3.142-2.476-.001.001 3.142 2.475Zm40.863-3.237H87.437v4h42.434v-4Zm-2 1.999h4-4Z" mask="url(#n)"/></g><defs><linearGradient id="c" x1="91.156" x2="91.156" y1="23.901" y2="69.786" gradientUnits="userSpaceOnUse"><stop stop-color="#fff"/><stop offset="1" stop-color="#fff" stop-opacity="0"/></linearGradient><linearGradient id="m" x1="108.654" x2="108.654" y1="44.899" y2="90.144" gradientUnits="userSpaceOnUse"><stop stop-color="#fff"/><stop offset="1" stop-color="#fff" stop-opacity="0"/></linearGradient><linearGradient id="l" x1="111.765" x2="111.765" y1="46.26" y2="95.256" gradientUnits="userSpaceOnUse"><stop stop-color="#fff"/><stop offset="1" stop-color="#fff" stop-opacity="0"/></linearGradient><linearGradient id="i" x1="70.157" x2="70.157" y1="44.899" y2="107.505" gradientUnits="userSpaceOnUse"><stop stop-color="#fff"/><stop offset="1" stop-color="#fff" stop-opacity="0"/></linearGradient><linearGradient id="b" x1="91.156" x2="91.156" y1="23.901" y2="69.786" gradientUnits="userSpaceOnUse"><stop stop-color="#FFE600"/><stop offset="1" stop-color="#FF7A00"/></linearGradient><linearGradient id="h" x1="70.157" x2="70.157" y1="24.873" y2="116.254" gradientUnits="userSpaceOnUse"><stop stop-color="#fff"/><stop offset="1" stop-color="#fff" stop-opacity="0"/></linearGradient><linearGradient id="d" x1="91.156" x2="91.156" y1="23.901" y2="69.786" gradientUnits="userSpaceOnUse"><stop stop-color="#FFD600"/><stop offset="1" stop-color="#FF7A00"/></linearGradient><filter id="f" width="120.547" height="91.383" x="19.605" y="28.177" color-interpolation-filters="sRGB" filterUnits="userSpaceOnUse"><feFlood flood-opacity="0" result="BackgroundImageFix"/><feBlend in="SourceGraphic" in2="BackgroundImageFix" result="shape"/><feGaussianBlur result="effect1_foregroundBlur_3_2283" stdDeviation="7"/></filter><filter id="k" width="166.883" height="145.244" x="4.213" y="9.899" color-interpolation-filters="sRGB" filterUnits="userSpaceOnUse"><feFlood flood-opacity="0" result="BackgroundImageFix"/><feGaussianBlur in="BackgroundImageFix" stdDeviation="7"/><feComposite in2="SourceAlpha" operator="in" result="effect1_backgroundBlur_3_2283"/><feColorMatrix in="SourceAlpha" result="hardAlpha" values="0 0 0 0 0 0 0 0 0 0 0 0 0 0 0 0 0 0 127 0"/><feOffset dx="-21" dy="15"/><feGaussianBlur stdDeviation="25"/><feComposite in2="hardAlpha" operator="out"/><feColorMatrix values="0 0 0 0 0.113438 0 0 0 0 0.148981 0 0 0 0 0.275 0 0 0 0.25 0"/><feBlend in2="effect1_backgroundBlur_3_2283" result="effect2_dropShadow_3_2283"/><feBlend in="SourceGraphic" in2="effect2_dropShadow_3_2283" result="shape"/></filter><filter id="g" width="192.547" height="162.606" x="-47.116" y="9.899" color-interpolation-filters="sRGB" filterUnits="userSpaceOnUse"><feFlood flood-opacity="0" result="BackgroundImageFix"/><feGaussianBlur in="BackgroundImageFix" stdDeviation="7"/><feComposite in2="SourceAlpha" operator="in" result="effect1_backgroundBlur_3_2283"/><feColorMatrix in="SourceAlpha" result="hardAlpha" values="0 0 0 0 0 0 0 0 0 0 0 0 0 0 0 0 0 0 127 0"/><feOffset dx="-21" dy="15"/><feGaussianBlur stdDeviation="25"/><feComposite in2="hardAlpha" operator="out"/><feColorMatrix values="0 0 0 0 0.113725 0 0 0 0 0.14902 0 0 0 0 0.27451 0 0 0 0.25 0"/><feBlend in2="effect1_backgroundBlur_3_2283" result="effect2_dropShadow_3_2283"/><feBlend in="SourceGraphic" in2="effect2_dropShadow_3_2283" result="shape"/></filter><filter id="a" width="135.44" height="135.44" x="23.436" y="-21.654" color-interpolation-filters="sRGB" filterUnits="userSpaceOnUse"><feFlood flood-opacity="0" result="BackgroundImageFix"/><feBlend in="SourceGraphic" in2="BackgroundImageFix" result="shape"/><feGaussianBlur result="effect1_foregroundBlur_3_2283" stdDeviation="22"/></filter></defs></svg>