<svg xmlns="http://www.w3.org/2000/svg" width="234" height="167" fill="none"><g filter="url(#a)"><mask id="d" fill="#fff"><path fill-rule="evenodd" d="m125.659 70.243.14.001c6.674 0 12.084-5.41 12.084-12.084 0-6.673-5.41-12.083-12.084-12.083h-3.262c.113-.827.171-1.672.171-2.53 0-10.243-8.304-18.547-18.548-18.547-10.243 0-18.547 8.304-18.547 18.547 0 .967.074 1.916.216 2.843a12.122 12.122 0 0 0-2.745-.313C76.41 46.077 71 51.487 71 58.16c0 6.674 5.41 12.084 12.084 12.084H125.659Z" clip-rule="evenodd"/></mask><path fill="url(#b)" fill-rule="evenodd" d="m125.659 70.243.14.001c6.674 0 12.084-5.41 12.084-12.084 0-6.673-5.41-12.083-12.084-12.083h-3.262c.113-.827.171-1.672.171-2.53 0-10.243-8.304-18.547-18.548-18.547-10.243 0-18.547 8.304-18.547 18.547 0 .967.074 1.916.216 2.843a12.122 12.122 0 0 0-2.745-.313C76.41 46.077 71 51.487 71 58.16c0 6.674 5.41 12.084 12.084 12.084H125.659Z" clip-rule="evenodd" shape-rendering="crispEdges"/><path fill="url(#c)" d="m125.659 70.243.022-2a2 2 0 0 0-2.022 2h2Zm0-24.166h-2a2 2 0 0 0 2.022 2l-.022-2Zm0 0h2a2 2 0 0 0-2-2v2Zm-3.122 0-1.982-.27a2 2 0 0 0 1.982 2.27v-2Zm-36.708.313-.452 1.948a2 2 0 0 0 2.43-2.252l-1.978.304Zm-2.604 23.853 1.571 1.238a2 2 0 0 0-1.594-3.237l.023 2Zm0 .001-1.572-1.237a2 2 0 0 0 1.571 3.237v-2Zm42.434 0v2a2 2 0 0 0 2-2h-2Zm-.023 2h.163v-4h-.118l-.045 4Zm.163 0c7.778 0 14.084-6.305 14.084-14.084h-4c0 5.57-4.515 10.084-10.084 10.084v4Zm14.084-14.084c0-7.778-6.306-14.083-14.084-14.083v4c5.569 0 10.084 4.514 10.084 10.083h4Zm-14.084-14.083h-.163l.045 4h.118v-4Zm-2.14 2h4-4Zm-1.122 2h3.122v-4h-3.122v4Zm1.982-1.73c.124-.916.189-1.851.189-2.8h-4c0 .768-.052 1.522-.153 2.26l3.964.54Zm.189-2.8c0-11.348-9.2-20.547-20.548-20.547v4c9.139 0 16.548 7.408 16.548 16.547h4ZM104.16 23c-11.347 0-20.547 9.2-20.547 20.547h4C87.613 34.408 95.022 27 104.16 27v-4ZM83.613 43.547c0 1.069.082 2.12.24 3.147l3.953-.608a16.69 16.69 0 0 1-.193-2.539h-4Zm2.67.895a14.12 14.12 0 0 0-3.2-.365v4c.792 0 1.56.09 2.294.26l.905-3.895Zm-3.2-.365C75.307 44.077 69 50.382 69 58.16h4c0-5.569 4.515-10.083 10.084-10.083v-4ZM69 58.16c0 7.779 6.306 14.084 14.084 14.084v-4C77.514 68.244 73 63.73 73 58.16h-4Zm14.084 14.084h.164l-.046-4h-.118v4Zm1.712-.762v-.001l-3.142-2.475 3.142 2.476Zm40.863-3.238H83.224v4h42.435v-4Zm-2 2h4-4Z" mask="url(#d)"/></g><g filter="url(#e)"><mask id="h" fill="#fff"><path fill-rule="evenodd" d="m162.186 101.214.195.002c9.234 0 16.721-7.487 16.721-16.721 0-9.235-7.487-16.721-16.721-16.721l-.195.001v-.001h-4.319a25.9 25.9 0 0 0 .236-3.5c0-14.174-11.49-25.664-25.664-25.664-14.174 0-25.664 11.49-25.664 25.664 0 1.338.102 2.651.299 3.933a16.764 16.764 0 0 0-3.799-.433c-9.235 0-16.72 7.486-16.72 16.72 0 9.235 7.485 16.722 16.72 16.722l.195-.002-.001.002h58.717v-.002Z" clip-rule="evenodd"/></mask><path fill="url(#f)" fill-rule="evenodd" d="m162.186 101.214.195.002c9.234 0 16.721-7.487 16.721-16.721 0-9.235-7.487-16.721-16.721-16.721l-.195.001v-.001h-4.319a25.9 25.9 0 0 0 .236-3.5c0-14.174-11.49-25.664-25.664-25.664-14.174 0-25.664 11.49-25.664 25.664 0 1.338.102 2.651.299 3.933a16.764 16.764 0 0 0-3.799-.433c-9.235 0-16.72 7.486-16.72 16.72 0 9.235 7.485 16.722 16.72 16.722l.195-.002-.001.002h58.717v-.002Z" clip-rule="evenodd" shape-rendering="crispEdges"/><path fill="url(#g)" d="m162.186 101.214.023-2a2.001 2.001 0 0 0-2.023 2h2Zm0-33.439h-2a2 2 0 0 0 2.023 2l-.023-2Zm0-.001h2a2 2 0 0 0-2-2v2Zm-4.319 0-1.982-.27a2 2 0 0 0 1.982 2.27v-2Zm-50.793.433-.453 1.949a2 2 0 0 0 2.43-2.253l-1.977.304Zm-3.604 33.007 1.571 1.239a2.001 2.001 0 0 0-1.594-3.239l.023 2Zm-.001.002-1.57-1.239a1.998 1.998 0 0 0 1.57 3.238v-1.999Zm58.717 0v1.999a2 2 0 0 0 2-1.999h-2Zm-.022 1.998.217.001v-4h-.172l-.045 3.999Zm.217.001c10.339 0 18.721-8.381 18.721-18.72h-4c0 8.13-6.591 14.72-14.721 14.72v4Zm18.721-18.72c0-10.34-8.382-18.721-18.721-18.721v4c8.13 0 14.721 6.59 14.721 14.72h4Zm-18.721-18.721-.218.001.046 4 .172-.001v-4Zm-2.195 2v.001h4v-.001h-4Zm-2.319 2h4.319v-4h-4.319v4Zm1.981-1.73c.169-1.233.255-2.492.255-3.77h-4a23.87 23.87 0 0 1-.218 3.23l3.963.54Zm.255-3.77c0-15.278-12.385-27.664-27.664-27.664v4c13.069 0 23.664 10.595 23.664 23.664h4ZM132.439 36.61c-15.279 0-27.664 12.386-27.664 27.664h4c0-13.07 10.594-23.664 23.664-23.664v-4Zm-27.664 27.664c0 1.44.11 2.855.322 4.238l3.954-.609a23.836 23.836 0 0 1-.276-3.629h-4Zm2.752 1.985a18.776 18.776 0 0 0-4.252-.485v4c1.153 0 2.273.132 3.346.382l.906-3.897Zm-4.252-.485c-10.34 0-18.72 8.382-18.72 18.72h4c0-8.13 6.59-14.72 14.72-14.72v-4Zm-18.72 18.72c0 10.34 8.38 18.721 18.72 18.721v-4c-8.13 0-14.72-6.59-14.72-14.72h-4Zm18.72 18.721.218-.001-.046-4-.172.002v3.999Zm1.765-.761.001-.001-3.141-2.477-.001.001 3.141 2.477Zm57.146-3.238h-58.717v3.999h58.717v-4Zm-2 1.998v.002h4v-.002h-4Z" mask="url(#h)"/></g><g filter="url(#i)"><mask id="l" fill="#fff"><path fill-rule="evenodd" d="m192.542 83.853.14.001c6.674 0 12.084-5.41 12.084-12.084 0-6.673-5.41-12.083-12.084-12.083h-3.262c.113-.828.171-1.672.171-2.53 0-10.243-8.304-18.547-18.548-18.547-10.243 0-18.547 8.304-18.547 18.547 0 .967.074 1.916.216 2.843a12.114 12.114 0 0 0-2.745-.313c-6.674 0-12.084 5.41-12.084 12.083 0 6.674 5.41 12.084 12.084 12.084h.141-.001 42.435Z" clip-rule="evenodd"/></mask><path fill="url(#j)" fill-rule="evenodd" d="m192.542 83.853.14.001c6.674 0 12.084-5.41 12.084-12.084 0-6.673-5.41-12.083-12.084-12.083h-3.262c.113-.828.171-1.672.171-2.53 0-10.243-8.304-18.547-18.548-18.547-10.243 0-18.547 8.304-18.547 18.547 0 .967.074 1.916.216 2.843a12.114 12.114 0 0 0-2.745-.313c-6.674 0-12.084 5.41-12.084 12.083 0 6.674 5.41 12.084 12.084 12.084h.141-.001 42.435Z" clip-rule="evenodd" shape-rendering="crispEdges"/><path fill="url(#k)" d="m192.542 83.853.022-2a2 2 0 0 0-2.022 2h2Zm0-24.166h-2a2 2 0 0 0 2.022 2l-.022-2Zm0 0h2a2 2 0 0 0-2-2v2Zm-3.122 0-1.982-.27a2 2 0 0 0 1.982 2.27v-2ZM152.712 60l-.452 1.948a2 2 0 0 0 2.429-2.252l-1.977.304Zm-2.604 23.853 1.571 1.238a2 2 0 0 0-1.594-3.237l.023 2Zm-.001.001-1.571-1.237a2 2 0 0 0 1.571 3.237v-2Zm42.435 0v2a2 2 0 0 0 2-2h-2Zm-.023 2h.163v-4h-.118l-.045 4Zm.163 0c7.778 0 14.084-6.305 14.084-14.084h-4c0 5.57-4.515 10.084-10.084 10.084v4Zm14.084-14.084c0-7.778-6.306-14.083-14.084-14.083v4c5.569 0 10.084 4.514 10.084 10.083h4Zm-14.084-14.083h-.163l.045 4h.118v-4Zm-2.14 2h4-4Zm-1.122 2h3.122v-4h-3.122v4Zm1.981-1.73c.125-.917.19-1.851.19-2.8h-4c0 .768-.052 1.522-.153 2.26l3.963.54Zm.19-2.8c0-11.348-9.2-20.547-20.548-20.547v4c9.139 0 16.548 7.408 16.548 16.547h4ZM171.043 36.61c-11.348 0-20.547 9.2-20.547 20.547h4c0-9.139 7.409-16.547 16.547-16.547v-4Zm-20.547 20.547c0 1.069.082 2.12.24 3.147l3.953-.608a16.705 16.705 0 0 1-.193-2.539h-4Zm2.669.895c-1.029-.24-2.1-.365-3.198-.365v4c.791 0 1.558.09 2.293.26l.905-3.895Zm-3.198-.365c-7.778 0-14.084 6.305-14.084 14.083h4c0-5.569 4.515-10.083 10.084-10.083v-4ZM135.883 71.77c0 7.779 6.306 14.084 14.084 14.084v-4c-5.569 0-10.084-4.514-10.084-10.084h-4Zm14.084 14.084h.164l-.046-4h-.118v4Zm1.712-.762v-.001l-3.142-2.475h-.001l3.143 2.476Zm40.863-3.238h-42.435v4h42.435v-4Zm-2 2h4-4Z" mask="url(#l)"/></g><defs><linearGradient id="b" x1="107.552" x2="107.552" y1="26.361" y2="75.357" gradientUnits="userSpaceOnUse"><stop stop-color="#fff"/><stop offset="1" stop-color="#fff" stop-opacity="0"/></linearGradient><linearGradient id="c" x1="104.441" x2="104.441" y1="25" y2="70.244" gradientUnits="userSpaceOnUse"><stop stop-color="#fff"/><stop offset="1" stop-color="#fff" stop-opacity="0"/></linearGradient><linearGradient id="f" x1="132.828" x2="132.828" y1="18.584" y2="109.965" gradientUnits="userSpaceOnUse"><stop stop-color="#fff"/><stop offset="1" stop-color="#fff" stop-opacity="0"/></linearGradient><linearGradient id="g" x1="132.828" x2="132.828" y1="38.61" y2="101.215" gradientUnits="userSpaceOnUse"><stop stop-color="#fff"/><stop offset="1" stop-color="#fff" stop-opacity="0"/></linearGradient><linearGradient id="j" x1="174.435" x2="174.435" y1="39.971" y2="88.966" gradientUnits="userSpaceOnUse"><stop stop-color="#fff"/><stop offset="1" stop-color="#fff" stop-opacity="0"/></linearGradient><linearGradient id="k" x1="171.324" x2="171.324" y1="38.61" y2="83.854" gradientUnits="userSpaceOnUse"><stop stop-color="#fff"/><stop offset="1" stop-color="#fff" stop-opacity="0"/></linearGradient><filter id="a" width="166.883" height="145.244" x="0" y="-10" color-interpolation-filters="sRGB" filterUnits="userSpaceOnUse"><feFlood flood-opacity="0" result="BackgroundImageFix"/><feGaussianBlur in="BackgroundImageFix" stdDeviation="7"/><feComposite in2="SourceAlpha" operator="in" result="effect1_backgroundBlur_3_2456"/><feColorMatrix in="SourceAlpha" result="hardAlpha" values="0 0 0 0 0 0 0 0 0 0 0 0 0 0 0 0 0 0 127 0"/><feOffset dx="-21" dy="15"/><feGaussianBlur stdDeviation="25"/><feComposite in2="hardAlpha" operator="out"/><feColorMatrix values="0 0 0 0 0.113438 0 0 0 0 0.148981 0 0 0 0 0.275 0 0 0 0.25 0"/><feBlend in2="effect1_backgroundBlur_3_2456" result="effect2_dropShadow_3_2456"/><feBlend in="SourceGraphic" in2="effect2_dropShadow_3_2456" result="shape"/></filter><filter id="e" width="192.547" height="162.606" x="15.554" y="3.61" color-interpolation-filters="sRGB" filterUnits="userSpaceOnUse"><feFlood flood-opacity="0" result="BackgroundImageFix"/><feGaussianBlur in="BackgroundImageFix" stdDeviation="7"/><feComposite in2="SourceAlpha" operator="in" result="effect1_backgroundBlur_3_2456"/><feColorMatrix in="SourceAlpha" result="hardAlpha" values="0 0 0 0 0 0 0 0 0 0 0 0 0 0 0 0 0 0 127 0"/><feOffset dx="-21" dy="15"/><feGaussianBlur stdDeviation="25"/><feComposite in2="hardAlpha" operator="out"/><feColorMatrix values="0 0 0 0 0.113725 0 0 0 0 0.14902 0 0 0 0 0.27451 0 0 0 0.25 0"/><feBlend in2="effect1_backgroundBlur_3_2456" result="effect2_dropShadow_3_2456"/><feBlend in="SourceGraphic" in2="effect2_dropShadow_3_2456" result="shape"/></filter><filter id="i" width="166.883" height="145.244" x="66.883" y="3.61" color-interpolation-filters="sRGB" filterUnits="userSpaceOnUse"><feFlood flood-opacity="0" result="BackgroundImageFix"/><feGaussianBlur in="BackgroundImageFix" stdDeviation="7"/><feComposite in2="SourceAlpha" operator="in" result="effect1_backgroundBlur_3_2456"/><feColorMatrix in="SourceAlpha" result="hardAlpha" values="0 0 0 0 0 0 0 0 0 0 0 0 0 0 0 0 0 0 127 0"/><feOffset dx="-21" dy="15"/><feGaussianBlur stdDeviation="25"/><feComposite in2="hardAlpha" operator="out"/><feColorMatrix values="0 0 0 0 0.113438 0 0 0 0 0.148981 0 0 0 0 0.275 0 0 0 0.25 0"/><feBlend in2="effect1_backgroundBlur_3_2456" result="effect2_dropShadow_3_2456"/><feBlend in="SourceGraphic" in2="effect2_dropShadow_3_2456" result="shape"/></filter></defs></svg>