<svg xmlns="http://www.w3.org/2000/svg" width="168" height="180" fill="none"><g filter="url(#a)"><mask id="d" fill="#fff"><path fill-rule="evenodd" d="M79.975 38.668c3.218-1.354 5.532 2.683 4.564 6.037a21.06 21.06 0 0 0 1.511 15.527c3.739 7.268 11.108 11.45 18.753 11.471 3.494.01 6.739 3.357 4.544 6.075a25.132 25.132 0 0 1-8.081 6.567c-12.384 6.37-27.588 1.495-33.958-10.89-6.37-12.384-1.494-27.587 10.89-33.957a25.55 25.55 0 0 1 1.778-.83Z" clip-rule="evenodd"/></mask><path fill="url(#b)" fill-rule="evenodd" d="M79.975 38.668c3.218-1.354 5.532 2.683 4.564 6.037a21.06 21.06 0 0 0 1.511 15.527c3.739 7.268 11.108 11.45 18.753 11.471 3.494.01 6.739 3.357 4.544 6.075a25.132 25.132 0 0 1-8.081 6.567c-12.384 6.37-27.588 1.495-33.958-10.89-6.37-12.384-1.494-27.587 10.89-33.957a25.55 25.55 0 0 1 1.778-.83Z" clip-rule="evenodd"/><path fill="url(#c)" d="M87.829 59.317A19.06 19.06 0 0 1 86.46 45.26l-3.843-1.11a23.06 23.06 0 0 0 1.654 16.997l3.558-1.83Zm16.98 10.386c-6.928-.019-13.597-3.808-16.98-10.386l-3.557 1.83c4.093 7.959 12.162 12.534 20.526 12.556l.011-4Zm2.982 6.819a23.134 23.134 0 0 1-7.44 6.045l1.83 3.557a27.13 27.13 0 0 0 8.722-7.09l-3.112-2.513Zm-7.44 6.045c-11.402 5.864-25.4 1.376-31.264-10.026l-3.557 1.83c6.875 13.366 23.284 18.628 36.651 11.753l-1.83-3.557ZM69.087 72.54c-5.865-11.402-1.376-25.4 10.026-31.265l-1.83-3.557C63.917 44.595 58.655 61.004 65.53 74.37l3.557-1.83Zm10.026-31.265a23.58 23.58 0 0 1 1.638-.765L79.2 36.825c-.645.271-1.285.57-1.917.894l1.83 3.557Zm25.685 32.427c1.159.003 2.278.581 2.869 1.296.282.341.378.632.392.828.012.16-.017.384-.268.695l3.112 2.512c.847-1.048 1.235-2.261 1.146-3.494-.086-1.197-.607-2.253-1.299-3.09-1.356-1.64-3.606-2.74-5.941-2.747l-.011 4ZM86.46 45.26c.648-2.244.219-4.71-.981-6.467-.612-.896-1.482-1.688-2.607-2.102-1.159-.426-2.431-.389-3.672.134l1.551 3.686c.368-.154.592-.12.741-.066.184.068.435.24.683.603.52.762.763 1.992.442 3.102l3.843 1.11Z" mask="url(#d)"/></g><g filter="url(#e)"><mask id="h" fill="#fff"><path fill-rule="evenodd" d="m95.632 128.411.194.001c9.235 0 16.721-7.486 16.721-16.721 0-9.234-7.486-16.72-16.72-16.72H91.311c.157-1.145.237-2.313.237-3.5 0-14.174-11.49-25.664-25.664-25.664-14.174 0-25.665 11.49-25.665 25.664 0 1.337.103 2.65.3 3.933a16.775 16.775 0 0 0-3.8-.433c-9.234 0-16.72 7.486-16.72 16.72 0 9.235 7.486 16.721 16.72 16.721l.196-.001v.001h58.716v-.001Z" clip-rule="evenodd"/></mask><path fill="url(#f)" fill-rule="evenodd" d="m95.632 128.411.194.001c9.235 0 16.721-7.486 16.721-16.721 0-9.234-7.486-16.72-16.72-16.72H91.311c.157-1.145.237-2.313.237-3.5 0-14.174-11.49-25.664-25.664-25.664-14.174 0-25.665 11.49-25.665 25.664 0 1.337.103 2.65.3 3.933a16.775 16.775 0 0 0-3.8-.433c-9.234 0-16.72 7.486-16.72 16.72 0 9.235 7.486 16.721 16.72 16.721l.196-.001v.001h58.716v-.001Z" clip-rule="evenodd" shape-rendering="crispEdges"/><path fill="url(#g)" d="m95.632 128.411.023-2a2 2 0 0 0-2.023 2h2Zm0-33.44h-2a2 2 0 0 0 2.023 2l-.023-2Zm0 0h2a2 2 0 0 0-2-2v2Zm-4.32 0-1.981-.27a2 2 0 0 0 1.982 2.27v-2Zm-50.792.433-.453 1.948a2 2 0 0 0 2.43-2.252l-1.977.304Zm-3.604 33.007 1.57 1.238a2 2 0 0 0-1.593-3.238l.023 2Zm0 .001-1.572-1.238a2 2 0 0 0 1.571 3.238v-2Zm58.716 0v2a2 2 0 0 0 2-2h-2Zm-.023 1.999.218.001v-4l-.172-.001-.046 4Zm.218.001c10.339 0 18.72-8.381 18.72-18.721h-4c0 8.13-6.59 14.721-14.72 14.721v4Zm18.72-18.721c0-10.339-8.381-18.72-18.72-18.72v4c8.13 0 14.72 6.59 14.72 14.72h4Zm-18.72-18.72h-.218l.046 4h.171v-4Zm-2.195 2h4-4Zm-2.32 2h4.32v-4h-4.32v4Zm1.982-1.73c.168-1.234.255-2.492.255-3.77h-4c0 1.096-.074 2.174-.218 3.23l3.963.54Zm.255-3.77c0-15.279-12.386-27.664-27.664-27.664v4c13.07 0 23.664 10.595 23.664 23.664h4ZM65.885 63.807c-15.279 0-27.665 12.385-27.665 27.664h4c0-13.07 10.595-23.664 23.665-23.664v-4ZM38.22 91.47c0 1.44.11 2.855.323 4.237l3.954-.608a23.872 23.872 0 0 1-.277-3.629h-4Zm2.752 1.985a18.772 18.772 0 0 0-4.251-.485v4c1.153 0 2.273.132 3.346.381l.905-3.896Zm-4.251-.485C26.38 92.97 18 101.352 18 111.69h4c0-8.13 6.59-14.72 14.72-14.72v-4ZM18 111.69c0 10.34 8.382 18.721 18.72 18.721v-4c-8.13 0-14.72-6.591-14.72-14.721h-4Zm18.72 18.721.219-.001-.046-4-.172.001v4Zm1.766-.762v-.001l-3.14-2.476-.002.001 3.142 2.476Zm57.146-3.238H36.915v4h58.717v-4Zm-2 1.999v.001h4v-.001h-4Z" mask="url(#h)"/></g><g filter="url(#i)"><mask id="l" fill="#fff"><path fill-rule="evenodd" d="m125.987 111.05.141.001c6.673 0 12.084-5.41 12.084-12.084 0-6.674-5.411-12.084-12.084-12.084l-.141.001h-3.122c.113-.828.171-1.672.171-2.53 0-10.243-8.303-18.547-18.547-18.547-10.243 0-18.547 8.304-18.547 18.547 0 .967.074 1.916.216 2.843a12.123 12.123 0 0 0-2.746-.314c-6.673 0-12.083 5.41-12.083 12.084 0 6.674 5.41 12.084 12.084 12.084l.14-.001v.001h42.434v-.001Z" clip-rule="evenodd"/></mask><path fill="url(#j)" fill-rule="evenodd" d="m125.987 111.05.141.001c6.673 0 12.084-5.41 12.084-12.084 0-6.674-5.411-12.084-12.084-12.084l-.141.001h-3.122c.113-.828.171-1.672.171-2.53 0-10.243-8.303-18.547-18.547-18.547-10.243 0-18.547 8.304-18.547 18.547 0 .967.074 1.916.216 2.843a12.123 12.123 0 0 0-2.746-.314c-6.673 0-12.083 5.41-12.083 12.084 0 6.674 5.41 12.084 12.084 12.084l.14-.001v.001h42.434v-.001Z" clip-rule="evenodd" shape-rendering="crispEdges"/><path fill="url(#k)" d="m125.987 111.05.023-2a2 2 0 0 0-2.023 2h2Zm0-24.166h-2a2 2 0 0 0 2.023 2l-.023-2Zm0 0h2a2 2 0 0 0-2-2v2Zm-3.122 0-1.981-.271a2 2 0 0 0 1.981 2.27v-2Zm-36.707.313-.452 1.948a2 2 0 0 0 2.429-2.252l-1.977.303Zm-2.604 23.853 1.572 1.237a2 2 0 0 0-1.595-3.237l.023 2Zm-.001.001-1.572-1.236a2 2 0 0 0 1.572 3.236v-2Zm42.434 0v2a2 2 0 0 0 2-2h-2Zm-.023 1.999.164.001v-4l-.118-.001-.046 4Zm.164.001c7.778 0 14.084-6.306 14.084-14.084h-4c0 5.569-4.515 10.084-10.084 10.084v4Zm14.084-14.084c0-7.778-6.306-14.084-14.084-14.084v4c5.569 0 10.084 4.515 10.084 10.084h4Zm-14.084-14.084-.164.001.046 4h.118v-4Zm-2.141 2v.001h4-4Zm-1.122 2h3.122v-4h-3.122v4Zm1.982-1.73c.125-.916.189-1.85.189-2.799h-4c0 .767-.052 1.521-.152 2.259l3.963.54Zm.189-2.799c0-11.348-9.199-20.547-20.547-20.547v4c9.139 0 16.547 7.408 16.547 16.547h4Zm-20.547-20.547c-11.348 0-20.547 9.199-20.547 20.547h4c0-9.139 7.408-16.547 16.547-16.547v-4ZM83.942 84.354c0 1.069.082 2.12.24 3.147l3.953-.609a16.69 16.69 0 0 1-.193-2.538h-4Zm2.669.894c-1.03-.239-2.1-.365-3.199-.365v4c.791 0 1.559.09 2.294.262l.905-3.897Zm-3.199-.365c-7.778 0-14.083 6.306-14.083 14.084h4c0-5.57 4.514-10.084 10.084-10.084v-4ZM69.33 98.967c0 7.778 6.305 14.084 14.084 14.084v-4c-5.57 0-10.084-4.515-10.084-10.084h-4Zm14.084 14.084.163-.001-.045-4-.119.001v4Zm1.712-.764-3.143-2.473-.001.001 3.144 2.472Zm40.862-3.236H83.553v4h42.434v-4Zm-2 1.999v.001h4v-.001h-4Z" mask="url(#l)"/></g><g filter="url(#m)"><g stroke-width="2"><path fill="url(#n)" stroke="url(#o)" d="M43.311 124.627c.94-1.206 2.872-.618 2.98.907l.457 6.39c.206 2.889-2.548 5.086-5.32 4.244-2.77-.843-3.834-4.203-2.054-6.487l3.937-5.054Z"/><path fill="url(#p)" stroke="url(#q)" d="M65.673 124.627c.94-1.206 2.872-.618 2.98.907l.457 6.39c.206 2.889-2.549 5.086-5.32 4.244-2.77-.843-3.834-4.203-2.054-6.487l3.937-5.054Z"/><path fill="url(#r)" stroke="url(#s)" d="M88.035 124.627c.94-1.206 2.872-.618 2.98.907l.457 6.39c.206 2.889-2.548 5.086-5.32 4.244-2.77-.843-3.834-4.203-2.054-6.487l3.937-5.054Z"/></g></g><g filter="url(#t)"><g stroke-width="2"><path fill="url(#u)" stroke="url(#v)" d="M49.211 142.328c.94-1.206 2.872-.619 2.98.907l.457 6.39c.206 2.888-2.548 5.086-5.319 4.243-2.77-.843-3.835-4.202-2.055-6.486l3.937-5.054Z"/><path fill="url(#w)" stroke="url(#x)" d="M68.105 142.328c.94-1.206 2.871-.619 2.98.907l.457 6.39c.206 2.888-2.549 5.086-5.32 4.243-2.77-.843-3.835-4.202-2.055-6.486l3.938-5.054Z"/></g></g><defs><linearGradient id="k" x1="104.77" x2="104.77" y1="65.807" y2="111.051" gradientUnits="userSpaceOnUse"><stop stop-color="#fff"/><stop offset="1" stop-color="#fff" stop-opacity="0"/></linearGradient><linearGradient id="x" x1="71.588" x2="65.931" y1="136.23" y2="154.825" gradientUnits="userSpaceOnUse"><stop stop-color="#fff"/><stop offset="1" stop-color="#fff" stop-opacity="0"/></linearGradient><linearGradient id="w" x1="71.588" x2="65.931" y1="136.23" y2="154.825" gradientUnits="userSpaceOnUse"><stop stop-color="#138EFF"/><stop offset="1" stop-color="#00E0FF"/></linearGradient><linearGradient id="v" x1="52.694" x2="47.038" y1="136.23" y2="154.825" gradientUnits="userSpaceOnUse"><stop stop-color="#fff"/><stop offset="1" stop-color="#fff" stop-opacity="0"/></linearGradient><linearGradient id="u" x1="52.694" x2="47.038" y1="136.23" y2="154.825" gradientUnits="userSpaceOnUse"><stop stop-color="#138EFF"/><stop offset="1" stop-color="#00E0FF"/></linearGradient><linearGradient id="b" x1="71.782" x2="94.85" y1="43.298" y2="88.145" gradientUnits="userSpaceOnUse"><stop offset="0" stop-color="#D4C0FF"/><stop offset="1" stop-color="#7E2FFF"/></linearGradient><linearGradient id="c" x1="73.124" x2="85.955" y1="19.239" y2="78.066" gradientUnits="userSpaceOnUse"><stop stop-color="#fff"/><stop offset="1" stop-color="#fff" stop-opacity="0"/></linearGradient><linearGradient id="f" x1="66.274" x2="66.274" y1="45.781" y2="137.161" gradientUnits="userSpaceOnUse"><stop stop-color="#fff"/><stop offset="1" stop-color="#fff" stop-opacity="0"/></linearGradient><linearGradient id="g" x1="66.274" x2="66.274" y1="65.807" y2="128.412" gradientUnits="userSpaceOnUse"><stop stop-color="#fff"/><stop offset="1" stop-color="#fff" stop-opacity="0"/></linearGradient><linearGradient id="j" x1="107.881" x2="107.881" y1="67.168" y2="116.163" gradientUnits="userSpaceOnUse"><stop stop-color="#fff"/><stop offset="1" stop-color="#fff" stop-opacity="0"/></linearGradient><linearGradient id="s" x1="91.518" x2="85.862" y1="118.529" y2="137.124" gradientUnits="userSpaceOnUse"><stop stop-color="#fff"/><stop offset="1" stop-color="#fff" stop-opacity="0"/></linearGradient><linearGradient id="n" x1="46.794" x2="41.138" y1="118.529" y2="137.124" gradientUnits="userSpaceOnUse"><stop stop-color="#138EFF"/><stop offset="1" stop-color="#00E0FF"/></linearGradient><linearGradient id="o" x1="46.794" x2="41.138" y1="118.529" y2="137.124" gradientUnits="userSpaceOnUse"><stop stop-color="#fff"/><stop offset="1" stop-color="#fff" stop-opacity="0"/></linearGradient><linearGradient id="p" x1="69.156" x2="63.5" y1="118.529" y2="137.124" gradientUnits="userSpaceOnUse"><stop stop-color="#138EFF"/><stop offset="1" stop-color="#00E0FF"/></linearGradient><linearGradient id="q" x1="69.156" x2="63.5" y1="118.529" y2="137.124" gradientUnits="userSpaceOnUse"><stop stop-color="#fff"/><stop offset="1" stop-color="#fff" stop-opacity="0"/></linearGradient><linearGradient id="r" x1="91.518" x2="85.862" y1="118.529" y2="137.124" gradientUnits="userSpaceOnUse"><stop stop-color="#138EFF"/><stop offset="1" stop-color="#00E0FF"/></linearGradient><filter id="e" width="192.547" height="162.605" x="-51" y="30.807" color-interpolation-filters="sRGB" filterUnits="userSpaceOnUse"><feFlood flood-opacity="0" result="BackgroundImageFix"/><feGaussianBlur in="BackgroundImageFix" stdDeviation="7"/><feComposite in2="SourceAlpha" operator="in" result="effect1_backgroundBlur_3_2345"/><feColorMatrix in="SourceAlpha" result="hardAlpha" values="0 0 0 0 0 0 0 0 0 0 0 0 0 0 0 0 0 0 127 0"/><feOffset dx="-21" dy="15"/><feGaussianBlur stdDeviation="25"/><feComposite in2="hardAlpha" operator="out"/><feColorMatrix values="0 0 0 0 0.113725 0 0 0 0 0.14902 0 0 0 0 0.27451 0 0 0 0.25 0"/><feBlend in2="effect1_backgroundBlur_3_2345" result="effect2_dropShadow_3_2345"/><feBlend in="SourceGraphic" in2="effect2_dropShadow_3_2345" result="shape"/></filter><filter id="t" width="141.153" height="127.37" x="-27.601" y="92.681" color-interpolation-filters="sRGB" filterUnits="userSpaceOnUse"><feFlood flood-opacity="0" result="BackgroundImageFix"/><feGaussianBlur in="BackgroundImageFix" stdDeviation="7"/><feComposite in2="SourceAlpha" operator="in" result="effect1_backgroundBlur_3_2345"/><feColorMatrix in="SourceAlpha" result="hardAlpha" values="0 0 0 0 0 0 0 0 0 0 0 0 0 0 0 0 0 0 127 0"/><feOffset dx="-21" dy="15"/><feGaussianBlur stdDeviation="25"/><feComposite in2="hardAlpha" operator="out"/><feColorMatrix values="0 0 0 0 0.113438 0 0 0 0 0.148981 0 0 0 0 0.275 0 0 0 0.25 0"/><feBlend in2="effect1_backgroundBlur_3_2345" result="effect2_dropShadow_3_2345"/><feColorMatrix in="SourceAlpha" result="hardAlpha" values="0 0 0 0 0 0 0 0 0 0 0 0 0 0 0 0 0 0 127 0"/><feOffset dy="-7"/><feGaussianBlur stdDeviation="20.5"/><feComposite in2="hardAlpha" operator="out"/><feColorMatrix values="0 0 0 0 0.1375 0 0 0 0 0.74125 0 0 0 0 1 0 0 0 0.3 0"/><feBlend in2="effect2_dropShadow_3_2345" result="effect3_dropShadow_3_2345"/><feBlend in="SourceGraphic" in2="effect3_dropShadow_3_2345" result="shape"/></filter><filter id="m" width="166.984" height="127.37" x="-33.501" y="74.98" color-interpolation-filters="sRGB" filterUnits="userSpaceOnUse"><feFlood flood-opacity="0" result="BackgroundImageFix"/><feGaussianBlur in="BackgroundImageFix" stdDeviation="7"/><feComposite in2="SourceAlpha" operator="in" result="effect1_backgroundBlur_3_2345"/><feColorMatrix in="SourceAlpha" result="hardAlpha" values="0 0 0 0 0 0 0 0 0 0 0 0 0 0 0 0 0 0 127 0"/><feOffset dx="-21" dy="15"/><feGaussianBlur stdDeviation="25"/><feComposite in2="hardAlpha" operator="out"/><feColorMatrix values="0 0 0 0 0.113438 0 0 0 0 0.148981 0 0 0 0 0.275 0 0 0 0.25 0"/><feBlend in2="effect1_backgroundBlur_3_2345" result="effect2_dropShadow_3_2345"/><feColorMatrix in="SourceAlpha" result="hardAlpha" values="0 0 0 0 0 0 0 0 0 0 0 0 0 0 0 0 0 0 127 0"/><feOffset dy="-7"/><feGaussianBlur stdDeviation="20.5"/><feComposite in2="hardAlpha" operator="out"/><feColorMatrix values="0 0 0 0 0.1375 0 0 0 0 0.74125 0 0 0 0 1 0 0 0 0.3 0"/><feBlend in2="effect2_dropShadow_3_2345" result="effect3_dropShadow_3_2345"/><feBlend in="SourceGraphic" in2="effect3_dropShadow_3_2345" result="shape"/></filter><filter id="i" width="166.883" height="145.244" x=".329" y="30.807" color-interpolation-filters="sRGB" filterUnits="userSpaceOnUse"><feFlood flood-opacity="0" result="BackgroundImageFix"/><feGaussianBlur in="BackgroundImageFix" stdDeviation="7"/><feComposite in2="SourceAlpha" operator="in" result="effect1_backgroundBlur_3_2345"/><feColorMatrix in="SourceAlpha" result="hardAlpha" values="0 0 0 0 0 0 0 0 0 0 0 0 0 0 0 0 0 0 127 0"/><feOffset dx="-21" dy="15"/><feGaussianBlur stdDeviation="25"/><feComposite in2="hardAlpha" operator="out"/><feColorMatrix values="0 0 0 0 0.113438 0 0 0 0 0.148981 0 0 0 0 0.275 0 0 0 0.25 0"/><feBlend in2="effect1_backgroundBlur_3_2345" result="effect2_dropShadow_3_2345"/><feBlend in="SourceGraphic" in2="effect2_dropShadow_3_2345" result="shape"/></filter><filter id="a" width="154.551" height="151.744" x="-6.489" y=".399" color-interpolation-filters="sRGB" filterUnits="userSpaceOnUse"><feFlood flood-opacity="0" result="BackgroundImageFix"/><feGaussianBlur in="BackgroundImageFix" stdDeviation="7"/><feComposite in2="SourceAlpha" operator="in" result="effect1_backgroundBlur_3_2345"/><feColorMatrix in="SourceAlpha" result="hardAlpha" values="0 0 0 0 0 0 0 0 0 0 0 0 0 0 0 0 0 0 127 0"/><feOffset dx="-21" dy="15"/><feGaussianBlur stdDeviation="25"/><feComposite in2="hardAlpha" operator="out"/><feColorMatrix values="0 0 0 0 0.113438 0 0 0 0 0.148981 0 0 0 0 0.275 0 0 0 0.25 0"/><feBlend in2="effect1_backgroundBlur_3_2345" result="effect2_dropShadow_3_2345"/><feColorMatrix in="SourceAlpha" result="hardAlpha" values="0 0 0 0 0 0 0 0 0 0 0 0 0 0 0 0 0 0 127 0"/><feOffset/><feGaussianBlur stdDeviation="19"/><feComposite in2="hardAlpha" operator="out"/><feColorMatrix values="0 0 0 0 0.619608 0 0 0 0 0.423529 0 0 0 0 1 0 0 0 0.4 0"/><feBlend in2="effect2_dropShadow_3_2345" result="effect3_dropShadow_3_2345"/><feBlend in="SourceGraphic" in2="effect3_dropShadow_3_2345" result="shape"/></filter></defs></svg>