<svg width="19" height="18" viewBox="0 0 19 18" fill="none" xmlns="http://www.w3.org/2000/svg">
<path d="M16.8807 0H2.88074C2.3503 0 1.8416 0.210714 1.46652 0.585786C1.09145 0.960859 0.880737 1.46957 0.880737 2V16C0.880737 16.5304 1.09145 17.0391 1.46652 17.4142C1.8416 17.7893 2.3503 18 2.88074 18H16.8807C17.4112 18 17.9199 17.7893 18.295 17.4142C18.67 17.0391 18.8807 16.5304 18.8807 16V2C18.8807 1.46957 18.67 0.960859 18.295 0.585786C17.9199 0.210714 17.4112 0 16.8807 0ZM13.4807 14L9.88074 10.4L6.28074 14L4.88074 12.6L8.48074 9L4.88074 5.4L6.28074 4L9.88074 7.6L13.4807 4L14.8807 5.4L11.2807 9L14.8807 12.6L13.4807 14Z" fill="white"/>
</svg>
