<svg width="138" height="74" fill="none" xmlns="http://www.w3.org/2000/svg"><g filter="url(#a)"><mask id="d" fill="#fff"><path fill-rule="evenodd" clip-rule="evenodd" d="M93.393 43.578h.058c2.734 0 4.95-2.82 4.95-6.297 0-3.478-2.216-6.297-4.95-6.297h-1.337c.046-.431.07-.871.07-1.319 0-5.338-3.402-9.665-7.599-9.665-4.196 0-7.598 4.327-7.598 9.666 0 .503.03.998.089 1.48a3.958 3.958 0 0 0-1.125-.163c-2.734 0-4.951 2.82-4.951 6.298s2.216 6.297 4.95 6.297h17.443Z"/></mask><path fill-rule="evenodd" clip-rule="evenodd" d="M93.393 43.578h.058c2.734 0 4.95-2.82 4.95-6.297 0-3.478-2.216-6.297-4.95-6.297h-1.337c.046-.431.07-.871.07-1.319 0-5.338-3.402-9.665-7.599-9.665-4.196 0-7.598 4.327-7.598 9.666 0 .503.03.998.089 1.48a3.958 3.958 0 0 0-1.125-.163c-2.734 0-4.951 2.82-4.951 6.298s2.216 6.297 4.95 6.297h17.443Z" fill="url(#b)" shape-rendering="crispEdges"/><path d="m93.393 43.578.029-2a2 2 0 0 0-2.029 2h2Zm0-12.594h-2a2 2 0 0 0 2.03 2l-.03-2Zm0 0h2a2 2 0 0 0-2-2v2Zm-1.279 0-1.988-.214a2 2 0 0 0 1.988 2.213v-2Zm-15.038.163-.567 1.918a2 2 0 0 0 2.552-2.158l-1.986.24Zm-1.067 12.43 1.7 1.053a2 2 0 0 0-1.73-3.052l.03 2Zm0 .001-1.701-1.052a2 2 0 0 0 1.7 3.052v-2Zm17.384 0v2a2 2 0 0 0 2-2h-2Zm-.029 2h.087v-4h-.029l-.058 4Zm.087 0c4.26 0 6.95-4.19 6.95-8.297h-4c0 2.848-1.742 4.297-2.95 4.297v4Zm6.95-8.297c0-4.108-2.69-8.297-6.95-8.297v4c1.208 0 2.95 1.448 2.95 4.297h4Zm-6.95-8.297h-.087l.058 4h.029v-4Zm-2.058 2h4-4Zm.721 2h1.28v-4h-1.28v4Zm1.989-1.787c.054-.502.081-1.013.081-1.531h-4c0 .375-.02.744-.058 1.104l3.977.427Zm.081-1.531c0-5.968-3.876-11.666-9.599-11.666v4c2.671 0 5.6 2.957 5.6 7.666h4ZM84.585 18c-5.722 0-9.598 5.698-9.598 11.666h4c0-4.71 2.928-7.666 5.599-7.666v-4Zm-9.598 11.666c0 .583.035 1.158.103 1.72l3.971-.48a10.33 10.33 0 0 1-.074-1.24h-4Zm2.655-.437a5.96 5.96 0 0 0-1.691-.245v4c.19 0 .376.027.558.08l1.133-3.835Zm-1.691-.245c-4.26 0-6.951 4.19-6.951 8.297h4c0-2.849 1.743-4.297 2.95-4.297v-4ZM69 37.28c0 4.107 2.69 8.297 6.95 8.297v-4c-1.207 0-2.95-1.449-2.95-4.297h-4Zm6.95 8.297h.088l-.059-4h-.028v4Zm1.759-.948-3.401-2.105 3.401 2.105Zm15.684-3.052H76.008v4h17.385v-4Zm-2 2h4-4Z" fill="url(#c)" mask="url(#d)"/></g><g filter="url(#e)"><mask id="h" fill="#fff"><path fill-rule="evenodd" clip-rule="evenodd" d="M102.381 37.04h.041c1.976 0 3.578-2.038 3.578-4.551 0-2.514-1.602-4.551-3.578-4.551H101.456a8.78 8.78 0 0 0 .051-.953c0-3.858-2.459-6.985-5.492-6.985-3.032 0-5.491 3.127-5.491 6.985 0 .364.022.722.064 1.07a2.86 2.86 0 0 0-.813-.117c-1.976 0-3.578 2.037-3.578 4.55 0 2.514 1.602 4.551 3.578 4.551h12.606Z"/></mask><path fill-rule="evenodd" clip-rule="evenodd" d="M102.381 37.04h.041c1.976 0 3.578-2.038 3.578-4.551 0-2.514-1.602-4.551-3.578-4.551H101.456a8.78 8.78 0 0 0 .051-.953c0-3.858-2.459-6.985-5.492-6.985-3.032 0-5.491 3.127-5.491 6.985 0 .364.022.722.064 1.07a2.86 2.86 0 0 0-.813-.117c-1.976 0-3.578 2.037-3.578 4.55 0 2.514 1.602 4.551 3.578 4.551h12.606Z" fill="url(#f)" shape-rendering="crispEdges"/><path d="m102.381 37.04.028-2a1.999 1.999 0 0 0-2.028 2h2Zm0-9.102h-2a1.997 1.997 0 0 0 2.028 2l-.028-2Zm0 0h2a2 2 0 0 0-2-2v2Zm-.925 0-1.988-.213a2 2 0 0 0 1.988 2.213v-2Zm-10.868.118-.567 1.918a2 2 0 0 0 2.552-2.158l-1.985.24Zm-.771 8.983 1.698 1.056a2 2 0 0 0-1.727-3.056l.029 2Zm0 0-1.699-1.056a2 2 0 0 0 1.699 3.056v-2Zm12.564 0v2a2 2 0 0 0 2-2h-2Zm-.029 2h.07v-4h-.013l-.057 4Zm.07 0c3.502 0 5.578-3.407 5.578-6.55h-4c0 1.883-1.128 2.55-1.578 2.55v4ZM108 32.49c0-3.143-2.076-6.551-5.578-6.551v4c.45 0 1.578.667 1.578 2.55h4Zm-5.578-6.551h-.07l.057 4h.013v-4Zm-2.041 2h4-4Zm1.075 2h.925v-4h-.925v4Zm1.989-1.787c.041-.383.062-.772.062-1.166h-4c0 .252-.014.499-.04.74l3.978.426Zm.062-1.166c0-4.487-2.933-8.985-7.492-8.985v4c1.507 0 3.492 1.757 3.492 4.985h4ZM96.015 18c-4.559 0-7.491 4.498-7.491 8.985h4c0-3.228 1.985-4.985 3.491-4.985v-4Zm-7.491 8.985c0 .444.027.882.079 1.31l3.97-.48a6.932 6.932 0 0 1-.05-.83h-4Zm2.63-.847c-.44-.13-.903-.2-1.379-.2v4c.083 0 .165.012.246.036l1.134-3.836Zm-1.379-.2c-3.502 0-5.578 3.408-5.578 6.55h4c0-1.883 1.128-2.55 1.578-2.55v-4Zm-5.578 6.55c0 3.144 2.076 6.551 5.578 6.551v-4c-.45 0-1.578-.667-1.578-2.55h-4Zm5.578 6.551h.07l-.057-4h-.013v4Zm1.74-.943-3.397-2.113 3.397 2.113Zm10.866-3.056H89.817v4h12.564v-4Zm-2 2h4-4Z" fill="url(#g)" mask="url(#h)"/></g><g filter="url(#i)"><g stroke-width="2"><path d="m81.247 42.477 1.056-1.725.123 2.181c.026.464-.373.772-.79.61-.418-.161-.614-.7-.39-1.066Z" fill="url(#j)" stroke="url(#k)"/><path d="m87.868 42.477 1.056-1.725.123 2.181c.026.464-.373.772-.79.61-.418-.161-.614-.7-.39-1.066Z" fill="url(#l)" stroke="url(#m)"/><path d="m94.489 42.477 1.056-1.725.123 2.181c.026.464-.373.772-.79.61-.418-.161-.614-.7-.39-1.066Z" fill="url(#n)" stroke="url(#o)"/></g></g><g filter="url(#p)"><g stroke-width="2"><path d="m82.994 49.144 1.056-1.726.123 2.182c.026.463-.373.771-.79.61-.418-.162-.614-.7-.39-1.066Z" fill="url(#q)" stroke="url(#r)"/><path d="m88.587 49.144 1.057-1.726.122 2.182c.026.463-.372.771-.79.61-.417-.162-.613-.7-.389-1.066Z" fill="url(#s)" stroke="url(#t)"/></g></g><defs><linearGradient id="k" x1="83.078" y1="37.513" x2="80.503" y2="44.168" gradientUnits="userSpaceOnUse"><stop stop-color="#fff"/><stop offset="1" stop-color="#fff" stop-opacity="0"/></linearGradient><linearGradient id="t" x1="90.419" y1="44.179" x2="87.844" y2="50.834" gradientUnits="userSpaceOnUse"><stop stop-color="#fff"/><stop offset="1" stop-color="#fff" stop-opacity="0"/></linearGradient><linearGradient id="s" x1="90.419" y1="44.179" x2="87.844" y2="50.834" gradientUnits="userSpaceOnUse"><stop stop-color="#fff"/><stop offset=".608" stop-color="#64ECFF"/><stop offset="1" stop-color="#00E0FF"/></linearGradient><linearGradient id="r" x1="84.825" y1="44.179" x2="82.25" y2="50.834" gradientUnits="userSpaceOnUse"><stop stop-color="#fff"/><stop offset="1" stop-color="#fff" stop-opacity="0"/></linearGradient><linearGradient id="b" x1="84.701" y1="12.458" x2="84.701" y2="46.873" gradientUnits="userSpaceOnUse"><stop stop-color="#fff"/><stop offset="1" stop-color="#fff" stop-opacity="0"/></linearGradient><linearGradient id="c" x1="84.701" y1="20" x2="84.701" y2="43.578" gradientUnits="userSpaceOnUse"><stop stop-color="#fff"/><stop offset="1" stop-color="#fff" stop-opacity="0"/></linearGradient><linearGradient id="f" x1="97.02" y1="20.513" x2="97.02" y2="38.965" gradientUnits="userSpaceOnUse"><stop stop-color="#fff"/><stop offset="1" stop-color="#fff" stop-opacity="0"/></linearGradient><linearGradient id="g" x1="96.099" y1="20" x2="96.099" y2="37.039" gradientUnits="userSpaceOnUse"><stop stop-color="#fff"/><stop offset="1" stop-color="#fff" stop-opacity="0"/></linearGradient><linearGradient id="j" x1="83.078" y1="37.513" x2="80.503" y2="44.168" gradientUnits="userSpaceOnUse"><stop stop-color="#fff"/><stop offset="1" stop-color="#00E0FF"/></linearGradient><linearGradient id="q" x1="84.825" y1="44.179" x2="82.25" y2="50.834" gradientUnits="userSpaceOnUse"><stop stop-color="#fff"/><stop offset="1" stop-color="#00E0FF"/></linearGradient><linearGradient id="l" x1="89.699" y1="37.513" x2="87.124" y2="44.168" gradientUnits="userSpaceOnUse"><stop stop-color="#fff"/><stop offset="1" stop-color="#00E0FF"/></linearGradient><linearGradient id="m" x1="89.699" y1="37.513" x2="87.124" y2="44.168" gradientUnits="userSpaceOnUse"><stop stop-color="#fff"/><stop offset="1" stop-color="#fff" stop-opacity="0"/></linearGradient><linearGradient id="n" x1="96.32" y1="37.513" x2="93.745" y2="44.168" gradientUnits="userSpaceOnUse"><stop stop-color="#fff"/><stop offset="1" stop-color="#00E0FF"/></linearGradient><linearGradient id="o" x1="96.32" y1="37.513" x2="93.745" y2="44.168" gradientUnits="userSpaceOnUse"><stop stop-color="#fff"/><stop offset="1" stop-color="#fff" stop-opacity="0"/></linearGradient><filter id="e" x="15.197" y="-15" width="119.803" height="117.04" filterUnits="userSpaceOnUse" color-interpolation-filters="sRGB"><feFlood flood-opacity="0" result="BackgroundImageFix"/><feGaussianBlur in="BackgroundImageFix" stdDeviation="7"/><feComposite in2="SourceAlpha" operator="in" result="effect1_backgroundBlur_53_500"/><feColorMatrix in="SourceAlpha" values="0 0 0 0 0 0 0 0 0 0 0 0 0 0 0 0 0 0 127 0" result="hardAlpha"/><feOffset dx="-21" dy="15"/><feGaussianBlur stdDeviation="25"/><feComposite in2="hardAlpha" operator="out"/><feColorMatrix values="0 0 0 0 0.113438 0 0 0 0 0.148981 0 0 0 0 0.275 0 0 0 0.25 0"/><feBlend in2="effect1_backgroundBlur_53_500" result="effect2_dropShadow_53_500"/><feBlend in="SourceGraphic" in2="effect2_dropShadow_53_500" result="shape"/></filter><filter id="p" x="10.938" y="-1.757" width="120.791" height="118.048" filterUnits="userSpaceOnUse" color-interpolation-filters="sRGB"><feFlood flood-opacity="0" result="BackgroundImageFix"/><feGaussianBlur in="BackgroundImageFix" stdDeviation="7"/><feComposite in2="SourceAlpha" operator="in" result="effect1_backgroundBlur_53_500"/><feColorMatrix in="SourceAlpha" values="0 0 0 0 0 0 0 0 0 0 0 0 0 0 0 0 0 0 127 0" result="hardAlpha"/><feOffset dx="-21" dy="15"/><feGaussianBlur stdDeviation="25"/><feComposite in2="hardAlpha" operator="out"/><feColorMatrix values="0 0 0 0 0.113438 0 0 0 0 0.148981 0 0 0 0 0.275 0 0 0 0.25 0"/><feBlend in2="effect1_backgroundBlur_53_500" result="effect2_dropShadow_53_500"/><feColorMatrix in="SourceAlpha" values="0 0 0 0 0 0 0 0 0 0 0 0 0 0 0 0 0 0 127 0" result="hardAlpha"/><feOffset dy="-7"/><feGaussianBlur stdDeviation="20.5"/><feComposite in2="hardAlpha" operator="out"/><feColorMatrix values="0 0 0 0 0.1375 0 0 0 0 0.74125 0 0 0 0 1 0 0 0 0.3 0"/><feBlend in2="effect2_dropShadow_53_500" result="effect3_dropShadow_53_500"/><feBlend in="SourceGraphic" in2="effect3_dropShadow_53_500" result="shape"/></filter><filter id="i" x="9.191" y="-8.423" width="128.439" height="118.048" filterUnits="userSpaceOnUse" color-interpolation-filters="sRGB"><feFlood flood-opacity="0" result="BackgroundImageFix"/><feGaussianBlur in="BackgroundImageFix" stdDeviation="7"/><feComposite in2="SourceAlpha" operator="in" result="effect1_backgroundBlur_53_500"/><feColorMatrix in="SourceAlpha" values="0 0 0 0 0 0 0 0 0 0 0 0 0 0 0 0 0 0 127 0" result="hardAlpha"/><feOffset dx="-21" dy="15"/><feGaussianBlur stdDeviation="25"/><feComposite in2="hardAlpha" operator="out"/><feColorMatrix values="0 0 0 0 0.113438 0 0 0 0 0.148981 0 0 0 0 0.275 0 0 0 0.25 0"/><feBlend in2="effect1_backgroundBlur_53_500" result="effect2_dropShadow_53_500"/><feColorMatrix in="SourceAlpha" values="0 0 0 0 0 0 0 0 0 0 0 0 0 0 0 0 0 0 127 0" result="hardAlpha"/><feOffset dy="-7"/><feGaussianBlur stdDeviation="20.5"/><feComposite in2="hardAlpha" operator="out"/><feColorMatrix values="0 0 0 0 0.1375 0 0 0 0 0.74125 0 0 0 0 1 0 0 0 0.3 0"/><feBlend in2="effect2_dropShadow_53_500" result="effect3_dropShadow_53_500"/><feBlend in="SourceGraphic" in2="effect3_dropShadow_53_500" result="shape"/></filter><filter id="a" x="0" y="-15" width="127.401" height="123.578" filterUnits="userSpaceOnUse" color-interpolation-filters="sRGB"><feFlood flood-opacity="0" result="BackgroundImageFix"/><feGaussianBlur in="BackgroundImageFix" stdDeviation="7"/><feComposite in2="SourceAlpha" operator="in" result="effect1_backgroundBlur_53_500"/><feColorMatrix in="SourceAlpha" values="0 0 0 0 0 0 0 0 0 0 0 0 0 0 0 0 0 0 127 0" result="hardAlpha"/><feOffset dx="-21" dy="15"/><feGaussianBlur stdDeviation="25"/><feComposite in2="hardAlpha" operator="out"/><feColorMatrix values="0 0 0 0 0.113725 0 0 0 0 0.14902 0 0 0 0 0.27451 0 0 0 0.25 0"/><feBlend in2="effect1_backgroundBlur_53_500" result="effect2_dropShadow_53_500"/><feBlend in="SourceGraphic" in2="effect2_dropShadow_53_500" result="shape"/></filter></defs></svg>