<svg width="127" height="74" fill="none" xmlns="http://www.w3.org/2000/svg"><g filter="url(#a)"><circle cx="71.12" cy="31.12" r="11.12" fill="#FFC701" fill-opacity=".5"/></g><circle cx="71.12" cy="31.484" r="9.755" fill="url(#b)" stroke="url(#c)" stroke-width="2"/><mask id="e" style="mask-type:alpha" maskUnits="userSpaceOnUse" x="60" y="26" width="22" height="17"><path d="M81.875 31.484c0 5.94-4.815 10.755-10.755 10.755s-10.756-4.815-10.756-10.755 3.995-4.557 9.935-4.557 11.576-1.383 11.576 4.557Z" fill="url(#d)"/></mask><g filter="url(#f)" mask="url(#e)"><path fill-rule="evenodd" clip-rule="evenodd" d="M87.526 51.172a7.839 7.839 0 0 1-7.93 7.838H51.98a7.839 7.839 0 1 1 7.644-9.577l2.655-3.365 8.294-2.735H79.687c4.33 0 7.84 3.51 7.84 7.839Z" fill="#E18700"/></g><g filter="url(#g)"><mask id="j" fill="#fff"><path fill-rule="evenodd" clip-rule="evenodd" d="M89.27 51.783h.065a5.665 5.665 0 1 0 0-11.33H87.806a8.695 8.695 0 1 0-17.208.147 5.665 5.665 0 1 0-1.221 11.182v.001h19.892Z"/></mask><path fill-rule="evenodd" clip-rule="evenodd" d="M89.27 51.783h.065a5.665 5.665 0 1 0 0-11.33H87.806a8.695 8.695 0 1 0-17.208.147 5.665 5.665 0 1 0-1.221 11.182v.001h19.892Z" fill="url(#h)" shape-rendering="crispEdges"/><path d="m89.27 51.783.022-2a2 2 0 0 0-2.023 2h2Zm0-11.33h-2a2 2 0 0 0 2.022 2l-.023-2Zm0 0h2a2 2 0 0 0-2-2v2Zm-1.464 0-1.982-.27a2 2 0 0 0 1.982 2.27v-2Zm-17.208.147-.453 1.948a2 2 0 0 0 2.43-2.252l-1.977.304Zm-1.221 11.183 1.57 1.237a2 2 0 0 0-1.593-3.237l.023 2Zm0 0-1.572-1.238a2 2 0 0 0 1.571 3.238v-2Zm19.892 0v2a2 2 0 0 0 2-2h-2Zm-.023 2h.09v-4h-.044l-.046 4Zm.09 0A7.665 7.665 0 0 0 97 46.118h-4a3.665 3.665 0 0 1-3.665 3.665v4ZM97 46.118a7.665 7.665 0 0 0-7.665-7.665v4A3.665 3.665 0 0 1 93 46.118h4Zm-7.665-7.665h-.089l.046 4h.043v-4Zm-2.066 2h4-4Zm.537 2h1.463v-4h-1.463v4Zm1.981-1.73c.066-.476.099-.962.099-1.455h-4c0 .311-.021.617-.062.915l3.963.54Zm.099-1.455c0-5.907-4.788-10.695-10.695-10.695v4a6.695 6.695 0 0 1 6.695 6.695h4ZM79.19 28.573c-5.907 0-10.695 4.788-10.695 10.695h4a6.695 6.695 0 0 1 6.695-6.695v-4ZM68.496 39.268c0 .555.043 1.102.125 1.636l3.953-.608a6.762 6.762 0 0 1-.078-1.028h-4Zm2.554-.616a7.681 7.681 0 0 0-1.74-.199v4c.29 0 .569.034.835.095l.905-3.896Zm-1.74-.199a7.665 7.665 0 0 0-7.664 7.665h4a3.665 3.665 0 0 1 3.665-3.665v-4Zm-7.664 7.665a7.665 7.665 0 0 0 7.665 7.665v-4a3.665 3.665 0 0 1-3.665-3.665h-4Zm7.665 7.665h.088l-.045-4h-.043v4Zm1.636-.762-3.141-2.476 3.141 2.476Zm18.322-3.238H69.376v4H89.27v-4Zm-2 2h4-4Z" fill="url(#i)" mask="url(#j)"/></g><defs><linearGradient id="b" x1="71.12" y1="20.729" x2="71.12" y2="42.24" gradientUnits="userSpaceOnUse"><stop stop-color="#FFE600"/><stop offset="1" stop-color="#FF7A00"/></linearGradient><linearGradient id="c" x1="71.12" y1="20.729" x2="71.12" y2="42.24" gradientUnits="userSpaceOnUse"><stop stop-color="#fff"/><stop offset="1" stop-color="#fff" stop-opacity="0"/></linearGradient><linearGradient id="d" x1="71.12" y1="20.729" x2="71.12" y2="42.239" gradientUnits="userSpaceOnUse"><stop stop-color="#FFD600"/><stop offset="1" stop-color="#FF7A00"/></linearGradient><linearGradient id="h" x1="80.781" y1="31.211" x2="80.781" y2="54.18" gradientUnits="userSpaceOnUse"><stop stop-color="#fff"/><stop offset="1" stop-color="#fff" stop-opacity="0"/></linearGradient><linearGradient id="i" x1="79.323" y1="30.573" x2="79.323" y2="51.783" gradientUnits="userSpaceOnUse"><stop stop-color="#fff"/><stop offset="1" stop-color="#fff" stop-opacity="0"/></linearGradient><filter id="a" x="16" y="-24" width="110.24" height="110.24" filterUnits="userSpaceOnUse" color-interpolation-filters="sRGB"><feFlood flood-opacity="0" result="BackgroundImageFix"/><feBlend in="SourceGraphic" in2="BackgroundImageFix" result="shape"/><feGaussianBlur stdDeviation="22" result="effect1_foregroundBlur_53_568"/></filter><filter id="f" x="30.141" y="29.333" width="71.385" height="43.677" filterUnits="userSpaceOnUse" color-interpolation-filters="sRGB"><feFlood flood-opacity="0" result="BackgroundImageFix"/><feBlend in="SourceGraphic" in2="BackgroundImageFix" result="shape"/><feGaussianBlur stdDeviation="7" result="effect1_foregroundBlur_53_568"/></filter><filter id="g" x="-7.354" y="-4.427" width="131.354" height="121.21" filterUnits="userSpaceOnUse" color-interpolation-filters="sRGB"><feFlood flood-opacity="0" result="BackgroundImageFix"/><feGaussianBlur in="BackgroundImageFix" stdDeviation="7"/><feComposite in2="SourceAlpha" operator="in" result="effect1_backgroundBlur_53_568"/><feColorMatrix in="SourceAlpha" values="0 0 0 0 0 0 0 0 0 0 0 0 0 0 0 0 0 0 127 0" result="hardAlpha"/><feOffset dx="-21" dy="15"/><feGaussianBlur stdDeviation="25"/><feComposite in2="hardAlpha" operator="out"/><feColorMatrix values="0 0 0 0 0.113438 0 0 0 0 0.148981 0 0 0 0 0.275 0 0 0 0.25 0"/><feBlend in2="effect1_backgroundBlur_53_568" result="effect2_dropShadow_53_568"/><feBlend in="SourceGraphic" in2="effect2_dropShadow_53_568" result="shape"/></filter></defs></svg>