<svg width="89" height="74" fill="none" xmlns="http://www.w3.org/2000/svg"><g filter="url(#a)"><ellipse cx="37.918" cy="29.913" rx="7.023" ry="8.913" fill="#FFC701" fill-opacity=".5"/></g><path d="M43.71 30.206c0 4.444-2.802 7.62-5.792 7.62-2.99 0-5.793-3.176-5.793-7.62 0-4.445 2.803-7.622 5.793-7.622s5.793 3.177 5.793 7.622Z" fill="url(#b)" stroke="url(#c)" stroke-width="2"/><mask id="e" style="mask-type:alpha" maskUnits="userSpaceOnUse" x="31" y="26" width="14" height="13"><path d="M44.71 30.205c0 4.762-3.04 8.621-6.792 8.621s-6.793-3.86-6.793-8.62c0-4.762 2.523-3.654 6.275-3.654 3.751 0 7.31-1.108 7.31 3.653Z" fill="url(#d)"/></mask><g filter="url(#f)" mask="url(#e)"><path fill-rule="evenodd" clip-rule="evenodd" d="M43.271 52.269h.058c2.734 0 4.95-2.813 4.95-6.283s-2.216-6.283-4.95-6.283h-3.214c.07-.523.105-1.06.105-1.607 0-5.326-3.402-9.644-7.598-9.644-4.197 0-7.6 4.318-7.6 9.644 0 .569.04 1.126.114 1.668-2.406.428-4.258 3.05-4.258 6.222 0 3.47 2.217 6.283 4.95 6.283h17.443Z" fill="#E18700"/></g><g filter="url(#g)"><mask id="j" fill="#fff"><path fill-rule="evenodd" clip-rule="evenodd" d="M40.393 53h.058c2.734 0 4.95-2.813 4.95-6.283s-2.216-6.283-4.95-6.283h-1.337c.046-.43.07-.87.07-1.315 0-5.327-3.402-9.644-7.598-9.644-4.197 0-7.6 4.317-7.6 9.644 0 .502.031.996.09 1.478a3.965 3.965 0 0 0-1.125-.163c-2.735 0-4.951 2.813-4.951 6.283S20.216 53 22.95 53h17.443Z"/></mask><path fill-rule="evenodd" clip-rule="evenodd" d="M40.393 53h.058c2.734 0 4.95-2.813 4.95-6.283s-2.216-6.283-4.95-6.283h-1.337c.046-.43.07-.87.07-1.315 0-5.327-3.402-9.644-7.598-9.644-4.197 0-7.6 4.317-7.6 9.644 0 .502.031.996.09 1.478a3.965 3.965 0 0 0-1.125-.163c-2.735 0-4.951 2.813-4.951 6.283S20.216 53 22.95 53h17.443Z" fill="url(#h)" shape-rendering="crispEdges"/><path d="m40.393 53 .029-2a2 2 0 0 0-2.029 2h2Zm0-12.566h-2a2 2 0 0 0 2.03 2l-.03-2Zm0 0h2a2 2 0 0 0-2-2v2Zm-1.279 0-1.988-.214a2 2 0 0 0 1.988 2.214v-2Zm-15.038.163-.566 1.918a2 2 0 0 0 2.551-2.159l-1.985.24ZM23.009 53l1.698 1.055A2 2 0 0 0 22.98 51l.03 2Zm0 0-1.7-1.056A2 2 0 0 0 23.01 55v-2Zm17.384 0v2a2 2 0 0 0 2-2h-2Zm-.029 2h.087v-4h-.029l-.058 4Zm.087 0c4.256 0 6.95-4.179 6.95-8.283h-4c0 2.836-1.739 4.283-2.95 4.283v4Zm6.95-8.283c0-4.104-2.694-8.283-6.95-8.283v4c1.211 0 2.95 1.447 2.95 4.283h4Zm-6.95-8.283h-.087l.058 4h.029v-4Zm-2.058 2h4-4Zm.721 2h1.28v-4h-1.28v4Zm1.989-1.787c.053-.5.081-1.01.081-1.528h-4c0 .374-.02.742-.058 1.101l3.977.427Zm.081-1.528c0-5.96-3.88-11.644-9.598-11.644v4c2.674 0 5.598 2.952 5.598 7.644h4Zm-9.598-11.644c-5.72 0-9.6 5.683-9.6 11.644h4c0-4.692 2.925-7.644 5.6-7.644v-4Zm-9.6 11.644c0 .583.036 1.157.104 1.718l3.971-.48a10.29 10.29 0 0 1-.074-1.238h-4Zm2.655-.44a5.966 5.966 0 0 0-1.69-.245v4c.19 0 .377.027.559.081l1.131-3.837Zm-1.69-.245c-4.257 0-6.951 4.179-6.951 8.283h4c0-2.836 1.739-4.283 2.95-4.283v-4ZM16 46.717C16 50.82 18.694 55 22.95 55v-4C21.74 51 20 49.553 20 46.717h-4ZM22.95 55h.088l-.059-4h-.028v4Zm1.757-.944-3.397-2.112 3.397 2.112ZM40.393 51H23.008v4h17.385v-4Zm-2 2h4-4Z" fill="url(#i)" mask="url(#j)"/></g><g filter="url(#k)"><mask id="n" fill="#fff"><path fill-rule="evenodd" clip-rule="evenodd" d="M49.38 46.476h.042c1.976 0 3.578-2.033 3.578-4.54 0-2.508-1.602-4.541-3.578-4.541H48.456c.034-.311.05-.628.05-.95 0-3.85-2.458-6.97-5.49-6.97-3.033 0-5.492 3.12-5.492 6.97 0 .362.022.72.064 1.068a2.864 2.864 0 0 0-.813-.118c-1.976 0-3.578 2.033-3.578 4.54 0 2.508 1.602 4.541 3.578 4.541H49.38Z"/></mask><path fill-rule="evenodd" clip-rule="evenodd" d="M49.38 46.476h.042c1.976 0 3.578-2.033 3.578-4.54 0-2.508-1.602-4.541-3.578-4.541H48.456c.034-.311.05-.628.05-.95 0-3.85-2.458-6.97-5.49-6.97-3.033 0-5.492 3.12-5.492 6.97 0 .362.022.72.064 1.068a2.864 2.864 0 0 0-.813-.118c-1.976 0-3.578 2.033-3.578 4.54 0 2.508 1.602 4.541 3.578 4.541H49.38Z" fill="url(#l)" shape-rendering="crispEdges"/><path d="m49.38 46.476.03-2a2 2 0 0 0-2.03 2h2Zm0-9.081h-2a2 2 0 0 0 2.03 2l-.03-2Zm0 0h2a2 2 0 0 0-2-2v2Zm-.924 0-1.988-.214a2 2 0 0 0 1.988 2.214v-2Zm-10.868.117-.566 1.919a2 2 0 0 0 2.552-2.16l-1.986.242Zm-.771 8.964 1.698 1.056a2 2 0 0 0-1.727-3.056l.029 2Zm0 0-1.699-1.056a2 2 0 0 0 1.699 3.056v-2Zm12.563 0v2a2 2 0 0 0 2-2h-2Zm-.028 2h.07v-4h-.012l-.058 4Zm.07 0c3.499 0 5.578-3.399 5.578-6.54h-4c0 1.873-1.124 2.54-1.578 2.54v4ZM55 41.936c0-3.142-2.08-6.541-5.578-6.541v4c.454 0 1.578.667 1.578 2.54h4Zm-5.578-6.541h-.07l.058 4h.012v-4Zm-2.041 2h4-4Zm1.075 2h.924v-4h-.924v4Zm1.989-1.787c.04-.381.062-.77.062-1.164h-4c0 .251-.014.497-.04.737l3.978.427Zm.062-1.164c0-4.483-2.936-8.97-7.492-8.97v4c1.51 0 3.492 1.755 3.492 4.97h4Zm-7.492-8.97c-4.555 0-7.491 4.487-7.491 8.97h4c0-3.215 1.981-4.97 3.491-4.97v-4Zm-7.491 8.97c0 .444.027.88.078 1.31l3.972-.482a6.862 6.862 0 0 1-.05-.828h-4Zm2.63-.85c-.441-.13-.904-.2-1.379-.2v4c.084 0 .166.013.247.037l1.132-3.837Zm-1.379-.2c-3.498 0-5.578 3.4-5.578 6.541h4c0-1.873 1.125-2.54 1.578-2.54v-4Zm-5.578 6.541c0 3.142 2.08 6.541 5.578 6.541v-4c-.453 0-1.578-.667-1.578-2.54h-4Zm5.578 6.541h.07l-.057-4h-.013v4Zm1.74-.944-3.397-2.112 3.397 2.112Zm10.865-3.056H36.817v4H49.38v-4Zm-2 2h4-4Z" fill="url(#m)" mask="url(#n)"/></g><defs><linearGradient id="c" x1="37.918" y1="21.584" x2="37.918" y2="38.827" gradientUnits="userSpaceOnUse"><stop stop-color="#fff"/><stop offset="1" stop-color="#fff" stop-opacity="0"/></linearGradient><linearGradient id="m" x1="43.099" y1="29.475" x2="43.099" y2="46.476" gradientUnits="userSpaceOnUse"><stop stop-color="#fff"/><stop offset="1" stop-color="#fff" stop-opacity="0"/></linearGradient><linearGradient id="l" x1="44.02" y1="29.986" x2="44.02" y2="48.397" gradientUnits="userSpaceOnUse"><stop stop-color="#fff"/><stop offset="1" stop-color="#fff" stop-opacity="0"/></linearGradient><linearGradient id="i" x1="31.701" y1="29.475" x2="31.701" y2="53" gradientUnits="userSpaceOnUse"><stop stop-color="#fff"/><stop offset="1" stop-color="#fff" stop-opacity="0"/></linearGradient><linearGradient id="b" x1="37.918" y1="21.584" x2="37.918" y2="38.827" gradientUnits="userSpaceOnUse"><stop stop-color="#FFE600"/><stop offset="1" stop-color="#FF7A00"/></linearGradient><linearGradient id="h" x1="31.701" y1="21.95" x2="31.701" y2="56.288" gradientUnits="userSpaceOnUse"><stop stop-color="#fff"/><stop offset="1" stop-color="#fff" stop-opacity="0"/></linearGradient><linearGradient id="d" x1="37.918" y1="21.584" x2="37.918" y2="38.826" gradientUnits="userSpaceOnUse"><stop stop-color="#FFD600"/><stop offset="1" stop-color="#FF7A00"/></linearGradient><filter id="f" x="6.878" y="14.452" width="55.401" height="51.817" filterUnits="userSpaceOnUse" color-interpolation-filters="sRGB"><feFlood flood-opacity="0" result="BackgroundImageFix"/><feBlend in="SourceGraphic" in2="BackgroundImageFix" result="shape"/><feGaussianBlur stdDeviation="7" result="effect1_foregroundBlur_53_480"/></filter><filter id="k" x="-37.803" y="-5.525" width="119.803" height="117.001" filterUnits="userSpaceOnUse" color-interpolation-filters="sRGB"><feFlood flood-opacity="0" result="BackgroundImageFix"/><feGaussianBlur in="BackgroundImageFix" stdDeviation="7"/><feComposite in2="SourceAlpha" operator="in" result="effect1_backgroundBlur_53_480"/><feColorMatrix in="SourceAlpha" values="0 0 0 0 0 0 0 0 0 0 0 0 0 0 0 0 0 0 127 0" result="hardAlpha"/><feOffset dx="-21" dy="15"/><feGaussianBlur stdDeviation="25"/><feComposite in2="hardAlpha" operator="out"/><feColorMatrix values="0 0 0 0 0.113438 0 0 0 0 0.148981 0 0 0 0 0.275 0 0 0 0.25 0"/><feBlend in2="effect1_backgroundBlur_53_480" result="effect2_dropShadow_53_480"/><feBlend in="SourceGraphic" in2="effect2_dropShadow_53_480" result="shape"/></filter><filter id="g" x="-53" y="-5.525" width="127.401" height="123.525" filterUnits="userSpaceOnUse" color-interpolation-filters="sRGB"><feFlood flood-opacity="0" result="BackgroundImageFix"/><feGaussianBlur in="BackgroundImageFix" stdDeviation="7"/><feComposite in2="SourceAlpha" operator="in" result="effect1_backgroundBlur_53_480"/><feColorMatrix in="SourceAlpha" values="0 0 0 0 0 0 0 0 0 0 0 0 0 0 0 0 0 0 127 0" result="hardAlpha"/><feOffset dx="-21" dy="15"/><feGaussianBlur stdDeviation="25"/><feComposite in2="hardAlpha" operator="out"/><feColorMatrix values="0 0 0 0 0.113725 0 0 0 0 0.14902 0 0 0 0 0.27451 0 0 0 0.25 0"/><feBlend in2="effect1_backgroundBlur_53_480" result="effect2_dropShadow_53_480"/><feBlend in="SourceGraphic" in2="effect2_dropShadow_53_480" result="shape"/></filter><filter id="a" x="-13.105" y="-23" width="102.046" height="105.826" filterUnits="userSpaceOnUse" color-interpolation-filters="sRGB"><feFlood flood-opacity="0" result="BackgroundImageFix"/><feBlend in="SourceGraphic" in2="BackgroundImageFix" result="shape"/><feGaussianBlur stdDeviation="22" result="effect1_foregroundBlur_53_480"/></filter></defs></svg>