<svg width="143" height="74" fill="none" xmlns="http://www.w3.org/2000/svg"><g filter="url(#a)"><mask id="d" fill="#fff"><path fill-rule="evenodd" clip-rule="evenodd" d="M92.682 22.612c.833-.234 1.358.787.973 1.587-1.243 2.584-1.293 5.71.13 8.371 1.805 3.375 5.44 5 8.948 4.328.851-.163 1.661.642 1.217 1.413a10.852 10.852 0 0 1-3.856 3.922c-4.998 2.971-11.268 1.229-14.006-3.892-2.738-5.121-.906-11.681 4.092-14.652.807-.48 1.648-.837 2.502-1.077Z"/></mask><path fill-rule="evenodd" clip-rule="evenodd" d="M92.682 22.612c.833-.234 1.358.787.973 1.587-1.243 2.584-1.293 5.71.13 8.371 1.805 3.375 5.44 5 8.948 4.328.851-.163 1.661.642 1.217 1.413a10.852 10.852 0 0 1-3.856 3.922c-4.998 2.971-11.268 1.229-14.006-3.892-2.738-5.121-.906-11.681 4.092-14.652.807-.48 1.648-.837 2.502-1.077Z" fill="url(#b)"/><path d="m93.785 32.57-1.73 1.008 1.73-1.008Zm6.309 9.663-.957-1.752.957 1.752Zm-14.006-3.892-1.73 1.008 1.73-1.008Zm4.092-14.652.957 1.752-.957-1.752Zm3.475.51-1.762-.87 1.762.87Zm1.86 7.363c-1.1-2.06-1.066-4.482-.098-6.494l-3.524-1.74c-1.517 3.157-1.583 6.986.162 10.25l3.46-2.016Zm6.898 3.34c-2.702.518-5.504-.734-6.897-3.34l-3.46 2.016c2.215 4.144 6.684 6.14 10.997 5.315l-.64-3.99Zm-.151 2.4a8.791 8.791 0 0 1-3.126 3.179l1.915 3.505a12.919 12.919 0 0 0 4.587-4.666l-3.376-2.017Zm-3.126 3.179c-4.037 2.4-9.102.996-11.318-3.148l-3.46 2.016c3.26 6.097 10.736 8.178 16.693 4.637l-1.915-3.505Zm-11.318-3.148c-2.222-4.157-.731-9.484 3.319-11.892l-1.915-3.505c-5.944 3.535-8.117 11.328-4.864 17.413l3.46-2.016Zm3.319-11.892a8.4 8.4 0 0 1 2.025-.871l-.96-3.916c-1.02.287-2.02.712-2.98 1.282l1.915 3.505Zm11.916 13.452a.71.71 0 0 1-.674-.231c-.1-.11-.219-.299-.26-.573-.044-.297.024-.58.143-.786l3.376 2.017c.752-1.305.373-2.668-.362-3.473a3.094 3.094 0 0 0-2.863-.944l.64 3.99Zm-7.636-13.825c.5-1.043.42-2.223-.09-3.111-.55-.956-1.713-1.699-3.125-1.303l.96 3.916a1.123 1.123 0 0 1-.77-.071 1.048 1.048 0 0 1-.468-.42.79.79 0 0 1-.03-.75l3.523 1.739Z" fill="url(#c)" mask="url(#d)"/></g><g filter="url(#e)"><mask id="h" fill="#fff"><path fill-rule="evenodd" clip-rule="evenodd" d="M93.641 52h.059c2.764 0 5.005-2.344 5.005-5.236 0-2.893-2.24-5.237-5.005-5.237H92.348a8.48 8.48 0 0 0 .071-1.096c0-4.44-3.44-8.038-7.683-8.038s-7.683 3.599-7.683 8.038c0 .419.03.83.09 1.232a4.804 4.804 0 0 0-1.137-.136C73.24 41.527 71 43.87 71 46.763 71 49.657 73.241 52 76.006 52h17.636Z"/></mask><path fill-rule="evenodd" clip-rule="evenodd" d="M93.641 52h.059c2.764 0 5.005-2.344 5.005-5.236 0-2.893-2.24-5.237-5.005-5.237H92.348a8.48 8.48 0 0 0 .071-1.096c0-4.44-3.44-8.038-7.683-8.038s-7.683 3.599-7.683 8.038c0 .419.03.83.09 1.232a4.804 4.804 0 0 0-1.137-.136C73.24 41.527 71 43.87 71 46.763 71 49.657 73.241 52 76.006 52h17.636Z" fill="url(#f)" shape-rendering="crispEdges"/><path d="m93.641 52 .024-2a2 2 0 0 0-2.024 2h2Zm0-10.473h-2a2 2 0 0 0 2.024 2l-.024-2Zm0 0h2a2 2 0 0 0-2-2v2Zm-1.293 0-1.983-.259a2 2 0 0 0 1.984 2.259v-2Zm-15.205.136-.472 1.943a2 2 0 0 0 2.45-2.234l-1.978.29ZM76.064 52l1.597 1.204A2 2 0 0 0 76.04 50l.023 2Zm0 0-1.597-1.204A2 2 0 0 0 76.064 54v-2Zm17.578 0v2a2 2 0 0 0 2-2h-2Zm-.024 2h.082v-4h-.035l-.047 4Zm.082 0c3.953 0 7.005-3.326 7.005-7.236h-4c0 1.873-1.43 3.236-3.005 3.236v4Zm7.005-7.236c0-3.911-3.052-7.237-7.005-7.237v4c1.576 0 3.005 1.363 3.005 3.236h4ZM93.7 39.526h-.082l.047 4h.035v-4Zm-2.059 2h4-4Zm.707 2h1.293v-4h-1.293v4Zm1.984-1.742c.058-.443.087-.896.087-1.354h-4c0 .285-.018.565-.054.837l3.967.517Zm.087-1.354c0-5.458-4.25-10.038-9.683-10.038v4c3.055 0 5.683 2.617 5.683 6.038h4Zm-9.683-10.038c-5.432 0-9.683 4.58-9.683 10.038h4c0-3.42 2.629-6.038 5.683-6.038v-4Zm-9.683 10.038c0 .516.038 1.025.111 1.523l3.958-.582a6.454 6.454 0 0 1-.069-.941h-4Zm2.562-.712a6.81 6.81 0 0 0-1.61-.192v4c.231 0 .453.027.666.08l.944-3.888Zm-1.61-.192c-3.953 0-7.005 3.326-7.005 7.236h4c0-1.873 1.43-3.236 3.006-3.236v-4ZM69 46.763C69 50.675 72.052 54 76.006 54v-4C74.43 50 73 48.637 73 46.764h-4ZM76.006 54h.082l-.048-4h-.034v4Zm1.655-.796-3.194-2.409 3.194 2.41ZM93.64 50H76.064v4h17.578v-4Zm-2 2h4-4Z" fill="url(#g)" mask="url(#h)"/></g><defs><linearGradient id="b" x1="88.236" y1="24.934" x2="98.209" y2="43.469" gradientUnits="userSpaceOnUse"><stop offset="0" stop-color="#D4C0FF"/><stop offset="1" stop-color="#7E2FFF"/></linearGradient><linearGradient id="c" x1="89.154" y1="14.592" x2="95.326" y2="39.271" gradientUnits="userSpaceOnUse"><stop stop-color="#fff"/><stop offset="1" stop-color="#fff" stop-opacity="0"/></linearGradient><linearGradient id="f" x1="86.141" y1="32.983" x2="86.141" y2="54.215" gradientUnits="userSpaceOnUse"><stop stop-color="#fff"/><stop offset="1" stop-color="#fff" stop-opacity="0"/></linearGradient><linearGradient id="g" x1="84.853" y1="32.393" x2="84.853" y2="52" gradientUnits="userSpaceOnUse"><stop stop-color="#fff"/><stop offset="1" stop-color="#fff" stop-opacity="0"/></linearGradient><filter id="a" x="13.817" y="-15.422" width="128.259" height="124.105" filterUnits="userSpaceOnUse" color-interpolation-filters="sRGB"><feFlood flood-opacity="0" result="BackgroundImageFix"/><feGaussianBlur in="BackgroundImageFix" stdDeviation="7"/><feComposite in2="SourceAlpha" operator="in" result="effect1_backgroundBlur_53_594"/><feColorMatrix in="SourceAlpha" values="0 0 0 0 0 0 0 0 0 0 0 0 0 0 0 0 0 0 127 0" result="hardAlpha"/><feOffset dx="-21" dy="15"/><feGaussianBlur stdDeviation="25"/><feComposite in2="hardAlpha" operator="out"/><feColorMatrix values="0 0 0 0 0.113438 0 0 0 0 0.148981 0 0 0 0 0.275 0 0 0 0.25 0"/><feBlend in2="effect1_backgroundBlur_53_594" result="effect2_dropShadow_53_594"/><feColorMatrix in="SourceAlpha" values="0 0 0 0 0 0 0 0 0 0 0 0 0 0 0 0 0 0 127 0" result="hardAlpha"/><feOffset/><feGaussianBlur stdDeviation="19"/><feComposite in2="hardAlpha" operator="out"/><feColorMatrix values="0 0 0 0 0.619608 0 0 0 0 0.423529 0 0 0 0 1 0 0 0 0.4 0"/><feBlend in2="effect2_dropShadow_53_594" result="effect3_dropShadow_53_594"/><feBlend in="SourceGraphic" in2="effect3_dropShadow_53_594" result="shape"/></filter><filter id="e" x="0" y="-2.607" width="127.705" height="119.607" filterUnits="userSpaceOnUse" color-interpolation-filters="sRGB"><feFlood flood-opacity="0" result="BackgroundImageFix"/><feGaussianBlur in="BackgroundImageFix" stdDeviation="7"/><feComposite in2="SourceAlpha" operator="in" result="effect1_backgroundBlur_53_594"/><feColorMatrix in="SourceAlpha" values="0 0 0 0 0 0 0 0 0 0 0 0 0 0 0 0 0 0 127 0" result="hardAlpha"/><feOffset dx="-21" dy="15"/><feGaussianBlur stdDeviation="25"/><feComposite in2="hardAlpha" operator="out"/><feColorMatrix values="0 0 0 0 0.113438 0 0 0 0 0.148981 0 0 0 0 0.275 0 0 0 0.25 0"/><feBlend in2="effect1_backgroundBlur_53_594" result="effect2_dropShadow_53_594"/><feBlend in="SourceGraphic" in2="effect2_dropShadow_53_594" result="shape"/></filter></defs></svg>