<svg width="152" height="74" fill="none" xmlns="http://www.w3.org/2000/svg"><g filter="url(#a)"><path d="m80.827 39.701 3.986-6.836a2 2 0 0 1 1.727-.993h1.372c1.527 0 2.49 1.642 1.746 2.975l-1.083 1.938a1.268 1.268 0 0 0 1.107 1.886c1.115 0 1.687 1.337.917 2.143l-4.75 4.977c-1.263 1.323-3.425-.066-2.748-1.765l.166-.415a1.36 1.36 0 0 0-1.264-1.864 1.36 1.36 0 0 1-1.176-2.046Z" fill="url(#b)"/><path d="m81.691 40.205 3.986-6.837a1 1 0 0 1 .863-.496h1.372a1 1 0 0 1 .873 1.488l-1.083 1.937c-.844 1.512.248 3.374 1.98 3.374.236 0 .356.282.194.453l-4.75 4.976c-.504.528-1.366-.026-1.096-.703l.165-.415a2.36 2.36 0 0 0-2.192-3.235.36.36 0 0 1-.312-.542Z" stroke="url(#c)" stroke-width="2"/></g><g filter="url(#d)"><mask id="g" fill="#fff"><path fill-rule="evenodd" clip-rule="evenodd" d="M93.393 37.376h.058c2.734 0 4.95-2.078 4.95-4.64 0-2.564-2.216-4.642-4.95-4.642h-1.337c.046-.317.07-.641.07-.97 0-3.935-3.402-7.124-7.599-7.124-4.196 0-7.598 3.19-7.598 7.123 0 .371.03.736.089 1.092a5.282 5.282 0 0 0-1.125-.12c-2.734 0-4.951 2.077-4.951 4.64 0 2.563 2.216 4.641 4.95 4.641h17.443Z"/></mask><path fill-rule="evenodd" clip-rule="evenodd" d="M93.393 37.376h.058c2.734 0 4.95-2.078 4.95-4.64 0-2.564-2.216-4.642-4.95-4.642h-1.337c.046-.317.07-.641.07-.97 0-3.935-3.402-7.124-7.599-7.124-4.196 0-7.598 3.19-7.598 7.123 0 .371.03.736.089 1.092a5.282 5.282 0 0 0-1.125-.12c-2.734 0-4.951 2.077-4.951 4.64 0 2.563 2.216 4.641 4.95 4.641h17.443Z" fill="url(#e)" shape-rendering="crispEdges"/><path d="m93.393 37.376.021-2a2 2 0 0 0-2.02 2h2Zm0-9.281h-2a2 2 0 0 0 2.022 2l-.022-2Zm0 0h2a2 2 0 0 0-2-2v2Zm-1.279 0-1.979-.288a2 2 0 0 0 1.98 2.287v-2Zm-15.038.12-.426 1.954a2 2 0 0 0 2.4-2.278l-1.974.324Zm-1.067 9.16 1.53 1.288a2 2 0 0 0-1.552-3.287l.022 2Zm0 .001-1.532-1.287a2 2 0 0 0 1.531 3.287v-2Zm17.384 0v2a2 2 0 0 0 2-2h-2Zm-.021 2h.079v-4h-.037l-.042 4Zm.079 0c3.715 0 6.95-2.853 6.95-6.64h-4c0 1.338-1.197 2.64-2.95 2.64v4Zm6.95-6.64c0-3.788-3.235-6.642-6.95-6.642v4c1.753 0 2.95 1.303 2.95 2.641h4Zm-6.95-6.642h-.08l.044 4h.036v-4Zm-2.058 2h4-4Zm.721 2h1.28v-4h-1.28v4Zm1.98-1.712c.06-.412.09-.833.09-1.259h-4c0 .233-.017.46-.049.684l3.958.575Zm.09-1.259c0-5.158-4.421-9.123-9.599-9.123v4c3.216 0 5.6 2.413 5.6 5.123h4ZM84.585 18c-5.177 0-9.598 3.965-9.598 9.123h4c0-2.71 2.383-5.123 5.599-5.123v-4Zm-9.598 9.123c0 .48.04.953.115 1.416l3.947-.648a4.73 4.73 0 0 1-.062-.768h-4Zm2.514-.862a7.28 7.28 0 0 0-1.55-.167v4c.243 0 .477.027.699.075l.851-3.908Zm-1.55-.167c-3.715 0-6.951 2.854-6.951 6.641h4c0-1.338 1.197-2.64 2.95-2.64v-4ZM69 32.735c0 3.788 3.236 6.641 6.95 6.641v-4c-1.753 0-2.95-1.302-2.95-2.64h-4Zm6.95 6.641h.08l-.043-4h-.036v4Zm1.59-.713-3.063-2.574 3.062 2.574Zm15.853-3.287H76.008v4h17.385v-4Zm-2 2h4-4Z" fill="url(#f)" mask="url(#g)"/></g><g filter="url(#h)"><mask id="k" fill="#fff"><path fill-rule="evenodd" clip-rule="evenodd" d="M102.381 32.557h.041c1.976 0 3.578-1.501 3.578-3.353 0-1.853-1.602-3.354-3.578-3.354H101.456a4.79 4.79 0 0 0 .051-.702c0-2.843-2.459-5.148-5.492-5.148-3.032 0-5.491 2.305-5.491 5.148 0 .268.022.532.064.789a3.816 3.816 0 0 0-.813-.087c-1.976 0-3.578 1.501-3.578 3.354 0 1.852 1.602 3.353 3.578 3.353h12.606Z"/></mask><path fill-rule="evenodd" clip-rule="evenodd" d="M102.381 32.557h.041c1.976 0 3.578-1.501 3.578-3.353 0-1.853-1.602-3.354-3.578-3.354H101.456a4.79 4.79 0 0 0 .051-.702c0-2.843-2.459-5.148-5.492-5.148-3.032 0-5.491 2.305-5.491 5.148 0 .268.022.532.064.789a3.816 3.816 0 0 0-.813-.087c-1.976 0-3.578 1.501-3.578 3.354 0 1.852 1.602 3.353 3.578 3.353h12.606Z" fill="url(#i)" shape-rendering="crispEdges"/><path d="m102.381 32.557.021-2a2 2 0 0 0-2.021 2h2Zm0-6.707h-2a1.998 1.998 0 0 0 2.021 2l-.021-2Zm0 0h2a2 2 0 0 0-2-2v2Zm-.925 0-1.979-.288a2 2 0 0 0 1.979 2.288v-2Zm-10.868.087-.426 1.954a2 2 0 0 0 2.4-2.278l-1.974.324Zm-.771 6.62 1.531 1.287a2 2 0 0 0-1.553-3.287l.022 2Zm0 0-1.532-1.286a2 2 0 0 0 1.532 3.286v-2Zm12.564 0v2a2 2 0 0 0 2-2h-2Zm-.022 2h.063v-4h-.02l-.043 4Zm.063 0c2.957 0 5.578-2.277 5.578-5.353h-4c0 .627-.583 1.354-1.578 1.354v4ZM108 29.204c0-3.077-2.621-5.354-5.578-5.354v4c.995 0 1.578.726 1.578 1.354h4Zm-5.578-5.354h-.063l.043 4h.02v-4Zm-2.041 2h4-4Zm1.075 2h.925v-4h-.925v4Zm1.979-1.712a6.76 6.76 0 0 0 .072-.99h-4c0 .141-.01.28-.03.414l3.958.576Zm.072-.99c0-4.068-3.478-7.148-7.492-7.148v4c2.052 0 3.492 1.53 3.492 3.148h4ZM96.015 18c-4.013 0-7.491 3.08-7.491 7.148h4c0-1.619 1.44-3.148 3.491-3.148v-4Zm-7.491 7.148c0 .377.03.749.09 1.113l3.948-.648a2.861 2.861 0 0 1-.038-.465h-4Zm2.49-1.165a5.82 5.82 0 0 0-1.239-.133v4c.136 0 .265.014.387.04l.852-3.907Zm-1.239-.133c-2.957 0-5.578 2.277-5.578 5.354h4c0-.628.583-1.354 1.578-1.354v-4Zm-5.578 5.354c0 3.076 2.621 5.353 5.578 5.353v-4c-.995 0-1.578-.726-1.578-1.353h-4Zm5.578 5.353h.063l-.043-4h-.02v4Zm1.573-.713-3.063-2.573 3.063 2.573Zm11.033-3.287H89.817v4h12.564v-4Zm-2 2h4-4Z" fill="url(#j)" mask="url(#k)"/></g><defs><linearGradient id="b" x1="87.406" y1="33.059" x2="84.861" y2="44.841" gradientUnits="userSpaceOnUse"><stop stop-color="#FF4D00"/><stop offset="1" stop-color="#FFB800"/></linearGradient><linearGradient id="c" x1="83.549" y1="44.607" x2="88.255" y2="33.851" gradientUnits="userSpaceOnUse"><stop stop-color="#fff"/><stop offset="1" stop-color="#fff" stop-opacity="0"/></linearGradient><linearGradient id="e" x1="84.701" y1="14.442" x2="84.701" y2="39.804" gradientUnits="userSpaceOnUse"><stop stop-color="#fff"/><stop offset="1" stop-color="#fff" stop-opacity="0"/></linearGradient><linearGradient id="f" x1="84.701" y1="20" x2="84.701" y2="37.376" gradientUnits="userSpaceOnUse"><stop stop-color="#fff"/><stop offset="1" stop-color="#fff" stop-opacity="0"/></linearGradient><linearGradient id="i" x1="97.02" y1="20.378" x2="97.02" y2="33.976" gradientUnits="userSpaceOnUse"><stop stop-color="#fff"/><stop offset="1" stop-color="#fff" stop-opacity="0"/></linearGradient><linearGradient id="j" x1="96.099" y1="20" x2="96.099" y2="32.557" gradientUnits="userSpaceOnUse"><stop stop-color="#fff"/><stop offset="1" stop-color="#fff" stop-opacity="0"/></linearGradient><filter id="a" x="9.64" y="-29.128" width="142.312" height="140.445" filterUnits="userSpaceOnUse" color-interpolation-filters="sRGB"><feFlood flood-opacity="0" result="BackgroundImageFix"/><feGaussianBlur in="BackgroundImageFix" stdDeviation="7"/><feComposite in2="SourceAlpha" operator="in" result="effect1_backgroundBlur_53_582"/><feColorMatrix in="SourceAlpha" values="0 0 0 0 0 0 0 0 0 0 0 0 0 0 0 0 0 0 127 0" result="hardAlpha"/><feOffset dx="-21" dy="15"/><feGaussianBlur stdDeviation="25"/><feComposite in2="hardAlpha" operator="out"/><feColorMatrix values="0 0 0 0 0.113438 0 0 0 0 0.148981 0 0 0 0 0.275 0 0 0 0.25 0"/><feBlend in2="effect1_backgroundBlur_53_582" result="effect2_dropShadow_53_582"/><feColorMatrix in="SourceAlpha" values="0 0 0 0 0 0 0 0 0 0 0 0 0 0 0 0 0 0 127 0" result="hardAlpha"/><feOffset/><feGaussianBlur stdDeviation="30.5"/><feComposite in2="hardAlpha" operator="out"/><feColorMatrix values="0 0 0 0 1 0 0 0 0 0.721569 0 0 0 0 0.00392157 0 0 0 0.49 0"/><feBlend in2="effect2_dropShadow_53_582" result="effect3_dropShadow_53_582"/><feBlend in="SourceGraphic" in2="effect3_dropShadow_53_582" result="shape"/></filter><filter id="d" x="0" y="-15" width="127.401" height="117.376" filterUnits="userSpaceOnUse" color-interpolation-filters="sRGB"><feFlood flood-opacity="0" result="BackgroundImageFix"/><feGaussianBlur in="BackgroundImageFix" stdDeviation="7"/><feComposite in2="SourceAlpha" operator="in" result="effect1_backgroundBlur_53_582"/><feColorMatrix in="SourceAlpha" values="0 0 0 0 0 0 0 0 0 0 0 0 0 0 0 0 0 0 127 0" result="hardAlpha"/><feOffset dx="-21" dy="15"/><feGaussianBlur stdDeviation="25"/><feComposite in2="hardAlpha" operator="out"/><feColorMatrix values="0 0 0 0 0.113725 0 0 0 0 0.14902 0 0 0 0 0.27451 0 0 0 0.25 0"/><feBlend in2="effect1_backgroundBlur_53_582" result="effect2_dropShadow_53_582"/><feBlend in="SourceGraphic" in2="effect2_dropShadow_53_582" result="shape"/></filter><filter id="h" x="15.197" y="-15" width="119.803" height="112.557" filterUnits="userSpaceOnUse" color-interpolation-filters="sRGB"><feFlood flood-opacity="0" result="BackgroundImageFix"/><feGaussianBlur in="BackgroundImageFix" stdDeviation="7"/><feComposite in2="SourceAlpha" operator="in" result="effect1_backgroundBlur_53_582"/><feColorMatrix in="SourceAlpha" values="0 0 0 0 0 0 0 0 0 0 0 0 0 0 0 0 0 0 127 0" result="hardAlpha"/><feOffset dx="-21" dy="15"/><feGaussianBlur stdDeviation="25"/><feComposite in2="hardAlpha" operator="out"/><feColorMatrix values="0 0 0 0 0.113438 0 0 0 0 0.148981 0 0 0 0 0.275 0 0 0 0.25 0"/><feBlend in2="effect1_backgroundBlur_53_582" result="effect2_dropShadow_53_582"/><feBlend in="SourceGraphic" in2="effect2_dropShadow_53_582" result="shape"/></filter></defs></svg>