<svg width="144" height="74" fill="none" xmlns="http://www.w3.org/2000/svg"><g filter="url(#a)"><mask id="d" fill="#fff"><path d="M106 36c0 8.837-7.835 16-17.5 16S71 44.837 71 36s7.835-16 17.5-16S106 27.163 106 36Z"/></mask><path d="M106 36c0 8.837-7.835 16-17.5 16S71 44.837 71 36s7.835-16 17.5-16S106 27.163 106 36Z" fill="url(#b)"/><path d="M104 36c0 7.567-6.767 14-15.5 14v4c10.597 0 19.5-7.894 19.5-18h-4ZM88.5 50C79.767 50 73 43.567 73 36h-4c0 10.106 8.903 18 19.5 18v-4ZM73 36c0-7.567 6.767-14 15.5-14v-4C77.903 18 69 25.894 69 36h4Zm15.5-14c8.733 0 15.5 6.433 15.5 14h4c0-10.106-8.903-18-19.5-18v4Z" fill="url(#c)" mask="url(#d)"/></g><defs><linearGradient id="b" x1="87.705" y1="20.282" x2="87.705" y2="52.282" gradientUnits="userSpaceOnUse"><stop offset="0" stop-color="#DECFFF"/><stop offset="1" stop-color="#7E2FFF"/></linearGradient><linearGradient id="c" x1="99.171" y1="7.096" x2="92.285" y2="45.394" gradientUnits="userSpaceOnUse"><stop stop-color="#fff"/><stop offset="1" stop-color="#fff" stop-opacity="0"/></linearGradient><filter id="a" x="0" y="-18" width="144" height="135" filterUnits="userSpaceOnUse" color-interpolation-filters="sRGB"><feFlood flood-opacity="0" result="BackgroundImageFix"/><feGaussianBlur in="BackgroundImageFix" stdDeviation="7"/><feComposite in2="SourceAlpha" operator="in" result="effect1_backgroundBlur_53_696"/><feColorMatrix in="SourceAlpha" values="0 0 0 0 0 0 0 0 0 0 0 0 0 0 0 0 0 0 127 0" result="hardAlpha"/><feOffset dx="-21" dy="15"/><feGaussianBlur stdDeviation="25"/><feComposite in2="hardAlpha" operator="out"/><feColorMatrix values="0 0 0 0 0.113438 0 0 0 0 0.148981 0 0 0 0 0.275 0 0 0 0.25 0"/><feBlend in2="effect1_backgroundBlur_53_696" result="effect2_dropShadow_53_696"/><feColorMatrix in="SourceAlpha" values="0 0 0 0 0 0 0 0 0 0 0 0 0 0 0 0 0 0 127 0" result="hardAlpha"/><feOffset/><feGaussianBlur stdDeviation="19"/><feComposite in2="hardAlpha" operator="out"/><feColorMatrix values="0 0 0 0 0.619608 0 0 0 0 0.423529 0 0 0 0 1 0 0 0 0.4 0"/><feBlend in2="effect2_dropShadow_53_696" result="effect3_dropShadow_53_696"/><feBlend in="SourceGraphic" in2="effect3_dropShadow_53_696" result="shape"/></filter></defs></svg>