<svg width="135" height="74" fill="none" xmlns="http://www.w3.org/2000/svg"><g filter="url(#a)"><mask id="d" fill="#fff"><path fill-rule="evenodd" clip-rule="evenodd" d="M86.138 21.945c.814-.284 1.37.713 1.085 1.529a6.166 6.166 0 0 0 .543 5.231 6.13 6.13 0 0 0 5.581 2.96c.862-.047 1.664.766 1.166 1.473a7.303 7.303 0 0 1-2.18 2.035c-3.457 2.103-7.959.994-10.055-2.477-2.095-3.47-.992-7.988 2.465-10.09.45-.275.917-.494 1.395-.66Z"/></mask><path fill-rule="evenodd" clip-rule="evenodd" d="M86.138 21.945c.814-.284 1.37.713 1.085 1.529a6.166 6.166 0 0 0 .543 5.231 6.13 6.13 0 0 0 5.581 2.96c.862-.047 1.664.766 1.166 1.473a7.303 7.303 0 0 1-2.18 2.035c-3.457 2.103-7.959.994-10.055-2.477-2.095-3.47-.992-7.988 2.465-10.09.45-.275.917-.494 1.395-.66Z" fill="url(#b)"/><path d="m87.766 28.705 1.71-1.039-1.71 1.04Zm4.567 6.468-1.034-1.711 1.034 1.711Zm-10.055-2.477-1.709 1.04 1.71-1.04Zm2.465-10.09 1.034 1.71-1.034-1.71Zm9.77 10.532-1.63-1.153 1.63 1.153Zm-8.375-11.192.654 1.89-.654-1.89Zm3.337 5.72a4.16 4.16 0 0 1-.367-3.534l-3.77-1.316a8.172 8.172 0 0 0 .719 6.929l3.418-2.079Zm3.769 1.999a4.137 4.137 0 0 1-3.769-1.999l-3.418 2.079a8.122 8.122 0 0 0 7.394 3.919l-.207-4Zm-.362 2.32a5.3 5.3 0 0 1-1.583 1.477l2.068 3.423a9.308 9.308 0 0 0 2.777-2.593l-3.262-2.307ZM91.3 33.462a5.313 5.313 0 0 1-7.311-1.805l-3.419 2.079c2.665 4.412 8.393 5.828 12.798 3.149l-2.068-3.423Zm-7.311-1.805c-1.528-2.53-.72-5.814 1.789-7.34l-2.068-3.423c-4.405 2.679-5.804 8.43-3.14 12.842l3.419-2.079Zm1.789-7.34c.329-.2.669-.36 1.015-.48l-1.308-3.782a9.336 9.336 0 0 0-1.775.839l2.068 3.423Zm7.674 9.347a.62.62 0 0 1-.524-.236 1.113 1.113 0 0 1-.251-.61 1.24 1.24 0 0 1 .206-.833l3.262 2.307a2.78 2.78 0 0 0 .505-1.905 2.893 2.893 0 0 0-.696-1.578 3.367 3.367 0 0 0-2.71-1.144l.208 3.999Zm-4.343-9.532c.348-.997.2-2.097-.341-2.93a2.879 2.879 0 0 0-1.32-1.107 2.757 2.757 0 0 0-1.963-.04l1.308 3.781a1.23 1.23 0 0 1-.857-.032 1.112 1.112 0 0 1-.517-.412.63.63 0 0 1-.08-.576l3.77 1.316Z" fill="url(#c)" mask="url(#d)"/></g><mask id="f" style="mask-type:alpha" maskUnits="userSpaceOnUse" x="84" y="30" width="14" height="11"><path d="M97.71 33.973c0 3.765-3.04 6.818-6.792 6.818s-6.793-3.053-6.793-6.818c0-3.766 2.523-2.89 6.275-2.89 3.751 0 7.31-.876 7.31 2.89Z" fill="url(#e)"/></mask><g filter="url(#g)" mask="url(#f)"><path fill-rule="evenodd" clip-rule="evenodd" d="M101.28 46.453c0 2.744-2.217 4.97-4.951 4.97l-.058-.001H78.83c-2.734 0-4.95-2.224-4.95-4.969 0-2.744 2.216-4.969 4.95-4.969a4.957 4.957 0 0 1 4.828 3.867l1.677-2.133 5.238-1.734H96.33c2.734 0 4.951 2.225 4.951 4.97Z" fill="#E18700"/></g><g filter="url(#h)"><mask id="k" fill="#fff"><path fill-rule="evenodd" clip-rule="evenodd" d="M93.393 52h.058c2.734 0 4.95-2.225 4.95-4.969s-2.216-4.97-4.95-4.97l-.058.001h-1.279c.046-.34.07-.687.07-1.04 0-4.212-3.402-7.627-7.599-7.627-4.196 0-7.598 3.415-7.598 7.627 0 .397.03.788.089 1.169a4.946 4.946 0 0 0-1.125-.13c-2.734 0-4.951 2.226-4.951 4.97C71 49.775 73.216 52 75.95 52h17.443Z"/></mask><path fill-rule="evenodd" clip-rule="evenodd" d="M93.393 52h.058c2.734 0 4.95-2.225 4.95-4.969s-2.216-4.97-4.95-4.97l-.058.001h-1.279c.046-.34.07-.687.07-1.04 0-4.212-3.402-7.627-7.599-7.627-4.196 0-7.598 3.415-7.598 7.627 0 .397.03.788.089 1.169a4.946 4.946 0 0 0-1.125-.13c-2.734 0-4.951 2.226-4.951 4.97C71 49.775 73.216 52 75.95 52h17.443Z" fill="url(#i)" shape-rendering="crispEdges"/><path d="m93.393 52 .023-2a2 2 0 0 0-2.023 2h2Zm0-9.938h-2a2 2 0 0 0 2.023 2l-.023-2Zm0 0h2a2 2 0 0 0-2-2v2Zm-1.279 0-1.982-.27a2 2 0 0 0 1.982 2.27v-2Zm-15.038.129-.455 1.947a2 2 0 0 0 2.431-2.25l-1.977.303ZM76.009 52l1.57 1.237A2 2 0 0 0 75.987 50l.022 2Zm0 0-1.572-1.237A2 2 0 0 0 76.008 54v-2Zm17.384 0v2a2 2 0 0 0 2-2h-2Zm-.023 2h.08v-4h-.034l-.046 4Zm.08 0c3.846 0 6.951-3.127 6.951-6.969h-4A2.96 2.96 0 0 1 93.451 50v4Zm6.951-6.969c0-3.842-3.105-6.97-6.95-6.97v4a2.96 2.96 0 0 1 2.95 2.97h4Zm-6.95-6.97-.08.001.045 4h.035v-4Zm-2.058 2v.001h4-4Zm.721 2h1.28v-4h-1.28v4Zm1.982-1.73c.058-.429.088-.866.088-1.31h-4c0 .263-.017.52-.052.772l3.964.538Zm.088-1.31c0-5.309-4.29-9.626-9.599-9.626v4c3.086 0 5.6 2.512 5.6 5.627h4Zm-9.599-9.626c-5.308 0-9.598 4.317-9.598 9.627h4c0-3.115 2.514-5.627 5.599-5.627v-4Zm-9.598 9.627c0 .5.038.99.112 1.472l3.953-.606a5.71 5.71 0 0 1-.065-.866h-4Zm2.543-.779a6.951 6.951 0 0 0-1.58-.181v4c.234 0 .458.027.671.077l.909-3.896Zm-1.58-.181c-3.845 0-6.95 3.127-6.95 6.969h4a2.96 2.96 0 0 1 2.95-2.97v-4ZM69 47.03C69 50.873 72.105 54 75.95 54v-4A2.96 2.96 0 0 1 73 47.031h-4ZM75.95 54h.081l-.046-4h-.034v4Zm1.63-.763-3.143-2.475 3.143 2.475ZM93.393 50H76.008v4h17.385v-4Zm-2 2h4-4Z" fill="url(#j)" mask="url(#k)"/></g><g filter="url(#l)"><mask id="o" fill="#fff"><path fill-rule="evenodd" clip-rule="evenodd" d="M102.381 46.84h.041A3.585 3.585 0 0 0 106 43.25a3.585 3.585 0 0 0-3.619-3.591h-.925c.034-.246.051-.497.051-.752 0-3.044-2.459-5.512-5.492-5.512-3.032 0-5.491 2.468-5.491 5.512 0 .287.022.57.064.845a3.584 3.584 0 0 0-4.39 3.498 3.584 3.584 0 0 0 3.577 3.59h12.606Z"/></mask><path fill-rule="evenodd" clip-rule="evenodd" d="M102.381 46.84h.041A3.585 3.585 0 0 0 106 43.25a3.585 3.585 0 0 0-3.619-3.591h-.925c.034-.246.051-.497.051-.752 0-3.044-2.459-5.512-5.492-5.512-3.032 0-5.491 2.468-5.491 5.512 0 .287.022.57.064.845a3.584 3.584 0 0 0-4.39 3.498 3.584 3.584 0 0 0 3.577 3.59h12.606Z" fill="url(#m)" shape-rendering="crispEdges"/><path d="m102.381 46.84.022-2a1.998 1.998 0 0 0-2.022 2h2Zm0-7.181h-2a1.996 1.996 0 0 0 2.022 2l-.022-2Zm0 0h2a2 2 0 0 0-2-2v2Zm-.925 0-1.981-.27a2 2 0 0 0 1.981 2.27v-2Zm-10.868.093-.454 1.947a2 2 0 0 0 2.431-2.25l-1.977.303Zm-.771 7.088 1.573 1.235a2 2 0 0 0-1.596-3.235l.023 2Zm0 0-1.574-1.234a2 2 0 0 0 1.574 3.235v-2Zm12.564 0v2a2 2 0 0 0 2-2h-2Zm-.023 2h.064v-4h-.019l-.045 4Zm.064 0c3.088 0 5.578-2.51 5.578-5.59h-4c0 .885-.713 1.59-1.578 1.59v4ZM108 43.25c0-3.081-2.49-5.592-5.578-5.592v4c.865 0 1.578.706 1.578 1.592h4Zm-5.578-5.592h-.064l.045 4h.019v-4Zm-2.041 2h4-4Zm1.075 2h.925v-4h-.925v4Zm1.982-1.73c.046-.335.069-.676.069-1.021h-4c0 .165-.011.326-.032.482l3.963.539Zm.069-1.021c0-4.142-3.347-7.512-7.492-7.512v4a3.502 3.502 0 0 1 3.492 3.512h4Zm-7.492-7.512c-4.144 0-7.491 3.37-7.491 7.512h4a3.502 3.502 0 0 1 3.492-3.512v-4Zm-7.491 7.512c0 .389.03.772.087 1.148l3.954-.606a3.573 3.573 0 0 1-.041-.542h-4Zm2.518-1.103a5.575 5.575 0 0 0-1.267-.146v4c.126 0 .246.015.359.041l.908-3.895Zm-1.267-.146c-3.087 0-5.578 2.51-5.578 5.592h4c0-.886.714-1.592 1.578-1.592v-4Zm-5.578 5.592c0 3.08 2.49 5.59 5.578 5.59v-4a1.584 1.584 0 0 1-1.578-1.59h-4Zm5.578 5.59h.065l-.046-4h-.019v4Zm1.615-.765-3.146-2.47v.001l3.146 2.47Zm10.991-3.234H89.817v4h12.564v-4Zm-2 2h4-4Z" fill="url(#n)" mask="url(#o)"/></g><defs><linearGradient id="c" x1="83.943" y1="16.333" x2="87.823" y2="33.476" gradientUnits="userSpaceOnUse"><stop stop-color="#fff"/><stop offset="1" stop-color="#fff" stop-opacity="0"/></linearGradient><linearGradient id="n" x1="96.099" y1="33.395" x2="96.099" y2="46.841" gradientUnits="userSpaceOnUse"><stop stop-color="#fff"/><stop offset="1" stop-color="#fff" stop-opacity="0"/></linearGradient><linearGradient id="m" x1="97.02" y1="33.8" x2="97.02" y2="48.36" gradientUnits="userSpaceOnUse"><stop stop-color="#fff"/><stop offset="1" stop-color="#fff" stop-opacity="0"/></linearGradient><linearGradient id="j" x1="84.701" y1="33.395" x2="84.701" y2="52" gradientUnits="userSpaceOnUse"><stop stop-color="#fff"/><stop offset="1" stop-color="#fff" stop-opacity="0"/></linearGradient><linearGradient id="b" x1="83.461" y1="23.392" x2="90.198" y2="36.441" gradientUnits="userSpaceOnUse"><stop offset="0" stop-color="#D4C0FF"/><stop offset="1" stop-color="#7E2FFF"/></linearGradient><linearGradient id="i" x1="84.701" y1="27.444" x2="84.701" y2="54.6" gradientUnits="userSpaceOnUse"><stop stop-color="#fff"/><stop offset="1" stop-color="#fff" stop-opacity="0"/></linearGradient><linearGradient id="e" x1="90.918" y1="27.155" x2="90.918" y2="40.791" gradientUnits="userSpaceOnUse"><stop stop-color="#FFD600"/><stop offset="1" stop-color="#FF7A00"/></linearGradient><filter id="g" x="59.878" y="27.484" width="55.401" height="37.938" filterUnits="userSpaceOnUse" color-interpolation-filters="sRGB"><feFlood flood-opacity="0" result="BackgroundImageFix"/><feBlend in="SourceGraphic" in2="BackgroundImageFix" result="shape"/><feGaussianBlur stdDeviation="7" result="effect1_foregroundBlur_53_521"/></filter><filter id="l" x="15.197" y="-1.605" width="119.803" height="113.446" filterUnits="userSpaceOnUse" color-interpolation-filters="sRGB"><feFlood flood-opacity="0" result="BackgroundImageFix"/><feGaussianBlur in="BackgroundImageFix" stdDeviation="7"/><feComposite in2="SourceAlpha" operator="in" result="effect1_backgroundBlur_53_521"/><feColorMatrix in="SourceAlpha" values="0 0 0 0 0 0 0 0 0 0 0 0 0 0 0 0 0 0 127 0" result="hardAlpha"/><feOffset dx="-21" dy="15"/><feGaussianBlur stdDeviation="25"/><feComposite in2="hardAlpha" operator="out"/><feColorMatrix values="0 0 0 0 0.113438 0 0 0 0 0.148981 0 0 0 0 0.275 0 0 0 0.25 0"/><feBlend in2="effect1_backgroundBlur_53_521" result="effect2_dropShadow_53_521"/><feBlend in="SourceGraphic" in2="effect2_dropShadow_53_521" result="shape"/></filter><filter id="h" x="0" y="-1.605" width="127.401" height="118.605" filterUnits="userSpaceOnUse" color-interpolation-filters="sRGB"><feFlood flood-opacity="0" result="BackgroundImageFix"/><feGaussianBlur in="BackgroundImageFix" stdDeviation="7"/><feComposite in2="SourceAlpha" operator="in" result="effect1_backgroundBlur_53_521"/><feColorMatrix in="SourceAlpha" values="0 0 0 0 0 0 0 0 0 0 0 0 0 0 0 0 0 0 127 0" result="hardAlpha"/><feOffset dx="-21" dy="15"/><feGaussianBlur stdDeviation="25"/><feComposite in2="hardAlpha" operator="out"/><feColorMatrix values="0 0 0 0 0.113725 0 0 0 0 0.14902 0 0 0 0 0.27451 0 0 0 0.25 0"/><feBlend in2="effect1_backgroundBlur_53_521" result="effect2_dropShadow_53_521"/><feBlend in="SourceGraphic" in2="effect2_dropShadow_53_521" result="shape"/></filter><filter id="a" x="10.217" y="-16.104" width="122.45" height="117.342" filterUnits="userSpaceOnUse" color-interpolation-filters="sRGB"><feFlood flood-opacity="0" result="BackgroundImageFix"/><feGaussianBlur in="BackgroundImageFix" stdDeviation="7"/><feComposite in2="SourceAlpha" operator="in" result="effect1_backgroundBlur_53_521"/><feColorMatrix in="SourceAlpha" values="0 0 0 0 0 0 0 0 0 0 0 0 0 0 0 0 0 0 127 0" result="hardAlpha"/><feOffset dx="-21" dy="15"/><feGaussianBlur stdDeviation="25"/><feComposite in2="hardAlpha" operator="out"/><feColorMatrix values="0 0 0 0 0.113438 0 0 0 0 0.148981 0 0 0 0 0.275 0 0 0 0.25 0"/><feBlend in2="effect1_backgroundBlur_53_521" result="effect2_dropShadow_53_521"/><feColorMatrix in="SourceAlpha" values="0 0 0 0 0 0 0 0 0 0 0 0 0 0 0 0 0 0 127 0" result="hardAlpha"/><feOffset/><feGaussianBlur stdDeviation="19"/><feComposite in2="hardAlpha" operator="out"/><feColorMatrix values="0 0 0 0 0.619608 0 0 0 0 0.423529 0 0 0 0 1 0 0 0 0.4 0"/><feBlend in2="effect2_dropShadow_53_521" result="effect3_dropShadow_53_521"/><feBlend in="SourceGraphic" in2="effect3_dropShadow_53_521" result="shape"/></filter></defs></svg>