<svg width="235" height="74" fill="none" xmlns="http://www.w3.org/2000/svg"><g filter="url(#a)"><circle cx="117.5" cy="37.5" r="17.5" fill="#FFC701" fill-opacity=".35"/></g><path d="M133.426 38.074c0 8.796-7.13 15.926-15.926 15.926s-15.926-7.13-15.926-15.926 7.13-15.926 15.926-15.926 15.926 7.13 15.926 15.926Z" fill="url(#b)" stroke="url(#c)" stroke-width="2"/><mask id="e" style="mask-type:alpha" maskUnits="userSpaceOnUse" x="100" y="30" width="35" height="25"><path d="M134.426 38.074c0 9.348-7.578 16.926-16.926 16.926-9.348 0-16.926-7.578-16.926-16.926 0-9.348 6.287-7.172 15.635-7.172 9.348 0 18.217-2.176 18.217 7.172Z" fill="url(#d)"/></mask><g filter="url(#f)" mask="url(#e)"><path fill-rule="evenodd" clip-rule="evenodd" d="M143.32 69.057c0 6.813-5.523 12.337-12.336 12.337l-.144-.001H87.377c-6.813 0-12.336-5.522-12.336-12.335 0-6.813 5.523-12.336 12.336-12.336 5.873 0 10.787 4.103 12.032 9.6l4.177-5.297 13.053-4.304h14.201v.001h.144c6.813 0 12.336 5.522 12.336 12.335Z" fill="#E18700"/></g><defs><linearGradient id="b" x1="117.5" y1="21.148" x2="117.5" y2="55" gradientUnits="userSpaceOnUse"><stop stop-color="#FFE600"/><stop offset="1" stop-color="#FF7A00"/></linearGradient><linearGradient id="c" x1="117.5" y1="21.148" x2="117.5" y2="55" gradientUnits="userSpaceOnUse"><stop stop-color="#fff"/><stop offset="1" stop-color="#fff" stop-opacity="0"/></linearGradient><linearGradient id="d" x1="117.5" y1="21.148" x2="117.5" y2="55" gradientUnits="userSpaceOnUse"><stop stop-color="#FFD600"/><stop offset="1" stop-color="#FF7A00"/></linearGradient><filter id="a" x="0" y="-80" width="235" height="235" filterUnits="userSpaceOnUse" color-interpolation-filters="sRGB"><feFlood flood-opacity="0" result="BackgroundImageFix"/><feBlend in="SourceGraphic" in2="BackgroundImageFix" result="shape"/><feGaussianBlur stdDeviation="50" result="effect1_foregroundBlur_53_605"/></filter><filter id="f" x="61.041" y="42.721" width="96.279" height="52.673" filterUnits="userSpaceOnUse" color-interpolation-filters="sRGB"><feFlood flood-opacity="0" result="BackgroundImageFix"/><feBlend in="SourceGraphic" in2="BackgroundImageFix" result="shape"/><feGaussianBlur stdDeviation="7" result="effect1_foregroundBlur_53_605"/></filter></defs></svg>