<svg width="135" height="74" fill="none" xmlns="http://www.w3.org/2000/svg"><g filter="url(#a)"><mask id="d" fill="#fff"><path fill-rule="evenodd" clip-rule="evenodd" d="M81.857 22.731c.858-.169 1.402.832.992 1.583-1.646 3.012-1.725 6.766.13 10.01 2.394 4.187 7.267 6.225 11.828 5.309.856-.172 1.69.613 1.281 1.365-1.127 2.074-2.876 3.855-5.163 5.058-6.244 3.283-14.13 1.003-17.615-5.091-3.485-6.095-1.248-13.697 4.995-16.98a13.031 13.031 0 0 1 3.552-1.254Z"/></mask><path fill-rule="evenodd" clip-rule="evenodd" d="M81.857 22.731c.858-.169 1.402.832.992 1.583-1.646 3.012-1.725 6.766.13 10.01 2.394 4.187 7.267 6.225 11.828 5.309.856-.172 1.69.613 1.281 1.365-1.127 2.074-2.876 3.855-5.163 5.058-6.244 3.283-14.13 1.003-17.615-5.091-3.485-6.095-1.248-13.697 4.995-16.98a13.031 13.031 0 0 1 3.552-1.254Z" fill="url(#b)"/><path d="m82.979 34.324-1.764.94 1.764-.94Zm7.946 11.732.984 1.743-.984-1.743ZM73.31 40.965l-1.764.94 1.764-.94Zm4.995-16.98.984 1.743-.984-1.743Zm16.502 15.648.44 1.935-.44-1.935Zm1.281 1.365 1.792.949-1.792-.95Zm-13.24-16.684-1.79-.953 1.79.953Zm-.991-1.583.433 1.937-.433-1.937Zm2.886 10.653c-1.502-2.627-1.443-5.667-.104-8.117l-3.58-1.906c-1.953 3.575-2.051 8.041.156 11.903l3.528-1.88Zm9.623 4.313c-3.724.749-7.684-.92-9.623-4.313l-3.528 1.88c2.849 4.981 8.634 7.389 14.033 6.304l-.882-3.87Zm-.07 2.351a10.457 10.457 0 0 1-4.355 4.265l1.968 3.486c2.64-1.388 4.665-3.45 5.971-5.852l-3.584-1.899Zm-4.355 4.265c-5.281 2.777-11.935.84-14.868-4.288l-3.527 1.88c4.038 7.06 13.156 9.683 20.363 5.894l-1.968-3.486Zm-14.868-4.288c-2.928-5.12-1.057-11.524 4.216-14.297l-1.967-3.486c-7.214 3.793-9.818 12.594-5.776 19.662l3.527-1.88Zm4.216-14.297a11.009 11.009 0 0 1 3.001-1.06l-.866-3.873a15.056 15.056 0 0 0-4.102 1.447l1.967 3.486Zm15.959 15.84a.845.845 0 0 1-.775-.244 1.069 1.069 0 0 1-.281-.548 1.103 1.103 0 0 1 .105-.728l3.583 1.899c.676-1.243.267-2.544-.51-3.333a3.323 3.323 0 0 0-3.004-.916l.882 3.87Zm-10.61-16.301a3.091 3.091 0 0 0-.063-3.058c-.561-.944-1.73-1.694-3.151-1.414l.866 3.873a1.196 1.196 0 0 1-.748-.107 1.093 1.093 0 0 1-.46-.414.78.78 0 0 1-.023-.786l3.58 1.906Z" fill="url(#c)" mask="url(#d)"/></g><g filter="url(#e)"><path d="M87.85 23.922c.181-.59 1.022-.59 1.203 0 .06.196.216.35.413.406.587.167.587.999 0 1.166a.608.608 0 0 0-.413.406c-.181.59-1.022.59-1.202 0a.608.608 0 0 0-.414-.406c-.587-.167-.587-.999 0-1.166a.608.608 0 0 0 .414-.406Z" fill="url(#f)"/><path d="M88.376 24.911c.026-.025.051-.05.076-.077.024.026.05.052.076.077-.027.025-.052.05-.076.077a1.583 1.583 0 0 0-.076-.077Z" stroke="url(#g)" stroke-width="2"/></g><g filter="url(#h)"><path d="M90.242 32.316c.237-.777 1.343-.777 1.58 0a.8.8 0 0 0 .546.535c.772.22.772 1.313 0 1.533a.8.8 0 0 0-.545.535c-.238.777-1.344.777-1.581 0a.8.8 0 0 0-.545-.535c-.772-.22-.772-1.314 0-1.533a.8.8 0 0 0 .545-.535Z" fill="url(#i)"/><path d="M90.416 33.617c.255-.155.466-.372.616-.63.15.258.362.475.616.63a1.802 1.802 0 0 0-.616.63 1.803 1.803 0 0 0-.616-.63Z" stroke="url(#j)" stroke-width="2"/></g><g filter="url(#k)"><mask id="n" fill="#fff"><path d="M98.913 29.675c.152-.497.86-.497 1.012 0 .051.165.183.295.349.342.494.14.494.841 0 .981a.513.513 0 0 0-.349.343c-.152.497-.86.497-1.012 0a.512.512 0 0 0-.348-.343c-.494-.14-.494-.84 0-.98a.512.512 0 0 0 .348-.343Z"/></mask><path d="M98.913 29.675c.152-.497.86-.497 1.012 0 .051.165.183.295.349.342.494.14.494.841 0 .981a.513.513 0 0 0-.349.343c-.152.497-.86.497-1.012 0a.512.512 0 0 0-.348-.343c-.494-.14-.494-.84 0-.98a.512.512 0 0 0 .348-.343Z" fill="url(#l)"/><path d="m98.565 30.998-.547 1.924.547-1.924Zm.348.343-1.912.585 1.912-.585Zm1.361-1.324-.547 1.924.547-1.924Zm-1.36-.342L97 29.09l1.912.585Zm.198 2.266a2.513 2.513 0 0 0 1.714-1.681l-3.825-1.17a1.488 1.488 0 0 1 1.017-.996l1.094 3.847Zm0-2.866c1.443.41 1.443 2.456 0 2.866l-1.094-3.847c-2.432.69-2.432 4.137 0 4.828l1.094-3.847Zm1.714 1.681a2.513 2.513 0 0 0-1.714-1.681l-1.094 3.847a1.488 1.488 0 0 1-1.017-.996l3.825-1.17Zm-2.813 0c.425-1.39 2.388-1.39 2.813 0l-3.825 1.17c.729 2.384 4.108 2.384 4.837 0l-3.825-1.17Zm1.714-1.681a2.512 2.512 0 0 0-1.714 1.681l3.825 1.17a1.489 1.489 0 0 1-1.017.996l-1.094-3.847Zm0 2.866c-1.443-.41-1.443-2.456 0-2.866l1.094 3.847c2.431-.69 2.431-4.137 0-4.828l-1.094 3.847Zm-1.714-1.681c.247.81.89 1.447 1.714 1.681l1.094-3.847c.491.14.871.517 1.017.996l-3.825 1.17Zm3.825-1.17c-.729-2.384-4.108-2.384-4.837 0l3.825 1.17c-.425 1.39-2.388 1.39-2.813 0l3.825-1.17Z" fill="url(#m)" mask="url(#n)"/></g><g filter="url(#o)"><mask id="r" fill="#fff"><path d="M96.01 22.368c.152-.497.86-.497 1.012 0 .05.165.182.295.349.342.494.14.494.84 0 .981a.512.512 0 0 0-.349.343c-.152.497-.86.497-1.012 0a.512.512 0 0 0-.348-.343c-.495-.14-.495-.84 0-.98a.512.512 0 0 0 .348-.343Z"/></mask><path d="M96.01 22.368c.152-.497.86-.497 1.012 0 .05.165.182.295.349.342.494.14.494.84 0 .981a.512.512 0 0 0-.349.343c-.152.497-.86.497-1.012 0a.512.512 0 0 0-.348-.343c-.495-.14-.495-.84 0-.98a.512.512 0 0 0 .348-.343Z" fill="url(#p)"/><path d="m95.662 23.691-.547 1.924.547-1.924Zm.348.343-1.912.585 1.912-.585Zm1.36-1.324-.546 1.924.547-1.924Zm-1.36-.342-1.912-.585 1.912.585Zm.198 2.266a2.512 2.512 0 0 0 1.715-1.681l-3.825-1.17a1.488 1.488 0 0 1 1.017-.997l1.093 3.848Zm0-2.867c1.444.41 1.444 2.457 0 2.867l-1.093-3.848c-2.432.692-2.432 4.138 0 4.83l1.093-3.849Zm1.715 1.682a2.512 2.512 0 0 0-1.715-1.682l-1.093 3.848a1.488 1.488 0 0 1-1.017-.996l3.825-1.17Zm-2.813 0c.425-1.39 2.388-1.39 2.813 0l-3.825 1.17c.729 2.384 4.108 2.384 4.837 0l-3.825-1.17Zm1.714-1.682a2.512 2.512 0 0 0-1.714 1.682l3.825 1.17a1.488 1.488 0 0 1-1.017.996l-1.094-3.848Zm0 2.867c-1.444-.41-1.444-2.456 0-2.867l1.094 3.848c2.431-.69 2.431-4.137 0-4.828l-1.094 3.847Zm-1.714-1.681c.247.81.89 1.447 1.714 1.681l1.094-3.848c.491.14.87.518 1.017.997l-3.825 1.17Zm3.825-1.17c-.73-2.384-4.108-2.384-4.837 0l3.825 1.17c-.425 1.39-2.388 1.39-2.813 0l3.825-1.17Z" fill="url(#q)" mask="url(#r)"/></g><defs><linearGradient id="f" x1="88.312" y1="22.009" x2="88.312" y2="27.917" gradientUnits="userSpaceOnUse"><stop offset="0" stop-color="#D6C2FF"/><stop offset="1" stop-color="#7E2FFF"/></linearGradient><linearGradient id="q" x1="96.516" y1="20.713" x2="96.516" y2="23.79" gradientUnits="userSpaceOnUse"><stop stop-color="#fff"/><stop offset="1" stop-color="#fff" stop-opacity="0"/></linearGradient><linearGradient id="p" x1="96.516" y1="20.713" x2="96.516" y2="25.688" gradientUnits="userSpaceOnUse"><stop stop-color="#FFE600"/><stop offset="1" stop-color="#FF7A00"/></linearGradient><linearGradient id="m" x1="99.419" y1="28.02" x2="99.419" y2="31.097" gradientUnits="userSpaceOnUse"><stop stop-color="#fff"/><stop offset="1" stop-color="#fff" stop-opacity="0"/></linearGradient><linearGradient id="l" x1="99.302" y1="28.064" x2="99.302" y2="33.039" gradientUnits="userSpaceOnUse"><stop offset="0" stop-color="#D6C2FF"/><stop offset="1" stop-color="#7E2FFF"/></linearGradient><linearGradient id="b" x1="76.044" y1="25.351" x2="87.321" y2="48.096" gradientUnits="userSpaceOnUse"><stop offset="0" stop-color="#D6C2FF"/><stop offset="1" stop-color="#7E2FFF"/></linearGradient><linearGradient id="c" x1="77.127" y1="13.139" x2="83.814" y2="42.655" gradientUnits="userSpaceOnUse"><stop stop-color="#fff"/><stop offset="1" stop-color="#fff" stop-opacity="0"/></linearGradient><linearGradient id="j" x1="91.032" y1="29.731" x2="91.032" y2="34.538" gradientUnits="userSpaceOnUse"><stop stop-color="#fff"/><stop offset="1" stop-color="#fff" stop-opacity="0"/></linearGradient><linearGradient id="g" x1="88.452" y1="21.957" x2="88.452" y2="25.611" gradientUnits="userSpaceOnUse"><stop stop-color="#fff"/><stop offset="1" stop-color="#fff" stop-opacity="0"/></linearGradient><linearGradient id="i" x1="91.032" y1="29.731" x2="91.032" y2="37.504" gradientUnits="userSpaceOnUse"><stop stop-color="#FFE600"/><stop offset="1" stop-color="#FF7A00"/></linearGradient><filter id="e" x="15.997" y="-11.521" width="102.91" height="102.864" filterUnits="userSpaceOnUse" color-interpolation-filters="sRGB"><feFlood flood-opacity="0" result="BackgroundImageFix"/><feGaussianBlur in="BackgroundImageFix" stdDeviation="7"/><feComposite in2="SourceAlpha" operator="in" result="effect1_backgroundBlur_53_645"/><feColorMatrix in="SourceAlpha" values="0 0 0 0 0 0 0 0 0 0 0 0 0 0 0 0 0 0 127 0" result="hardAlpha"/><feOffset dx="-21" dy="15"/><feGaussianBlur stdDeviation="25"/><feComposite in2="hardAlpha" operator="out"/><feColorMatrix values="0 0 0 0 0.113438 0 0 0 0 0.148981 0 0 0 0 0.275 0 0 0 0.25 0"/><feBlend in2="effect1_backgroundBlur_53_645" result="effect2_dropShadow_53_645"/><feColorMatrix in="SourceAlpha" values="0 0 0 0 0 0 0 0 0 0 0 0 0 0 0 0 0 0 127 0" result="hardAlpha"/><feOffset/><feGaussianBlur stdDeviation="9"/><feComposite in2="hardAlpha" operator="out"/><feColorMatrix values="0 0 0 0 0.607843 0 0 0 0 0.392157 0 0 0 0 1 0 0 0 0.56 0"/><feBlend in2="effect2_dropShadow_53_645" result="effect3_dropShadow_53_645"/><feBlend in="SourceGraphic" in2="effect3_dropShadow_53_645" result="shape"/></filter><filter id="o" x="24.291" y="-13.005" width="102.45" height="102.412" filterUnits="userSpaceOnUse" color-interpolation-filters="sRGB"><feFlood flood-opacity="0" result="BackgroundImageFix"/><feGaussianBlur in="BackgroundImageFix" stdDeviation="7"/><feComposite in2="SourceAlpha" operator="in" result="effect1_backgroundBlur_53_645"/><feColorMatrix in="SourceAlpha" values="0 0 0 0 0 0 0 0 0 0 0 0 0 0 0 0 0 0 127 0" result="hardAlpha"/><feOffset dx="-21" dy="15"/><feGaussianBlur stdDeviation="25"/><feComposite in2="hardAlpha" operator="out"/><feColorMatrix values="0 0 0 0 0.113438 0 0 0 0 0.148981 0 0 0 0 0.275 0 0 0 0.25 0"/><feBlend in2="effect1_backgroundBlur_53_645" result="effect2_dropShadow_53_645"/><feColorMatrix in="SourceAlpha" values="0 0 0 0 0 0 0 0 0 0 0 0 0 0 0 0 0 0 127 0" result="hardAlpha"/><feOffset/><feGaussianBlur stdDeviation="9"/><feComposite in2="hardAlpha" operator="out"/><feColorMatrix values="0 0 0 0 0.996078 0 0 0 0 0.764706 0 0 0 0 0.0117647 0 0 0 0.47 0"/><feBlend in2="effect2_dropShadow_53_645" result="effect3_dropShadow_53_645"/><feBlend in="SourceGraphic" in2="effect3_dropShadow_53_645" result="shape"/></filter><filter id="k" x="27.194" y="-5.698" width="102.45" height="102.412" filterUnits="userSpaceOnUse" color-interpolation-filters="sRGB"><feFlood flood-opacity="0" result="BackgroundImageFix"/><feGaussianBlur in="BackgroundImageFix" stdDeviation="7"/><feComposite in2="SourceAlpha" operator="in" result="effect1_backgroundBlur_53_645"/><feColorMatrix in="SourceAlpha" values="0 0 0 0 0 0 0 0 0 0 0 0 0 0 0 0 0 0 127 0" result="hardAlpha"/><feOffset dx="-21" dy="15"/><feGaussianBlur stdDeviation="25"/><feComposite in2="hardAlpha" operator="out"/><feColorMatrix values="0 0 0 0 0.113438 0 0 0 0 0.148981 0 0 0 0 0.275 0 0 0 0.25 0"/><feBlend in2="effect1_backgroundBlur_53_645" result="effect2_dropShadow_53_645"/><feColorMatrix in="SourceAlpha" values="0 0 0 0 0 0 0 0 0 0 0 0 0 0 0 0 0 0 127 0" result="hardAlpha"/><feOffset/><feGaussianBlur stdDeviation="9"/><feComposite in2="hardAlpha" operator="out"/><feColorMatrix values="0 0 0 0 0.607843 0 0 0 0 0.392157 0 0 0 0 1 0 0 0 0.56 0"/><feBlend in2="effect2_dropShadow_53_645" result="effect3_dropShadow_53_645"/><feBlend in="SourceGraphic" in2="effect3_dropShadow_53_645" result="shape"/></filter><filter id="h" x="18.118" y="-3.267" width="103.829" height="103.768" filterUnits="userSpaceOnUse" color-interpolation-filters="sRGB"><feFlood flood-opacity="0" result="BackgroundImageFix"/><feGaussianBlur in="BackgroundImageFix" stdDeviation="7"/><feComposite in2="SourceAlpha" operator="in" result="effect1_backgroundBlur_53_645"/><feColorMatrix in="SourceAlpha" values="0 0 0 0 0 0 0 0 0 0 0 0 0 0 0 0 0 0 127 0" result="hardAlpha"/><feOffset dx="-21" dy="15"/><feGaussianBlur stdDeviation="25"/><feComposite in2="hardAlpha" operator="out"/><feColorMatrix values="0 0 0 0 0.113438 0 0 0 0 0.148981 0 0 0 0 0.275 0 0 0 0.25 0"/><feBlend in2="effect1_backgroundBlur_53_645" result="effect2_dropShadow_53_645"/><feColorMatrix in="SourceAlpha" values="0 0 0 0 0 0 0 0 0 0 0 0 0 0 0 0 0 0 127 0" result="hardAlpha"/><feOffset/><feGaussianBlur stdDeviation="9"/><feComposite in2="hardAlpha" operator="out"/><feColorMatrix values="0 0 0 0 0.996078 0 0 0 0 0.764706 0 0 0 0 0.0117647 0 0 0 0.47 0"/><feBlend in2="effect2_dropShadow_53_645" result="effect3_dropShadow_53_645"/><feBlend in="SourceGraphic" in2="effect3_dropShadow_53_645" result="shape"/></filter><filter id="a" x=".666" y="-15.287" width="133.529" height="127.845" filterUnits="userSpaceOnUse" color-interpolation-filters="sRGB"><feFlood flood-opacity="0" result="BackgroundImageFix"/><feGaussianBlur in="BackgroundImageFix" stdDeviation="7"/><feComposite in2="SourceAlpha" operator="in" result="effect1_backgroundBlur_53_645"/><feColorMatrix in="SourceAlpha" values="0 0 0 0 0 0 0 0 0 0 0 0 0 0 0 0 0 0 127 0" result="hardAlpha"/><feOffset dx="-21" dy="15"/><feGaussianBlur stdDeviation="25"/><feComposite in2="hardAlpha" operator="out"/><feColorMatrix values="0 0 0 0 0.113438 0 0 0 0 0.148981 0 0 0 0 0.275 0 0 0 0.25 0"/><feBlend in2="effect1_backgroundBlur_53_645" result="effect2_dropShadow_53_645"/><feColorMatrix in="SourceAlpha" values="0 0 0 0 0 0 0 0 0 0 0 0 0 0 0 0 0 0 127 0" result="hardAlpha"/><feOffset/><feGaussianBlur stdDeviation="19"/><feComposite in2="hardAlpha" operator="out"/><feColorMatrix values="0 0 0 0 0.619608 0 0 0 0 0.423529 0 0 0 0 1 0 0 0 0.4 0"/><feBlend in2="effect2_dropShadow_53_645" result="effect3_dropShadow_53_645"/><feBlend in="SourceGraphic" in2="effect3_dropShadow_53_645" result="shape"/></filter></defs></svg>