<svg width="135" height="74" fill="none" xmlns="http://www.w3.org/2000/svg"><g filter="url(#a)"><mask id="d" fill="#fff"><path fill-rule="evenodd" clip-rule="evenodd" d="M85.302 38.996h.036c1.746 0 3.162-2.271 3.162-5.073 0-2.802-1.416-5.074-3.162-5.074h-.853c.03-.347.044-.701.044-1.062 0-4.3-2.172-7.787-4.852-7.787s-4.854 3.486-4.854 7.787c0 .406.02.805.057 1.194a2.046 2.046 0 0 0-.718-.132c-1.746 0-3.162 2.272-3.162 5.074s1.416 5.073 3.162 5.073h11.14Z"/></mask><path fill-rule="evenodd" clip-rule="evenodd" d="M85.302 38.996h.036c1.746 0 3.162-2.271 3.162-5.073 0-2.802-1.416-5.074-3.162-5.074h-.853c.03-.347.044-.701.044-1.062 0-4.3-2.172-7.787-4.852-7.787s-4.854 3.486-4.854 7.787c0 .406.02.805.057 1.194a2.046 2.046 0 0 0-.718-.132c-1.746 0-3.162 2.272-3.162 5.074s1.416 5.073 3.162 5.073h11.14Z" fill="url(#b)" shape-rendering="crispEdges"/><path d="m85.302 38.996.036-2a2 2 0 0 0-2.036 2h2Zm0-10.146h-2a2 2 0 0 0 2.036 2l-.036-2Zm0 0h2a2 2 0 0 0-2-2v2Zm-.817 0-1.993-.17a2 2 0 0 0 1.993 2.17v-2Zm-9.605.13-.698 1.875a2 2 0 0 0 2.689-2.065l-1.99.19ZM74.2 38.997l1.795.881a2 2 0 0 0-1.832-2.88l.037 1.999Zm0 0-1.796-.88a2 2 0 0 0 1.795 2.88v-2Zm11.103 0v2a2 2 0 0 0 2-2h-2Zm-.037 2h.073v-4l-.073 4Zm.073 0c1.815 0 3.152-1.174 3.933-2.428.8-1.283 1.229-2.93 1.229-4.645h-4c0 1.087-.279 1.976-.623 2.53-.17.272-.329.42-.431.49a.394.394 0 0 1-.094.05l-.012.003h-.002v4Zm5.162-7.073c0-1.715-.43-3.363-1.229-4.646-.781-1.254-2.118-2.428-3.933-2.428v4h.002l.011.003a.398.398 0 0 1 .095.05c.102.07.26.218.43.491.345.553.624 1.443.624 2.53h4Zm-5.162-7.074h-.073l.073 4v-4Zm-2.036 2h4-4Zm1.183 2h.817v-4h-.817v4Zm1.993-1.83c.034-.404.051-.815.051-1.232h-4c0 .304-.012.602-.037.893l3.986.339Zm.051-1.232c0-2.464-.618-4.79-1.724-6.564C83.718 19.478 81.958 18 79.676 18v4c.4 0 1.066.265 1.735 1.339.65 1.044 1.118 2.612 1.118 4.448h4ZM79.677 18c-2.282 0-4.042 1.478-5.13 3.223-1.105 1.774-1.724 4.1-1.724 6.564h4c0-1.836.468-3.404 1.12-4.448C78.61 22.265 79.277 22 79.676 22v-4Zm-6.854 9.787c0 .47.023.932.066 1.385l3.982-.382c-.031-.325-.047-.66-.047-1.003h-4Zm2.756-.68a4.046 4.046 0 0 0-1.417-.258v4h.002l.017.006 1.398-3.748Zm-1.417-.258c-1.815 0-3.152 1.174-3.933 2.428-.8 1.283-1.229 2.931-1.229 4.646h4c0-1.087.279-1.977.623-2.53.17-.273.329-.42.431-.49a.398.398 0 0 1 .094-.05l.012-.004h.002v-4ZM69 33.923c0 1.715.43 3.362 1.229 4.645.781 1.254 2.118 2.428 3.933 2.428v-4h-.002s-.005 0-.011-.003a.394.394 0 0 1-.095-.05c-.102-.07-.26-.218-.43-.49-.345-.554-.624-1.443-.624-2.53h-4Zm5.162 7.073h.073l-.073-4v4Zm1.832-1.118-3.59-1.763 3.59 1.763Zm9.308-2.882H74.198v4h11.104v-4Zm-2 2h4-4Z" fill="url(#c)" mask="url(#d)"/></g><g filter="url(#e)"><mask id="h" fill="#fff"><path fill-rule="evenodd" clip-rule="evenodd" d="M94.86 52h.05c2.416 0 4.375-3.143 4.375-7.02 0-3.878-1.959-7.02-4.375-7.02h-1.181c.04-.481.062-.972.062-1.47 0-5.951-3.007-10.776-6.715-10.776-3.709 0-6.715 4.825-6.715 10.776 0 .561.026 1.113.078 1.651a2.831 2.831 0 0 0-.994-.182c-2.416 0-4.375 3.143-4.375 7.02 0 3.878 1.959 7.021 4.375 7.021H94.859Z"/></mask><path fill-rule="evenodd" clip-rule="evenodd" d="M94.86 52h.05c2.416 0 4.375-3.143 4.375-7.02 0-3.878-1.959-7.02-4.375-7.02h-1.181c.04-.481.062-.972.062-1.47 0-5.951-3.007-10.776-6.715-10.776-3.709 0-6.715 4.825-6.715 10.776 0 .561.026 1.113.078 1.651a2.831 2.831 0 0 0-.994-.182c-2.416 0-4.375 3.143-4.375 7.02 0 3.878 1.959 7.021 4.375 7.021H94.859Z" fill="url(#f)" shape-rendering="crispEdges"/><path d="m94.86 52 .036-2a2 2 0 0 0-2.037 2h2Zm0-14.04h-2a2 2 0 0 0 2.036 2l-.037-2Zm0 0h2a2 2 0 0 0-2-2v2Zm-1.131 0-1.993-.17a2 2 0 0 0 1.993 2.17v-2Zm-13.29.181-.699 1.874a2 2 0 0 0 2.69-2.065l-1.991.191ZM79.496 52l1.795.883A2 2 0 0 0 79.459 50l.037 2Zm0 .001-1.795-.883A2 2 0 0 0 79.496 54v-2Zm15.363 0v2a2 2 0 0 0 2-2h-2Zm-.036 2h.087v-4h-.014l-.073 4Zm.087 0c2.15 0 3.79-1.392 4.79-2.998 1.02-1.636 1.585-3.77 1.585-6.022h-4c0 1.624-.414 3-.979 3.906-.582.934-1.13 1.114-1.396 1.114v4Zm6.375-9.02c0-2.253-.565-4.387-1.584-6.022-1.001-1.607-2.642-2.999-4.791-2.999v4c.267 0 .814.18 1.396 1.114.565.906.979 2.282.979 3.907h4Zm-6.375-9.02h-.087l.073 4h.014v-4Zm-2.05 2h4-4Zm.869 2h1.13v-4h-1.13v4Zm1.993-1.831c.045-.537.069-1.084.069-1.64h-4c0 .443-.019.877-.055 1.3l3.986.34Zm.069-1.64c0-3.289-.827-6.362-2.27-8.676-1.424-2.286-3.65-4.099-6.445-4.099v4c.913 0 2.045.6 3.05 2.214.988 1.585 1.665 3.9 1.665 6.562h4Zm-8.715-12.775c-2.796 0-5.021 1.813-6.446 4.099-1.443 2.314-2.27 5.387-2.27 8.677h4c0-2.662.677-4.977 1.665-6.562 1.006-1.614 2.138-2.214 3.05-2.214v-4ZM78.36 36.49c0 .625.03 1.24.087 1.842l3.982-.382c-.046-.474-.07-.962-.07-1.46h-4Zm2.777-.223a4.833 4.833 0 0 0-1.693-.308v4c.092 0 .189.016.295.056l1.398-3.748Zm-1.693-.308c-2.15 0-3.79 1.392-4.791 2.999-1.02 1.635-1.584 3.77-1.584 6.022h4c0-1.625.414-3.001.979-3.907.582-.934 1.129-1.114 1.396-1.114v-4Zm-6.375 9.02c0 2.253.565 4.387 1.584 6.023 1 1.606 2.642 2.998 4.79 2.998v-4c-.266 0-.813-.18-1.395-1.114-.565-.906-.98-2.282-.98-3.906h-4ZM79.445 54h.088l-.074-4h-.014v4Zm1.845-1.117-3.589-1.766 3.59 1.766ZM94.86 50H79.495v4h15.363v-4Zm-2 2h4-4Z" fill="url(#g)" mask="url(#h)"/></g><g filter="url(#i)"><mask id="l" fill="#fff"><path fill-rule="evenodd" clip-rule="evenodd" d="M102.801 44.71h.037c1.746 0 3.162-2.27 3.162-5.073 0-2.802-1.416-5.074-3.162-5.074h-.853c.029-.347.044-.701.044-1.061 0-4.301-2.172-7.788-4.853-7.788-2.68 0-4.853 3.487-4.853 7.788 0 .405.02.804.057 1.193a2.045 2.045 0 0 0-.718-.132c-1.746 0-3.162 2.272-3.162 5.074s1.416 5.074 3.162 5.074H102.8Z"/></mask><path fill-rule="evenodd" clip-rule="evenodd" d="M102.801 44.71h.037c1.746 0 3.162-2.27 3.162-5.073 0-2.802-1.416-5.074-3.162-5.074h-.853c.029-.347.044-.701.044-1.061 0-4.301-2.172-7.788-4.853-7.788-2.68 0-4.853 3.487-4.853 7.788 0 .405.02.804.057 1.193a2.045 2.045 0 0 0-.718-.132c-1.746 0-3.162 2.272-3.162 5.074s1.416 5.074 3.162 5.074H102.8Z" fill="url(#j)" shape-rendering="crispEdges"/><path d="m102.801 44.71.037-2a2 2 0 0 0-2.037 2h2Zm0-10.146h-2a2 2 0 0 0 2.037 2l-.037-2Zm0 0h2a2 2 0 0 0-2-2v2Zm-.816 0-1.993-.17a2 2 0 0 0 1.993 2.17v-2Zm-9.605.131-.698 1.874a2 2 0 0 0 2.689-2.065l-1.99.191ZM91.7 44.71l1.796.88a2 2 0 0 0-1.833-2.88l.037 2Zm0 0-1.796-.88a2 2 0 0 0 1.795 2.88v-2Zm11.102 0v2a2 2 0 0 0 2-2h-2Zm-.036 2h.073v-4l-.073 4Zm.073 0c1.815 0 3.152-1.174 3.933-2.428.8-1.282 1.229-2.93 1.229-4.645h-4c0 1.087-.279 1.977-.623 2.53-.17.273-.329.42-.431.49a.382.382 0 0 1-.095.05l-.011.004h-.002v4ZM108 39.638c0-1.715-.429-3.362-1.229-4.645-.781-1.254-2.118-2.428-3.933-2.428v4h.002a.382.382 0 0 1 .106.053c.102.07.261.218.431.49.344.554.623 1.443.623 2.53h4Zm-5.162-7.074-.073.001.073 4v-4Zm-2.037 2h4-4Zm1.184 2h.816v-4h-.816v4Zm1.992-1.83c.035-.404.052-.815.052-1.231h-4c0 .303-.012.601-.037.892l3.985.339Zm.052-1.231c0-2.465-.618-4.79-1.724-6.565-1.087-1.745-2.847-3.223-5.129-3.223v4c.4 0 1.066.266 1.735 1.339.65 1.044 1.118 2.612 1.118 4.449h4Zm-6.853-9.788c-2.28 0-4.041 1.478-5.129 3.223-1.105 1.774-1.724 4.1-1.724 6.565h4c0-1.837.468-3.405 1.12-4.45.668-1.072 1.335-1.338 1.733-1.338v-4Zm-6.853 9.788c0 .469.023.931.066 1.384l3.982-.382a10.51 10.51 0 0 1-.047-1.002h-4Zm2.756-.68a4.047 4.047 0 0 0-1.417-.259v4h.002l.017.006 1.398-3.748Zm-1.417-.259c-1.815 0-3.152 1.175-3.933 2.429-.8 1.283-1.229 2.93-1.229 4.645h4c0-1.087.279-1.976.623-2.53.17-.272.329-.42.431-.49a.394.394 0 0 1 .094-.05l.012-.003h.002v-4ZM86.5 39.637c0 1.715.43 3.362 1.229 4.645.781 1.254 2.118 2.429 3.933 2.429v-4h-.002l-.011-.004a.394.394 0 0 1-.095-.05c-.102-.07-.26-.217-.43-.49-.345-.553-.624-1.443-.624-2.53h-4Zm5.162 7.074.073-.001-.073-4v4Zm1.832-1.12-3.591-1.76 3.591 1.76Zm9.307-2.88H91.698v4h11.103v-4Zm-2 2h4-4Z" fill="url(#k)" mask="url(#l)"/></g><defs><linearGradient id="b" x1="80.564" y1="20.571" x2="80.564" y2="41.143" gradientUnits="userSpaceOnUse"><stop stop-color="#fff"/><stop offset="1" stop-color="#fff" stop-opacity="0"/></linearGradient><linearGradient id="c" x1="79.75" y1="20" x2="79.75" y2="38.996" gradientUnits="userSpaceOnUse"><stop stop-color="#fff"/><stop offset="1" stop-color="#fff" stop-opacity="0"/></linearGradient><linearGradient id="f" x1="87.177" y1="17.306" x2="87.177" y2="55.673" gradientUnits="userSpaceOnUse"><stop stop-color="#fff"/><stop offset="1" stop-color="#fff" stop-opacity="0"/></linearGradient><linearGradient id="g" x1="87.177" y1="25.714" x2="87.177" y2="52" gradientUnits="userSpaceOnUse"><stop stop-color="#fff"/><stop offset="1" stop-color="#fff" stop-opacity="0"/></linearGradient><linearGradient id="j" x1="98.064" y1="26.286" x2="98.064" y2="46.857" gradientUnits="userSpaceOnUse"><stop stop-color="#fff"/><stop offset="1" stop-color="#fff" stop-opacity="0"/></linearGradient><linearGradient id="k" x1="97.25" y1="25.714" x2="97.25" y2="44.711" gradientUnits="userSpaceOnUse"><stop stop-color="#fff"/><stop offset="1" stop-color="#fff" stop-opacity="0"/></linearGradient><filter id="a" x="0" y="-15" width="117.5" height="118.996" filterUnits="userSpaceOnUse" color-interpolation-filters="sRGB"><feFlood flood-opacity="0" result="BackgroundImageFix"/><feGaussianBlur in="BackgroundImageFix" stdDeviation="7"/><feComposite in2="SourceAlpha" operator="in" result="effect1_backgroundBlur_53_653"/><feColorMatrix in="SourceAlpha" values="0 0 0 0 0 0 0 0 0 0 0 0 0 0 0 0 0 0 127 0" result="hardAlpha"/><feOffset dx="-21" dy="15"/><feGaussianBlur stdDeviation="25"/><feComposite in2="hardAlpha" operator="out"/><feColorMatrix values="0 0 0 0 0.113438 0 0 0 0 0.148981 0 0 0 0 0.275 0 0 0 0.25 0"/><feBlend in2="effect1_backgroundBlur_53_653" result="effect2_dropShadow_53_653"/><feBlend in="SourceGraphic" in2="effect2_dropShadow_53_653" result="shape"/></filter><filter id="e" x="4.07" y="-9.286" width="124.215" height="126.286" filterUnits="userSpaceOnUse" color-interpolation-filters="sRGB"><feFlood flood-opacity="0" result="BackgroundImageFix"/><feGaussianBlur in="BackgroundImageFix" stdDeviation="7"/><feComposite in2="SourceAlpha" operator="in" result="effect1_backgroundBlur_53_653"/><feColorMatrix in="SourceAlpha" values="0 0 0 0 0 0 0 0 0 0 0 0 0 0 0 0 0 0 127 0" result="hardAlpha"/><feOffset dx="-21" dy="15"/><feGaussianBlur stdDeviation="25"/><feComposite in2="hardAlpha" operator="out"/><feColorMatrix values="0 0 0 0 0.113725 0 0 0 0 0.14902 0 0 0 0 0.27451 0 0 0 0.25 0"/><feBlend in2="effect1_backgroundBlur_53_653" result="effect2_dropShadow_53_653"/><feBlend in="SourceGraphic" in2="effect2_dropShadow_53_653" result="shape"/></filter><filter id="i" x="17.5" y="-9.286" width="117.5" height="118.996" filterUnits="userSpaceOnUse" color-interpolation-filters="sRGB"><feFlood flood-opacity="0" result="BackgroundImageFix"/><feGaussianBlur in="BackgroundImageFix" stdDeviation="7"/><feComposite in2="SourceAlpha" operator="in" result="effect1_backgroundBlur_53_653"/><feColorMatrix in="SourceAlpha" values="0 0 0 0 0 0 0 0 0 0 0 0 0 0 0 0 0 0 127 0" result="hardAlpha"/><feOffset dx="-21" dy="15"/><feGaussianBlur stdDeviation="25"/><feComposite in2="hardAlpha" operator="out"/><feColorMatrix values="0 0 0 0 0.113438 0 0 0 0 0.148981 0 0 0 0 0.275 0 0 0 0.25 0"/><feBlend in2="effect1_backgroundBlur_53_653" result="effect2_dropShadow_53_653"/><feBlend in="SourceGraphic" in2="effect2_dropShadow_53_653" result="shape"/></filter></defs></svg>