<svg width="118" height="74" fill="none" xmlns="http://www.w3.org/2000/svg"><g filter="url(#a)"><mask id="d" fill="#fff"><path fill-rule="evenodd" clip-rule="evenodd" d="M87.792 21.535c1.22-.611 2.273.933 2.214 2.237-.047 1.05.247 2.143.918 3.14a6.387 6.387 0 0 0 2.588 2.192c1.909.9 3.78 2.992 1.989 3.89-3.424 1.715-7.925.54-10.054-2.624-2.13-3.164-1.08-7.12 2.345-8.835Z"/></mask><path fill-rule="evenodd" clip-rule="evenodd" d="M87.792 21.535c1.22-.611 2.273.933 2.214 2.237-.047 1.05.247 2.143.918 3.14a6.387 6.387 0 0 0 2.588 2.192c1.909.9 3.78 2.992 1.989 3.89-3.424 1.715-7.925.54-10.054-2.624-2.13-3.164-1.08-7.12 2.345-8.835Z" fill="url(#b)"/><path d="m90.924 26.913-1.754.931 1.754-.931Zm-5.477 3.457 1.754-.931-1.754.93ZM95.5 32.993l-1.083-1.691 1.083 1.691Zm-2.822-7.012c-.435-.647-.62-1.344-.59-2.014l-4.165-.39c-.064 1.431.338 2.918 1.246 4.267l3.51-1.863Zm1.695 1.433a4.173 4.173 0 0 1-1.695-1.433l-3.51 1.863c.875 1.299 2.1 2.298 3.482 2.95l1.723-3.38Zm.044 3.888c-2.48 1.243-5.713.37-7.217-1.863l-3.51 1.862c2.755 4.094 8.525 5.572 12.892 3.384l-2.165-3.383Zm-7.217-1.863c-1.481-2.203-.777-4.985 1.673-6.212l-2.165-3.384c-4.397 2.203-5.793 7.332-3.017 11.458l3.51-1.862Zm5.45 1.355c.304.144.624.344.905.571.287.233.47.443.561.584.104.16-.005.079.03-.17a.765.765 0 0 1 .158-.369c.076-.095.138-.12.113-.108l2.165 3.383c.883-.442 1.558-1.183 1.698-2.197.128-.92-.232-1.75-.61-2.337-.75-1.162-2.061-2.154-3.297-2.737l-1.723 3.38Zm-.563-6.827a4.644 4.644 0 0 0-1.107-3.163 3.806 3.806 0 0 0-1.796-1.179 3.367 3.367 0 0 0-2.476.218l2.165 3.384a.853.853 0 0 1-.297.078 1.184 1.184 0 0 1-.44-.043.99.99 0 0 1-.285-.132.557.557 0 0 1-.059-.046l-.017-.017.01.013a.872.872 0 0 1 .086.18c.041.117.056.232.052.317l4.164.39Z" fill="url(#c)" mask="url(#d)"/></g><g filter="url(#e)"><mask id="h" fill="#fff"><path fill-rule="evenodd" clip-rule="evenodd" d="M93.393 44.563h.058c2.734 0 4.95-1.948 4.95-4.35 0-2.403-2.216-4.35-4.95-4.35h-1.337c.046-.298.07-.602.07-.91 0-3.688-3.402-6.678-7.599-6.678-4.196 0-7.598 2.99-7.598 6.677 0 .348.03.69.089 1.023a5.62 5.62 0 0 0-1.125-.112c-2.734 0-4.951 1.947-4.951 4.35 0 2.402 2.216 4.35 4.95 4.35h17.443Z"/></mask><path fill-rule="evenodd" clip-rule="evenodd" d="M93.393 44.563h.058c2.734 0 4.95-1.948 4.95-4.35 0-2.403-2.216-4.35-4.95-4.35h-1.337c.046-.298.07-.602.07-.91 0-3.688-3.402-6.678-7.599-6.678-4.196 0-7.598 2.99-7.598 6.677 0 .348.03.69.089 1.023a5.62 5.62 0 0 0-1.125-.112c-2.734 0-4.951 1.947-4.951 4.35 0 2.402 2.216 4.35 4.95 4.35h17.443Z" fill="url(#f)" shape-rendering="crispEdges"/><path d="m93.393 44.563.02-2a2 2 0 0 0-2.02 2h2Zm0-8.7h-2a2 2 0 0 0 2.02 2l-.02-2Zm0 0h2a2 2 0 0 0-2-2v2Zm-1.279 0-1.976-.307a2 2 0 0 0 1.976 2.307v-2Zm-15.038.112-.4 1.96a2 2 0 0 0 2.37-2.304l-1.97.344Zm-1.067 8.588 1.486 1.338a2 2 0 0 0-1.507-3.338l.02 2Zm0 0-1.488-1.338a2 2 0 0 0 1.487 3.338v-2Zm17.384 0v2a2 2 0 0 0 2-2h-2Zm-.02 2h.078v-4h-.038l-.04 4Zm.078 0c3.588 0 6.95-2.608 6.95-6.35h-4c0 1.063-1.07 2.35-2.95 2.35v4Zm6.95-6.35c0-3.742-3.362-6.35-6.95-6.35v4c1.88 0 2.95 1.287 2.95 2.35h4Zm-6.95-6.35h-.078l.04 4h.038v-4Zm-2.058 2h4-4Zm.721 2h1.28v-4h-1.28v4Zm1.977-1.694c.061-.398.093-.805.093-1.217h-4c0 .206-.016.407-.046.604l3.953.613Zm.093-1.217c0-5.027-4.548-8.677-9.599-8.677v4c3.343 0 5.6 2.33 5.6 4.677h4Zm-9.599-8.677c-5.05 0-9.598 3.65-9.598 8.677h4c0-2.348 2.256-4.677 5.599-4.677v-4Zm-9.598 8.677c0 .465.04.922.119 1.368l3.94-.69a3.93 3.93 0 0 1-.06-.678h-4Zm2.489-.936a7.624 7.624 0 0 0-1.525-.153v4c.252 0 .495.025.724.072l.8-3.92Zm-1.525-.153c-3.588 0-6.951 2.608-6.951 6.35h4c0-1.063 1.07-2.35 2.95-2.35v-4ZM69 40.213c0 3.742 3.363 6.35 6.95 6.35v-4c-1.88 0-2.95-1.287-2.95-2.35h-4Zm6.95 6.35h.079l-.04-4h-.038v4Zm1.545-.662-2.973-2.676 2.973 2.676Zm15.898-3.338H76.008v4h17.385v-4Zm-2 2h4-4Z" fill="url(#g)" mask="url(#h)"/></g><g filter="url(#i)"><mask id="l" fill="#fff"><path fill-rule="evenodd" clip-rule="evenodd" d="M102.381 40.046h.041c1.976 0 3.578-1.407 3.578-3.143 0-1.737-1.602-3.144-3.578-3.144H101.456c.034-.215.051-.435.051-.658 0-2.665-2.459-4.826-5.492-4.826-3.032 0-5.491 2.16-5.491 4.826 0 .251.022.498.064.74a4.064 4.064 0 0 0-.813-.082c-1.976 0-3.578 1.407-3.578 3.144 0 1.736 1.602 3.143 3.578 3.143h12.606Z"/></mask><path fill-rule="evenodd" clip-rule="evenodd" d="M102.381 40.046h.041c1.976 0 3.578-1.407 3.578-3.143 0-1.737-1.602-3.144-3.578-3.144H101.456c.034-.215.051-.435.051-.658 0-2.665-2.459-4.826-5.492-4.826-3.032 0-5.491 2.16-5.491 4.826 0 .251.022.498.064.74a4.064 4.064 0 0 0-.813-.082c-1.976 0-3.578 1.407-3.578 3.144 0 1.736 1.602 3.143 3.578 3.143h12.606Z" fill="url(#j)" shape-rendering="crispEdges"/><path d="m102.381 40.046.02-2a2.003 2.003 0 0 0-2.02 2h2Zm0-6.287h-2a1.998 1.998 0 0 0 2.02 2l-.02-2Zm0 0h2a2 2 0 0 0-2-2v2Zm-.925 0-1.976-.307a2 2 0 0 0 1.976 2.307v-2Zm-10.868.081-.4 1.96a2 2 0 0 0 2.37-2.305l-1.97.345Zm-.771 6.206 1.487 1.337a2 2 0 0 0-1.507-3.337l.02 2Zm0 0-1.488-1.337a2 2 0 0 0 1.488 3.337v-2Zm12.564 0v2a2 2 0 0 0 2-2h-2Zm-.02 2h.061v-4h-.021l-.04 4Zm.061 0c2.83 0 5.578-2.068 5.578-5.143h-4c0 .396-.456 1.143-1.578 1.143v4ZM108 36.903c0-3.076-2.748-5.144-5.578-5.144v4c1.122 0 1.578.747 1.578 1.144h4Zm-5.578-5.144h-.061l.04 4h.021v-4Zm-2.041 2h4-4Zm1.075 2h.925v-4h-.925v4Zm1.977-1.694c.049-.316.074-.638.074-.964h-4c0 .12-.01.237-.027.351l3.953.613Zm.074-.964c0-4.005-3.605-6.826-7.492-6.826v4c2.18 0 3.492 1.5 3.492 2.826h4Zm-7.492-6.826c-3.886 0-7.491 2.82-7.491 6.826h4c0-1.326 1.312-2.826 3.492-2.826v-4Zm-7.491 6.826c0 .367.032.73.094 1.084l3.94-.69a2.286 2.286 0 0 1-.034-.394h-4Zm2.464-1.22a6.061 6.061 0 0 0-1.213-.122v4c.145 0 .283.014.413.04l.8-3.918Zm-1.213-.122c-2.83 0-5.578 2.068-5.578 5.144h4c0-.397.456-1.144 1.578-1.144v-4Zm-5.578 5.144c0 3.075 2.748 5.143 5.578 5.143v-4c-1.122 0-1.578-.747-1.578-1.143h-4Zm5.578 5.143h.062l-.04-4h-.022v4Zm1.53-.663-2.976-2.674 2.975 2.674Zm11.076-3.337H89.817v4h12.564v-4Zm-2 2h4-4Z" fill="url(#k)" mask="url(#l)"/></g><g filter="url(#m)"><g stroke-width="2"><path d="m77.393 45.194.708-.797.082 1.009c.025.309-.29.561-.597.479-.308-.082-.41-.446-.193-.69Z" fill="url(#n)" stroke="url(#o)"/><path d="m84.014 45.194.708-.797.082 1.009c.025.309-.29.561-.597.479-.308-.082-.41-.446-.193-.69Z" fill="url(#p)" stroke="url(#q)"/><path d="m90.635 45.194.708-.797.082 1.009c.025.309-.29.561-.597.479-.309-.082-.41-.446-.193-.69Z" fill="url(#r)" stroke="url(#s)"/></g></g><g filter="url(#t)"><g stroke-width="2"><path d="m79.14 49.8.708-.798.082 1.009c.025.309-.29.561-.597.479-.308-.082-.41-.446-.193-.69Z" fill="url(#u)" stroke="url(#v)"/><path d="m84.734 49.8.708-.798.082 1.009c.025.309-.29.561-.597.479-.309-.082-.41-.446-.193-.69Z" fill="url(#w)" stroke="url(#x)"/></g></g><defs><linearGradient id="k" x1="96.099" y1="28.275" x2="96.099" y2="40.046" gradientUnits="userSpaceOnUse"><stop stop-color="#fff"/><stop offset="1" stop-color="#fff" stop-opacity="0"/></linearGradient><linearGradient id="x" x1="86.274" y1="46.597" x2="84.956" y2="51.53" gradientUnits="userSpaceOnUse"><stop stop-color="#fff"/><stop offset="1" stop-color="#fff" stop-opacity="0"/></linearGradient><linearGradient id="w" x1="86.274" y1="46.597" x2="84.956" y2="51.53" gradientUnits="userSpaceOnUse"><stop stop-color="#138EFF"/><stop offset="1" stop-color="#00E0FF"/></linearGradient><linearGradient id="v" x1="80.68" y1="46.597" x2="79.362" y2="51.53" gradientUnits="userSpaceOnUse"><stop stop-color="#fff"/><stop offset="1" stop-color="#fff" stop-opacity="0"/></linearGradient><linearGradient id="u" x1="80.68" y1="46.597" x2="79.362" y2="51.53" gradientUnits="userSpaceOnUse"><stop stop-color="#138EFF"/><stop offset="1" stop-color="#00E0FF"/></linearGradient><linearGradient id="b" x1="85.696" y1="22.613" x2="91.307" y2="35.027" gradientUnits="userSpaceOnUse"><stop offset="0" stop-color="#D4C0FF"/><stop offset="1" stop-color="#7E2FFF"/></linearGradient><linearGradient id="c" x1="85.452" y1="16.563" x2="87.568" y2="32.048" gradientUnits="userSpaceOnUse"><stop stop-color="#fff"/><stop offset="1" stop-color="#fff" stop-opacity="0"/></linearGradient><linearGradient id="f" x1="84.701" y1="23.065" x2="84.701" y2="46.84" gradientUnits="userSpaceOnUse"><stop stop-color="#fff"/><stop offset="1" stop-color="#fff" stop-opacity="0"/></linearGradient><linearGradient id="g" x1="84.701" y1="28.275" x2="84.701" y2="44.563" gradientUnits="userSpaceOnUse"><stop stop-color="#fff"/><stop offset="1" stop-color="#fff" stop-opacity="0"/></linearGradient><linearGradient id="j" x1="97.02" y1="28.629" x2="97.02" y2="41.377" gradientUnits="userSpaceOnUse"><stop stop-color="#fff"/><stop offset="1" stop-color="#fff" stop-opacity="0"/></linearGradient><linearGradient id="s" x1="92.175" y1="41.992" x2="90.856" y2="46.925" gradientUnits="userSpaceOnUse"><stop stop-color="#fff"/><stop offset="1" stop-color="#fff" stop-opacity="0"/></linearGradient><linearGradient id="n" x1="78.933" y1="41.992" x2="77.615" y2="46.925" gradientUnits="userSpaceOnUse"><stop stop-color="#138EFF"/><stop offset="1" stop-color="#00E0FF"/></linearGradient><linearGradient id="o" x1="78.933" y1="41.992" x2="77.615" y2="46.925" gradientUnits="userSpaceOnUse"><stop stop-color="#fff"/><stop offset="1" stop-color="#fff" stop-opacity="0"/></linearGradient><linearGradient id="p" x1="85.554" y1="41.992" x2="84.236" y2="46.925" gradientUnits="userSpaceOnUse"><stop stop-color="#138EFF"/><stop offset="1" stop-color="#00E0FF"/></linearGradient><linearGradient id="q" x1="85.554" y1="41.992" x2="84.236" y2="46.925" gradientUnits="userSpaceOnUse"><stop stop-color="#fff"/><stop offset="1" stop-color="#fff" stop-opacity="0"/></linearGradient><linearGradient id="r" x1="92.175" y1="41.992" x2="90.856" y2="46.925" gradientUnits="userSpaceOnUse"><stop stop-color="#138EFF"/><stop offset="1" stop-color="#00E0FF"/></linearGradient><filter id="e" x="0" y="-6.725" width="127.401" height="116.288" filterUnits="userSpaceOnUse" color-interpolation-filters="sRGB"><feFlood flood-opacity="0" result="BackgroundImageFix"/><feGaussianBlur in="BackgroundImageFix" stdDeviation="7"/><feComposite in2="SourceAlpha" operator="in" result="effect1_backgroundBlur_53_542"/><feColorMatrix in="SourceAlpha" values="0 0 0 0 0 0 0 0 0 0 0 0 0 0 0 0 0 0 127 0" result="hardAlpha"/><feOffset dx="-21" dy="15"/><feGaussianBlur stdDeviation="25"/><feComposite in2="hardAlpha" operator="out"/><feColorMatrix values="0 0 0 0 0.113725 0 0 0 0 0.14902 0 0 0 0 0.27451 0 0 0 0.25 0"/><feBlend in2="effect1_backgroundBlur_53_542" result="effect2_dropShadow_53_542"/><feBlend in="SourceGraphic" in2="effect2_dropShadow_53_542" result="shape"/></filter><filter id="t" x="7.004" y="-.38" width="120.541" height="116.866" filterUnits="userSpaceOnUse" color-interpolation-filters="sRGB"><feFlood flood-opacity="0" result="BackgroundImageFix"/><feGaussianBlur in="BackgroundImageFix" stdDeviation="7"/><feComposite in2="SourceAlpha" operator="in" result="effect1_backgroundBlur_53_542"/><feColorMatrix in="SourceAlpha" values="0 0 0 0 0 0 0 0 0 0 0 0 0 0 0 0 0 0 127 0" result="hardAlpha"/><feOffset dx="-21" dy="15"/><feGaussianBlur stdDeviation="25"/><feComposite in2="hardAlpha" operator="out"/><feColorMatrix values="0 0 0 0 0.113438 0 0 0 0 0.148981 0 0 0 0 0.275 0 0 0 0.25 0"/><feBlend in2="effect1_backgroundBlur_53_542" result="effect2_dropShadow_53_542"/><feColorMatrix in="SourceAlpha" values="0 0 0 0 0 0 0 0 0 0 0 0 0 0 0 0 0 0 127 0" result="hardAlpha"/><feOffset dy="-7"/><feGaussianBlur stdDeviation="20.5"/><feComposite in2="hardAlpha" operator="out"/><feColorMatrix values="0 0 0 0 0.1375 0 0 0 0 0.74125 0 0 0 0 1 0 0 0 0.3 0"/><feBlend in2="effect2_dropShadow_53_542" result="effect3_dropShadow_53_542"/><feBlend in="SourceGraphic" in2="effect3_dropShadow_53_542" result="shape"/></filter><filter id="m" x="5.257" y="-4.985" width="128.189" height="116.866" filterUnits="userSpaceOnUse" color-interpolation-filters="sRGB"><feFlood flood-opacity="0" result="BackgroundImageFix"/><feGaussianBlur in="BackgroundImageFix" stdDeviation="7"/><feComposite in2="SourceAlpha" operator="in" result="effect1_backgroundBlur_53_542"/><feColorMatrix in="SourceAlpha" values="0 0 0 0 0 0 0 0 0 0 0 0 0 0 0 0 0 0 127 0" result="hardAlpha"/><feOffset dx="-21" dy="15"/><feGaussianBlur stdDeviation="25"/><feComposite in2="hardAlpha" operator="out"/><feColorMatrix values="0 0 0 0 0.113438 0 0 0 0 0.148981 0 0 0 0 0.275 0 0 0 0.25 0"/><feBlend in2="effect1_backgroundBlur_53_542" result="effect2_dropShadow_53_542"/><feColorMatrix in="SourceAlpha" values="0 0 0 0 0 0 0 0 0 0 0 0 0 0 0 0 0 0 127 0" result="hardAlpha"/><feOffset dy="-7"/><feGaussianBlur stdDeviation="20.5"/><feComposite in2="hardAlpha" operator="out"/><feColorMatrix values="0 0 0 0 0.1375 0 0 0 0 0.74125 0 0 0 0 1 0 0 0 0.3 0"/><feBlend in2="effect2_dropShadow_53_542" result="effect3_dropShadow_53_542"/><feBlend in="SourceGraphic" in2="effect3_dropShadow_53_542" result="shape"/></filter><filter id="i" x="15.197" y="-6.725" width="119.803" height="111.771" filterUnits="userSpaceOnUse" color-interpolation-filters="sRGB"><feFlood flood-opacity="0" result="BackgroundImageFix"/><feGaussianBlur in="BackgroundImageFix" stdDeviation="7"/><feComposite in2="SourceAlpha" operator="in" result="effect1_backgroundBlur_53_542"/><feColorMatrix in="SourceAlpha" values="0 0 0 0 0 0 0 0 0 0 0 0 0 0 0 0 0 0 127 0" result="hardAlpha"/><feOffset dx="-21" dy="15"/><feGaussianBlur stdDeviation="25"/><feComposite in2="hardAlpha" operator="out"/><feColorMatrix values="0 0 0 0 0.113438 0 0 0 0 0.148981 0 0 0 0 0.275 0 0 0 0.25 0"/><feBlend in2="effect1_backgroundBlur_53_542" result="effect2_dropShadow_53_542"/><feBlend in="SourceGraphic" in2="effect2_dropShadow_53_542" result="shape"/></filter><filter id="a" x="13.345" y="-16.603" width="120.879" height="115.385" filterUnits="userSpaceOnUse" color-interpolation-filters="sRGB"><feFlood flood-opacity="0" result="BackgroundImageFix"/><feGaussianBlur in="BackgroundImageFix" stdDeviation="7"/><feComposite in2="SourceAlpha" operator="in" result="effect1_backgroundBlur_53_542"/><feColorMatrix in="SourceAlpha" values="0 0 0 0 0 0 0 0 0 0 0 0 0 0 0 0 0 0 127 0" result="hardAlpha"/><feOffset dx="-21" dy="15"/><feGaussianBlur stdDeviation="25"/><feComposite in2="hardAlpha" operator="out"/><feColorMatrix values="0 0 0 0 0.113438 0 0 0 0 0.148981 0 0 0 0 0.275 0 0 0 0.25 0"/><feBlend in2="effect1_backgroundBlur_53_542" result="effect2_dropShadow_53_542"/><feColorMatrix in="SourceAlpha" values="0 0 0 0 0 0 0 0 0 0 0 0 0 0 0 0 0 0 127 0" result="hardAlpha"/><feOffset/><feGaussianBlur stdDeviation="19"/><feComposite in2="hardAlpha" operator="out"/><feColorMatrix values="0 0 0 0 0.619608 0 0 0 0 0.423529 0 0 0 0 1 0 0 0 0.4 0"/><feBlend in2="effect2_dropShadow_53_542" result="effect3_dropShadow_53_542"/><feBlend in="SourceGraphic" in2="effect3_dropShadow_53_542" result="shape"/></filter></defs></svg>