<svg width="142" height="74" fill="none" xmlns="http://www.w3.org/2000/svg"><g filter="url(#a)"><ellipse cx="90.918" cy="26.673" rx="7.023" ry="6.673" fill="#FFC701" fill-opacity=".5"/></g><path d="M96.71 26.892c0 2.965-2.544 5.455-5.792 5.455-3.248 0-5.793-2.49-5.793-5.455s2.545-5.454 5.793-5.454 5.792 2.49 5.792 5.454Z" fill="url(#b)" stroke="url(#c)" stroke-width="2"/><mask id="e" style="mask-type:alpha" maskUnits="userSpaceOnUse" x="84" y="24" width="14" height="10"><path d="M97.71 26.892c0 3.565-3.04 6.455-6.792 6.455s-6.793-2.89-6.793-6.455 2.523-2.735 6.275-2.735c3.751 0 7.31-.83 7.31 2.735Z" fill="url(#d)"/></mask><g filter="url(#f)" mask="url(#e)"><path fill-rule="evenodd" clip-rule="evenodd" d="m96.271 43.41.058.001c2.734 0 4.95-2.106 4.95-4.704s-2.216-4.704-4.95-4.704h-3.214c.07-.391.105-.793.105-1.203 0-3.988-3.402-7.22-7.598-7.22-4.197 0-7.6 3.232-7.6 7.22 0 .426.04.843.114 1.249-2.406.32-4.258 2.283-4.258 4.658 0 2.598 2.217 4.704 4.95 4.704h17.443Z" fill="#E18700"/></g><g filter="url(#g)"><mask id="j" fill="#fff"><path fill-rule="evenodd" clip-rule="evenodd" d="M93.393 43.958h.058c2.734 0 4.95-2.106 4.95-4.704s-2.216-4.704-4.95-4.704h-1.337c.046-.322.07-.65.07-.985 0-3.987-3.402-7.22-7.599-7.22-4.196 0-7.598 3.233-7.598 7.22 0 .377.03.746.089 1.107a5.213 5.213 0 0 0-1.125-.122c-2.734 0-4.951 2.106-4.951 4.704s2.216 4.704 4.95 4.704h17.443Z"/></mask><path fill-rule="evenodd" clip-rule="evenodd" d="M93.393 43.958h.058c2.734 0 4.95-2.106 4.95-4.704s-2.216-4.704-4.95-4.704h-1.337c.046-.322.07-.65.07-.985 0-3.987-3.402-7.22-7.599-7.22-4.196 0-7.598 3.233-7.598 7.22 0 .377.03.746.089 1.107a5.213 5.213 0 0 0-1.125-.122c-2.734 0-4.951 2.106-4.951 4.704s2.216 4.704 4.95 4.704h17.443Z" fill="url(#h)" shape-rendering="crispEdges"/><path d="m93.393 43.958.022-2a2 2 0 0 0-2.022 2h2Zm0-9.408h-2a2 2 0 0 0 2.022 2l-.022-2Zm0 0h2a2 2 0 0 0-2-2v2Zm-1.279 0-1.98-.284a2 2 0 0 0 1.98 2.284v-2Zm-15.038.122-.432 1.953a2 2 0 0 0 2.406-2.273l-1.974.32Zm-1.067 9.286 1.54 1.276a2 2 0 0 0-1.562-3.276l.022 2Zm0 0-1.54-1.276a2 2 0 0 0 1.54 3.276v-2Zm17.384 0v2a2 2 0 0 0 2-2h-2Zm-.022 2a7 7 0 0 0 .08 0v-4h-.036l-.044 4Zm.08 0c3.74 0 6.95-2.906 6.95-6.704h-4c0 1.399-1.223 2.704-2.95 2.704v4Zm6.95-6.704c0-3.797-3.21-6.704-6.95-6.704v4c1.727 0 2.95 1.306 2.95 2.704h4Zm-6.95-6.704h-.08l.044 4h.036v-4Zm-2.058 2h4-4Zm.721 2h1.28v-4h-1.28v4Zm1.98-1.716c.06-.416.09-.84.09-1.269h-4c0 .239-.017.473-.05.7l3.96.569Zm.09-1.269c0-5.187-4.395-9.22-9.599-9.22v4c3.19 0 5.6 2.432 5.6 5.22h4Zm-9.599-9.22c-5.203 0-9.598 4.033-9.598 9.22h4c0-2.788 2.409-5.22 5.599-5.22v-4Zm-9.598 9.22c0 .484.039.96.114 1.427l3.949-.64a4.93 4.93 0 0 1-.063-.787h-4Zm2.52-.846a7.214 7.214 0 0 0-1.556-.169v4c.24 0 .473.026.693.075l.863-3.906Zm-1.556-.169c-3.742 0-6.951 2.907-6.951 6.704h4c0-1.398 1.224-2.704 2.95-2.704v-4ZM69 39.254c0 3.798 3.21 6.704 6.95 6.704v-4c-1.726 0-2.95-1.305-2.95-2.704h-4Zm6.95 6.704h.08l-.043-4h-.036v4Zm1.598-.724-3.08-2.552 3.08 2.552Zm15.845-3.276H76.008v4h17.385v-4Zm-2 2h4-4Z" fill="url(#i)" mask="url(#j)"/></g><g filter="url(#k)"><mask id="n" fill="#fff"><path fill-rule="evenodd" clip-rule="evenodd" d="M102.381 39.074h.041c1.976 0 3.578-1.522 3.578-3.4 0-1.877-1.602-3.4-3.578-3.4H101.456c.034-.232.051-.47.051-.71 0-2.883-2.459-5.219-5.492-5.219-3.032 0-5.491 2.336-5.491 5.218 0 .272.022.54.064.8a3.766 3.766 0 0 0-.813-.088c-1.976 0-3.578 1.522-3.578 3.4 0 1.877 1.602 3.399 3.578 3.399h12.606Z"/></mask><path fill-rule="evenodd" clip-rule="evenodd" d="M102.381 39.074h.041c1.976 0 3.578-1.522 3.578-3.4 0-1.877-1.602-3.4-3.578-3.4H101.456c.034-.232.051-.47.051-.71 0-2.883-2.459-5.219-5.492-5.219-3.032 0-5.491 2.336-5.491 5.218 0 .272.022.54.064.8a3.766 3.766 0 0 0-.813-.088c-1.976 0-3.578 1.522-3.578 3.4 0 1.877 1.602 3.399 3.578 3.399h12.606Z" fill="url(#l)" shape-rendering="crispEdges"/><path d="m102.381 39.074.021-2a2 2 0 0 0-2.021 2h2Zm0-6.8h-2a1.998 1.998 0 0 0 2.021 2l-.021-2Zm0 0h2a2 2 0 0 0-2-2v2Zm-.925 0-1.98-.283a2 2 0 0 0 1.98 2.284v-2Zm-10.868.089-.431 1.953a2 2 0 0 0 2.405-2.273l-1.974.32Zm-.771 6.71 1.538 1.28a2 2 0 0 0-1.56-3.28l.022 2Zm0 0-1.538-1.278a2 2 0 0 0 1.538 3.279v-2Zm12.564 0v2a2 2 0 0 0 2-2h-2Zm-.022 2h.063v-4h-.02l-.043 4Zm.063 0c2.983 0 5.578-2.322 5.578-5.399h-4c0 .678-.609 1.4-1.578 1.4v4ZM108 35.675c0-3.077-2.595-5.4-5.578-5.4v4c.969 0 1.578.722 1.578 1.4h4Zm-5.578-5.4-.063.001.043 4h.02v-4Zm-2.041 2h4-4Zm1.075 2h.925v-4h-.925v4Zm1.98-1.715c.047-.327.071-.66.071-.996h-4c0 .146-.01.289-.03.428l3.959.568Zm.071-.996c0-4.081-3.452-7.218-7.492-7.218v4c2.026 0 3.492 1.536 3.492 3.218h4Zm-7.492-7.218c-4.04 0-7.491 3.137-7.491 7.218h4c0-1.682 1.466-3.218 3.491-3.218v-4Zm-7.491 7.218c0 .38.03.753.09 1.12l3.948-.64a2.998 2.998 0 0 1-.038-.48h-4Zm2.495-1.153a5.773 5.773 0 0 0-1.244-.135v4c.134 0 .262.014.382.04l.862-3.905Zm-1.244-.135c-2.983 0-5.578 2.322-5.578 5.4h4c0-.679.61-1.4 1.578-1.4v-4Zm-5.578 5.4c0 3.076 2.595 5.399 5.578 5.399v-4c-.969 0-1.578-.722-1.578-1.4h-4Zm5.578 5.399h.064l-.044-4h-.02v4Zm1.58-.721-3.076-2.558 3.075 2.558Zm11.026-3.28H89.817v4h12.564v-4Zm-2 2h4-4Z" fill="url(#m)" mask="url(#n)"/></g><g filter="url(#o)"><g stroke-width="2"><path d="m77.332 44.692.781-.953.09 1.205a.503.503 0 0 1-.64.513.475.475 0 0 1-.231-.765Z" fill="url(#p)" stroke="url(#q)"/><path d="m83.953 44.692.781-.953.09 1.205a.503.503 0 0 1-.64.513.475.475 0 0 1-.231-.765Z" fill="url(#r)" stroke="url(#s)"/><path d="m90.574 44.692.781-.953.09 1.205a.503.503 0 0 1-.64.513.475.475 0 0 1-.231-.765Z" fill="url(#t)" stroke="url(#u)"/></g></g><g filter="url(#v)"><g stroke-width="2"><path d="m79.079 49.672.781-.953.09 1.205a.503.503 0 0 1-.64.513.475.475 0 0 1-.231-.765Z" fill="url(#w)" stroke="url(#x)"/><path d="m84.673 49.672.781-.953.09 1.205a.503.503 0 0 1-.64.513.475.475 0 0 1-.231-.765Z" fill="url(#y)" stroke="url(#z)"/></g></g><defs><linearGradient id="l" x1="97.02" y1="26.728" x2="97.02" y2="40.512" gradientUnits="userSpaceOnUse"><stop stop-color="#fff"/><stop offset="1" stop-color="#fff" stop-opacity="0"/></linearGradient><linearGradient id="z" x1="86.274" y1="46.158" x2="84.749" y2="51.432" gradientUnits="userSpaceOnUse"><stop stop-color="#fff"/><stop offset="1" stop-color="#fff" stop-opacity="0"/></linearGradient><linearGradient id="y" x1="86.274" y1="46.158" x2="84.749" y2="51.432" gradientUnits="userSpaceOnUse"><stop stop-color="#138EFF"/><stop offset="1" stop-color="#00E0FF"/></linearGradient><linearGradient id="x" x1="80.68" y1="46.158" x2="79.156" y2="51.432" gradientUnits="userSpaceOnUse"><stop stop-color="#fff"/><stop offset="1" stop-color="#fff" stop-opacity="0"/></linearGradient><linearGradient id="w" x1="80.68" y1="46.158" x2="79.156" y2="51.432" gradientUnits="userSpaceOnUse"><stop stop-color="#138EFF"/><stop offset="1" stop-color="#00E0FF"/></linearGradient><linearGradient id="u" x1="92.175" y1="41.178" x2="90.65" y2="46.453" gradientUnits="userSpaceOnUse"><stop stop-color="#fff"/><stop offset="1" stop-color="#fff" stop-opacity="0"/></linearGradient><linearGradient id="b" x1="90.918" y1="20.438" x2="90.918" y2="33.347" gradientUnits="userSpaceOnUse"><stop stop-color="#FFE600"/><stop offset="1" stop-color="#FF7A00"/></linearGradient><linearGradient id="c" x1="90.918" y1="20.438" x2="90.918" y2="33.347" gradientUnits="userSpaceOnUse"><stop stop-color="#fff"/><stop offset="1" stop-color="#fff" stop-opacity="0"/></linearGradient><linearGradient id="d" x1="90.918" y1="20.438" x2="90.918" y2="33.347" gradientUnits="userSpaceOnUse"><stop stop-color="#FFD600"/><stop offset="1" stop-color="#FF7A00"/></linearGradient><linearGradient id="h" x1="84.701" y1="20.711" x2="84.701" y2="46.42" gradientUnits="userSpaceOnUse"><stop stop-color="#fff"/><stop offset="1" stop-color="#fff" stop-opacity="0"/></linearGradient><linearGradient id="i" x1="84.701" y1="26.345" x2="84.701" y2="43.958" gradientUnits="userSpaceOnUse"><stop stop-color="#fff"/><stop offset="1" stop-color="#fff" stop-opacity="0"/></linearGradient><linearGradient id="t" x1="92.175" y1="41.178" x2="90.65" y2="46.453" gradientUnits="userSpaceOnUse"><stop stop-color="#138EFF"/><stop offset="1" stop-color="#00E0FF"/></linearGradient><linearGradient id="m" x1="96.099" y1="26.345" x2="96.099" y2="39.074" gradientUnits="userSpaceOnUse"><stop stop-color="#fff"/><stop offset="1" stop-color="#fff" stop-opacity="0"/></linearGradient><linearGradient id="p" x1="78.933" y1="41.178" x2="77.409" y2="46.453" gradientUnits="userSpaceOnUse"><stop stop-color="#138EFF"/><stop offset="1" stop-color="#00E0FF"/></linearGradient><linearGradient id="q" x1="78.933" y1="41.178" x2="77.409" y2="46.453" gradientUnits="userSpaceOnUse"><stop stop-color="#fff"/><stop offset="1" stop-color="#fff" stop-opacity="0"/></linearGradient><linearGradient id="r" x1="85.554" y1="41.178" x2="84.03" y2="46.453" gradientUnits="userSpaceOnUse"><stop stop-color="#138EFF"/><stop offset="1" stop-color="#00E0FF"/></linearGradient><linearGradient id="s" x1="85.554" y1="41.178" x2="84.03" y2="46.453" gradientUnits="userSpaceOnUse"><stop stop-color="#fff"/><stop offset="1" stop-color="#fff" stop-opacity="0"/></linearGradient><filter id="f" x="59.878" y="11.579" width="55.401" height="45.832" filterUnits="userSpaceOnUse" color-interpolation-filters="sRGB"><feFlood flood-opacity="0" result="BackgroundImageFix"/><feBlend in="SourceGraphic" in2="BackgroundImageFix" result="shape"/><feGaussianBlur stdDeviation="7" result="effect1_foregroundBlur_53_614"/></filter><filter id="v" x="6.958" y="-.649" width="120.596" height="117.098" filterUnits="userSpaceOnUse" color-interpolation-filters="sRGB"><feFlood flood-opacity="0" result="BackgroundImageFix"/><feGaussianBlur in="BackgroundImageFix" stdDeviation="7"/><feComposite in2="SourceAlpha" operator="in" result="effect1_backgroundBlur_53_614"/><feColorMatrix in="SourceAlpha" values="0 0 0 0 0 0 0 0 0 0 0 0 0 0 0 0 0 0 127 0" result="hardAlpha"/><feOffset dx="-21" dy="15"/><feGaussianBlur stdDeviation="25"/><feComposite in2="hardAlpha" operator="out"/><feColorMatrix values="0 0 0 0 0.113438 0 0 0 0 0.148981 0 0 0 0 0.275 0 0 0 0.25 0"/><feBlend in2="effect1_backgroundBlur_53_614" result="effect2_dropShadow_53_614"/><feColorMatrix in="SourceAlpha" values="0 0 0 0 0 0 0 0 0 0 0 0 0 0 0 0 0 0 127 0" result="hardAlpha"/><feOffset dy="-7"/><feGaussianBlur stdDeviation="20.5"/><feComposite in2="hardAlpha" operator="out"/><feColorMatrix values="0 0 0 0 0.1375 0 0 0 0 0.74125 0 0 0 0 1 0 0 0 0.3 0"/><feBlend in2="effect2_dropShadow_53_614" result="effect3_dropShadow_53_614"/><feBlend in="SourceGraphic" in2="effect3_dropShadow_53_614" result="shape"/></filter><filter id="o" x="5.211" y="-5.629" width="128.244" height="117.098" filterUnits="userSpaceOnUse" color-interpolation-filters="sRGB"><feFlood flood-opacity="0" result="BackgroundImageFix"/><feGaussianBlur in="BackgroundImageFix" stdDeviation="7"/><feComposite in2="SourceAlpha" operator="in" result="effect1_backgroundBlur_53_614"/><feColorMatrix in="SourceAlpha" values="0 0 0 0 0 0 0 0 0 0 0 0 0 0 0 0 0 0 127 0" result="hardAlpha"/><feOffset dx="-21" dy="15"/><feGaussianBlur stdDeviation="25"/><feComposite in2="hardAlpha" operator="out"/><feColorMatrix values="0 0 0 0 0.113438 0 0 0 0 0.148981 0 0 0 0 0.275 0 0 0 0.25 0"/><feBlend in2="effect1_backgroundBlur_53_614" result="effect2_dropShadow_53_614"/><feColorMatrix in="SourceAlpha" values="0 0 0 0 0 0 0 0 0 0 0 0 0 0 0 0 0 0 127 0" result="hardAlpha"/><feOffset dy="-7"/><feGaussianBlur stdDeviation="20.5"/><feComposite in2="hardAlpha" operator="out"/><feColorMatrix values="0 0 0 0 0.1375 0 0 0 0 0.74125 0 0 0 0 1 0 0 0 0.3 0"/><feBlend in2="effect2_dropShadow_53_614" result="effect3_dropShadow_53_614"/><feBlend in="SourceGraphic" in2="effect3_dropShadow_53_614" result="shape"/></filter><filter id="k" x="15.197" y="-8.655" width="119.803" height="112.729" filterUnits="userSpaceOnUse" color-interpolation-filters="sRGB"><feFlood flood-opacity="0" result="BackgroundImageFix"/><feGaussianBlur in="BackgroundImageFix" stdDeviation="7"/><feComposite in2="SourceAlpha" operator="in" result="effect1_backgroundBlur_53_614"/><feColorMatrix in="SourceAlpha" values="0 0 0 0 0 0 0 0 0 0 0 0 0 0 0 0 0 0 127 0" result="hardAlpha"/><feOffset dx="-21" dy="15"/><feGaussianBlur stdDeviation="25"/><feComposite in2="hardAlpha" operator="out"/><feColorMatrix values="0 0 0 0 0.113438 0 0 0 0 0.148981 0 0 0 0 0.275 0 0 0 0.25 0"/><feBlend in2="effect1_backgroundBlur_53_614" result="effect2_dropShadow_53_614"/><feBlend in="SourceGraphic" in2="effect2_dropShadow_53_614" result="shape"/></filter><filter id="g" x="0" y="-8.655" width="127.401" height="117.613" filterUnits="userSpaceOnUse" color-interpolation-filters="sRGB"><feFlood flood-opacity="0" result="BackgroundImageFix"/><feGaussianBlur in="BackgroundImageFix" stdDeviation="7"/><feComposite in2="SourceAlpha" operator="in" result="effect1_backgroundBlur_53_614"/><feColorMatrix in="SourceAlpha" values="0 0 0 0 0 0 0 0 0 0 0 0 0 0 0 0 0 0 127 0" result="hardAlpha"/><feOffset dx="-21" dy="15"/><feGaussianBlur stdDeviation="25"/><feComposite in2="hardAlpha" operator="out"/><feColorMatrix values="0 0 0 0 0.113725 0 0 0 0 0.14902 0 0 0 0 0.27451 0 0 0 0.25 0"/><feBlend in2="effect1_backgroundBlur_53_614" result="effect2_dropShadow_53_614"/><feBlend in="SourceGraphic" in2="effect2_dropShadow_53_614" result="shape"/></filter><filter id="a" x="39.895" y="-24" width="102.046" height="101.347" filterUnits="userSpaceOnUse" color-interpolation-filters="sRGB"><feFlood flood-opacity="0" result="BackgroundImageFix"/><feBlend in="SourceGraphic" in2="BackgroundImageFix" result="shape"/><feGaussianBlur stdDeviation="22" result="effect1_foregroundBlur_53_614"/></filter></defs></svg>