<?xml version="1.0" encoding="utf-8"?>
<!-- Generator: $$$/GeneralStr/196=Adobe Illustrator 27.6.0, SVG Export Plug-In . SVG Version: 6.00 Build 0)  -->
<svg version="1.1" id="Calque_1" xmlns="http://www.w3.org/2000/svg" xmlns:xlink="http://www.w3.org/1999/xlink" x="0px" y="0px"
	 viewBox="0 0 30 30" style="enable-background:new 0 0 30 30;" xml:space="preserve">
<style type="text/css">
	.st0{fill:#FFC701;fill-opacity:0.5;}
	.st1{fill:url(#SVGID_1_);stroke:url(#SVGID_00000146471540185991636940000017479524478367956131_);stroke-width:2;}
	.st2{fill:url(#SVGID_00000163754699822738650630000010735032906252215709_);filter:url(#Adobe_OpacityMaskFilter);}
	.st3{mask:url(#e_00000107549662396445143700000015230713386906359706_);}
	.st4{fill-rule:evenodd;clip-rule:evenodd;fill:#E18700;}
	.st5{fill-rule:evenodd;clip-rule:evenodd;fill:url(#SVGID_00000127760919041077711170000015788476869582532482_);}
	
		.st6{fill-rule:evenodd;clip-rule:evenodd;fill:#FFFFFF;filter:url(#Adobe_OpacityMaskFilter_00000152965221017180482630000017806892043925548727_);}
	
		.st7{mask:url(#j_00000097463099326710329770000005518072032354583737_);fill:url(#SVGID_00000096749336572011863960000003099812347177042604_);}
</style>
<g>
	<g>
		<circle class="st0" cx="15.3" cy="10.2" r="6.3"/>
	</g>
	
		<linearGradient id="SVGID_1_" gradientUnits="userSpaceOnUse" x1="15.3118" y1="27.6564" x2="15.3118" y2="15.4479" gradientTransform="matrix(1 0 0 -1 0 32)">
		<stop  offset="0" style="stop-color:#FFE600"/>
		<stop  offset="1" style="stop-color:#FF7A00"/>
	</linearGradient>
	
		<linearGradient id="SVGID_00000182516539338228336920000001162372525334404513_" gradientUnits="userSpaceOnUse" x1="15.3118" y1="28.0889" x2="15.3118" y2="15.016" gradientTransform="matrix(1 0 0 -1 0 32)">
		<stop  offset="0" style="stop-color:#FFFFFF"/>
		<stop  offset="1" style="stop-color:#FFFFFF;stop-opacity:0"/>
	</linearGradient>
	
		<circle style="fill:url(#SVGID_1_);stroke:url(#SVGID_00000182516539338228336920000001162372525334404513_);stroke-width:2;" cx="15.3" cy="10.4" r="5.5"/>
	<defs>
		<filter id="Adobe_OpacityMaskFilter" filterUnits="userSpaceOnUse" x="0" y="17.2" width="24.6" height="8.9">
			<feColorMatrix  type="matrix" values="1 0 0 0 0  0 1 0 0 0  0 0 1 0 0  0 0 0 1 0"/>
		</filter>
	</defs>
	
		<mask maskUnits="userSpaceOnUse" x="0" y="17.2" width="24.6" height="8.9" id="e_00000107549662396445143700000015230713386906359706_">
		
			<linearGradient id="SVGID_00000135687681833735910770000000342769127048229020_" gradientUnits="userSpaceOnUse" x1="15.3116" y1="27.6564" x2="15.3116" y2="15.4485" gradientTransform="matrix(1 0 0 -1 0 32)">
			<stop  offset="0" style="stop-color:#FFD600"/>
			<stop  offset="1" style="stop-color:#FF7A00"/>
		</linearGradient>
		<path style="fill:url(#SVGID_00000135687681833735910770000000342769127048229020_);filter:url(#Adobe_OpacityMaskFilter);" d="
			M21.4,10.4c0,3.4-2.7,6.1-6.1,6.1s-6.1-2.7-6.1-6.1s2.3-2.6,5.6-2.6S21.4,7.1,21.4,10.4z"/>
	</mask>
	<g class="st3">
		<path class="st4" d="M24.6,21.6c0,2.5-2,4.4-4.4,4.4c0,0,0,0-0.1,0H4.4c-2.5,0-4.4-2-4.4-4.4s2-4.4,4.4-4.4c2.1,0,3.9,1.4,4.3,3.5
			l1.5-1.9l4.7-1.6h5.2C22.6,17.2,24.6,19.2,24.6,21.6L24.6,21.6z"/>
	</g>
	<g>
		
			<linearGradient id="SVGID_00000075865509736752199870000014923954529506302372_" gradientUnits="userSpaceOnUse" x1="19.9686" y1="21.7074" x2="19.9686" y2="8.6714" gradientTransform="matrix(1 0 0 -1 0 32)">
			<stop  offset="0" style="stop-color:#FFFFFF"/>
			<stop  offset="1" style="stop-color:#FFFFFF;stop-opacity:0"/>
		</linearGradient>
		
			<path shape-rendering="crispEdges" style="fill-rule:evenodd;clip-rule:evenodd;fill:url(#SVGID_00000075865509736752199870000014923954529506302372_);" d="
			M25.6,22L25.6,22c1.8,0,3.3-1.4,3.3-3.2c0-1.8-1.4-3.2-3.2-3.2c0,0,0,0,0,0h-0.9c0.4-2.7-1.5-5.2-4.2-5.6
			c-2.7-0.4-5.2,1.5-5.6,4.2c-0.1,0.5-0.1,1,0,1.4c-1.7-0.4-3.5,0.7-3.9,2.4c-0.4,1.7,0.7,3.5,2.4,3.9c0.3,0.1,0.5,0.1,0.8,0.1v0
			H25.6L25.6,22z"/>
		<defs>
			
				<filter id="Adobe_OpacityMaskFilter_00000172425216955048735710000002433501315813011893_" filterUnits="userSpaceOnUse" x="9.9" y="8.8" width="20.1" height="14.3">
				<feColorMatrix  type="matrix" values="1 0 0 0 0  0 1 0 0 0  0 0 1 0 0  0 0 0 1 0"/>
			</filter>
		</defs>
		
			<mask maskUnits="userSpaceOnUse" x="9.9" y="8.8" width="20.1" height="14.3" id="j_00000097463099326710329770000005518072032354583737_">
			
				<path style="fill-rule:evenodd;clip-rule:evenodd;fill:#FFFFFF;filter:url(#Adobe_OpacityMaskFilter_00000172425216955048735710000002433501315813011893_);" d="
				M25.6,22L25.6,22c1.8,0,3.3-1.4,3.3-3.2c0-1.8-1.4-3.2-3.2-3.2c0,0,0,0,0,0h-0.9c0.4-2.7-1.5-5.2-4.2-5.6
				c-2.7-0.4-5.2,1.5-5.6,4.2c-0.1,0.5-0.1,1,0,1.4c-1.7-0.4-3.5,0.7-3.9,2.4c-0.4,1.7,0.7,3.5,2.4,3.9c0.3,0.1,0.5,0.1,0.8,0.1v0
				H25.6L25.6,22z"/>
		</mask>
		
			<linearGradient id="SVGID_00000053531381615929244990000003719910161208843412_" gradientUnits="userSpaceOnUse" x1="19.9674" y1="22.0695" x2="19.9674" y2="10.0318" gradientTransform="matrix(1 0 0 -1 0 32)">
			<stop  offset="0" style="stop-color:#FFFFFF"/>
			<stop  offset="1" style="stop-color:#FFFFFF;stop-opacity:0"/>
		</linearGradient>
		
			<path style="mask:url(#j_00000097463099326710329770000005518072032354583737_);fill:url(#SVGID_00000053531381615929244990000003719910161208843412_);" d="
			M25.6,22l0-1.1c-0.6,0-1.1,0.5-1.1,1.1c0,0,0,0,0,0H25.6L25.6,22z M25.6,15.5h-1.1c0,0.6,0.5,1.1,1.1,1.1c0,0,0,0,0,0L25.6,15.5
			L25.6,15.5z M25.6,15.5h1.1c0-0.6-0.5-1.1-1.1-1.1V15.5z M24.8,15.5l-1.1-0.2c-0.1,0.6,0.4,1.2,1,1.3c0.1,0,0.1,0,0.2,0V15.5z
			 M15,15.6l-0.3,1.1c0.6,0.1,1.2-0.2,1.4-0.8c0-0.1,0-0.3,0-0.4C16.1,15.4,15,15.6,15,15.6z M14.3,22l0.9,0.7
			c0.4-0.5,0.3-1.2-0.2-1.6c-0.2-0.2-0.5-0.2-0.7-0.2L14.3,22z M14.3,22l-0.9-0.7c-0.4,0.5-0.3,1.2,0.2,1.6c0.2,0.2,0.4,0.2,0.7,0.2
			L14.3,22L14.3,22z M25.6,22v1.1c0.6,0,1.1-0.5,1.1-1.1H25.6z M25.6,23.1L25.6,23.1l0.1-2.3h0L25.6,23.1z M25.7,23.1
			c2.4,0,4.3-1.9,4.3-4.4h-2.3c0,1.1-0.9,2.1-2.1,2.1l0,0L25.7,23.1L25.7,23.1z M30,18.8c0-2.4-1.9-4.4-4.4-4.4l0,0v2.3
			c1.1,0,2.1,0.9,2.1,2.1c0,0,0,0,0,0H30z M25.6,14.4L25.6,14.4l0,2.3h0V14.4z M24.5,15.5h2.3H24.5z M24.8,16.7h0.8v-2.3h-0.8V16.7z
			 M25.9,15.7c0-0.3,0.1-0.5,0.1-0.8h-2.3c0,0.2,0,0.4,0,0.5L25.9,15.7z M26,14.9c0-3.4-2.7-6.1-6.1-6.1v2.3c2.1,0,3.8,1.7,3.8,3.8
			H26z M19.9,8.8c-3.4,0-6.1,2.7-6.1,6.1h2.3c0-2.1,1.7-3.8,3.8-3.8C19.9,11.1,19.9,8.8,19.9,8.8z M13.8,14.9c0,0.3,0,0.6,0.1,0.9
			l2.2-0.3c0-0.2,0-0.4,0-0.6H13.8z M15.3,14.5c-0.3-0.1-0.7-0.1-1-0.1v2.3c0.2,0,0.3,0,0.5,0.1L15.3,14.5z M14.3,14.4
			c-2.4,0-4.3,1.9-4.3,4.4h2.3c0-1.1,0.9-2.1,2.1-2.1l0,0L14.3,14.4L14.3,14.4z M9.9,18.8c0,2.4,1.9,4.4,4.4,4.4l0,0v-2.3
			c-1.1,0-2.1-0.9-2.1-2.1c0,0,0,0,0,0H9.9z M14.3,23.1L14.3,23.1l0-2.3h0V23.1z M15.2,22.7l-1.8-1.4L15.2,22.7z M25.6,20.8H14.3
			v2.3h11.3L25.6,20.8L25.6,20.8z M24.5,22h2.3H24.5z"/>
	</g>
</g>
</svg>
