<?xml version="1.0" encoding="utf-8"?>
<!-- Generator: $$$/GeneralStr/196=Adobe Illustrator 27.6.0, SVG Export Plug-In . SVG Version: 6.00 Build 0)  -->
<svg version="1.1" id="Calque_1" xmlns="http://www.w3.org/2000/svg" xmlns:xlink="http://www.w3.org/1999/xlink" x="0px" y="0px"
	 viewBox="0 0 30 30" style="enable-background:new 0 0 30 30;" xml:space="preserve">
<style type="text/css">
	.st0{fill-rule:evenodd;clip-rule:evenodd;fill:url(#SVGID_1_);}
	.st1{fill-rule:evenodd;clip-rule:evenodd;fill:#FFFFFF;filter:url(#Adobe_OpacityMaskFilter);}
	
		.st2{mask:url(#d_00000049196626920625561540000014486491477490216081_);fill:url(#SVGID_00000138551836083704015650000015198487462082964375_);}
	.st3{fill-rule:evenodd;clip-rule:evenodd;fill:url(#SVGID_00000085231373855029081340000013310230443943265933_);}
	
		.st4{fill-rule:evenodd;clip-rule:evenodd;fill:#FFFFFF;filter:url(#Adobe_OpacityMaskFilter_00000016045006242709823090000017230327327238398884_);}
	
		.st5{mask:url(#h_00000072276454153975693740000006608944943769589406_);fill:url(#SVGID_00000139263271482762186870000013666485397080646076_);}
	.st6{fill-rule:evenodd;clip-rule:evenodd;fill:url(#SVGID_00000158001270207727225350000002126298264696901539_);}
	
		.st7{fill-rule:evenodd;clip-rule:evenodd;fill:#FFFFFF;filter:url(#Adobe_OpacityMaskFilter_00000109739766488438626430000006533101340244054454_);}
	
		.st8{mask:url(#l_00000070079273557865532250000003141637117627767987_);fill:url(#SVGID_00000176014322750949890640000000673271335658321845_);}
</style>
<g>
	<g>
		
			<linearGradient id="SVGID_1_" gradientUnits="userSpaceOnUse" x1="8.3484" y1="25.3768" x2="8.3484" y2="14.2081" gradientTransform="matrix(1 0 0 -1 0 32)">
			<stop  offset="0" style="stop-color:#FFFFFF"/>
			<stop  offset="1" style="stop-color:#FFFFFF;stop-opacity:0"/>
		</linearGradient>
		<path shape-rendering="crispEdges" class="st0" d="M12.6,16.6L12.6,16.6c1.4,0,2.4-1.2,2.4-2.8c0-1.5-1.1-2.8-2.4-2.8h-0.6
			c0-0.2,0-0.4,0-0.6c0-2.3-1.7-4.2-3.7-4.2s-3.7,1.9-3.7,4.2c0,0.2,0,0.4,0,0.6c-0.2,0-0.4-0.1-0.5-0.1c-1.3,0-2.4,1.2-2.4,2.8
			c0,1.5,1.1,2.8,2.4,2.8C4.1,16.6,12.6,16.6,12.6,16.6z"/>
		<defs>
			<filter id="Adobe_OpacityMaskFilter" filterUnits="userSpaceOnUse" x="0.2" y="5.2" width="16.3" height="12.5">
				<feColorMatrix  type="matrix" values="1 0 0 0 0  0 1 0 0 0  0 0 1 0 0  0 0 0 1 0"/>
			</filter>
		</defs>
		
			<mask maskUnits="userSpaceOnUse" x="0.2" y="5.2" width="16.3" height="12.5" id="d_00000049196626920625561540000014486491477490216081_">
			<path class="st1" d="M12.6,16.6L12.6,16.6c1.4,0,2.4-1.2,2.4-2.8c0-1.5-1.1-2.8-2.4-2.8h-0.6c0-0.2,0-0.4,0-0.6
				c0-2.3-1.7-4.2-3.7-4.2s-3.7,1.9-3.7,4.2c0,0.2,0,0.4,0,0.6c-0.2,0-0.4-0.1-0.5-0.1c-1.3,0-2.4,1.2-2.4,2.8
				c0,1.5,1.1,2.8,2.4,2.8C4.1,16.6,12.6,16.6,12.6,16.6z"/>
		</mask>
		
			<linearGradient id="SVGID_00000071521593612644311210000007627892715331783047_" gradientUnits="userSpaceOnUse" x1="8.3488" y1="25.6868" x2="8.3488" y2="15.3737" gradientTransform="matrix(1 0 0 -1 0 32)">
			<stop  offset="0" style="stop-color:#FFFFFF"/>
			<stop  offset="1" style="stop-color:#FFFFFF;stop-opacity:0"/>
		</linearGradient>
		
			<path style="mask:url(#d_00000049196626920625561540000014486491477490216081_);fill:url(#SVGID_00000071521593612644311210000007627892715331783047_);" d="
			M12.6,16.6l0-1.1c-0.8,0-1.5,0.5-1.5,1.1c0,0,0,0,0,0H12.6z M12.6,11.1H11c0,0.6,0.7,1.1,1.5,1.1c0,0,0,0,0,0L12.6,11.1z
			 M12.6,11.1h1.5c0-0.6-0.7-1.1-1.5-1.1V11.1z M11.9,11.1L10.4,11c-0.1,0.6,0.5,1.1,1.4,1.2c0,0,0.1,0,0.1,0V11.1z M4.6,11.2
			l-0.5,1c0.8,0.2,1.7-0.1,2-0.6c0.1-0.2,0.1-0.3,0.1-0.5L4.6,11.2L4.6,11.2z M4.1,16.6l1.4,0.5c0.4-0.5,0.1-1.2-0.7-1.5
			c-0.2-0.1-0.5-0.1-0.7-0.1L4.1,16.6z M4.1,16.6l-1.4-0.5c-0.4,0.5-0.1,1.2,0.7,1.5c0.2,0.1,0.4,0.1,0.7,0.1L4.1,16.6L4.1,16.6z
			 M12.6,16.6v1.1c0.8,0,1.5-0.5,1.5-1.1H12.6z M12.5,17.7L12.5,17.7l0.1-2.2L12.5,17.7z M12.6,17.7c1.4,0,2.4-0.6,3-1.3
			c0.6-0.7,0.9-1.6,0.9-2.5h-3c0,0.6-0.2,1.1-0.5,1.4c-0.1,0.1-0.3,0.2-0.3,0.3c0,0,0,0-0.1,0l0,0h0C12.6,15.5,12.6,17.7,12.6,17.7z
			 M16.5,13.9c0-0.9-0.3-1.8-0.9-2.5C15,10.7,14,10,12.6,10v2.2h0l0,0c0,0,0,0,0.1,0c0.1,0,0.2,0.1,0.3,0.3c0.3,0.3,0.5,0.8,0.5,1.4
			C13.5,13.9,16.5,13.9,16.5,13.9z M12.6,10L12.6,10v2.2V10z M11,11.1h3H11z M11.9,12.2h0.6V10h-0.6V12.2z M13.5,11.2
			c0-0.2,0-0.4,0-0.7h-3c0,0.2,0,0.3,0,0.5L13.5,11.2z M13.5,10.5c0-1.3-0.5-2.6-1.3-3.6C11.4,6,10,5.2,8.3,5.2v2.2
			c0.3,0,0.8,0.1,1.3,0.7c0.5,0.6,0.8,1.4,0.8,2.4L13.5,10.5L13.5,10.5z M8.3,5.2C6.6,5.2,5.2,6,4.4,7c-0.8,1-1.3,2.2-1.3,3.6h3
			c0-1,0.4-1.8,0.9-2.4c0.5-0.6,1-0.7,1.3-0.7L8.3,5.2L8.3,5.2z M3.1,10.5c0,0.3,0,0.5,0.1,0.8l3-0.2c0-0.2,0-0.4,0-0.5H3.1
			L3.1,10.5z M5.2,10.2C4.8,10.1,4.5,10,4.1,10v2.2h0l0,0C4.1,12.2,5.2,10.2,5.2,10.2z M4.1,10c-1.4,0-2.4,0.6-3,1.3
			c-0.6,0.7-0.9,1.6-0.9,2.5h3c0-0.6,0.2-1.1,0.5-1.4c0.1-0.1,0.3-0.2,0.3-0.3c0,0,0,0,0.1,0l0,0h0C4.1,12.2,4.1,10,4.1,10z
			 M0.2,13.9c0,0.9,0.3,1.8,0.9,2.5c0.6,0.7,1.6,1.3,3,1.3v-2.2h0c0,0,0,0,0,0c0,0,0,0-0.1,0c-0.1,0-0.2-0.1-0.3-0.3
			c-0.3-0.3-0.5-0.8-0.5-1.4C3.2,13.9,0.2,13.9,0.2,13.9z M4.1,17.7L4.1,17.7v-2.2V17.7z M5.5,17.1l-2.7-1L5.5,17.1z M12.6,15.5H4.1
			v2.2h8.4V15.5z M11,16.6h3H11z"/>
	</g>
	<g>
		
			<linearGradient id="SVGID_00000097478008053081799370000009665305768669036954_" gradientUnits="userSpaceOnUse" x1="13.9943" y1="27.1494" x2="13.9943" y2="6.3196" gradientTransform="matrix(1 0 0 -1 0 32)">
			<stop  offset="0" style="stop-color:#FFFFFF"/>
			<stop  offset="1" style="stop-color:#FFFFFF;stop-opacity:0"/>
		</linearGradient>
		
			<path shape-rendering="crispEdges" style="fill-rule:evenodd;clip-rule:evenodd;fill:url(#SVGID_00000097478008053081799370000009665305768669036954_);" d="
			M19.8,23.7L19.8,23.7c1.9,0,3.4-1.7,3.4-3.8c0-2.1-1.5-3.8-3.3-3.8H19c0-0.3,0-0.5,0-0.8c0-3.2-2.3-5.9-5.1-5.9
			c-2.8,0-5.1,2.6-5.1,5.9c0,0.3,0,0.6,0.1,0.9c-0.2-0.1-0.5-0.1-0.8-0.1c-1.8,0-3.3,1.7-3.3,3.8c0,2.1,1.5,3.8,3.3,3.8H19.8
			L19.8,23.7z"/>
		<defs>
			
				<filter id="Adobe_OpacityMaskFilter_00000041253825790440905440000016229749458052234124_" filterUnits="userSpaceOnUse" x="3.3" y="8.3" width="21.4" height="16.4">
				<feColorMatrix  type="matrix" values="1 0 0 0 0  0 1 0 0 0  0 0 1 0 0  0 0 0 1 0"/>
			</filter>
		</defs>
		
			<mask maskUnits="userSpaceOnUse" x="3.3" y="8.3" width="21.4" height="16.4" id="h_00000072276454153975693740000006608944943769589406_">
			
				<path style="fill-rule:evenodd;clip-rule:evenodd;fill:#FFFFFF;filter:url(#Adobe_OpacityMaskFilter_00000041253825790440905440000016229749458052234124_);" d="
				M19.8,23.7L19.8,23.7c1.9,0,3.4-1.7,3.4-3.8c0-2.1-1.5-3.8-3.3-3.8H19c0-0.3,0-0.5,0-0.8c0-3.2-2.3-5.9-5.1-5.9
				c-2.8,0-5.1,2.6-5.1,5.9c0,0.3,0,0.6,0.1,0.9c-0.2-0.1-0.5-0.1-0.8-0.1c-1.8,0-3.3,1.7-3.3,3.8c0,2.1,1.5,3.8,3.3,3.8H19.8
				L19.8,23.7z"/>
		</mask>
		
			<linearGradient id="SVGID_00000038405529702603518030000011096453146520711074_" gradientUnits="userSpaceOnUse" x1="13.9936" y1="22.5846" x2="13.9936" y2="8.3137" gradientTransform="matrix(1 0 0 -1 0 32)">
			<stop  offset="0" style="stop-color:#FFFFFF"/>
			<stop  offset="1" style="stop-color:#FFFFFF;stop-opacity:0"/>
		</linearGradient>
		
			<path style="mask:url(#h_00000072276454153975693740000006608944943769589406_);fill:url(#SVGID_00000038405529702603518030000011096453146520711074_);" d="
			M19.8,23.7l0-1.1c-0.8,0-1.5,0.5-1.5,1.1c0,0,0,0,0,0H19.8L19.8,23.7z M19.8,16.1h-1.5c0,0.6,0.7,1.1,1.5,1.1c0,0,0,0,0,0
			L19.8,16.1L19.8,16.1z M19.8,16.1h1.5c0-0.6-0.7-1.1-1.5-1.1V16.1z M19,16.1L17.5,16c-0.1,0.6,0.5,1.1,1.4,1.2c0,0,0.1,0,0.1,0
			V16.1z M8.9,16.2l-0.5,1c0.8,0.2,1.7-0.1,2-0.6c0.1-0.2,0.1-0.3,0.1-0.5C10.4,16.1,8.9,16.2,8.9,16.2z M8.2,23.7l1.4,0.5
			c0.4-0.5,0.1-1.2-0.7-1.5c-0.2-0.1-0.5-0.1-0.7-0.1L8.2,23.7z M8.2,23.7l-1.4-0.5c-0.4,0.5-0.1,1.2,0.7,1.5
			c0.2,0.1,0.4,0.1,0.7,0.1V23.7L8.2,23.7z M19.8,23.7v1.1c0.8,0,1.5-0.5,1.5-1.1H19.8z M19.8,24.8L19.8,24.8l0.1-2.2h0L19.8,24.8z
			 M19.9,24.8c1.6,0,2.9-0.8,3.6-1.6c0.8-0.9,1.2-2,1.2-3.3h-3c0,0.9-0.3,1.6-0.7,2.1c-0.4,0.5-0.9,0.6-1.1,0.6
			C19.9,22.6,19.9,24.8,19.9,24.8z M24.7,19.9c0-1.2-0.4-2.4-1.2-3.3c-0.8-0.9-2-1.6-3.6-1.6v2.2c0.2,0,0.6,0.1,1.1,0.6
			c0.4,0.5,0.7,1.2,0.7,2.1H24.7z M19.9,15L19.9,15l0,2.2h0V15z M18.3,16.1h3H18.3z M19,17.2h0.9V15H19V17.2z M20.5,16.2
			c0-0.3,0.1-0.6,0.1-0.9h-3c0,0.2,0,0.5,0,0.7L20.5,16.2z M20.5,15.3c0-1.8-0.6-3.5-1.7-4.7c-1.1-1.2-2.8-2.2-4.9-2.2v2.2
			c0.7,0,1.6,0.3,2.3,1.2c0.8,0.9,1.3,2.1,1.3,3.6L20.5,15.3L20.5,15.3z M13.9,8.3c-2.1,0-3.8,1-4.9,2.2c-1.1,1.3-1.7,2.9-1.7,4.7h3
			c0-1.4,0.5-2.7,1.3-3.6c0.8-0.9,1.6-1.2,2.3-1.2L13.9,8.3L13.9,8.3z M7.3,15.3c0,0.3,0,0.7,0.1,1l3-0.2c0-0.3-0.1-0.5-0.1-0.8H7.3
			L7.3,15.3z M9.4,15.1C9,15,8.6,15,8.1,15v2.2c0.1,0,0.1,0,0.2,0L9.4,15.1z M8.1,15c-1.6,0-2.9,0.8-3.6,1.6c-0.8,0.9-1.2,2-1.2,3.3
			h3c0-0.9,0.3-1.6,0.7-2.1c0.4-0.5,0.9-0.6,1.1-0.6V15z M3.3,19.9c0,1.2,0.4,2.4,1.2,3.3c0.8,0.9,2,1.6,3.6,1.6v-2.2
			c-0.2,0-0.6-0.1-1.1-0.6c-0.4-0.5-0.7-1.2-0.7-2.1L3.3,19.9L3.3,19.9z M8.1,24.8L8.1,24.8l0-2.2h0V24.8z M9.5,24.2l-2.7-1
			L9.5,24.2L9.5,24.2z M19.8,22.6H8.2v2.2h11.7L19.8,22.6L19.8,22.6z M18.3,23.7h3H18.3z"/>
	</g>
	<g>
		
			<linearGradient id="SVGID_00000181802987766446705750000017415596831750137503_" gradientUnits="userSpaceOnUse" x1="21.6509" y1="22.2741" x2="21.6509" y2="11.1059" gradientTransform="matrix(1 0 0 -1 0 32)">
			<stop  offset="0" style="stop-color:#FFFFFF"/>
			<stop  offset="1" style="stop-color:#FFFFFF;stop-opacity:0"/>
		</linearGradient>
		
			<path shape-rendering="crispEdges" style="fill-rule:evenodd;clip-rule:evenodd;fill:url(#SVGID_00000181802987766446705750000017415596831750137503_);" d="
			M25.9,19.7L25.9,19.7c1.4,0,2.4-1.2,2.4-2.8c0-1.5-1.1-2.8-2.4-2.8h-0.6c0-0.2,0-0.4,0-0.6c0-2.3-1.7-4.2-3.7-4.2
			c-2,0-3.7,1.9-3.7,4.2c0,0.2,0,0.4,0,0.6c-0.2,0-0.4-0.1-0.5-0.1c-1.3,0-2.4,1.2-2.4,2.8s1.1,2.8,2.4,2.8L25.9,19.7L25.9,19.7z"/>
		<defs>
			
				<filter id="Adobe_OpacityMaskFilter_00000006703803356068926500000016575396398019291579_" filterUnits="userSpaceOnUse" x="13.5" y="8.3" width="16.3" height="12.5">
				<feColorMatrix  type="matrix" values="1 0 0 0 0  0 1 0 0 0  0 0 1 0 0  0 0 0 1 0"/>
			</filter>
		</defs>
		
			<mask maskUnits="userSpaceOnUse" x="13.5" y="8.3" width="16.3" height="12.5" id="l_00000070079273557865532250000003141637117627767987_">
			
				<path style="fill-rule:evenodd;clip-rule:evenodd;fill:#FFFFFF;filter:url(#Adobe_OpacityMaskFilter_00000006703803356068926500000016575396398019291579_);" d="
				M25.9,19.7L25.9,19.7c1.4,0,2.4-1.2,2.4-2.8c0-1.5-1.1-2.8-2.4-2.8h-0.6c0-0.2,0-0.4,0-0.6c0-2.3-1.7-4.2-3.7-4.2
				c-2,0-3.7,1.9-3.7,4.2c0,0.2,0,0.4,0,0.6c-0.2,0-0.4-0.1-0.5-0.1c-1.3,0-2.4,1.2-2.4,2.8s1.1,2.8,2.4,2.8L25.9,19.7L25.9,19.7z"
				/>
		</mask>
		
			<linearGradient id="SVGID_00000075861700422593345960000016853863632072493985_" gradientUnits="userSpaceOnUse" x1="21.6512" y1="22.5846" x2="21.6512" y2="12.271" gradientTransform="matrix(1 0 0 -1 0 32)">
			<stop  offset="0" style="stop-color:#FFFFFF"/>
			<stop  offset="1" style="stop-color:#FFFFFF;stop-opacity:0"/>
		</linearGradient>
		
			<path style="mask:url(#l_00000070079273557865532250000003141637117627767987_);fill:url(#SVGID_00000075861700422593345960000016853863632072493985_);" d="
			M25.9,19.7l0-1.1c-0.8,0-1.5,0.5-1.5,1.1c0,0,0,0,0,0H25.9z M25.9,14.2h-1.5c0,0.6,0.7,1.1,1.5,1.1c0,0,0,0,0,0L25.9,14.2z
			 M25.9,14.2h1.5c0-0.6-0.7-1.1-1.5-1.1V14.2z M25.3,14.2l-1.5-0.1c-0.1,0.6,0.5,1.1,1.4,1.2c0,0,0.1,0,0.1,0
			C25.3,15.3,25.3,14.2,25.3,14.2z M17.9,14.3l-0.5,1c0.8,0.2,1.7-0.1,2-0.6c0.1-0.2,0.1-0.3,0.1-0.5L17.9,14.3L17.9,14.3z
			 M17.4,19.7l1.4,0.5c0.4-0.5,0.1-1.2-0.7-1.5c-0.2-0.1-0.5-0.1-0.7-0.1L17.4,19.7z M17.4,19.7l-1.4-0.5c-0.4,0.5-0.1,1.2,0.7,1.5
			c0.2,0.1,0.4,0.1,0.7,0.1L17.4,19.7L17.4,19.7z M25.9,19.7v1.1c0.8,0,1.5-0.5,1.5-1.1H25.9z M25.8,20.8L25.8,20.8l0.1-2.2
			L25.8,20.8z M25.9,20.8c1.4,0,2.4-0.6,3-1.3c0.6-0.7,0.9-1.6,0.9-2.5h-3c0,0.6-0.2,1.1-0.5,1.4c-0.1,0.1-0.3,0.2-0.3,0.3
			c0,0,0,0-0.1,0l0,0h0L25.9,20.8L25.9,20.8z M29.8,17c0-0.9-0.3-1.8-0.9-2.5c-0.6-0.7-1.6-1.3-3-1.3v2.2h0c0,0,0.1,0,0.1,0
			c0.1,0,0.2,0.1,0.3,0.3c0.3,0.3,0.5,0.8,0.5,1.4C26.8,17,29.8,17,29.8,17z M25.9,13.1L25.9,13.1v2.2V13.1L25.9,13.1z M24.4,14.2h3
			H24.4z M25.3,15.3h0.6v-2.2h-0.6V15.3z M26.8,14.3c0-0.2,0-0.4,0-0.7h-3c0,0.2,0,0.3,0,0.5L26.8,14.3z M26.8,13.6
			c0-1.3-0.5-2.6-1.3-3.6c-0.8-0.9-2.2-1.7-3.9-1.7v2.2c0.3,0,0.8,0.1,1.3,0.7c0.5,0.6,0.8,1.4,0.8,2.4H26.8z M21.6,8.3
			c-1.7,0-3.1,0.8-3.9,1.7c-0.8,1-1.3,2.2-1.3,3.6h3c0-1,0.4-1.8,0.9-2.4c0.5-0.6,1-0.7,1.3-0.7C21.6,10.5,21.6,8.3,21.6,8.3z
			 M16.4,13.6c0,0.3,0,0.5,0.1,0.8l3-0.2c0-0.2,0-0.4,0-0.5H16.4L16.4,13.6z M18.5,13.3c-0.3-0.1-0.7-0.1-1.1-0.1v2.2h0l0,0
			L18.5,13.3L18.5,13.3z M17.4,13.1c-1.4,0-2.4,0.6-3,1.3c-0.6,0.7-0.9,1.6-0.9,2.5h3c0-0.6,0.2-1.1,0.5-1.4
			c0.1-0.1,0.3-0.2,0.3-0.3c0,0,0,0,0.1,0l0,0h0L17.4,13.1L17.4,13.1z M13.5,17c0,0.9,0.3,1.8,0.9,2.5c0.6,0.7,1.6,1.3,3,1.3v-2.2h0
			l0,0c0,0,0,0-0.1,0c-0.1,0-0.2-0.1-0.3-0.3c-0.3-0.3-0.5-0.8-0.5-1.4C16.5,17,13.5,17,13.5,17z M17.4,20.8L17.4,20.8v-2.2V20.8
			L17.4,20.8z M18.8,20.2l-2.7-1L18.8,20.2z M25.9,18.6h-8.4v2.2h8.4C25.9,20.8,25.9,18.6,25.9,18.6z M24.4,19.7h3H24.4z"/>
	</g>
</g>
</svg>
