<?xml version="1.0" encoding="utf-8"?>
<!-- Generator: $$$/GeneralStr/196=Adobe Illustrator 27.6.0, SVG Export Plug-In . SVG Version: 6.00 Build 0)  -->
<svg version="1.1" id="Calque_1" xmlns="http://www.w3.org/2000/svg" xmlns:xlink="http://www.w3.org/1999/xlink" x="0px" y="0px"
	 viewBox="0 0 30 30" style="enable-background:new 0 0 30 30;" xml:space="preserve">
<style type="text/css">
	.st0{fill:#FFC701;fill-opacity:0.5;}
	.st1{fill:url(#SVGID_1_);stroke:url(#SVGID_00000029011227667838550130000016352726662851433651_);stroke-width:2;}
	.st2{fill:url(#SVGID_00000073723813365279409270000011235016482590457482_);filter:url(#Adobe_OpacityMaskFilter);}
	.st3{mask:url(#e_00000151523075657624469990000014753991240336188847_);}
	.st4{fill-rule:evenodd;clip-rule:evenodd;fill:#E18700;}
	.st5{fill-rule:evenodd;clip-rule:evenodd;fill:url(#SVGID_00000084512004865237696080000005564594883956135044_);}
	
		.st6{fill-rule:evenodd;clip-rule:evenodd;fill:#FFFFFF;filter:url(#Adobe_OpacityMaskFilter_00000181765851384029474610000008947605823654703514_);}
	
		.st7{mask:url(#j_00000093884121820430822850000009165574618141950650_);fill:url(#SVGID_00000035489186055244728020000014743156096429554572_);}
	.st8{fill-rule:evenodd;clip-rule:evenodd;fill:url(#SVGID_00000163051653170808787550000000718949546254373252_);}
	
		.st9{fill-rule:evenodd;clip-rule:evenodd;fill:#FFFFFF;filter:url(#Adobe_OpacityMaskFilter_00000078017528321913653550000005420846838638545063_);}
	
		.st10{mask:url(#n_00000112624728561608461410000002171515110084219317_);fill:url(#SVGID_00000127745327135926266470000012469802013755439780_);}
	
		.st11{fill:url(#SVGID_00000120555642144105298570000007688578139810207406_);stroke:url(#SVGID_00000028307362693296841400000003263708458188062881_);stroke-width:2;}
	
		.st12{fill:url(#SVGID_00000128446524849068915940000015433032362699396748_);stroke:url(#SVGID_00000176021202198508851040000007021416827849285265_);stroke-width:2;}
	
		.st13{fill:url(#SVGID_00000035491669826851169740000007729161869997946797_);stroke:url(#SVGID_00000023993797459694703520000012581573987232177068_);stroke-width:2;}
	
		.st14{fill:url(#SVGID_00000054241783061426252260000006820602319036800901_);stroke:url(#SVGID_00000153695099851690509190000013268622820955795858_);stroke-width:2;}
	
		.st15{fill:url(#SVGID_00000150788851063015833760000010797676341073777330_);stroke:url(#SVGID_00000088132475693999375110000012283227965620620682_);stroke-width:2;}
</style>
<g>
	<g>
		<ellipse class="st0" cx="16.9" cy="8.4" rx="5.4" ry="5.1"/>
	</g>
	
		<linearGradient id="SVGID_1_" gradientUnits="userSpaceOnUse" x1="16.8596" y1="28.377" x2="16.8596" y2="18.447" gradientTransform="matrix(1 0 0 -1 0 32)">
		<stop  offset="0" style="stop-color:#FFE600"/>
		<stop  offset="1" style="stop-color:#FF7A00"/>
	</linearGradient>
	
		<linearGradient id="SVGID_00000065037843528104041540000011040583704952675715_" gradientUnits="userSpaceOnUse" x1="16.8596" y1="28.6078" x2="16.8596" y2="18.2163" gradientTransform="matrix(1 0 0 -1 0 32)">
		<stop  offset="0" style="stop-color:#FFFFFF"/>
		<stop  offset="1" style="stop-color:#FFFFFF;stop-opacity:0"/>
	</linearGradient>
	<path style="fill:url(#SVGID_1_);stroke:url(#SVGID_00000065037843528104041540000011040583704952675715_);stroke-width:2;" d="
		M21.3,8.6c0,2.3-2,4.2-4.5,4.2s-4.5-1.9-4.5-4.2s2-4.2,4.5-4.2S21.3,6.3,21.3,8.6z"/>
	<defs>
		<filter id="Adobe_OpacityMaskFilter" filterUnits="userSpaceOnUse" x="3.8" y="7.6" width="21.1" height="13.7">
			<feColorMatrix  type="matrix" values="1 0 0 0 0  0 1 0 0 0  0 0 1 0 0  0 0 0 1 0"/>
		</filter>
	</defs>
	
		<mask maskUnits="userSpaceOnUse" x="3.8" y="7.6" width="21.1" height="13.7" id="e_00000151523075657624469990000014753991240336188847_">
		
			<linearGradient id="SVGID_00000155128019052463344960000017907839307539384484_" gradientUnits="userSpaceOnUse" x1="16.8596" y1="28.377" x2="16.8596" y2="18.447" gradientTransform="matrix(1 0 0 -1 0 32)">
			<stop  offset="0" style="stop-color:#FFD600"/>
			<stop  offset="1" style="stop-color:#FF7A00"/>
		</linearGradient>
		<path style="fill:url(#SVGID_00000155128019052463344960000017907839307539384484_);filter:url(#Adobe_OpacityMaskFilter);" d="
			M22.1,8.6c0,2.7-2.3,5-5.2,5s-5.2-2.2-5.2-5s1.9-2.1,4.8-2.1C19.3,6.5,22.1,5.8,22.1,8.6z"/>
	</mask>
	<g class="st3">
		<path class="st4" d="M21,21.3L21,21.3c2.1,0,3.9-1.6,3.9-3.6s-1.7-3.6-3.8-3.6h-2.5c0.1-0.3,0.1-0.6,0.1-0.9
			c0-3.1-2.6-5.6-5.8-5.6c-3.2,0-5.8,2.5-5.8,5.6c0,0.3,0,0.6,0.1,1c-1.9,0.2-3.3,1.8-3.3,3.6c0,2,1.7,3.6,3.8,3.6L21,21.3L21,21.3z
			"/>
	</g>
	<g>
		
			<linearGradient id="SVGID_00000132059156412197204560000011594330537011942335_" gradientUnits="userSpaceOnUse" x1="12.0773" y1="28.167" x2="12.0773" y2="8.3909" gradientTransform="matrix(1 0 0 -1 0 32)">
			<stop  offset="0" style="stop-color:#FFFFFF"/>
			<stop  offset="1" style="stop-color:#FFFFFF;stop-opacity:0"/>
		</linearGradient>
		
			<path shape-rendering="crispEdges" style="fill-rule:evenodd;clip-rule:evenodd;fill:url(#SVGID_00000132059156412197204560000011594330537011942335_);" d="
			M18.8,21.7L18.8,21.7c2.1,0,3.9-1.6,3.9-3.6s-1.7-3.6-3.8-3.6h-1c0-0.2,0.1-0.5,0.1-0.8c0-3.1-2.6-5.6-5.8-5.6
			c-3.2,0-5.8,2.5-5.8,5.6c0,0.3,0,0.6,0.1,0.9c-0.3-0.1-0.6-0.1-0.9-0.1c-2.1,0-3.8,1.6-3.8,3.6s1.7,3.6,3.8,3.6
			C5.3,21.7,18.8,21.7,18.8,21.7z"/>
		<defs>
			
				<filter id="Adobe_OpacityMaskFilter_00000026131907048328648870000008442455621066079166_" filterUnits="userSpaceOnUse" x="0" y="6.6" width="24.2" height="16.6">
				<feColorMatrix  type="matrix" values="1 0 0 0 0  0 1 0 0 0  0 0 1 0 0  0 0 0 1 0"/>
			</filter>
		</defs>
		
			<mask maskUnits="userSpaceOnUse" x="0" y="6.6" width="24.2" height="16.6" id="j_00000093884121820430822850000009165574618141950650_">
			
				<path style="fill-rule:evenodd;clip-rule:evenodd;fill:#FFFFFF;filter:url(#Adobe_OpacityMaskFilter_00000026131907048328648870000008442455621066079166_);" d="
				M18.8,21.7L18.8,21.7c2.1,0,3.9-1.6,3.9-3.6s-1.7-3.6-3.8-3.6h-1c0-0.2,0.1-0.5,0.1-0.8c0-3.1-2.6-5.6-5.8-5.6
				c-3.2,0-5.8,2.5-5.8,5.6c0,0.3,0,0.6,0.1,0.9c-0.3-0.1-0.6-0.1-0.9-0.1c-2.1,0-3.8,1.6-3.8,3.6s1.7,3.6,3.8,3.6
				C5.3,21.7,18.8,21.7,18.8,21.7z"/>
		</mask>
		
			<linearGradient id="SVGID_00000081647319157206043990000017053865611055067807_" gradientUnits="userSpaceOnUse" x1="12.0773" y1="23.8332" x2="12.0773" y2="10.2847" gradientTransform="matrix(1 0 0 -1 0 32)">
			<stop  offset="0" style="stop-color:#FFFFFF"/>
			<stop  offset="1" style="stop-color:#FFFFFF;stop-opacity:0"/>
		</linearGradient>
		
			<path style="mask:url(#j_00000093884121820430822850000009165574618141950650_);fill:url(#SVGID_00000081647319157206043990000017053865611055067807_);" d="
			M18.8,21.7l0-1.5c-0.8,0-1.5,0.7-1.6,1.5c0,0,0,0,0,0H18.8z M18.8,14.5h-1.5c0,0.8,0.7,1.5,1.5,1.5c0,0,0,0,0,0L18.8,14.5z
			 M18.8,14.5h1.5c0-0.8-0.7-1.5-1.5-1.5V14.5z M17.8,14.5l-1.5-0.2c-0.1,0.8,0.5,1.6,1.3,1.7c0.1,0,0.1,0,0.2,0V14.5z M6.2,14.6
			l-0.3,1.5c0.8,0.2,1.7-0.3,1.8-1.2c0-0.2,0-0.4,0-0.6L6.2,14.6z M5.4,21.7l1.2,1C7.1,22,7,21.1,6.4,20.5c-0.3-0.2-0.6-0.4-1-0.4
			C5.4,20.2,5.4,21.7,5.4,21.7z M5.4,21.7l-1.2-1c-0.5,0.7-0.5,1.6,0.2,2.2c0.3,0.2,0.6,0.4,1,0.4V21.7z M18.8,21.7v1.5
			c0.8,0,1.5-0.7,1.5-1.5H18.8z M18.7,23.3C18.8,23.3,18.8,23.3,18.7,23.3l0.1-3.1h0L18.7,23.3z M18.8,23.3c2.9,0,5.3-2.2,5.3-5.2
			h-3.1c0,1.1-0.9,2.1-2.3,2.1V23.3z M24.2,18.1c0-2.9-2.5-5.2-5.3-5.2V16c1.3,0,2.3,1,2.3,2.1H24.2z M18.8,12.9L18.8,12.9l0,3.1h0
			V12.9z M17.2,14.5h3.1H17.2z M17.8,16h1v-3.1h-1V16z M19.3,14.7c0-0.3,0.1-0.6,0.1-1h-3.1c0,0.2,0,0.4,0,0.5
			C16.3,14.3,19.3,14.7,19.3,14.7z M19.4,13.7c0-4-3.4-7.1-7.4-7.1v3.1c2.5,0,4.3,1.9,4.3,4H19.4L19.4,13.7z M12,6.6
			c-4,0-7.4,3.1-7.4,7.1h3.1c0-2.1,1.9-4,4.3-4L12,6.6L12,6.6z M4.6,13.7c0,0.4,0,0.7,0.1,1.1l3-0.5c0-0.2,0-0.4,0-0.6
			C7.7,13.7,4.6,13.7,4.6,13.7z M6.5,13.1c-0.4-0.1-0.8-0.1-1.2-0.1V16c0.2,0,0.4,0,0.5,0.1C5.9,16.1,6.5,13.1,6.5,13.1z M5.3,12.9
			c-2.9,0-5.3,2.2-5.3,5.2h3.1C3.1,17,4,16,5.3,16L5.3,12.9L5.3,12.9z M0,18.1c0,2.9,2.5,5.2,5.3,5.2v-3.1c-1.3,0-2.3-1-2.3-2.1H0z
			 M5.3,23.3L5.3,23.3l0-3.1h0L5.3,23.3L5.3,23.3z M6.6,22.7l-2.4-2L6.6,22.7z M18.8,20.2H5.4v3.1h13.4
			C18.8,23.3,18.8,20.2,18.8,20.2z M17.2,21.7h3.1H17.2z"/>
	</g>
	<g>
		
			<linearGradient id="SVGID_00000045592717379348428320000016512159538883006594_" gradientUnits="userSpaceOnUse" x1="20.845" y1="23.5386" x2="20.845" y2="12.9355" gradientTransform="matrix(1 0 0 -1 0 32)">
			<stop  offset="0" style="stop-color:#FFFFFF"/>
			<stop  offset="1" style="stop-color:#FFFFFF;stop-opacity:0"/>
		</linearGradient>
		
			<path shape-rendering="crispEdges" style="fill-rule:evenodd;clip-rule:evenodd;fill:url(#SVGID_00000045592717379348428320000016512159538883006594_);" d="
			M25.7,18L25.7,18c1.6,0,2.8-1.2,2.8-2.6c0-1.4-1.2-2.6-2.8-2.6H25c0-0.2,0-0.4,0-0.5c0-2.2-1.9-4-4.2-4c-2.3,0-4.2,1.8-4.2,4
			c0,0.2,0,0.4,0,0.6c-0.2,0-0.4-0.1-0.6-0.1c-1.5,0-2.8,1.2-2.8,2.6c0,1.4,1.2,2.6,2.8,2.6L25.7,18L25.7,18z"/>
		<defs>
			
				<filter id="Adobe_OpacityMaskFilter_00000040535008659167987210000010644405110586057352_" filterUnits="userSpaceOnUse" x="11.7" y="6.6" width="18.3" height="12.9">
				<feColorMatrix  type="matrix" values="1 0 0 0 0  0 1 0 0 0  0 0 1 0 0  0 0 0 1 0"/>
			</filter>
		</defs>
		
			<mask maskUnits="userSpaceOnUse" x="11.7" y="6.6" width="18.3" height="12.9" id="n_00000112624728561608461410000002171515110084219317_">
			
				<path style="fill-rule:evenodd;clip-rule:evenodd;fill:#FFFFFF;filter:url(#Adobe_OpacityMaskFilter_00000040535008659167987210000010644405110586057352_);" d="
				M25.7,18L25.7,18c1.6,0,2.8-1.2,2.8-2.6c0-1.4-1.2-2.6-2.8-2.6H25c0-0.2,0-0.4,0-0.5c0-2.2-1.9-4-4.2-4c-2.3,0-4.2,1.8-4.2,4
				c0,0.2,0,0.4,0,0.6c-0.2,0-0.4-0.1-0.6-0.1c-1.5,0-2.8,1.2-2.8,2.6c0,1.4,1.2,2.6,2.8,2.6L25.7,18L25.7,18z"/>
		</mask>
		
			<linearGradient id="SVGID_00000026880415375180096000000014405378499640006277_" gradientUnits="userSpaceOnUse" x1="20.845" y1="23.8332" x2="20.845" y2="14.0416" gradientTransform="matrix(1 0 0 -1 0 32)">
			<stop  offset="0" style="stop-color:#FFFFFF"/>
			<stop  offset="1" style="stop-color:#FFFFFF;stop-opacity:0"/>
		</linearGradient>
		
			<path style="mask:url(#n_00000112624728561608461410000002171515110084219317_);fill:url(#SVGID_00000026880415375180096000000014405378499640006277_);" d="
			M25.7,18l0-1.5c-0.8,0-1.5,0.7-1.6,1.5c0,0,0,0,0,0H25.7z M25.7,12.7h-1.5c0,0.8,0.7,1.5,1.5,1.5c0,0,0,0,0,0
			C25.7,14.3,25.7,12.7,25.7,12.7z M25.7,12.7h1.5c0-0.8-0.7-1.5-1.5-1.5V12.7z M25,12.7l-1.5-0.2c-0.1,0.8,0.5,1.6,1.3,1.7
			c0.1,0,0.1,0,0.2,0V12.7L25,12.7z M16.6,12.8l-0.3,1.5c0.8,0.2,1.7-0.3,1.8-1.2c0-0.2,0-0.4,0-0.6L16.6,12.8z M16,18l1.2,1
			c0.5-0.7,0.5-1.6-0.2-2.2c-0.3-0.2-0.6-0.4-1-0.4C16,16.4,16,18,16,18z M16,18l-1.2-1c-0.5,0.7-0.5,1.6,0.2,2.2
			c0.3,0.2,0.6,0.4,1,0.4V18L16,18z M25.7,18v1.5c0.8,0,1.5-0.7,1.5-1.5H25.7z M25.7,19.5L25.7,19.5l0-3.1h0
			C25.7,16.4,25.7,19.5,25.7,19.5z M25.7,19.5c2.3,0,4.3-1.8,4.3-4.2h-3.1c0,0.5-0.5,1.1-1.2,1.1V19.5L25.7,19.5z M30,15.3
			c0-2.4-2-4.2-4.3-4.2v3.1c0.7,0,1.2,0.6,1.2,1.1C26.9,15.3,30,15.3,30,15.3z M25.7,11.2L25.7,11.2l0,3.1h0L25.7,11.2L25.7,11.2z
			 M24.1,12.7h3.1H24.1z M25,14.3h0.7v-3.1H25V14.3z M26.5,12.9c0-0.3,0.1-0.5,0.1-0.8h-3.1c0,0.1,0,0.2,0,0.3L26.5,12.9z
			 M26.5,12.2c0-3.1-2.7-5.6-5.8-5.6v3.1c1.6,0,2.7,1.2,2.7,2.5H26.5z M20.8,6.6C17.7,6.6,15,9,15,12.2h3.1c0-1.3,1.1-2.5,2.7-2.5
			V6.6z M15,12.2c0,0.3,0,0.6,0.1,0.9l3-0.5c0-0.1,0-0.2,0-0.4C18.1,12.2,15,12.2,15,12.2z M16.9,11.3c-0.3-0.1-0.6-0.1-1-0.1v3.1
			c0.1,0,0.2,0,0.3,0L16.9,11.3z M16,11.2c-2.3,0-4.3,1.8-4.3,4.2h3.1c0-0.5,0.5-1.1,1.2-1.1V11.2z M11.7,15.3c0,2.4,2,4.2,4.3,4.2
			v-3.1c-0.7,0-1.2-0.6-1.2-1.1L11.7,15.3L11.7,15.3z M16,19.5L16,19.5l0-3.1h0C16,16.4,16,19.5,16,19.5z M17.2,18.9l-2.4-2
			L17.2,18.9L17.2,18.9z M25.7,16.4H16v3.1h9.7V16.4z M24.1,18h3.1H24.1z"/>
	</g>
	<g>
		<g>
			
				<linearGradient id="SVGID_00000079484733041859416310000001386897521981732777_" gradientUnits="userSpaceOnUse" x1="7.555" y1="12.448" x2="6.3827" y2="8.3903" gradientTransform="matrix(1 0 0 -1 0 32)">
				<stop  offset="0" style="stop-color:#138EFF"/>
				<stop  offset="1" style="stop-color:#00E0FF"/>
			</linearGradient>
			
				<linearGradient id="SVGID_00000089547152181666548670000017570387904572856245_" gradientUnits="userSpaceOnUse" x1="7.7281" y1="13.0473" x2="6.3185" y2="8.1683" gradientTransform="matrix(1 0 0 -1 0 32)">
				<stop  offset="0" style="stop-color:#FFFFFF"/>
				<stop  offset="1" style="stop-color:#FFFFFF;stop-opacity:0"/>
			</linearGradient>
			
				<path style="fill:url(#SVGID_00000079484733041859416310000001386897521981732777_);stroke:url(#SVGID_00000089547152181666548670000017570387904572856245_);stroke-width:2;" d="
				M6.4,22.3L7,21.5l0.1,0.9c0,0.2-0.2,0.4-0.4,0.4c0,0-0.1,0-0.1,0c-0.2-0.1-0.3-0.3-0.3-0.5C6.4,22.4,6.4,22.3,6.4,22.3z"/>
			
				<linearGradient id="SVGID_00000124160973047903502140000012030789890383536270_" gradientUnits="userSpaceOnUse" x1="12.6481" y1="12.448" x2="11.4757" y2="8.3903" gradientTransform="matrix(1 0 0 -1 0 32)">
				<stop  offset="0" style="stop-color:#138EFF"/>
				<stop  offset="1" style="stop-color:#00E0FF"/>
			</linearGradient>
			
				<linearGradient id="SVGID_00000085238834073655680810000003449885762042907067_" gradientUnits="userSpaceOnUse" x1="12.8212" y1="13.0473" x2="11.4116" y2="8.1683" gradientTransform="matrix(1 0 0 -1 0 32)">
				<stop  offset="0" style="stop-color:#FFFFFF"/>
				<stop  offset="1" style="stop-color:#FFFFFF;stop-opacity:0"/>
			</linearGradient>
			
				<path style="fill:url(#SVGID_00000124160973047903502140000012030789890383536270_);stroke:url(#SVGID_00000085238834073655680810000003449885762042907067_);stroke-width:2;" d="
				M11.5,22.3l0.6-0.7l0.1,0.9c0,0.2-0.2,0.4-0.4,0.4c0,0-0.1,0-0.1,0c-0.2-0.1-0.3-0.3-0.3-0.5C11.4,22.4,11.5,22.3,11.5,22.3z"/>
			
				<linearGradient id="SVGID_00000033335890262452441390000008167813081351294898_" gradientUnits="userSpaceOnUse" x1="17.7416" y1="12.4478" x2="16.5686" y2="8.3901" gradientTransform="matrix(1 0 0 -1 0 32)">
				<stop  offset="0" style="stop-color:#138EFF"/>
				<stop  offset="1" style="stop-color:#00E0FF"/>
			</linearGradient>
			
				<linearGradient id="SVGID_00000155125828742442698580000013111850166177081500_" gradientUnits="userSpaceOnUse" x1="17.9149" y1="13.0472" x2="16.5044" y2="8.1683" gradientTransform="matrix(1 0 0 -1 0 32)">
				<stop  offset="0" style="stop-color:#FFFFFF"/>
				<stop  offset="1" style="stop-color:#FFFFFF;stop-opacity:0"/>
			</linearGradient>
			
				<path style="fill:url(#SVGID_00000033335890262452441390000008167813081351294898_);stroke:url(#SVGID_00000155125828742442698580000013111850166177081500_);stroke-width:2;" d="
				M16.6,22.3l0.6-0.7l0.1,0.9c0,0.2-0.2,0.4-0.4,0.4c0,0-0.1,0-0.1,0c-0.2-0.1-0.3-0.3-0.3-0.5C16.5,22.4,16.6,22.3,16.6,22.3z"/>
		</g>
	</g>
	<g>
		<g>
			
				<linearGradient id="SVGID_00000125565842764971324400000009444670551246856844_" gradientUnits="userSpaceOnUse" x1="8.899" y1="8.6172" x2="7.7267" y2="4.5602" gradientTransform="matrix(1 0 0 -1 0 32)">
				<stop  offset="0" style="stop-color:#138EFF"/>
				<stop  offset="1" style="stop-color:#00E0FF"/>
			</linearGradient>
			
				<linearGradient id="SVGID_00000094603807798594128150000010716238511111308197_" gradientUnits="userSpaceOnUse" x1="9.0722" y1="9.2165" x2="7.6623" y2="4.3375" gradientTransform="matrix(1 0 0 -1 0 32)">
				<stop  offset="0" style="stop-color:#FFFFFF"/>
				<stop  offset="1" style="stop-color:#FFFFFF;stop-opacity:0"/>
			</linearGradient>
			
				<path style="fill:url(#SVGID_00000125565842764971324400000009444670551246856844_);stroke:url(#SVGID_00000094603807798594128150000010716238511111308197_);stroke-width:2;" d="
				M7.8,26.1l0.6-0.7l0.1,0.9c0,0.2-0.2,0.4-0.4,0.4c0,0-0.1,0-0.1,0c-0.2-0.1-0.3-0.3-0.3-0.5C7.7,26.2,7.7,26.2,7.8,26.1z"/>
			
				<linearGradient id="SVGID_00000082357604071150329020000005908995133401745077_" gradientUnits="userSpaceOnUse" x1="13.2026" y1="8.617" x2="12.0295" y2="4.5601" gradientTransform="matrix(1 0 0 -1 0 32)">
				<stop  offset="0" style="stop-color:#138EFF"/>
				<stop  offset="1" style="stop-color:#00E0FF"/>
			</linearGradient>
			
				<linearGradient id="SVGID_00000109023014698933714750000011866244946666005154_" gradientUnits="userSpaceOnUse" x1="13.3759" y1="9.2163" x2="11.9651" y2="4.3376" gradientTransform="matrix(1 0 0 -1 0 32)">
				<stop  offset="0" style="stop-color:#FFFFFF"/>
				<stop  offset="1" style="stop-color:#FFFFFF;stop-opacity:0"/>
			</linearGradient>
			
				<path style="fill:url(#SVGID_00000082357604071150329020000005908995133401745077_);stroke:url(#SVGID_00000109023014698933714750000011866244946666005154_);stroke-width:2;" d="
				M12.1,26.1l0.6-0.7l0.1,0.9c0,0.2-0.2,0.4-0.4,0.4c0,0-0.1,0-0.1,0c-0.2-0.1-0.3-0.3-0.3-0.5C12,26.2,12,26.2,12.1,26.1z"/>
		</g>
	</g>
</g>
</svg>
