<?xml version="1.0" encoding="utf-8"?>
<!-- Generator: $$$/GeneralStr/196=Adobe Illustrator 27.6.0, SVG Export Plug-In . SVG Version: 6.00 Build 0)  -->
<svg version="1.1" id="Calque_1" xmlns="http://www.w3.org/2000/svg" xmlns:xlink="http://www.w3.org/1999/xlink" x="0px" y="0px"
	 viewBox="0 0 30 30" style="enable-background:new 0 0 30 30;" xml:space="preserve">
<style type="text/css">
	.st0{fill-rule:evenodd;clip-rule:evenodd;fill:url(#SVGID_1_);}
	.st1{fill-rule:evenodd;clip-rule:evenodd;fill:#FFFFFF;filter:url(#Adobe_OpacityMaskFilter);}
	
		.st2{mask:url(#d_00000181784147286725350340000018424870326921664937_);fill:url(#SVGID_00000111878906382578258940000002275657154673827254_);}
	.st3{fill-rule:evenodd;clip-rule:evenodd;fill:url(#SVGID_00000105402109394281470480000012566006127634677380_);}
	
		.st4{fill-rule:evenodd;clip-rule:evenodd;fill:#FFFFFF;filter:url(#Adobe_OpacityMaskFilter_00000134933547682707048950000017520124212789077177_);}
	
		.st5{mask:url(#h_00000087408933508337977030000002206463071770564756_);fill:url(#SVGID_00000001640331830954475160000007861743286389361327_);}
	
		.st6{fill:url(#SVGID_00000134971838176226749130000004127815976375341711_);stroke:url(#SVGID_00000112625985943699560220000001848666711571356037_);stroke-width:2;}
	
		.st7{fill:url(#SVGID_00000020370317790997100700000014155178311514706595_);stroke:url(#SVGID_00000181786138652235508270000002904719931125606064_);stroke-width:2;}
	
		.st8{fill:url(#SVGID_00000122699777228138977540000016763503803573330608_);stroke:url(#SVGID_00000155125174658795619950000016939310118396249017_);stroke-width:2;}
	
		.st9{fill:url(#SVGID_00000154404879811361816570000016257914767694005643_);stroke:url(#SVGID_00000139972492991576924990000009004729463188925628_);stroke-width:2;}
	
		.st10{fill:url(#SVGID_00000110430473273853579790000007202230273517520541_);stroke:url(#SVGID_00000157298462948693894850000016507969587732253099_);stroke-width:2;}
</style>
<g>
	<g>
		
			<linearGradient id="SVGID_1_" gradientUnits="userSpaceOnUse" x1="12.0773" y1="30.8883" x2="12.0773" y2="8.8303" gradientTransform="matrix(1 0 0 -1 0 32)">
			<stop  offset="0" style="stop-color:#FFFFFF"/>
			<stop  offset="1" style="stop-color:#FFFFFF;stop-opacity:0"/>
		</linearGradient>
		<path shape-rendering="crispEdges" class="st0" d="M18.8,21.1L18.8,21.1c2.1,0,3.9-1.8,3.9-4c0-2.2-1.7-4-3.8-4h-1
			c0-0.3,0.1-0.6,0.1-0.8c0-3.4-2.6-6.2-5.8-6.2c-3.2,0-5.8,2.8-5.8,6.2c0,0.3,0,0.6,0.1,0.9C5.9,13,5.6,13,5.3,13
			c-2.1,0-3.8,1.8-3.8,4s1.7,4,3.8,4C5.3,21.1,18.8,21.1,18.8,21.1z"/>
		<defs>
			<filter id="Adobe_OpacityMaskFilter" filterUnits="userSpaceOnUse" x="0" y="4.7" width="24.2" height="17.7">
				<feColorMatrix  type="matrix" values="1 0 0 0 0  0 1 0 0 0  0 0 1 0 0  0 0 0 1 0"/>
			</filter>
		</defs>
		
			<mask maskUnits="userSpaceOnUse" x="0" y="4.7" width="24.2" height="17.7" id="d_00000181784147286725350340000018424870326921664937_">
			<path class="st1" d="M18.8,21.1L18.8,21.1c2.1,0,3.9-1.8,3.9-4c0-2.2-1.7-4-3.8-4h-1c0-0.3,0.1-0.6,0.1-0.8
				c0-3.4-2.6-6.2-5.8-6.2c-3.2,0-5.8,2.8-5.8,6.2c0,0.3,0,0.6,0.1,0.9C5.9,13,5.6,13,5.3,13c-2.1,0-3.8,1.8-3.8,4s1.7,4,3.8,4
				C5.3,21.1,18.8,21.1,18.8,21.1z"/>
		</mask>
		
			<linearGradient id="SVGID_00000033368247184931721270000009683485334392374151_" gradientUnits="userSpaceOnUse" x1="12.0773" y1="26.0543" x2="12.0773" y2="10.9422" gradientTransform="matrix(1 0 0 -1 0 32)">
			<stop  offset="0" style="stop-color:#FFFFFF"/>
			<stop  offset="1" style="stop-color:#FFFFFF;stop-opacity:0"/>
		</linearGradient>
		
			<path style="mask:url(#d_00000181784147286725350340000018424870326921664937_);fill:url(#SVGID_00000033368247184931721270000009683485334392374151_);" d="
			M18.8,21.1l0-1.3c-0.8,0-1.5,0.6-1.6,1.3c0,0,0,0,0,0H18.8z M18.8,13h-1.5c0,0.7,0.7,1.3,1.5,1.3c0,0,0,0,0,0
			C18.8,14.3,18.8,13,18.8,13z M18.8,13h1.5c0-0.7-0.7-1.3-1.5-1.3V13z M17.8,13l-1.5-0.1c-0.1,0.7,0.5,1.3,1.4,1.4
			c0.1,0,0.1,0,0.2,0V13L17.8,13z M6.2,13.1l-0.4,1.2c0.8,0.2,1.7-0.2,1.9-0.9c0.1-0.2,0.1-0.3,0.1-0.5L6.2,13.1L6.2,13.1z
			 M5.4,21.1l1.3,0.7c0.4-0.6,0.2-1.4-0.5-1.8c-0.2-0.1-0.5-0.2-0.8-0.2L5.4,21.1L5.4,21.1z M5.4,21.1l-1.3-0.7
			c-0.4,0.6-0.2,1.4,0.5,1.8c0.2,0.1,0.5,0.2,0.8,0.2L5.4,21.1L5.4,21.1z M18.8,21.1v1.3c0.8,0,1.5-0.6,1.5-1.3H18.8z M18.7,22.3
			L18.7,22.3l0.1-2.6h0L18.7,22.3z M18.8,22.3c3.3,0,5.3-2.7,5.3-5.3h-3.1c0,1.8-1.3,2.8-2.3,2.8V22.3z M24.2,17
			c0-2.6-2.1-5.3-5.3-5.3v2.6c0.9,0,2.3,0.9,2.3,2.8H24.2z M18.8,11.7L18.8,11.7l0,2.6h0V11.7z M17.2,13h3.1H17.2z M17.8,14.3h1
			v-2.6h-1V14.3z M19.3,13.1c0-0.3,0.1-0.6,0.1-1h-3.1c0,0.2,0,0.5,0,0.7L19.3,13.1z M19.4,12.1c0-3.8-3-7.5-7.4-7.5v2.6
			c2.1,0,4.3,1.9,4.3,4.9H19.4L19.4,12.1z M12,4.7c-4.4,0-7.4,3.7-7.4,7.5h3.1c0-3,2.3-4.9,4.3-4.9L12,4.7L12,4.7z M4.6,12.1
			c0,0.4,0,0.7,0.1,1.1l3.1-0.3c0-0.3-0.1-0.5-0.1-0.8H4.6z M6.6,11.9c-0.4-0.1-0.9-0.2-1.3-0.2v2.6c0.1,0,0.3,0,0.4,0.1
			C5.8,14.3,6.6,11.9,6.6,11.9z M5.3,11.7C2.1,11.7,0,14.4,0,17h3.1c0-1.8,1.3-2.8,2.3-2.8L5.3,11.7L5.3,11.7z M0,17
			c0,2.6,2.1,5.3,5.3,5.3v-2.6c-0.9,0-2.3-0.9-2.3-2.8H0z M5.3,22.3L5.3,22.3l0-2.6h0L5.3,22.3L5.3,22.3z M6.7,21.7l-2.6-1.3
			L6.7,21.7z M18.8,19.8H5.4v2.6h13.4C18.8,22.3,18.8,19.8,18.8,19.8z M17.2,21.1h3.1H17.2z"/>
	</g>
	<g>
		
			<linearGradient id="SVGID_00000120547939906794016640000016479176686506501788_" gradientUnits="userSpaceOnUse" x1="20.845" y1="25.7255" x2="20.845" y2="13.8989" gradientTransform="matrix(1 0 0 -1 0 32)">
			<stop  offset="0" style="stop-color:#FFFFFF"/>
			<stop  offset="1" style="stop-color:#FFFFFF;stop-opacity:0"/>
		</linearGradient>
		
			<path shape-rendering="crispEdges" style="fill-rule:evenodd;clip-rule:evenodd;fill:url(#SVGID_00000120547939906794016640000016479176686506501788_);" d="
			M25.7,16.9L25.7,16.9c1.6,0,2.8-1.3,2.8-2.9c0-1.6-1.2-2.9-2.8-2.9H25c0-0.2,0-0.4,0-0.6c0-2.5-1.9-4.5-4.2-4.5
			c-2.3,0-4.2,2-4.2,4.5c0,0.2,0,0.5,0,0.7c-0.2,0-0.4-0.1-0.6-0.1c-1.5,0-2.8,1.3-2.8,2.9c0,1.6,1.2,2.9,2.8,2.9L25.7,16.9
			L25.7,16.9z"/>
		<defs>
			
				<filter id="Adobe_OpacityMaskFilter_00000006677101454747495650000009670207545597942656_" filterUnits="userSpaceOnUse" x="11.7" y="4.7" width="18.3" height="13.5">
				<feColorMatrix  type="matrix" values="1 0 0 0 0  0 1 0 0 0  0 0 1 0 0  0 0 0 1 0"/>
			</filter>
		</defs>
		
			<mask maskUnits="userSpaceOnUse" x="11.7" y="4.7" width="18.3" height="13.5" id="h_00000087408933508337977030000002206463071770564756_">
			
				<path style="fill-rule:evenodd;clip-rule:evenodd;fill:#FFFFFF;filter:url(#Adobe_OpacityMaskFilter_00000006677101454747495650000009670207545597942656_);" d="
				M25.7,16.9L25.7,16.9c1.6,0,2.8-1.3,2.8-2.9c0-1.6-1.2-2.9-2.8-2.9H25c0-0.2,0-0.4,0-0.6c0-2.5-1.9-4.5-4.2-4.5
				c-2.3,0-4.2,2-4.2,4.5c0,0.2,0,0.5,0,0.7c-0.2,0-0.4-0.1-0.6-0.1c-1.5,0-2.8,1.3-2.8,2.9c0,1.6,1.2,2.9,2.8,2.9L25.7,16.9
				L25.7,16.9z"/>
		</mask>
		
			<linearGradient id="SVGID_00000114066252188528420990000004146495465595804593_" gradientUnits="userSpaceOnUse" x1="20.845" y1="26.0543" x2="20.845" y2="15.1333" gradientTransform="matrix(1 0 0 -1 0 32)">
			<stop  offset="0" style="stop-color:#FFFFFF"/>
			<stop  offset="1" style="stop-color:#FFFFFF;stop-opacity:0"/>
		</linearGradient>
		
			<path style="mask:url(#h_00000087408933508337977030000002206463071770564756_);fill:url(#SVGID_00000114066252188528420990000004146495465595804593_);" d="
			M25.7,16.9l0-1.3c-0.8,0-1.5,0.6-1.6,1.3c0,0,0,0,0,0H25.7z M25.7,11h-1.5c0,0.7,0.7,1.3,1.5,1.3c0,0,0,0,0,0L25.7,11z M25.7,11
			h1.5c0-0.7-0.7-1.3-1.5-1.3V11z M25,11l-1.5-0.1c-0.1,0.7,0.5,1.3,1.4,1.4c0.1,0,0.1,0,0.2,0V11z M16.6,11.1l-0.4,1.2
			c0.8,0.2,1.7-0.2,1.9-0.9c0.1-0.2,0.1-0.3,0.1-0.5C18.1,11,16.6,11.1,16.6,11.1z M16,16.9l1.3,0.7c0.4-0.6,0.2-1.4-0.5-1.8
			c-0.3-0.1-0.5-0.2-0.8-0.2L16,16.9z M16,16.9l-1.3-0.7c-0.4,0.6-0.2,1.4,0.5,1.8c0.2,0.1,0.5,0.2,0.8,0.2V16.9z M25.7,16.9v1.3
			c0.8,0,1.5-0.6,1.5-1.3H25.7z M25.7,18.1L25.7,18.1l0.1-2.6h0L25.7,18.1z M25.7,18.1c2.7,0,4.3-2.2,4.3-4.2h-3.1
			c0,1.2-0.9,1.6-1.2,1.6V18.1z M30,14c0-2-1.6-4.2-4.3-4.2v2.6c0.3,0,1.2,0.4,1.2,1.6L30,14L30,14z M25.7,9.8L25.7,9.8l0,2.6h0V9.8
			z M24.1,11h3.1H24.1z M25,12.3h0.7V9.8H25V12.3z M26.5,11.2c0-0.2,0-0.5,0-0.7h-3.1c0,0.2,0,0.3,0,0.5
			C23.4,10.9,26.5,11.2,26.5,11.2z M26.5,10.4c0-2.9-2.3-5.8-5.8-5.8v2.6c1.2,0,2.7,1.1,2.7,3.2H26.5z M20.8,4.7
			c-3.5,0-5.8,2.9-5.8,5.8h3.1c0-2.1,1.5-3.2,2.7-3.2V4.7z M15,10.4c0,0.3,0,0.6,0.1,0.8l3.1-0.3c0-0.2,0-0.4,0-0.5H15L15,10.4z
			 M17,9.9c-0.3-0.1-0.7-0.1-1.1-0.1v2.6c0.1,0,0.1,0,0.2,0L17,9.9L17,9.9z M16,9.8c-2.7,0-4.3,2.2-4.3,4.2h3.1
			c0-1.2,0.9-1.6,1.2-1.6V9.8z M11.7,13.9c0,2,1.6,4.2,4.3,4.2v-2.6c-0.3,0-1.2-0.4-1.2-1.6L11.7,13.9L11.7,13.9z M16,18.1L16,18.1
			l0-2.6h0V18.1z M17.3,17.5l-2.6-1.4L17.3,17.5z M25.7,15.6H16v2.6h9.7C25.7,18.1,25.7,15.6,25.7,15.6z M24.1,16.9h3.1H24.1z"/>
	</g>
	<g>
		<g>
			
				<linearGradient id="SVGID_00000176041863588448075740000013849189979702974336_" gradientUnits="userSpaceOnUse" x1="11.1295" y1="14.7146" x2="9.4502" y2="10.3744" gradientTransform="matrix(1 0 0 -1 0 32)">
				<stop  offset="0" style="stop-color:#FFFFFF"/>
				<stop  offset="1" style="stop-color:#00E0FF"/>
			</linearGradient>
			
				<linearGradient id="SVGID_00000108276916830723327050000008613904314762195134_" gradientUnits="userSpaceOnUse" x1="11.3915" y1="15.3918" x2="9.3251" y2="10.0512" gradientTransform="matrix(1 0 0 -1 0 32)">
				<stop  offset="0" style="stop-color:#FFFFFF"/>
				<stop  offset="1" style="stop-color:#FFFFFF;stop-opacity:0"/>
			</linearGradient>
			
				<path style="fill:url(#SVGID_00000176041863588448075740000013849189979702974336_);stroke:url(#SVGID_00000108276916830723327050000008613904314762195134_);stroke-width:2;" d="
				M9.4,20.4l0.8-1.1l0.1,1.4c0,0.3-0.3,0.5-0.6,0.4C9.4,20.9,9.2,20.6,9.4,20.4L9.4,20.4z"/>
			
				<linearGradient id="SVGID_00000052089808102825981690000000313384289738871191_" gradientUnits="userSpaceOnUse" x1="16.2226" y1="14.7146" x2="14.5432" y2="10.3744" gradientTransform="matrix(1 0 0 -1 0 32)">
				<stop  offset="0" style="stop-color:#FFFFFF"/>
				<stop  offset="1" style="stop-color:#00E0FF"/>
			</linearGradient>
			
				<linearGradient id="SVGID_00000120546901893116804110000002566857325376735929_" gradientUnits="userSpaceOnUse" x1="16.4846" y1="15.3918" x2="14.4182" y2="10.0512" gradientTransform="matrix(1 0 0 -1 0 32)">
				<stop  offset="0" style="stop-color:#FFFFFF"/>
				<stop  offset="1" style="stop-color:#FFFFFF;stop-opacity:0"/>
			</linearGradient>
			
				<path style="fill:url(#SVGID_00000052089808102825981690000000313384289738871191_);stroke:url(#SVGID_00000120546901893116804110000002566857325376735929_);stroke-width:2;" d="
				M14.5,20.4l0.8-1.1l0.1,1.4c0,0.3-0.3,0.5-0.6,0.4C14.5,20.9,14.3,20.6,14.5,20.4L14.5,20.4z"/>
			
				<linearGradient id="SVGID_00000039126739444076099420000013739154739261312926_" gradientUnits="userSpaceOnUse" x1="21.3156" y1="14.7146" x2="19.6363" y2="10.3744" gradientTransform="matrix(1 0 0 -1 0 32)">
				<stop  offset="0" style="stop-color:#FFFFFF"/>
				<stop  offset="1" style="stop-color:#00E0FF"/>
			</linearGradient>
			
				<linearGradient id="SVGID_00000114755581619168172870000002257395213882380478_" gradientUnits="userSpaceOnUse" x1="21.5777" y1="15.3918" x2="19.5112" y2="10.0512" gradientTransform="matrix(1 0 0 -1 0 32)">
				<stop  offset="0" style="stop-color:#FFFFFF"/>
				<stop  offset="1" style="stop-color:#FFFFFF;stop-opacity:0"/>
			</linearGradient>
			
				<path style="fill:url(#SVGID_00000039126739444076099420000013739154739261312926_);stroke:url(#SVGID_00000114755581619168172870000002257395213882380478_);stroke-width:2;" d="
				M19.6,20.4l0.8-1.1l0.1,1.4c0,0.3-0.3,0.5-0.6,0.4C19.6,20.9,19.4,20.6,19.6,20.4L19.6,20.4z"/>
		</g>
	</g>
	<g>
		<g>
			
				<linearGradient id="SVGID_00000009562391251757851550000001103196526583103628_" gradientUnits="userSpaceOnUse" x1="12.4735" y1="10.4419" x2="10.7942" y2="6.1019" gradientTransform="matrix(1 0 0 -1 0 32)">
				<stop  offset="0" style="stop-color:#FFFFFF"/>
				<stop  offset="1" style="stop-color:#00E0FF"/>
			</linearGradient>
			
				<linearGradient id="SVGID_00000139294154946621065520000013859933798165583270_" gradientUnits="userSpaceOnUse" x1="12.7355" y1="11.1192" x2="10.6692" y2="5.7788" gradientTransform="matrix(1 0 0 -1 0 32)">
				<stop  offset="0" style="stop-color:#FFFFFF"/>
				<stop  offset="1" style="stop-color:#FFFFFF;stop-opacity:0"/>
			</linearGradient>
			
				<path style="fill:url(#SVGID_00000009562391251757851550000001103196526583103628_);stroke:url(#SVGID_00000139294154946621065520000013859933798165583270_);stroke-width:2;" d="
				M10.8,24.6l0.8-1.1l0.1,1.4c0,0.3-0.3,0.5-0.6,0.4C10.7,25.2,10.6,24.9,10.8,24.6L10.8,24.6z"/>
			
				<linearGradient id="SVGID_00000131345760497428377790000006412166670325850297_" gradientUnits="userSpaceOnUse" x1="16.7762" y1="10.4421" x2="15.097" y2="6.102" gradientTransform="matrix(1 0 0 -1 0 32)">
				<stop  offset="0" style="stop-color:#FFFFFF"/>
				<stop  offset="0.608" style="stop-color:#64ECFF"/>
				<stop  offset="1" style="stop-color:#00E0FF"/>
			</linearGradient>
			
				<linearGradient id="SVGID_00000134953617113936714400000015172524710200878252_" gradientUnits="userSpaceOnUse" x1="17.0384" y1="11.1195" x2="14.972" y2="5.779" gradientTransform="matrix(1 0 0 -1 0 32)">
				<stop  offset="0" style="stop-color:#FFFFFF"/>
				<stop  offset="1" style="stop-color:#FFFFFF;stop-opacity:0"/>
			</linearGradient>
			
				<path style="fill:url(#SVGID_00000131345760497428377790000006412166670325850297_);stroke:url(#SVGID_00000134953617113936714400000015172524710200878252_);stroke-width:2;" d="
				M15.1,24.6l0.8-1.1l0.1,1.4c0,0.3-0.3,0.5-0.6,0.4C15,25.2,14.9,24.9,15.1,24.6z"/>
		</g>
	</g>
</g>
</svg>
