<?xml version="1.0" encoding="utf-8"?>
<!-- Generator: $$$/GeneralStr/196=Adobe Illustrator 27.6.0, SVG Export Plug-In . SVG Version: 6.00 Build 0)  -->
<svg version="1.1" id="Calque_1" xmlns="http://www.w3.org/2000/svg" xmlns:xlink="http://www.w3.org/1999/xlink" x="0px" y="0px"
	 viewBox="0 0 30 30" style="enable-background:new 0 0 30 30;" xml:space="preserve">
<style type="text/css">
	.st0{fill-rule:evenodd;clip-rule:evenodd;fill:url(#SVGID_1_);}
	.st1{fill-rule:evenodd;clip-rule:evenodd;fill:#FFFFFF;filter:url(#Adobe_OpacityMaskFilter);}
	
		.st2{mask:url(#d_00000106119189484181978020000015447202278697141178_);fill:url(#SVGID_00000085960888151437813680000017526311497229178244_);}
	.st3{fill-rule:evenodd;clip-rule:evenodd;fill:url(#SVGID_00000060003276943958646380000001211728619485129088_);}
	
		.st4{fill-rule:evenodd;clip-rule:evenodd;fill:#FFFFFF;filter:url(#Adobe_OpacityMaskFilter_00000032640668422734825860000001508453311860119968_);}
	
		.st5{mask:url(#h_00000120554991074543072130000010310570461972809888_);fill:url(#SVGID_00000153698420758854284820000000941807192520553872_);}
	.st6{fill:url(#SVGID_00000096738605923417950640000009972522377776318083_);}
	.st7{fill:none;stroke:url(#SVGID_00000165916879499327200380000002838427778711913369_);stroke-width:2;}
	.st8{fill-rule:evenodd;clip-rule:evenodd;fill:url(#SVGID_00000104681849491649376160000015596407551265348764_);}
	
		.st9{fill-rule:evenodd;clip-rule:evenodd;fill:#FFFFFF;filter:url(#Adobe_OpacityMaskFilter_00000036238091068165278310000004434315424679702677_);}
	
		.st10{mask:url(#o_00000107559327015113582980000016700759587850308493_);fill:url(#SVGID_00000032645831725872018810000006380841282213106314_);}
	
		.st11{fill:url(#SVGID_00000145022158533931210080000008908432296207945662_);stroke:url(#SVGID_00000045620773643727664840000009007045100658818953_);stroke-width:2;}
	
		.st12{fill:url(#SVGID_00000055687015415724845950000008713106430563427230_);stroke:url(#SVGID_00000179626615282466641880000015038006049392525974_);stroke-width:2;}
	
		.st13{fill:url(#SVGID_00000119796540163668284370000013584434503038948539_);stroke:url(#SVGID_00000117651892191671861060000000886545552024065418_);stroke-width:2;}
	
		.st14{fill:url(#SVGID_00000124883227762737172740000002835930194461550228_);stroke:url(#SVGID_00000167353848978625119820000016310654030792847263_);stroke-width:2;}
	
		.st15{fill:url(#SVGID_00000178195651700908071330000010392520137033303447_);stroke:url(#SVGID_00000001633674590987365300000000702263256525641615_);stroke-width:2;}
</style>
<g>
	
		<linearGradient id="SVGID_1_" gradientUnits="userSpaceOnUse" x1="8.269" y1="27.0392" x2="8.269" y2="17.0187" gradientTransform="matrix(1 0 0 -1 0 32)">
		<stop  offset="0" style="stop-color:#FFFFFF"/>
		<stop  offset="1" style="stop-color:#FFFFFF;stop-opacity:0"/>
	</linearGradient>
	<path shape-rendering="crispEdges" class="st0" d="M12.5,13.9L12.5,13.9c1.4,0,2.5-1.1,2.5-2.5S13.9,9,12.6,9h-0.7
		c0-0.2,0-0.3,0-0.5c0-2.1-1.7-3.8-3.7-3.8S4.5,6.4,4.5,8.5c0,0.2,0,0.4,0,0.6C4.3,9,4.2,9,4,9c-1.3,0-2.4,1.1-2.4,2.5
		s1.1,2.5,2.4,2.5C4,13.9,12.5,13.9,12.5,13.9z"/>
	<defs>
		<filter id="Adobe_OpacityMaskFilter" filterUnits="userSpaceOnUse" x="0" y="3.1" width="16.5" height="12.3">
			<feColorMatrix  type="matrix" values="1 0 0 0 0  0 1 0 0 0  0 0 1 0 0  0 0 0 1 0"/>
		</filter>
	</defs>
	
		<mask maskUnits="userSpaceOnUse" x="0" y="3.1" width="16.5" height="12.3" id="d_00000106119189484181978020000015447202278697141178_">
		<path class="st1" d="M12.5,13.9L12.5,13.9c1.4,0,2.5-1.1,2.5-2.5S13.9,9,12.6,9h-0.7c0-0.2,0-0.3,0-0.5c0-2.1-1.7-3.8-3.7-3.8
			S4.5,6.4,4.5,8.5c0,0.2,0,0.4,0,0.6C4.3,9,4.2,9,4,9c-1.3,0-2.4,1.1-2.4,2.5s1.1,2.5,2.4,2.5C4,13.9,12.5,13.9,12.5,13.9z"/>
	</mask>
	
		<linearGradient id="SVGID_00000022523602441321685910000012576067532674490760_" gradientUnits="userSpaceOnUse" x1="8.2694" y1="27.3177" x2="8.2694" y2="18.0641" gradientTransform="matrix(1 0 0 -1 0 32)">
		<stop  offset="0" style="stop-color:#FFFFFF"/>
		<stop  offset="1" style="stop-color:#FFFFFF;stop-opacity:0"/>
	</linearGradient>
	
		<path style="mask:url(#d_00000106119189484181978020000015447202278697141178_);fill:url(#SVGID_00000022523602441321685910000012576067532674490760_);" d="
		M12.5,13.9l0-1.5c-0.8,0-1.5,0.7-1.6,1.5c0,0,0,0,0,0H12.5z M12.5,9H11c0,0.8,0.7,1.5,1.5,1.5c0,0,0,0,0,0L12.5,9z M12.5,9h1.5
		c0-0.8-0.7-1.5-1.5-1.5V9z M11.9,9l-1.5-0.2c-0.1,0.8,0.5,1.6,1.3,1.7c0.1,0,0.1,0,0.2,0V9z M4.5,9.1l-0.4,1.5
		C5,10.8,5.8,10.2,6,9.4c0-0.2,0.1-0.4,0-0.6L4.5,9.1L4.5,9.1z M4,13.9l1.2,0.9c0.5-0.7,0.4-1.6-0.3-2.2c-0.3-0.2-0.6-0.3-1-0.3
		C4,12.4,4,13.9,4,13.9z M4,13.9L2.8,13c-0.5,0.7-0.4,1.6,0.3,2.2c0.3,0.2,0.6,0.3,0.9,0.3V13.9z M12.5,13.9v1.5
		c0.8,0,1.5-0.7,1.5-1.5H12.5z M12.5,15.5L12.5,15.5l0-3.1h0L12.5,15.5z M12.6,15.5c2.2,0,4-1.8,4-4h-3.1c0,0.5-0.4,0.9-0.9,0.9
		V15.5z M16.5,11.5c0-2.2-1.8-4-4-4v3.1c0.5,0,0.9,0.4,0.9,0.9H16.5z M12.6,7.5L12.6,7.5l0,3.1h0V7.5z M11,9h3.1H11z M11.9,10.5h0.6
		V7.5h-0.6V10.5z M13.4,9.2c0-0.2,0-0.5,0-0.7h-3.1c0,0.1,0,0.2,0,0.3C10.4,8.8,13.4,9.2,13.4,9.2z M13.5,8.5c0-2.9-2.3-5.3-5.3-5.3
		v3.1c1.2,0,2.2,1,2.2,2.3C10.4,8.5,13.5,8.5,13.5,8.5z M8.2,3.1c-2.9,0-5.3,2.4-5.3,5.3H6c0-1.3,1-2.3,2.2-2.3V3.1z M2.9,8.5
		C2.9,8.8,3,9,3,9.3l3-0.5c0-0.1,0-0.2,0-0.4C6,8.5,2.9,8.5,2.9,8.5z M4.9,7.6C4.6,7.5,4.3,7.5,4,7.5v3.1c0.1,0,0.1,0,0.2,0
		C4.2,10.6,4.9,7.6,4.9,7.6z M4,7.5c-2.2,0-4,1.8-4,4h3.1c0-0.5,0.4-0.9,0.9-0.9V7.5z M0,11.5c0,2.2,1.8,4,4,4v-3.1
		c-0.5,0-0.9-0.4-0.9-0.9H0z M4,15.5L4,15.5l0-3.1h0V15.5z M5.2,14.9L2.8,13L5.2,14.9L5.2,14.9z M12.5,12.4H4v3.1h8.5L12.5,12.4
		L12.5,12.4z M11,13.9h3.1H11z"/>
</g>
<g>
	
		<linearGradient id="SVGID_00000161627116451385939850000017988282701336656024_" gradientUnits="userSpaceOnUse" x1="13.9823" y1="28.6299" x2="13.9823" y2="9.9404" gradientTransform="matrix(1 0 0 -1 0 32)">
		<stop  offset="0" style="stop-color:#FFFFFF"/>
		<stop  offset="1" style="stop-color:#FFFFFF;stop-opacity:0"/>
	</linearGradient>
	
		<path shape-rendering="crispEdges" style="fill-rule:evenodd;clip-rule:evenodd;fill:url(#SVGID_00000161627116451385939850000017988282701336656024_);" d="
		M19.9,20.3L19.9,20.3c1.9,0,3.4-1.5,3.4-3.4c0-1.9-1.5-3.4-3.4-3.4H19c0-0.2,0-0.5,0-0.7c0-2.9-2.3-5.2-5.2-5.2
		c-2.9,0-5.2,2.3-5.2,5.2c0,0.3,0,0.5,0.1,0.8c-0.3-0.1-0.5-0.1-0.8-0.1c-1.9,0-3.4,1.5-3.4,3.4c0,1.9,1.5,3.4,3.4,3.4H19.9z"/>
	<defs>
		
			<filter id="Adobe_OpacityMaskFilter_00000077294605923989547340000014221320597362311048_" filterUnits="userSpaceOnUse" x="3.1" y="5.9" width="21.7" height="15.9">
			<feColorMatrix  type="matrix" values="1 0 0 0 0  0 1 0 0 0  0 0 1 0 0  0 0 0 1 0"/>
		</filter>
	</defs>
	
		<mask maskUnits="userSpaceOnUse" x="3.1" y="5.9" width="21.7" height="15.9" id="h_00000120554991074543072130000010310570461972809888_">
		
			<path style="fill-rule:evenodd;clip-rule:evenodd;fill:#FFFFFF;filter:url(#Adobe_OpacityMaskFilter_00000077294605923989547340000014221320597362311048_);" d="
			M19.9,20.3L19.9,20.3c1.9,0,3.4-1.5,3.4-3.4c0-1.9-1.5-3.4-3.4-3.4H19c0-0.2,0-0.5,0-0.7c0-2.9-2.3-5.2-5.2-5.2
			c-2.9,0-5.2,2.3-5.2,5.2c0,0.3,0,0.5,0.1,0.8c-0.3-0.1-0.5-0.1-0.8-0.1c-1.9,0-3.4,1.5-3.4,3.4c0,1.9,1.5,3.4,3.4,3.4H19.9z"/>
	</mask>
	
		<linearGradient id="SVGID_00000042720810855146542920000002964707329978633634_" gradientUnits="userSpaceOnUse" x1="13.9823" y1="24.5339" x2="13.9823" y2="11.7296" gradientTransform="matrix(1 0 0 -1 0 32)">
		<stop  offset="0" style="stop-color:#FFFFFF"/>
		<stop  offset="1" style="stop-color:#FFFFFF;stop-opacity:0"/>
	</linearGradient>
	
		<path style="mask:url(#h_00000120554991074543072130000010310570461972809888_);fill:url(#SVGID_00000042720810855146542920000002964707329978633634_);" d="
		M19.9,20.3l0-1.5c-0.8,0-1.5,0.7-1.6,1.5c0,0,0,0,0,0H19.9z M19.9,13.4h-1.5c0,0.8,0.7,1.5,1.5,1.5c0,0,0,0,0,0
		C19.9,15,19.9,13.4,19.9,13.4z M19.9,13.4h1.5c0-0.8-0.7-1.5-1.5-1.5V13.4z M19,13.4l-1.5-0.2c-0.1,0.8,0.5,1.6,1.3,1.7
		c0.1,0,0.1,0,0.2,0C19,15,19,13.4,19,13.4z M8.8,13.5L8.4,15c0.8,0.2,1.7-0.3,1.9-1.1c0-0.2,0.1-0.4,0-0.6L8.8,13.5L8.8,13.5z
		 M8.1,20.3l1.2,0.9c0.5-0.7,0.4-1.6-0.3-2.2c-0.3-0.2-0.6-0.3-1-0.3C8.1,18.7,8.1,20.3,8.1,20.3z M8.1,20.3l-1.2-0.9
		C6.3,20,6.5,21,7.1,21.5c0.3,0.2,0.6,0.3,0.9,0.3V20.3z M19.9,20.3v1.5c0.8,0,1.5-0.7,1.5-1.5H19.9z M19.9,21.8L19.9,21.8l0.1-3.1
		h0L19.9,21.8z M19.9,21.8c2.7,0,4.9-2.2,4.9-5h-3.1c0,1.1-0.8,1.9-1.8,1.9V21.8z M24.8,16.9c0-2.7-2.2-5-4.9-5V15
		c1,0,1.8,0.8,1.8,1.9H24.8z M19.9,11.9L19.9,11.9l0,3.1h0V11.9z M18.4,13.4h3.1H18.4z M19,15h0.9v-3.1H19V15z M20.5,13.6
		c0-0.3,0.1-0.6,0.1-0.9h-3.1c0,0.2,0,0.3,0,0.5L20.5,13.6z M20.6,12.7c0-3.7-3-6.8-6.7-6.8V9c2,0,3.6,1.6,3.6,3.7H20.6z M13.9,5.9
		c-3.7,0-6.7,3.1-6.7,6.8h3.1c0-2.1,1.6-3.7,3.6-3.7C13.9,9,13.9,5.9,13.9,5.9z M7.2,12.7c0,0.4,0,0.7,0.1,1l3-0.5
		c0-0.2,0-0.4,0-0.6C10.3,12.7,7.2,12.7,7.2,12.7z M9.2,12c-0.4-0.1-0.7-0.1-1.1-0.1V15c0.1,0,0.3,0,0.4,0L9.2,12L9.2,12z M8,11.9
		c-2.7,0-4.9,2.2-4.9,5h3.1C6.2,15.8,7,15,8,15C8,15,8,11.9,8,11.9z M3.1,16.9c0,2.7,2.2,5,4.9,5v-3.1c-1,0-1.8-0.8-1.8-1.9H3.1z
		 M8,21.8L8,21.8l0-3.1h0V21.8z M9.3,21.2L9.3,21.2l-2.4-1.9L9.3,21.2L9.3,21.2z M19.9,18.7H8.1v3.1h11.8
		C19.9,21.8,19.9,18.7,19.9,18.7z M18.4,20.3h3.1H18.4z"/>
</g>
<g>
	
		<linearGradient id="SVGID_00000152986461444592414950000017102930878942746302_" gradientUnits="userSpaceOnUse" x1="22.6857" y1="16.6289" x2="20.6689" y2="8.0145" gradientTransform="matrix(1 0 0 -1 0 32)">
		<stop  offset="0" style="stop-color:#FF4D00"/>
		<stop  offset="1" style="stop-color:#FFB800"/>
	</linearGradient>
	<path style="fill:url(#SVGID_00000152986461444592414950000017102930878942746302_);" d="M18,20.3l2.7-5.1c0.3-0.5,0.8-0.8,1.4-0.8
		h0.6c1.2,0,1.9,1.2,1.4,2.2l-0.7,1.4c-0.2,0.4-0.1,1,0.4,1.2c0.1,0.1,0.3,0.1,0.4,0.1c0.8,0,1.2,0.9,0.7,1.5l-3.1,3.6
		c-0.9,1-2.5,0-2-1.2l0.1-0.3c0.2-0.5-0.1-1-0.6-1.2c-0.1,0-0.2-0.1-0.3-0.1c-0.5,0-1-0.4-1-1C17.9,20.6,18,20.5,18,20.3z"/>
	
		<linearGradient id="SVGID_00000014593706758957836680000016268496885813938592_" gradientUnits="userSpaceOnUse" x1="19.8318" y1="7.9774" x2="23.6478" y2="16.0246" gradientTransform="matrix(1 0 0 -1 0 32)">
		<stop  offset="0" style="stop-color:#FFFFFF"/>
		<stop  offset="1" style="stop-color:#FFFFFF;stop-opacity:0"/>
	</linearGradient>
	<path style="fill:none;stroke:url(#SVGID_00000014593706758957836680000016268496885813938592_);stroke-width:2;" d="M18.7,20.7
		l2.7-5.1c0.1-0.2,0.4-0.4,0.7-0.4h0.6c0.4,0,0.8,0.3,0.8,0.8c0,0.1,0,0.2-0.1,0.4l-0.7,1.4c-0.6,1.1,0.2,2.4,1.5,2.4
		c0,0,0.1,0,0.1,0c0,0,0,0,0,0.1c0,0,0,0.1,0,0.1c0,0,0,0.1,0,0.1L21.1,24c-0.3,0.3-0.9,0-0.7-0.4l0.1-0.3c0.3-0.9-0.1-1.9-1-2.2
		C19.3,21,19.1,21,18.9,21C18.8,21,18.7,20.9,18.7,20.7C18.7,20.8,18.7,20.7,18.7,20.7z"/>
</g>
<g>
	
		<linearGradient id="SVGID_00000008145624032435490570000010596643036222666117_" gradientUnits="userSpaceOnUse" x1="21.7302" y1="24.2554" x2="21.7302" y2="14.2349" gradientTransform="matrix(1 0 0 -1 0 32)">
		<stop  offset="0" style="stop-color:#FFFFFF"/>
		<stop  offset="1" style="stop-color:#FFFFFF;stop-opacity:0"/>
	</linearGradient>
	
		<path shape-rendering="crispEdges" style="fill-rule:evenodd;clip-rule:evenodd;fill:url(#SVGID_00000008145624032435490570000010596643036222666117_);" d="
		M26,16.7L26,16.7c1.4,0,2.5-1.1,2.5-2.5c0-1.4-1.1-2.5-2.4-2.5h-0.7c0-0.2,0-0.3,0-0.5c0-2.1-1.7-3.8-3.7-3.8
		c-2.1,0-3.7,1.7-3.7,3.8c0,0.2,0,0.4,0,0.6c-0.2,0-0.4-0.1-0.6-0.1c-1.3,0-2.4,1.1-2.4,2.5c0,1.4,1.1,2.5,2.4,2.5H26L26,16.7z"/>
	<defs>
		
			<filter id="Adobe_OpacityMaskFilter_00000043446993380889938850000012470841743873801113_" filterUnits="userSpaceOnUse" x="13.5" y="5.9" width="16.5" height="12.3">
			<feColorMatrix  type="matrix" values="1 0 0 0 0  0 1 0 0 0  0 0 1 0 0  0 0 0 1 0"/>
		</filter>
	</defs>
	
		<mask maskUnits="userSpaceOnUse" x="13.5" y="5.9" width="16.5" height="12.3" id="o_00000107559327015113582980000016700759587850308493_">
		
			<path style="fill-rule:evenodd;clip-rule:evenodd;fill:#FFFFFF;filter:url(#Adobe_OpacityMaskFilter_00000043446993380889938850000012470841743873801113_);" d="
			M26,16.7L26,16.7c1.4,0,2.5-1.1,2.5-2.5c0-1.4-1.1-2.5-2.4-2.5h-0.7c0-0.2,0-0.3,0-0.5c0-2.1-1.7-3.8-3.7-3.8
			c-2.1,0-3.7,1.7-3.7,3.8c0,0.2,0,0.4,0,0.6c-0.2,0-0.4-0.1-0.6-0.1c-1.3,0-2.4,1.1-2.4,2.5c0,1.4,1.1,2.5,2.4,2.5H26L26,16.7z"/>
	</mask>
	
		<linearGradient id="SVGID_00000083073599543023243800000013024165368221069979_" gradientUnits="userSpaceOnUse" x1="21.7306" y1="24.5339" x2="21.7306" y2="15.2803" gradientTransform="matrix(1 0 0 -1 0 32)">
		<stop  offset="0" style="stop-color:#FFFFFF"/>
		<stop  offset="1" style="stop-color:#FFFFFF;stop-opacity:0"/>
	</linearGradient>
	
		<path style="mask:url(#o_00000107559327015113582980000016700759587850308493_);fill:url(#SVGID_00000083073599543023243800000013024165368221069979_);" d="
		M26,16.7l0-1.5c-0.9,0-1.5,0.7-1.6,1.5c0,0,0,0,0,0H26z M26,11.8h-1.5c0,0.8,0.7,1.5,1.5,1.5c0,0,0,0,0,0L26,11.8z M26,11.8h1.5
		c0-0.8-0.7-1.5-1.5-1.5V11.8z M25.4,11.8l-1.5-0.2c-0.1,0.8,0.5,1.6,1.3,1.7c0.1,0,0.1,0,0.2,0V11.8z M18,11.8l-0.4,1.5
		c0.8,0.2,1.7-0.3,1.9-1.1c0-0.2,0.1-0.4,0-0.6L18,11.8L18,11.8z M17.5,16.7l1.2,0.9c0.5-0.7,0.4-1.6-0.3-2.2
		c-0.3-0.2-0.6-0.3-1-0.3C17.4,15.2,17.5,16.7,17.5,16.7z M17.5,16.7l-1.2-0.9c-0.5,0.7-0.4,1.6,0.3,2.2c0.3,0.2,0.6,0.3,0.9,0.3
		V16.7z M26,16.7v1.5c0.8,0,1.5-0.7,1.5-1.5H26z M26,18.3C26,18.3,26,18.3,26,18.3l0-3.1h0L26,18.3z M26,18.3c2.2,0,4-1.8,4-4h-3.1
		c0,0.5-0.4,0.9-0.9,0.9V18.3z M30,14.2c0-2.2-1.8-4-4-4v3.1c0.5,0,0.9,0.4,0.9,0.9H30z M26,10.2C26,10.2,26,10.2,26,10.2l0,3.1h0
		V10.2z M24.5,11.8h3.1H24.5z M25.4,13.3H26v-3.1h-0.6V13.3z M26.9,12c0-0.2,0-0.5,0-0.7h-3.1c0,0.1,0,0.2,0,0.3
		C23.8,11.6,26.9,12,26.9,12z M26.9,11.3c0-2.9-2.3-5.3-5.3-5.3V9c1.2,0,2.2,1,2.2,2.3H26.9z M21.7,5.9c-2.9,0-5.3,2.4-5.3,5.3h3.1
		c0-1.3,1-2.3,2.2-2.3V5.9z M16.4,11.3c0,0.3,0,0.5,0.1,0.8l3-0.5c0-0.1,0-0.2,0-0.4H16.4z M18.3,10.3c-0.3-0.1-0.6-0.1-0.9-0.1v3.1
		c0.1,0,0.1,0,0.2,0C17.6,13.3,18.3,10.3,18.3,10.3z M17.4,10.2c-2.2,0-4,1.8-4,4h3.1c0-0.5,0.4-0.9,0.9-0.9
		C17.4,13.3,17.4,10.2,17.4,10.2z M13.5,14.2c0,2.2,1.8,4,4,4v-3.1c-0.5,0-0.9-0.4-0.9-0.9H13.5z M17.4,18.3L17.4,18.3l0-3.1h0V18.3
		z M18.7,17.7l-2.4-1.9L18.7,17.7z M26,15.2h-8.5v3.1H26C26,18.3,26,15.2,26,15.2z M24.5,16.7h3.1H24.5z"/>
</g>
<g>
	<g>
		
			<linearGradient id="SVGID_00000178911205172954478770000011585848379078332828_" gradientUnits="userSpaceOnUse" x1="5.9392" y1="11.834" x2="4.7669" y2="8.0418" gradientTransform="matrix(1 0 0 -1 0 32)">
			<stop  offset="0" style="stop-color:#138EFF"/>
			<stop  offset="1" style="stop-color:#00E0FF"/>
		</linearGradient>
		
			<linearGradient id="SVGID_00000143611094334005493740000002596036369591027371_" gradientUnits="userSpaceOnUse" x1="6.1307" y1="12.4537" x2="4.6986" y2="7.8209" gradientTransform="matrix(1 0 0 -1 0 32)">
			<stop  offset="0" style="stop-color:#FFFFFF"/>
			<stop  offset="1" style="stop-color:#FFFFFF;stop-opacity:0"/>
		</linearGradient>
		
			<path style="fill:url(#SVGID_00000178911205172954478770000011585848379078332828_);stroke:url(#SVGID_00000143611094334005493740000002596036369591027371_);stroke-width:2;" d="
			M4.9,22.8l0.4-0.6l0.1,0.7c0,0.1-0.1,0.3-0.2,0.3c0,0-0.1,0-0.1,0C4.9,23.2,4.8,23,4.9,22.8C4.8,22.9,4.8,22.8,4.9,22.8z"/>
		
			<linearGradient id="SVGID_00000022536085291143766540000011156894206990141348_" gradientUnits="userSpaceOnUse" x1="10.4398" y1="11.834" x2="9.2675" y2="8.0418" gradientTransform="matrix(1 0 0 -1 0 32)">
			<stop  offset="0" style="stop-color:#138EFF"/>
			<stop  offset="1" style="stop-color:#00E0FF"/>
		</linearGradient>
		
			<linearGradient id="SVGID_00000108990082514764883860000008133164046873685376_" gradientUnits="userSpaceOnUse" x1="10.6326" y1="12.4578" x2="9.1992" y2="7.8209" gradientTransform="matrix(1 0 0 -1 0 32)">
			<stop  offset="0" style="stop-color:#FFFFFF"/>
			<stop  offset="1" style="stop-color:#FFFFFF;stop-opacity:0"/>
		</linearGradient>
		
			<path style="fill:url(#SVGID_00000022536085291143766540000011156894206990141348_);stroke:url(#SVGID_00000108990082514764883860000008133164046873685376_);stroke-width:2;" d="
			M9.4,22.8l0.4-0.6l0.1,0.7c0,0.1-0.1,0.3-0.2,0.3c0,0-0.1,0-0.1,0C9.4,23.2,9.3,23,9.4,22.8C9.3,22.9,9.3,22.8,9.4,22.8L9.4,22.8z
			"/>
		
			<linearGradient id="SVGID_00000153664902364037051430000004227816754221975458_" gradientUnits="userSpaceOnUse" x1="14.9405" y1="11.834" x2="13.7682" y2="8.0418" gradientTransform="matrix(1 0 0 -1 0 32)">
			<stop  offset="0" style="stop-color:#138EFF"/>
			<stop  offset="1" style="stop-color:#00E0FF"/>
		</linearGradient>
		
			<linearGradient id="SVGID_00000056416571125147447490000001916635840331709074_" gradientUnits="userSpaceOnUse" x1="15.132" y1="12.4537" x2="13.6999" y2="7.8209" gradientTransform="matrix(1 0 0 -1 0 32)">
			<stop  offset="0" style="stop-color:#FFFFFF"/>
			<stop  offset="1" style="stop-color:#FFFFFF;stop-opacity:0"/>
		</linearGradient>
		
			<path style="fill:url(#SVGID_00000153664902364037051430000004227816754221975458_);stroke:url(#SVGID_00000056416571125147447490000001916635840331709074_);stroke-width:2;" d="
			M13.9,22.8l0.4-0.6l0.1,0.7c0,0.1-0.1,0.3-0.2,0.3c0,0-0.1,0-0.1,0C13.9,23.2,13.8,23,13.9,22.8C13.8,22.9,13.8,22.8,13.9,22.8z"
			/>
	</g>
</g>
<g>
	<g>
		
			<linearGradient id="SVGID_00000112601311388982601510000002475985793023012239_" gradientUnits="userSpaceOnUse" x1="7.6607" y1="8.2141" x2="6.4884" y2="4.4211" gradientTransform="matrix(1 0 0 -1 0 32)">
			<stop  offset="0" style="stop-color:#138EFF"/>
			<stop  offset="1" style="stop-color:#00E0FF"/>
		</linearGradient>
		
			<linearGradient id="SVGID_00000076602949598965435130000006827186958750438275_" gradientUnits="userSpaceOnUse" x1="7.8516" y1="8.8318" x2="6.4188" y2="4.196" gradientTransform="matrix(1 0 0 -1 0 32)">
			<stop  offset="0" style="stop-color:#FFFFFF"/>
			<stop  offset="1" style="stop-color:#FFFFFF;stop-opacity:0"/>
		</linearGradient>
		
			<path style="fill:url(#SVGID_00000112601311388982601510000002475985793023012239_);stroke:url(#SVGID_00000076602949598965435130000006827186958750438275_);stroke-width:2;" d="
			M6.6,26.4L7,25.9l0.1,0.7c0,0.1-0.1,0.3-0.2,0.3c0,0-0.1,0-0.1,0C6.6,26.8,6.5,26.6,6.6,26.4C6.5,26.5,6.6,26.4,6.6,26.4L6.6,26.4
			z"/>
		
			<linearGradient id="SVGID_00000027605450345586315050000005666424744617186981_" gradientUnits="userSpaceOnUse" x1="12.2004" y1="8.2142" x2="11.0273" y2="4.4212" gradientTransform="matrix(1 0 0 -1 0 32)">
			<stop  offset="0" style="stop-color:#138EFF"/>
			<stop  offset="1" style="stop-color:#00E0FF"/>
		</linearGradient>
		
			<linearGradient id="SVGID_00000145033219868940528470000003368008278363158928_" gradientUnits="userSpaceOnUse" x1="12.3928" y1="8.8364" x2="10.9591" y2="4.2006" gradientTransform="matrix(1 0 0 -1 0 32)">
			<stop  offset="0" style="stop-color:#FFFFFF"/>
			<stop  offset="1" style="stop-color:#FFFFFF;stop-opacity:0"/>
		</linearGradient>
		
			<path style="fill:url(#SVGID_00000027605450345586315050000005666424744617186981_);stroke:url(#SVGID_00000145033219868940528470000003368008278363158928_);stroke-width:2;" d="
			M11.1,26.4l0.4-0.6l0.1,0.7c0,0.1-0.1,0.3-0.2,0.3c0,0-0.1,0-0.1,0C11.1,26.8,11,26.6,11.1,26.4C11.1,26.5,11.1,26.4,11.1,26.4
			L11.1,26.4z"/>
	</g>
</g>
</svg>
