<svg width="25" height="25" fill="none" xmlns="http://www.w3.org/2000/svg"><g clip-path="url(#a)" fill="#fff"><path d="M8.75 0C3.942 0 0 3.93 0 8.726c0 1.858.594 3.584 1.598 5.004l6.085 10.518c.852 1.114 1.418.902 2.127-.058l2.556-4.351a7.444 7.444 0 0 1-2.632-2.171 7.443 7.443 0 0 1-1.525-4.34A4.608 4.608 0 0 1 4.1 8.726a4.617 4.617 0 0 1 4.65-4.638c1.684 0 3.14.872 3.955 2.19a7.47 7.47 0 0 1 4.275-.504C15.758 2.417 12.523 0 8.75 0Z"/><path d="M16.532 6.874a6.304 6.304 0 0 0-4.68 1.231c-2.772 2.111-3.311 6.091-1.2 8.864 1.976 2.595 5.585 3.22 8.312 1.56l.521.683a.791.791 0 0 0-.07.343.492.492 0 0 0 .097.28l3.78 4.964c.108.142.296.214.523.199.228-.015.476-.114.69-.277.105-.08.2-.174.277-.276.077-.1.136-.208.173-.315a.734.734 0 0 0 .043-.306.484.484 0 0 0-.095-.252l-3.78-4.963a.492.492 0 0 0-.245-.168.79.79 0 0 0-.349-.024l-.521-.684c2.328-2.188 2.684-5.833.708-8.428a6.306 6.306 0 0 0-4.184-2.431Zm-.187 1.384a4.904 4.904 0 0 1 3.253 1.899 4.91 4.91 0 0 1-.934 6.894 4.908 4.908 0 0 1-6.894-.933 4.908 4.908 0 0 1 .934-6.895 4.903 4.903 0 0 1 3.64-.965Z"/></g><defs><clipPath id="a"><path d="M0 0h25v12.5C25 19.404 19.404 25 12.5 25S0 19.404 0 12.5V0Z" fill="#fff"/></clipPath></defs></svg>