<svg xmlns="http://www.w3.org/2000/svg" width="231" height="214" fill="none"><g filter="url(#a)"><mask id="d" fill="#fff"><path fill-rule="evenodd" d="M125.659 80.244h.14c6.674 0 12.084-5.41 12.084-12.084 0-6.673-5.41-12.083-12.084-12.083h-3.262c.113-.827.171-1.672.171-2.53 0-10.243-8.304-18.547-18.548-18.547-10.243 0-18.547 8.304-18.547 18.547 0 .967.074 1.916.216 2.843a12.116 12.116 0 0 0-2.745-.313C76.41 56.077 71 61.487 71 68.16c0 6.673 5.41 12.083 12.084 12.083H125.659Z" clip-rule="evenodd"/></mask><path fill="url(#b)" fill-rule="evenodd" d="M125.659 80.244h.14c6.674 0 12.084-5.41 12.084-12.084 0-6.673-5.41-12.083-12.084-12.083h-3.262c.113-.827.171-1.672.171-2.53 0-10.243-8.304-18.547-18.548-18.547-10.243 0-18.547 8.304-18.547 18.547 0 .967.074 1.916.216 2.843a12.116 12.116 0 0 0-2.745-.313C76.41 56.077 71 61.487 71 68.16c0 6.673 5.41 12.083 12.084 12.083H125.659Z" clip-rule="evenodd" shape-rendering="crispEdges"/><path fill="url(#c)" d="m125.659 80.244.022-2a2 2 0 0 0-2.022 2h2Zm0-24.167h-2a2 2 0 0 0 2.022 2l-.022-2Zm0 0h2a2 2 0 0 0-2-2v2Zm-3.122 0-1.982-.27a2 2 0 0 0 1.982 2.27v-2Zm-36.708.313-.452 1.948a2 2 0 0 0 2.43-2.252l-1.978.304Zm-2.604 23.853 1.572 1.237a2 2 0 0 0-1.595-3.236l.023 2Zm0 .001-1.573-1.236a2 2 0 0 0 1.572 3.236v-2Zm42.434 0v2a2 2 0 0 0 2-2h-2Zm-.023 2h.163v-4h-.118l-.045 4Zm.163 0c7.778 0 14.084-6.305 14.084-14.084h-4c0 5.57-4.515 10.084-10.084 10.084v4Zm14.084-14.084c0-7.778-6.306-14.083-14.084-14.083v4c5.569 0 10.084 4.514 10.084 10.084h4Zm-14.084-14.083h-.163l.045 4h.118v-4Zm-2.14 2h4-4Zm-1.122 2h3.122v-4h-3.122v4Zm1.982-1.73c.124-.916.189-1.851.189-2.8h-4c0 .768-.052 1.522-.153 2.26l3.964.54Zm.189-2.8c0-11.348-9.2-20.547-20.548-20.547v4c9.139 0 16.548 7.408 16.548 16.547h4ZM104.16 33c-11.347 0-20.547 9.2-20.547 20.547h4C87.613 44.408 95.022 37 104.16 37v-4ZM83.613 53.547c0 1.07.082 2.12.24 3.147l3.953-.608a16.69 16.69 0 0 1-.193-2.539h-4Zm2.67.895c-1.03-.24-2.101-.365-3.2-.365v4c.792 0 1.56.09 2.294.261l.905-3.896Zm-3.2-.365C75.307 54.077 69 60.382 69 68.16h4c0-5.57 4.515-10.084 10.084-10.084v-4ZM69 68.16c0 7.778 6.306 14.083 14.084 14.083v-4C77.514 78.244 73 73.73 73 68.16h-4Zm14.084 14.083h.164l-.046-4h-.118v4Zm1.712-.763.001-.001-3.144-2.473 3.143 2.474Zm40.863-3.237H83.224v4h42.435v-4Zm-2 2h4-4Z" mask="url(#d)"/></g><g filter="url(#e)"><mask id="h" fill="#fff"><path fill-rule="evenodd" d="m162.186 111.214.195.001c9.234 0 16.721-7.486 16.721-16.72 0-9.235-7.487-16.721-16.721-16.721l-.195.001v-.001h-4.319a25.9 25.9 0 0 0 .236-3.5c0-14.174-11.49-25.664-25.664-25.664-14.174 0-25.664 11.49-25.664 25.664 0 1.338.102 2.651.299 3.933a16.764 16.764 0 0 0-3.799-.433c-9.235 0-16.72 7.486-16.72 16.72 0 9.235 7.485 16.721 16.72 16.721l.195-.001-.001.001h58.717v-.001Z" clip-rule="evenodd"/></mask><path fill="url(#f)" fill-rule="evenodd" d="m162.186 111.214.195.001c9.234 0 16.721-7.486 16.721-16.72 0-9.235-7.487-16.721-16.721-16.721l-.195.001v-.001h-4.319a25.9 25.9 0 0 0 .236-3.5c0-14.174-11.49-25.664-25.664-25.664-14.174 0-25.664 11.49-25.664 25.664 0 1.338.102 2.651.299 3.933a16.764 16.764 0 0 0-3.799-.433c-9.235 0-16.72 7.486-16.72 16.72 0 9.235 7.485 16.721 16.72 16.721l.195-.001-.001.001h58.717v-.001Z" clip-rule="evenodd" shape-rendering="crispEdges"/><path fill="url(#g)" d="m162.186 111.214.023-2a2 2 0 0 0-2.023 2h2Zm0-33.439h-2a2 2 0 0 0 2.023 2l-.023-2Zm0-.001h2a2 2 0 0 0-2-2v2Zm-4.319 0-1.982-.27a2 2 0 0 0 1.982 2.27v-2Zm-50.793.433-.453 1.949a2.001 2.001 0 0 0 2.43-2.253l-1.977.304Zm-3.604 33.007 1.571 1.239a2.001 2.001 0 0 0-1.594-3.239l.023 2Zm-.001.001-1.57-1.238a1.998 1.998 0 0 0 1.57 3.238v-2Zm58.717 0v2a2 2 0 0 0 2-2h-2Zm-.022 1.999.217.001v-4l-.172-.001-.045 4Zm.217.001c10.339 0 18.721-8.381 18.721-18.72h-4c0 8.13-6.591 14.72-14.721 14.72v4Zm18.721-18.72c0-10.34-8.382-18.721-18.721-18.721v4c8.13 0 14.721 6.59 14.721 14.72h4Zm-18.721-18.721-.218.001.046 4 .172-.001v-4Zm-2.195 2v.001h4v-.001h-4Zm-2.319 2h4.319v-4h-4.319v4Zm1.981-1.73c.169-1.233.255-2.492.255-3.77h-4a23.87 23.87 0 0 1-.218 3.23l3.963.54Zm.255-3.77c0-15.278-12.385-27.664-27.664-27.664v4c13.069 0 23.664 10.595 23.664 23.664h4ZM132.439 46.61c-15.279 0-27.664 12.386-27.664 27.664h4c0-13.07 10.594-23.664 23.664-23.664v-4Zm-27.664 27.664c0 1.44.11 2.855.322 4.237l3.954-.608a23.836 23.836 0 0 1-.276-3.629h-4Zm2.752 1.985a18.776 18.776 0 0 0-4.252-.485v4c1.153 0 2.273.132 3.346.382l.906-3.897Zm-4.252-.485c-10.34 0-18.72 8.382-18.72 18.72h4c0-8.13 6.59-14.72 14.72-14.72v-4Zm-18.72 18.72c0 10.34 8.38 18.721 18.72 18.721v-4c-8.13 0-14.72-6.59-14.72-14.72h-4Zm18.72 18.721.218-.001-.046-4-.172.001v4Zm1.765-.761.001-.001-3.141-2.477-.001.001 3.141 2.477Zm57.146-3.239h-58.717v4h58.717v-4Zm-2 1.999v.001h4v-.001h-4Z" mask="url(#h)"/></g><g filter="url(#i)"><path fill="url(#j)" d="m150.777 115.45 17.257-31.58a1.998 1.998 0 0 1 1.755-1.04h15.534c1.503 0 2.469 1.595 1.772 2.927L177.33 104.4c-.697 1.332.268 2.928 1.772 2.928h9.525c1.729 0 2.643 2.045 1.491 3.334l-32.905 36.775c-1.474 1.648-4.138.038-3.364-2.034l9.078-24.293a2 2 0 0 0-1.873-2.7h-8.522c-1.519 0-2.484-1.626-1.755-2.959Z"/><path stroke="url(#k)" stroke-width="2" d="m151.654 115.93 17.257-31.58c.176-.321.512-.52.878-.52h15.534a1 1 0 0 1 .886 1.463l-9.765 18.642c-1.046 1.997.403 4.392 2.658 4.392h9.525c.865 0 1.322 1.023.745 1.667l-32.904 36.775c-.737.824-2.069.019-1.682-1.017l9.078-24.293c.733-1.96-.717-4.05-2.81-4.05h-8.522a1 1 0 0 1-.878-1.479Z"/></g><g filter="url(#l)"><mask id="o" fill="#fff"><path fill-rule="evenodd" d="m192.542 93.853.14.001c6.674 0 12.084-5.41 12.084-12.084 0-6.673-5.41-12.084-12.084-12.084l-.14.001h-3.122c.113-.828.171-1.672.171-2.53 0-10.243-8.304-18.547-18.548-18.547-10.243 0-18.547 8.304-18.547 18.547 0 .967.074 1.916.216 2.843a12.114 12.114 0 0 0-2.745-.314c-6.674 0-12.084 5.41-12.084 12.084 0 6.674 5.41 12.084 12.084 12.084h.141-.001 42.435Z" clip-rule="evenodd"/></mask><path fill="url(#m)" fill-rule="evenodd" d="m192.542 93.853.14.001c6.674 0 12.084-5.41 12.084-12.084 0-6.673-5.41-12.084-12.084-12.084l-.14.001h-3.122c.113-.828.171-1.672.171-2.53 0-10.243-8.304-18.547-18.548-18.547-10.243 0-18.547 8.304-18.547 18.547 0 .967.074 1.916.216 2.843a12.114 12.114 0 0 0-2.745-.314c-6.674 0-12.084 5.41-12.084 12.084 0 6.674 5.41 12.084 12.084 12.084h.141-.001 42.435Z" clip-rule="evenodd" shape-rendering="crispEdges"/><path fill="url(#n)" d="m192.542 93.853.022-2a2 2 0 0 0-2.022 2h2Zm0-24.166h-2a2 2 0 0 0 2.022 2l-.022-2Zm0 0h2a2 2 0 0 0-2-2v2Zm-3.122 0-1.982-.27a2 2 0 0 0 1.982 2.27v-2ZM152.712 70l-.452 1.948a2 2 0 0 0 2.429-2.252l-1.977.304Zm-2.604 23.853 1.571 1.238a2 2 0 0 0-1.594-3.237l.023 2Zm-.001.001-1.571-1.237a2 2 0 0 0 1.571 3.237v-2Zm42.435 0v2a2 2 0 0 0 2-2h-2Zm-.023 2h.163v-4h-.118l-.045 4Zm.163 0c7.778 0 14.084-6.305 14.084-14.084h-4c0 5.57-4.515 10.084-10.084 10.084v4Zm14.084-14.084c0-7.778-6.306-14.084-14.084-14.084v4c5.569 0 10.084 4.515 10.084 10.084h4Zm-14.084-14.084-.163.001.045 4h.118v-4Zm-2.14 2v.001h4-4Zm-1.122 2h3.122v-4h-3.122v4Zm1.981-1.73c.125-.916.19-1.85.19-2.799h-4c0 .768-.052 1.522-.153 2.26l3.963.54Zm.19-2.799c0-11.348-9.2-20.547-20.548-20.547v4c9.139 0 16.548 7.408 16.548 16.547h4ZM171.043 46.61c-11.348 0-20.547 9.2-20.547 20.547h4c0-9.139 7.409-16.547 16.547-16.547v-4Zm-20.547 20.547c0 1.069.082 2.12.24 3.147l3.953-.608a16.703 16.703 0 0 1-.193-2.539h-4Zm2.669.895c-1.029-.24-2.1-.366-3.198-.366v4c.791 0 1.558.091 2.293.262l.905-3.896Zm-3.198-.366c-7.778 0-14.084 6.306-14.084 14.084h4c0-5.569 4.515-10.084 10.084-10.084v-4ZM135.883 81.77c0 7.779 6.306 14.084 14.084 14.084v-4c-5.569 0-10.084-4.514-10.084-10.084h-4Zm14.084 14.084h.164l-.046-4h-.118v4Zm1.711-.762h.001l-3.142-2.476h-.001l3.142 2.476Zm40.864-3.238h-42.435v4h42.435v-4Zm-2 2h4-4Z" mask="url(#o)"/></g><g stroke-width="2" filter="url(#p)"><path fill="url(#q)" stroke="url(#r)" d="m92.237 117.67.456 6.39c.206 2.888-2.549 5.086-5.32 4.243-2.77-.842-3.834-4.202-2.054-6.486l3.937-5.054c.94-1.206 2.872-.619 2.98.907Z"/><path fill="url(#s)" stroke="url(#t)" d="m114.599 117.67.456 6.39c.206 2.888-2.548 5.086-5.319 4.243-2.771-.842-3.835-4.202-2.055-6.486l3.937-5.054c.94-1.206 2.872-.619 2.981.907Z"/><path fill="url(#u)" stroke="url(#v)" d="m136.961 117.67.456 6.39c.206 2.888-2.549 5.086-5.319 4.243-2.771-.842-3.835-4.202-2.055-6.486l3.937-5.054c.94-1.206 2.872-.619 2.981.907Z"/></g><g stroke-width="2" filter="url(#w)"><path fill="url(#x)" stroke="url(#y)" d="m100.791 135.37.457 6.39c.206 2.889-2.549 5.087-5.32 4.244-2.77-.843-3.834-4.202-2.055-6.487l3.938-5.053c.94-1.206 2.872-.619 2.98.906Z"/><path fill="url(#z)" stroke="url(#A)" d="m123.345 135.37.456 6.39c.207 2.889-2.548 5.087-5.319 4.244s-3.835-4.202-2.055-6.487l3.937-5.053c.94-1.206 2.872-.619 2.981.906Z"/></g><defs><linearGradient id="m" x1="174.435" x2="174.435" y1="49.971" y2="98.967" gradientUnits="userSpaceOnUse"><stop stop-color="#fff"/><stop offset="1" stop-color="#fff" stop-opacity="0"/></linearGradient><linearGradient id="A" x1="123.847" x2="118.191" y1="128.366" y2="146.961" gradientUnits="userSpaceOnUse"><stop stop-color="#fff"/><stop offset="1" stop-color="#fff" stop-opacity="0"/></linearGradient><linearGradient id="z" x1="123.847" x2="118.191" y1="128.366" y2="146.961" gradientUnits="userSpaceOnUse"><stop stop-color="#138EFF"/><stop offset="1" stop-color="#00E0FF"/></linearGradient><linearGradient id="y" x1="101.294" x2="95.638" y1="128.366" y2="146.961" gradientUnits="userSpaceOnUse"><stop stop-color="#fff"/><stop offset="1" stop-color="#fff" stop-opacity="0"/></linearGradient><linearGradient id="x" x1="101.294" x2="95.638" y1="128.366" y2="146.961" gradientUnits="userSpaceOnUse"><stop stop-color="#138EFF"/><stop offset="1" stop-color="#00E0FF"/></linearGradient><linearGradient id="v" x1="137.463" x2="131.807" y1="110.665" y2="129.26" gradientUnits="userSpaceOnUse"><stop stop-color="#fff"/><stop offset="1" stop-color="#fff" stop-opacity="0"/></linearGradient><linearGradient id="b" x1="107.552" x2="107.552" y1="36.361" y2="85.357" gradientUnits="userSpaceOnUse"><stop stop-color="#fff"/><stop offset="1" stop-color="#fff" stop-opacity="0"/></linearGradient><linearGradient id="c" x1="104.441" x2="104.441" y1="35" y2="80.244" gradientUnits="userSpaceOnUse"><stop stop-color="#fff"/><stop offset="1" stop-color="#fff" stop-opacity="0"/></linearGradient><linearGradient id="f" x1="132.828" x2="132.828" y1="28.584" y2="119.965" gradientUnits="userSpaceOnUse"><stop stop-color="#fff"/><stop offset="1" stop-color="#fff" stop-opacity="0"/></linearGradient><linearGradient id="g" x1="132.828" x2="132.828" y1="48.61" y2="111.215" gradientUnits="userSpaceOnUse"><stop stop-color="#fff"/><stop offset="1" stop-color="#fff" stop-opacity="0"/></linearGradient><linearGradient id="j" x1="175.407" x2="165.686" y1="87.106" y2="129.297" gradientUnits="userSpaceOnUse"><stop stop-color="#FF4D00"/><stop offset="1" stop-color="#FFB800"/></linearGradient><linearGradient id="k" x1="162.381" x2="180.074" y1="128.714" y2="90.801" gradientUnits="userSpaceOnUse"><stop stop-color="#fff"/><stop offset="1" stop-color="#fff" stop-opacity="0"/></linearGradient><linearGradient id="u" x1="137.463" x2="131.807" y1="110.665" y2="129.26" gradientUnits="userSpaceOnUse"><stop stop-color="#138EFF"/><stop offset="1" stop-color="#00E0FF"/></linearGradient><linearGradient id="n" x1="171.324" x2="171.324" y1="48.61" y2="93.854" gradientUnits="userSpaceOnUse"><stop stop-color="#fff"/><stop offset="1" stop-color="#fff" stop-opacity="0"/></linearGradient><linearGradient id="q" x1="92.739" x2="87.083" y1="110.665" y2="129.26" gradientUnits="userSpaceOnUse"><stop stop-color="#138EFF"/><stop offset="1" stop-color="#00E0FF"/></linearGradient><linearGradient id="r" x1="92.739" x2="87.083" y1="110.665" y2="129.26" gradientUnits="userSpaceOnUse"><stop stop-color="#fff"/><stop offset="1" stop-color="#fff" stop-opacity="0"/></linearGradient><linearGradient id="s" x1="115.101" x2="109.445" y1="110.665" y2="129.26" gradientUnits="userSpaceOnUse"><stop stop-color="#138EFF"/><stop offset="1" stop-color="#00E0FF"/></linearGradient><linearGradient id="t" x1="115.101" x2="109.445" y1="110.665" y2="129.26" gradientUnits="userSpaceOnUse"><stop stop-color="#fff"/><stop offset="1" stop-color="#fff" stop-opacity="0"/></linearGradient><filter id="e" width="192.547" height="162.606" x="15.554" y="13.61" color-interpolation-filters="sRGB" filterUnits="userSpaceOnUse"><feFlood flood-opacity="0" result="BackgroundImageFix"/><feGaussianBlur in="BackgroundImageFix" stdDeviation="7"/><feComposite in2="SourceAlpha" operator="in" result="effect1_backgroundBlur_3_2472"/><feColorMatrix in="SourceAlpha" result="hardAlpha" values="0 0 0 0 0 0 0 0 0 0 0 0 0 0 0 0 0 0 127 0"/><feOffset dx="-21" dy="15"/><feGaussianBlur stdDeviation="25"/><feComposite in2="hardAlpha" operator="out"/><feColorMatrix values="0 0 0 0 0.113725 0 0 0 0 0.14902 0 0 0 0 0.27451 0 0 0 0.25 0"/><feBlend in2="effect1_backgroundBlur_3_2472" result="effect2_dropShadow_3_2472"/><feBlend in="SourceGraphic" in2="effect2_dropShadow_3_2472" result="shape"/></filter><filter id="w" width="144.813" height="127.37" x="20.999" y="84.817" color-interpolation-filters="sRGB" filterUnits="userSpaceOnUse"><feFlood flood-opacity="0" result="BackgroundImageFix"/><feGaussianBlur in="BackgroundImageFix" stdDeviation="7"/><feComposite in2="SourceAlpha" operator="in" result="effect1_backgroundBlur_3_2472"/><feColorMatrix in="SourceAlpha" result="hardAlpha" values="0 0 0 0 0 0 0 0 0 0 0 0 0 0 0 0 0 0 127 0"/><feOffset dx="-21" dy="15"/><feGaussianBlur stdDeviation="25"/><feComposite in2="hardAlpha" operator="out"/><feColorMatrix values="0 0 0 0 0.113438 0 0 0 0 0.148981 0 0 0 0 0.275 0 0 0 0.25 0"/><feBlend in2="effect1_backgroundBlur_3_2472" result="effect2_dropShadow_3_2472"/><feColorMatrix in="SourceAlpha" result="hardAlpha" values="0 0 0 0 0 0 0 0 0 0 0 0 0 0 0 0 0 0 127 0"/><feOffset dy="-7"/><feGaussianBlur stdDeviation="20.5"/><feComposite in2="hardAlpha" operator="out"/><feColorMatrix values="0 0 0 0 0.1375 0 0 0 0 0.74125 0 0 0 0 1 0 0 0 0.3 0"/><feBlend in2="effect2_dropShadow_3_2472" result="effect3_dropShadow_3_2472"/><feBlend in="SourceGraphic" in2="effect3_dropShadow_3_2472" result="shape"/></filter><filter id="p" width="166.984" height="127.37" x="12.444" y="67.116" color-interpolation-filters="sRGB" filterUnits="userSpaceOnUse"><feFlood flood-opacity="0" result="BackgroundImageFix"/><feGaussianBlur in="BackgroundImageFix" stdDeviation="7"/><feComposite in2="SourceAlpha" operator="in" result="effect1_backgroundBlur_3_2472"/><feColorMatrix in="SourceAlpha" result="hardAlpha" values="0 0 0 0 0 0 0 0 0 0 0 0 0 0 0 0 0 0 127 0"/><feOffset dx="-21" dy="15"/><feGaussianBlur stdDeviation="25"/><feComposite in2="hardAlpha" operator="out"/><feColorMatrix values="0 0 0 0 0.113438 0 0 0 0 0.148981 0 0 0 0 0.275 0 0 0 0.25 0"/><feBlend in2="effect1_backgroundBlur_3_2472" result="effect2_dropShadow_3_2472"/><feColorMatrix in="SourceAlpha" result="hardAlpha" values="0 0 0 0 0 0 0 0 0 0 0 0 0 0 0 0 0 0 127 0"/><feOffset dy="-7"/><feGaussianBlur stdDeviation="20.5"/><feComposite in2="hardAlpha" operator="out"/><feColorMatrix values="0 0 0 0 0.1375 0 0 0 0 0.74125 0 0 0 0 1 0 0 0 0.3 0"/><feBlend in2="effect2_dropShadow_3_2472" result="effect3_dropShadow_3_2472"/><feBlend in="SourceGraphic" in2="effect3_dropShadow_3_2472" result="shape"/></filter><filter id="l" width="166.883" height="145.244" x="66.883" y="13.61" color-interpolation-filters="sRGB" filterUnits="userSpaceOnUse"><feFlood flood-opacity="0" result="BackgroundImageFix"/><feGaussianBlur in="BackgroundImageFix" stdDeviation="7"/><feComposite in2="SourceAlpha" operator="in" result="effect1_backgroundBlur_3_2472"/><feColorMatrix in="SourceAlpha" result="hardAlpha" values="0 0 0 0 0 0 0 0 0 0 0 0 0 0 0 0 0 0 127 0"/><feOffset dx="-21" dy="15"/><feGaussianBlur stdDeviation="25"/><feComposite in2="hardAlpha" operator="out"/><feColorMatrix values="0 0 0 0 0.113438 0 0 0 0 0.148981 0 0 0 0 0.275 0 0 0 0.25 0"/><feBlend in2="effect1_backgroundBlur_3_2472" result="effect2_dropShadow_3_2472"/><feBlend in="SourceGraphic" in2="effect2_dropShadow_3_2472" result="shape"/></filter><filter id="i" width="172.102" height="191.287" x="79.529" y="21.829" color-interpolation-filters="sRGB" filterUnits="userSpaceOnUse"><feFlood flood-opacity="0" result="BackgroundImageFix"/><feGaussianBlur in="BackgroundImageFix" stdDeviation="7"/><feComposite in2="SourceAlpha" operator="in" result="effect1_backgroundBlur_3_2472"/><feColorMatrix in="SourceAlpha" result="hardAlpha" values="0 0 0 0 0 0 0 0 0 0 0 0 0 0 0 0 0 0 127 0"/><feOffset dx="-21" dy="15"/><feGaussianBlur stdDeviation="25"/><feComposite in2="hardAlpha" operator="out"/><feColorMatrix values="0 0 0 0 0.113438 0 0 0 0 0.148981 0 0 0 0 0.275 0 0 0 0.25 0"/><feBlend in2="effect1_backgroundBlur_3_2472" result="effect2_dropShadow_3_2472"/><feColorMatrix in="SourceAlpha" result="hardAlpha" values="0 0 0 0 0 0 0 0 0 0 0 0 0 0 0 0 0 0 127 0"/><feOffset/><feGaussianBlur stdDeviation="30.5"/><feComposite in2="hardAlpha" operator="out"/><feColorMatrix values="0 0 0 0 1 0 0 0 0 0.721569 0 0 0 0 0.00392157 0 0 0 0.49 0"/><feBlend in2="effect2_dropShadow_3_2472" result="effect3_dropShadow_3_2472"/><feBlend in="SourceGraphic" in2="effect3_dropShadow_3_2472" result="shape"/></filter><filter id="a" width="166.883" height="145.244" x="0" y="0" color-interpolation-filters="sRGB" filterUnits="userSpaceOnUse"><feFlood flood-opacity="0" result="BackgroundImageFix"/><feGaussianBlur in="BackgroundImageFix" stdDeviation="7"/><feComposite in2="SourceAlpha" operator="in" result="effect1_backgroundBlur_3_2472"/><feColorMatrix in="SourceAlpha" result="hardAlpha" values="0 0 0 0 0 0 0 0 0 0 0 0 0 0 0 0 0 0 127 0"/><feOffset dx="-21" dy="15"/><feGaussianBlur stdDeviation="25"/><feComposite in2="hardAlpha" operator="out"/><feColorMatrix values="0 0 0 0 0.113438 0 0 0 0 0.148981 0 0 0 0 0.275 0 0 0 0.25 0"/><feBlend in2="effect1_backgroundBlur_3_2472" result="effect2_dropShadow_3_2472"/><feBlend in="SourceGraphic" in2="effect2_dropShadow_3_2472" result="shape"/></filter></defs></svg>