<svg xmlns="http://www.w3.org/2000/svg" width="219" height="196" fill="none"><g filter="url(#a)"><path fill="url(#b)" d="m101.781 97.395 17.257-31.58a2 2 0 0 1 1.755-1.041h15.534c1.504 0 2.47 1.596 1.772 2.928l-9.765 18.642c-.697 1.332.269 2.928 1.772 2.928h9.525c1.729 0 2.644 2.045 1.491 3.333l-32.904 36.776c-1.475 1.648-4.138.038-3.364-2.034l9.078-24.293a2 2 0 0 0-1.874-2.7h-8.522c-1.519 0-2.483-1.626-1.755-2.959Z"/><path stroke="url(#c)" stroke-width="2" d="m102.659 97.875 17.256-31.58c.176-.321.512-.521.878-.521h15.534a1 1 0 0 1 .886 1.464l-9.765 18.642c-1.046 1.997.403 4.392 2.658 4.392h9.525c.865 0 1.322 1.022.746 1.667l-32.905 36.775c-.737.824-2.069.019-1.682-1.017l9.078-24.293c.733-1.96-.717-4.05-2.81-4.05h-8.522a1 1 0 0 1-.877-1.48Z"/></g><g filter="url(#d)"><mask id="g" fill="#fff"><path fill-rule="evenodd" d="M146.632 84.605h.195c9.234 0 16.72-7.486 16.72-16.72 0-9.235-7.486-16.72-16.72-16.72h-4.514a25.9 25.9 0 0 0 .236-3.5c0-14.175-11.49-25.665-25.664-25.665-14.174 0-25.665 11.49-25.665 25.664 0 1.338.103 2.651.3 3.934a16.77 16.77 0 0 0-3.8-.434c-9.234 0-16.72 7.486-16.72 16.72 0 9.235 7.486 16.722 16.72 16.722l.196-.001h58.716Z" clip-rule="evenodd"/></mask><path fill="url(#e)" fill-rule="evenodd" d="M146.632 84.605h.195c9.234 0 16.72-7.486 16.72-16.72 0-9.235-7.486-16.72-16.72-16.72h-4.514a25.9 25.9 0 0 0 .236-3.5c0-14.175-11.49-25.665-25.664-25.665-14.174 0-25.665 11.49-25.665 25.664 0 1.338.103 2.651.3 3.934a16.77 16.77 0 0 0-3.8-.434c-9.234 0-16.72 7.486-16.72 16.72 0 9.235 7.486 16.722 16.72 16.722l.196-.001h58.716Z" clip-rule="evenodd" shape-rendering="crispEdges"/><path fill="url(#f)" d="m146.632 84.605.023-2a2 2 0 0 0-2.023 2h2Zm0-33.44h-2a2 2 0 0 0 2.023 2l-.023-2Zm0 0h2a2 2 0 0 0-2-2v2Zm-4.319 0-1.982-.271a2 2 0 0 0 1.982 2.27v-2Zm-50.793.433-.453 1.948a2 2 0 0 0 2.43-2.252l-1.977.304Zm-3.604 33.007 1.57 1.238a2 2 0 0 0-1.593-3.238l.023 2Zm0 0-1.571-1.238a2 2 0 0 0 1.57 3.239v-2Zm58.716 0v2a2 2 0 0 0 2-2h-2Zm-.023 2h.218v-4h-.172l-.046 4Zm.218 0c10.339 0 18.72-8.381 18.72-18.72h-4c0 8.13-6.59 14.72-14.72 14.72v4Zm18.72-18.72c0-10.34-8.381-18.72-18.72-18.72v4c8.13 0 14.72 6.59 14.72 14.72h4Zm-18.72-18.72h-.218l.046 4h.172v-4Zm-2.195 2h4-4Zm-2.319 2h4.319v-4h-4.319v4Zm1.981-1.73c.169-1.234.255-2.493.255-3.77h-4a23.87 23.87 0 0 1-.218 3.229l3.963.54Zm.255-3.77c0-15.28-12.386-27.665-27.664-27.665v4c13.069 0 23.664 10.595 23.664 23.664h4ZM116.885 20C101.606 20 89.22 32.386 89.22 47.664h4C93.22 34.594 103.816 24 116.886 24v-4ZM89.22 47.664c0 1.44.11 2.855.323 4.238l3.954-.608a23.874 23.874 0 0 1-.276-3.63h-4Zm2.753 1.986a18.772 18.772 0 0 0-4.252-.486v4c1.153 0 2.273.132 3.346.382l.906-3.896Zm-4.252-.486C77.38 49.164 69 57.546 69 67.884h4c0-8.13 6.59-14.72 14.72-14.72v-4ZM69 67.884c0 10.34 8.382 18.722 18.72 18.722v-4c-8.13 0-14.72-6.591-14.72-14.721h-4Zm18.72 18.722c.074 0 .146 0 .219-.002l-.046-4a16.5 16.5 0 0 1-.172.002v4Zm1.766-.762v-.001l-3.14-2.477-.001.001 3.14 2.477Zm57.146-3.238H87.915v4h58.717v-4Zm-2 1.999h4-4Z" mask="url(#g)"/></g><g filter="url(#h)"><mask id="k" fill="#fff"><path fill-rule="evenodd" d="M176.987 67.244h.141c6.674 0 12.084-5.41 12.084-12.084 0-6.673-5.41-12.083-12.084-12.083h-3.262c.112-.827.171-1.672.171-2.53 0-10.243-8.304-18.547-18.548-18.547-10.243 0-18.547 8.304-18.547 18.547 0 .967.074 1.916.216 2.843a12.114 12.114 0 0 0-2.745-.313c-6.674 0-12.084 5.41-12.084 12.084 0 6.673 5.41 12.083 12.084 12.083h.141-.001 42.434Z" clip-rule="evenodd"/></mask><path fill="url(#i)" fill-rule="evenodd" d="M176.987 67.244h.141c6.674 0 12.084-5.41 12.084-12.084 0-6.673-5.41-12.083-12.084-12.083h-3.262c.112-.827.171-1.672.171-2.53 0-10.243-8.304-18.547-18.548-18.547-10.243 0-18.547 8.304-18.547 18.547 0 .967.074 1.916.216 2.843a12.114 12.114 0 0 0-2.745-.313c-6.674 0-12.084 5.41-12.084 12.084 0 6.673 5.41 12.083 12.084 12.083h.141-.001 42.434Z" clip-rule="evenodd" shape-rendering="crispEdges"/><path fill="url(#j)" d="m176.987 67.244.023-2a2 2 0 0 0-2.023 2h2Zm0-24.167h-2a2 2 0 0 0 2.023 2l-.023-2Zm0 0h2a2 2 0 0 0-2-2v2Zm-3.121 0-1.982-.27a2 2 0 0 0 1.982 2.27v-2Zm-36.708.313-.452 1.948a2 2 0 0 0 2.429-2.252l-1.977.304Zm-2.604 23.854 1.571 1.237a2 2 0 0 0-1.594-3.237l.023 2Zm-.001 0-1.571-1.237a1.999 1.999 0 0 0 1.571 3.237v-2Zm42.434 0v2a2 2 0 0 0 2-2h-2Zm-.023 2h.164v-4h-.118l-.046 4Zm.164 0c7.778 0 14.084-6.305 14.084-14.084h-4c0 5.57-4.515 10.084-10.084 10.084v4Zm14.084-14.084c0-7.778-6.306-14.083-14.084-14.083v4c5.569 0 10.084 4.514 10.084 10.084h4Zm-14.084-14.083h-.164l.046 4h.118v-4Zm-2.141 2h4-4Zm-1.121 2h3.121v-4h-3.121v4Zm1.981-1.73c.125-.916.19-1.851.19-2.8h-4c0 .768-.052 1.522-.153 2.26l3.963.54Zm.19-2.8c0-11.348-9.2-20.547-20.548-20.547v4c9.139 0 16.548 7.409 16.548 16.547h4ZM155.489 20c-11.348 0-20.547 9.2-20.547 20.547h4c0-9.138 7.408-16.547 16.547-16.547v-4Zm-20.547 20.547c0 1.07.082 2.12.24 3.147l3.953-.608a16.703 16.703 0 0 1-.193-2.539h-4Zm2.669.895c-1.029-.24-2.1-.365-3.198-.365v4c.791 0 1.558.09 2.293.261l.905-3.896Zm-3.198-.365c-7.779 0-14.084 6.305-14.084 14.084h4c0-5.57 4.514-10.084 10.084-10.084v-4ZM120.329 55.16c0 7.778 6.305 14.083 14.084 14.083v-4c-5.57 0-10.084-4.514-10.084-10.084h-4Zm14.084 14.083h.164l-.046-4h-.118v4Zm1.711-.762.001-.001-3.142-2.475h-.001l3.142 2.476Zm40.863-3.238h-42.434v4h42.434v-4Zm-2 2h4-4Z" mask="url(#k)"/></g><defs><linearGradient id="b" x1="126.412" x2="116.69" y1="69.051" y2="111.242" gradientUnits="userSpaceOnUse"><stop stop-color="#FF4D00"/><stop offset="1" stop-color="#FFB800"/></linearGradient><linearGradient id="c" x1="113.385" x2="131.078" y1="110.659" y2="72.746" gradientUnits="userSpaceOnUse"><stop stop-color="#fff"/><stop offset="1" stop-color="#fff" stop-opacity="0"/></linearGradient><linearGradient id="e" x1="117.274" x2="117.274" y1="1.974" y2="93.355" gradientUnits="userSpaceOnUse"><stop stop-color="#fff"/><stop offset="1" stop-color="#fff" stop-opacity="0"/></linearGradient><linearGradient id="f" x1="117.274" x2="117.274" y1="22" y2="84.606" gradientUnits="userSpaceOnUse"><stop stop-color="#fff"/><stop offset="1" stop-color="#fff" stop-opacity="0"/></linearGradient><linearGradient id="i" x1="158.881" x2="158.881" y1="23.361" y2="72.357" gradientUnits="userSpaceOnUse"><stop stop-color="#fff"/><stop offset="1" stop-color="#fff" stop-opacity="0"/></linearGradient><linearGradient id="j" x1="155.77" x2="155.77" y1="22" y2="67.244" gradientUnits="userSpaceOnUse"><stop stop-color="#fff"/><stop offset="1" stop-color="#fff" stop-opacity="0"/></linearGradient><filter id="a" width="172.102" height="191.287" x="30.533" y="3.774" color-interpolation-filters="sRGB" filterUnits="userSpaceOnUse"><feFlood flood-opacity="0" result="BackgroundImageFix"/><feGaussianBlur in="BackgroundImageFix" stdDeviation="7"/><feComposite in2="SourceAlpha" operator="in" result="effect1_backgroundBlur_3_2385"/><feColorMatrix in="SourceAlpha" result="hardAlpha" values="0 0 0 0 0 0 0 0 0 0 0 0 0 0 0 0 0 0 127 0"/><feOffset dx="-21" dy="15"/><feGaussianBlur stdDeviation="25"/><feComposite in2="hardAlpha" operator="out"/><feColorMatrix values="0 0 0 0 0.113438 0 0 0 0 0.148981 0 0 0 0 0.275 0 0 0 0.25 0"/><feBlend in2="effect1_backgroundBlur_3_2385" result="effect2_dropShadow_3_2385"/><feColorMatrix in="SourceAlpha" result="hardAlpha" values="0 0 0 0 0 0 0 0 0 0 0 0 0 0 0 0 0 0 127 0"/><feOffset/><feGaussianBlur stdDeviation="30.5"/><feComposite in2="hardAlpha" operator="out"/><feColorMatrix values="0 0 0 0 1 0 0 0 0 0.721569 0 0 0 0 0.00392157 0 0 0 0.49 0"/><feBlend in2="effect2_dropShadow_3_2385" result="effect3_dropShadow_3_2385"/><feBlend in="SourceGraphic" in2="effect3_dropShadow_3_2385" result="shape"/></filter><filter id="d" width="192.547" height="162.606" x="0" y="-13" color-interpolation-filters="sRGB" filterUnits="userSpaceOnUse"><feFlood flood-opacity="0" result="BackgroundImageFix"/><feGaussianBlur in="BackgroundImageFix" stdDeviation="7"/><feComposite in2="SourceAlpha" operator="in" result="effect1_backgroundBlur_3_2385"/><feColorMatrix in="SourceAlpha" result="hardAlpha" values="0 0 0 0 0 0 0 0 0 0 0 0 0 0 0 0 0 0 127 0"/><feOffset dx="-21" dy="15"/><feGaussianBlur stdDeviation="25"/><feComposite in2="hardAlpha" operator="out"/><feColorMatrix values="0 0 0 0 0.113725 0 0 0 0 0.14902 0 0 0 0 0.27451 0 0 0 0.25 0"/><feBlend in2="effect1_backgroundBlur_3_2385" result="effect2_dropShadow_3_2385"/><feBlend in="SourceGraphic" in2="effect2_dropShadow_3_2385" result="shape"/></filter><filter id="h" width="166.883" height="145.244" x="51.329" y="-13" color-interpolation-filters="sRGB" filterUnits="userSpaceOnUse"><feFlood flood-opacity="0" result="BackgroundImageFix"/><feGaussianBlur in="BackgroundImageFix" stdDeviation="7"/><feComposite in2="SourceAlpha" operator="in" result="effect1_backgroundBlur_3_2385"/><feColorMatrix in="SourceAlpha" result="hardAlpha" values="0 0 0 0 0 0 0 0 0 0 0 0 0 0 0 0 0 0 127 0"/><feOffset dx="-21" dy="15"/><feGaussianBlur stdDeviation="25"/><feComposite in2="hardAlpha" operator="out"/><feColorMatrix values="0 0 0 0 0.113438 0 0 0 0 0.148981 0 0 0 0 0.275 0 0 0 0.25 0"/><feBlend in2="effect1_backgroundBlur_3_2385" result="effect2_dropShadow_3_2385"/><feBlend in="SourceGraphic" in2="effect2_dropShadow_3_2385" result="shape"/></filter></defs></svg>