<svg xmlns="http://www.w3.org/2000/svg" width="260" height="260" fill="none"><g filter="url(#a)"><circle cx="129.794" cy="129.794" r="29.794" fill="#FFC701" fill-opacity=".35"/></g><circle cx="129.794" cy="130.771" r="27.817" fill="url(#b)" stroke="url(#c)" stroke-width="2"/><mask id="e" width="59" height="42" x="100" y="118" maskUnits="userSpaceOnUse" style="mask-type:alpha"><path fill="url(#d)" d="M158.612 130.771c0 15.915-12.902 28.817-28.818 28.817-15.915 0-28.817-12.902-28.817-28.817 0-15.915 10.704-12.211 26.619-12.211 15.916 0 31.016-3.704 31.016 12.211Z"/></mask><g filter="url(#f)" mask="url(#e)"><path fill="#E18700" fill-rule="evenodd" d="M173.753 183.521c0 11.6-9.403 21.003-21.003 21.003l-.244-.002v.002H78.753l.001-.001-.245.001c-11.6 0-21.002-9.403-21.002-21.002 0-11.6 9.403-21.003 21.002-21.003 9.998 0 18.365 6.987 20.484 16.344l7.112-9.018 22.224-7.326h24.177v.001l.244-.001c11.6 0 21.003 9.403 21.003 21.002Z" clip-rule="evenodd"/></g><defs><linearGradient id="b" x1="129.794" x2="129.794" y1="101.954" y2="159.588" gradientUnits="userSpaceOnUse"><stop stop-color="#FFE600"/><stop offset="1" stop-color="#FF7A00"/></linearGradient><linearGradient id="c" x1="129.794" x2="129.794" y1="101.954" y2="159.588" gradientUnits="userSpaceOnUse"><stop stop-color="#fff"/><stop offset="1" stop-color="#fff" stop-opacity="0"/></linearGradient><linearGradient id="d" x1="129.794" x2="129.794" y1="101.954" y2="159.588" gradientUnits="userSpaceOnUse"><stop stop-color="#FFD600"/><stop offset="1" stop-color="#FF7A00"/></linearGradient><filter id="a" width="259.588" height="259.588" x="0" y="0" color-interpolation-filters="sRGB" filterUnits="userSpaceOnUse"><feFlood flood-opacity="0" result="BackgroundImageFix"/><feBlend in="SourceGraphic" in2="BackgroundImageFix" result="shape"/><feGaussianBlur result="effect1_foregroundBlur_3_2408" stdDeviation="50"/></filter><filter id="f" width="144.246" height="70.005" x="43.507" y="148.519" color-interpolation-filters="sRGB" filterUnits="userSpaceOnUse"><feFlood flood-opacity="0" result="BackgroundImageFix"/><feBlend in="SourceGraphic" in2="BackgroundImageFix" result="shape"/><feGaussianBlur result="effect1_foregroundBlur_3_2408" stdDeviation="7"/></filter></defs></svg>