<svg xmlns="http://www.w3.org/2000/svg" width="173" height="167" fill="none"><g filter="url(#a)"><mask id="d" fill="#fff"><path d="M134.073 69.536c0 17.417-14.12 31.537-31.537 31.537S71 86.953 71 69.536 85.12 38 102.536 38c17.417 0 31.537 14.12 31.537 31.536Z"/></mask><path fill="url(#b)" d="M134.073 69.536c0 17.417-14.12 31.537-31.537 31.537S71 86.953 71 69.536 85.12 38 102.536 38c17.417 0 31.537 14.12 31.537 31.536Z"/><path fill="url(#c)" d="M132.073 69.536c0 16.313-13.224 29.537-29.537 29.537v4c18.522 0 33.537-15.015 33.537-33.537h-4Zm-29.537 29.537C86.224 99.073 73 85.849 73 69.536h-4c0 18.522 15.015 33.537 33.536 33.537v-4ZM73 69.536C73 53.224 86.224 40 102.536 40v-4C84.015 36 69 51.015 69 69.536h4ZM102.536 40c16.313 0 29.537 13.224 29.537 29.536h4c0-18.521-15.015-33.536-33.537-33.536v4Z" mask="url(#d)"/></g><defs><linearGradient id="b" x1="101.104" x2="101.104" y1="38.556" y2="101.628" gradientUnits="userSpaceOnUse"><stop offset="0" stop-color="#DECFFF"/><stop offset="1" stop-color="#7E2FFF"/></linearGradient><linearGradient id="c" x1="121.767" x2="107.012" y1="12.567" y2="87.591" gradientUnits="userSpaceOnUse"><stop stop-color="#fff"/><stop offset="1" stop-color="#fff" stop-opacity="0"/></linearGradient><filter id="a" width="172.073" height="166.073" x="0" y="0" color-interpolation-filters="sRGB" filterUnits="userSpaceOnUse"><feFlood flood-opacity="0" result="BackgroundImageFix"/><feGaussianBlur in="BackgroundImageFix" stdDeviation="7"/><feComposite in2="SourceAlpha" operator="in" result="effect1_backgroundBlur_3_2499"/><feColorMatrix in="SourceAlpha" result="hardAlpha" values="0 0 0 0 0 0 0 0 0 0 0 0 0 0 0 0 0 0 127 0"/><feOffset dx="-21" dy="15"/><feGaussianBlur stdDeviation="25"/><feComposite in2="hardAlpha" operator="out"/><feColorMatrix values="0 0 0 0 0.113438 0 0 0 0 0.148981 0 0 0 0 0.275 0 0 0 0.25 0"/><feBlend in2="effect1_backgroundBlur_3_2499" result="effect2_dropShadow_3_2499"/><feColorMatrix in="SourceAlpha" result="hardAlpha" values="0 0 0 0 0 0 0 0 0 0 0 0 0 0 0 0 0 0 127 0"/><feOffset/><feGaussianBlur stdDeviation="19"/><feComposite in2="hardAlpha" operator="out"/><feColorMatrix values="0 0 0 0 0.619608 0 0 0 0 0.423529 0 0 0 0 1 0 0 0 0.4 0"/><feBlend in2="effect2_dropShadow_3_2499" result="effect3_dropShadow_3_2499"/><feBlend in="SourceGraphic" in2="effect3_dropShadow_3_2499" result="shape"/></filter></defs></svg>