<svg xmlns="http://www.w3.org/2000/svg" width="172" height="167" fill="none"><g filter="url(#a)"><mask id="d" fill="#fff"><path fill-rule="evenodd" d="M100.113 38.202c.867-.093 1.373.928.861 1.635-5.662 7.812-6.825 18.452-2.11 27.618 6.148 11.952 20.146 17.232 32.458 12.78.822-.297 1.663.472 1.333 1.28a31.414 31.414 0 0 1-14.761 16.097c-15.489 7.966-34.502 1.869-42.47-13.62-7.966-15.488-1.868-34.502 13.62-42.468a31.458 31.458 0 0 1 11.069-3.322Z" clip-rule="evenodd"/></mask><path fill="url(#b)" fill-rule="evenodd" d="M100.113 38.202c.867-.093 1.373.928.861 1.635-5.662 7.812-6.825 18.452-2.11 27.618 6.148 11.952 20.146 17.232 32.458 12.78.822-.297 1.663.472 1.333 1.28a31.414 31.414 0 0 1-14.761 16.097c-15.489 7.966-34.502 1.869-42.47-13.62-7.966-15.488-1.868-34.502 13.62-42.468a31.458 31.458 0 0 1 11.069-3.322Z" clip-rule="evenodd"/><path fill="url(#c)" d="m131.322 80.235-.68-1.88.68 1.88Zm1.333 1.28-1.852-.756 1.852.757Zm-31.681-41.678-1.62-1.174 1.62 1.174Zm-.861-1.635.212 1.989-.212-1.989Zm.529 28.338c-4.356-8.47-3.285-18.304 1.951-25.53l-3.239-2.347c-6.087 8.399-7.342 19.844-2.269 29.707l3.557-1.83Zm30 11.814c-11.379 4.114-24.318-.767-30-11.814l-3.557 1.83c6.614 12.858 21.671 18.535 34.917 13.746l-1.36-3.762Zm.161 2.405a29.413 29.413 0 0 1-13.824 15.074l1.829 3.557a33.411 33.411 0 0 0 15.698-17.117l-3.703-1.514Zm-13.824 15.074c-14.506 7.461-32.314 1.75-39.776-12.755l-3.557 1.83c8.472 16.47 28.692 22.954 45.162 14.482l-1.829-3.557ZM77.203 83.078c-7.461-14.506-1.75-32.314 12.756-39.776l-1.83-3.557c-16.47 8.472-22.955 28.692-14.483 45.162l3.557-1.83ZM89.96 43.302a29.46 29.46 0 0 1 10.366-3.111l-.425-3.978a33.46 33.46 0 0 0-11.771 3.532l1.83 3.557Zm42.043 38.814a.935.935 0 0 1-.954-.2 1.068 1.068 0 0 1-.245-1.157l3.703 1.514c.516-1.262.084-2.515-.713-3.267a3.066 3.066 0 0 0-3.151-.652l1.36 3.762ZM102.593 41.01a3.064 3.064 0 0 0 .246-3.206c-.502-.974-1.585-1.735-2.939-1.59l.425 3.977a1.067 1.067 0 0 1-1.043-.556.935.935 0 0 1 .072-.972l3.239 2.347Z" mask="url(#d)"/></g><g filter="url(#e)"><path fill="url(#f)" d="M111.268 41.811c.426-1.445 2.473-1.445 2.899 0 .145.493.53.877 1.022 1.023 1.445.426 1.445 2.472 0 2.899a1.51 1.51 0 0 0-1.022 1.022c-.426 1.445-2.473 1.445-2.899 0a1.51 1.51 0 0 0-1.022-1.022c-1.445-.426-1.445-2.473 0-2.9.492-.145.877-.53 1.022-1.022Z"/><path stroke="url(#g)" stroke-width="2" d="M112.227 42.094c.144-.489.837-.489.981 0a2.512 2.512 0 0 0 1.698 1.699c.489.144.489.836 0 .98a2.512 2.512 0 0 0-1.698 1.699c-.144.489-.837.489-.981 0a2.51 2.51 0 0 0-1.698-1.699c-.489-.144-.489-.836 0-.98a2.51 2.51 0 0 0 1.698-1.699Z"/></g><g filter="url(#h)"><path fill="url(#i)" d="M117.032 62.807c.561-1.902 3.254-1.902 3.815 0a1.988 1.988 0 0 0 1.345 1.345c1.901.56 1.901 3.254 0 3.814a1.988 1.988 0 0 0-1.345 1.345c-.561 1.902-3.254 1.902-3.815 0a1.988 1.988 0 0 0-1.345-1.345c-1.901-.56-1.901-3.254 0-3.814a1.988 1.988 0 0 0 1.345-1.345Z"/><path stroke="url(#j)" stroke-width="2" d="M117.991 63.09c.279-.946 1.618-.946 1.896 0a2.99 2.99 0 0 0 2.022 2.02c.945.28.945 1.618 0 1.897a2.99 2.99 0 0 0-2.022 2.021c-.278.945-1.617.945-1.896 0a2.988 2.988 0 0 0-2.021-2.021c-.945-.279-.945-1.617 0-1.896a2.988 2.988 0 0 0 2.021-2.021Z"/></g><g filter="url(#k)"><path fill="url(#l)" d="M137.939 56.2c.359-1.217 2.083-1.217 2.441 0 .123.415.447.74.861.861 1.217.359 1.217 2.083 0 2.441a1.275 1.275 0 0 0-.861.861c-.358 1.217-2.082 1.217-2.441 0a1.272 1.272 0 0 0-.861-.86c-1.217-.36-1.217-2.083 0-2.442.415-.122.739-.446.861-.86Z"/><path stroke="url(#m)" stroke-width="2" d="M138.898 56.483a.257.257 0 0 1 .096-.147.294.294 0 0 1 .166-.048.29.29 0 0 1 .165.048.252.252 0 0 1 .096.147c.218.74.797 1.32 1.537 1.537.086.026.126.064.148.096.027.04.048.097.048.166a.294.294 0 0 1-.048.165c-.022.032-.062.07-.148.096a2.272 2.272 0 0 0-1.537 1.537.252.252 0 0 1-.096.148.29.29 0 0 1-.165.048.294.294 0 0 1-.166-.048.257.257 0 0 1-.096-.148 2.272 2.272 0 0 0-1.537-1.537c-.086-.025-.125-.063-.147-.096a.287.287 0 0 1-.048-.165c0-.069.02-.126.048-.166.022-.032.061-.07.147-.096a2.272 2.272 0 0 0 1.537-1.537Z"/></g><g filter="url(#n)"><path fill="url(#o)" d="M130.94 37.924c.359-1.217 2.082-1.217 2.441 0 .122.415.446.739.861.861 1.217.359 1.217 2.083 0 2.441a1.272 1.272 0 0 0-.861.861c-.359 1.217-2.082 1.217-2.441 0a1.273 1.273 0 0 0-.861-.86c-1.217-.36-1.217-2.083 0-2.442.414-.122.739-.446.861-.86Z"/><path stroke="url(#p)" stroke-width="2" d="M131.899 38.207a.252.252 0 0 1 .096-.148.29.29 0 0 1 .165-.047c.069 0 .127.02.166.047.032.023.07.062.096.148.218.74.797 1.319 1.537 1.537a.256.256 0 0 1 .148.096c.027.04.047.097.047.166 0 .068-.02.126-.047.165a.256.256 0 0 1-.148.096 2.272 2.272 0 0 0-1.537 1.537.257.257 0 0 1-.096.148.291.291 0 0 1-.166.048.29.29 0 0 1-.165-.048.252.252 0 0 1-.096-.148 2.272 2.272 0 0 0-1.537-1.537.256.256 0 0 1-.148-.096.294.294 0 0 1-.048-.165c0-.069.021-.127.048-.166a.256.256 0 0 1 .148-.096 2.272 2.272 0 0 0 1.537-1.537Z"/></g><defs><linearGradient id="f" x1="112.382" x2="112.382" y1="37.025" y2="51.801" gradientUnits="userSpaceOnUse"><stop offset="0" stop-color="#D6C2FF"/><stop offset="1" stop-color="#7E2FFF"/></linearGradient><linearGradient id="p" x1="132.16" x2="132.16" y1="33.784" y2="41.479" gradientUnits="userSpaceOnUse"><stop stop-color="#fff"/><stop offset="1" stop-color="#fff" stop-opacity="0"/></linearGradient><linearGradient id="o" x1="132.16" x2="132.16" y1="33.784" y2="46.227" gradientUnits="userSpaceOnUse"><stop stop-color="#FFE600"/><stop offset="1" stop-color="#FF7A00"/></linearGradient><linearGradient id="m" x1="139.16" x2="139.16" y1="52.06" y2="59.755" gradientUnits="userSpaceOnUse"><stop stop-color="#fff"/><stop offset="1" stop-color="#fff" stop-opacity="0"/></linearGradient><linearGradient id="l" x1="138.877" x2="138.877" y1="52.17" y2="64.613" gradientUnits="userSpaceOnUse"><stop offset="0" stop-color="#D6C2FF"/><stop offset="1" stop-color="#7E2FFF"/></linearGradient><linearGradient id="b" x1="83.477" x2="112.326" y1="45.012" y2="101.1" gradientUnits="userSpaceOnUse"><stop offset="0" stop-color="#D6C2FF"/><stop offset="1" stop-color="#7E2FFF"/></linearGradient><linearGradient id="c" x1="86.842" x2="105.047" y1="14.056" y2="87.665" gradientUnits="userSpaceOnUse"><stop stop-color="#fff"/><stop offset="1" stop-color="#fff" stop-opacity="0"/></linearGradient><linearGradient id="j" x1="118.939" x2="118.939" y1="56.338" y2="68.361" gradientUnits="userSpaceOnUse"><stop stop-color="#fff"/><stop offset="1" stop-color="#fff" stop-opacity="0"/></linearGradient><linearGradient id="g" x1="112.718" x2="112.718" y1="36.895" y2="46.033" gradientUnits="userSpaceOnUse"><stop stop-color="#fff"/><stop offset="1" stop-color="#fff" stop-opacity="0"/></linearGradient><linearGradient id="i" x1="118.939" x2="118.939" y1="56.338" y2="75.78" gradientUnits="userSpaceOnUse"><stop stop-color="#FFE600"/><stop offset="1" stop-color="#FF7A00"/></linearGradient><filter id="e" width="107.111" height="107.111" x="38.162" y="5.728" color-interpolation-filters="sRGB" filterUnits="userSpaceOnUse"><feFlood flood-opacity="0" result="BackgroundImageFix"/><feGaussianBlur in="BackgroundImageFix" stdDeviation="7"/><feComposite in2="SourceAlpha" operator="in" result="effect1_backgroundBlur_3_2448"/><feColorMatrix in="SourceAlpha" result="hardAlpha" values="0 0 0 0 0 0 0 0 0 0 0 0 0 0 0 0 0 0 127 0"/><feOffset dx="-21" dy="15"/><feGaussianBlur stdDeviation="25"/><feComposite in2="hardAlpha" operator="out"/><feColorMatrix values="0 0 0 0 0.113438 0 0 0 0 0.148981 0 0 0 0 0.275 0 0 0 0.25 0"/><feBlend in2="effect1_backgroundBlur_3_2448" result="effect2_dropShadow_3_2448"/><feColorMatrix in="SourceAlpha" result="hardAlpha" values="0 0 0 0 0 0 0 0 0 0 0 0 0 0 0 0 0 0 127 0"/><feOffset/><feGaussianBlur stdDeviation="9"/><feComposite in2="hardAlpha" operator="out"/><feColorMatrix values="0 0 0 0 0.607843 0 0 0 0 0.392157 0 0 0 0 1 0 0 0 0.56 0"/><feBlend in2="effect2_dropShadow_3_2448" result="effect3_dropShadow_3_2448"/><feBlend in="SourceGraphic" in2="effect3_dropShadow_3_2448" result="shape"/></filter><filter id="n" width="105.988" height="105.988" x="58.166" y="2.012" color-interpolation-filters="sRGB" filterUnits="userSpaceOnUse"><feFlood flood-opacity="0" result="BackgroundImageFix"/><feGaussianBlur in="BackgroundImageFix" stdDeviation="7"/><feComposite in2="SourceAlpha" operator="in" result="effect1_backgroundBlur_3_2448"/><feColorMatrix in="SourceAlpha" result="hardAlpha" values="0 0 0 0 0 0 0 0 0 0 0 0 0 0 0 0 0 0 127 0"/><feOffset dx="-21" dy="15"/><feGaussianBlur stdDeviation="25"/><feComposite in2="hardAlpha" operator="out"/><feColorMatrix values="0 0 0 0 0.113438 0 0 0 0 0.148981 0 0 0 0 0.275 0 0 0 0.25 0"/><feBlend in2="effect1_backgroundBlur_3_2448" result="effect2_dropShadow_3_2448"/><feColorMatrix in="SourceAlpha" result="hardAlpha" values="0 0 0 0 0 0 0 0 0 0 0 0 0 0 0 0 0 0 127 0"/><feOffset/><feGaussianBlur stdDeviation="9"/><feComposite in2="hardAlpha" operator="out"/><feColorMatrix values="0 0 0 0 0.996078 0 0 0 0 0.764706 0 0 0 0 0.0117647 0 0 0 0.47 0"/><feBlend in2="effect2_dropShadow_3_2448" result="effect3_dropShadow_3_2448"/><feBlend in="SourceGraphic" in2="effect3_dropShadow_3_2448" result="shape"/></filter><filter id="k" width="105.988" height="105.988" x="65.166" y="20.288" color-interpolation-filters="sRGB" filterUnits="userSpaceOnUse"><feFlood flood-opacity="0" result="BackgroundImageFix"/><feGaussianBlur in="BackgroundImageFix" stdDeviation="7"/><feComposite in2="SourceAlpha" operator="in" result="effect1_backgroundBlur_3_2448"/><feColorMatrix in="SourceAlpha" result="hardAlpha" values="0 0 0 0 0 0 0 0 0 0 0 0 0 0 0 0 0 0 127 0"/><feOffset dx="-21" dy="15"/><feGaussianBlur stdDeviation="25"/><feComposite in2="hardAlpha" operator="out"/><feColorMatrix values="0 0 0 0 0.113438 0 0 0 0 0.148981 0 0 0 0 0.275 0 0 0 0.25 0"/><feBlend in2="effect1_backgroundBlur_3_2448" result="effect2_dropShadow_3_2448"/><feColorMatrix in="SourceAlpha" result="hardAlpha" values="0 0 0 0 0 0 0 0 0 0 0 0 0 0 0 0 0 0 127 0"/><feOffset/><feGaussianBlur stdDeviation="9"/><feComposite in2="hardAlpha" operator="out"/><feColorMatrix values="0 0 0 0 0.607843 0 0 0 0 0.392157 0 0 0 0 1 0 0 0 0.56 0"/><feBlend in2="effect2_dropShadow_3_2448" result="effect3_dropShadow_3_2448"/><feBlend in="SourceGraphic" in2="effect3_dropShadow_3_2448" result="shape"/></filter><filter id="h" width="109.357" height="109.357" x="43.261" y="26.381" color-interpolation-filters="sRGB" filterUnits="userSpaceOnUse"><feFlood flood-opacity="0" result="BackgroundImageFix"/><feGaussianBlur in="BackgroundImageFix" stdDeviation="7"/><feComposite in2="SourceAlpha" operator="in" result="effect1_backgroundBlur_3_2448"/><feColorMatrix in="SourceAlpha" result="hardAlpha" values="0 0 0 0 0 0 0 0 0 0 0 0 0 0 0 0 0 0 127 0"/><feOffset dx="-21" dy="15"/><feGaussianBlur stdDeviation="25"/><feComposite in2="hardAlpha" operator="out"/><feColorMatrix values="0 0 0 0 0.113438 0 0 0 0 0.148981 0 0 0 0 0.275 0 0 0 0.25 0"/><feBlend in2="effect1_backgroundBlur_3_2448" result="effect2_dropShadow_3_2448"/><feColorMatrix in="SourceAlpha" result="hardAlpha" values="0 0 0 0 0 0 0 0 0 0 0 0 0 0 0 0 0 0 127 0"/><feOffset/><feGaussianBlur stdDeviation="9"/><feComposite in2="hardAlpha" operator="out"/><feColorMatrix values="0 0 0 0 0.996078 0 0 0 0 0.764706 0 0 0 0 0.0117647 0 0 0 0.47 0"/><feBlend in2="effect2_dropShadow_3_2448" result="effect3_dropShadow_3_2448"/><feBlend in="SourceGraphic" in2="effect3_dropShadow_3_2448" result="shape"/></filter><filter id="a" width="169.802" height="165.914" x=".926" y=".196" color-interpolation-filters="sRGB" filterUnits="userSpaceOnUse"><feFlood flood-opacity="0" result="BackgroundImageFix"/><feGaussianBlur in="BackgroundImageFix" stdDeviation="7"/><feComposite in2="SourceAlpha" operator="in" result="effect1_backgroundBlur_3_2448"/><feColorMatrix in="SourceAlpha" result="hardAlpha" values="0 0 0 0 0 0 0 0 0 0 0 0 0 0 0 0 0 0 127 0"/><feOffset dx="-21" dy="15"/><feGaussianBlur stdDeviation="25"/><feComposite in2="hardAlpha" operator="out"/><feColorMatrix values="0 0 0 0 0.113438 0 0 0 0 0.148981 0 0 0 0 0.275 0 0 0 0.25 0"/><feBlend in2="effect1_backgroundBlur_3_2448" result="effect2_dropShadow_3_2448"/><feColorMatrix in="SourceAlpha" result="hardAlpha" values="0 0 0 0 0 0 0 0 0 0 0 0 0 0 0 0 0 0 127 0"/><feOffset/><feGaussianBlur stdDeviation="19"/><feComposite in2="hardAlpha" operator="out"/><feColorMatrix values="0 0 0 0 0.619608 0 0 0 0 0.423529 0 0 0 0 1 0 0 0 0.4 0"/><feBlend in2="effect2_dropShadow_3_2448" result="effect3_dropShadow_3_2448"/><feBlend in="SourceGraphic" in2="effect3_dropShadow_3_2448" result="shape"/></filter></defs></svg>