<svg xmlns="http://www.w3.org/2000/svg" width="212" height="190" fill="none"><g filter="url(#a)"><mask id="d" fill="#fff"><path fill-rule="evenodd" d="M140.832 38.202c.868-.093 1.373.928.861 1.635-5.662 7.812-6.825 18.452-2.11 27.618 6.148 11.952 20.146 17.232 32.459 12.78.821-.297 1.663.472 1.332 1.28a31.41 31.41 0 0 1-14.761 16.097c-15.488 7.966-34.502 1.869-42.469-13.62-7.966-15.488-1.869-34.502 13.619-42.468a31.46 31.46 0 0 1 11.069-3.322Z" clip-rule="evenodd"/></mask><path fill="url(#b)" fill-rule="evenodd" d="M140.832 38.202c.868-.093 1.373.928.861 1.635-5.662 7.812-6.825 18.452-2.11 27.618 6.148 11.952 20.146 17.232 32.459 12.78.821-.297 1.663.472 1.332 1.28a31.41 31.41 0 0 1-14.761 16.097c-15.488 7.966-34.502 1.869-42.469-13.62-7.966-15.488-1.869-34.502 13.619-42.468a31.46 31.46 0 0 1 11.069-3.322Z" clip-rule="evenodd"/><path fill="url(#c)" d="m172.042 80.235.68 1.88-.68-1.88Zm-30.349-40.398-1.619-1.174 1.619 1.174Zm-.861-1.635-.212-1.989.212 1.989Zm.53 28.338c-4.357-8.47-3.286-18.304 1.951-25.53l-3.239-2.347c-6.087 8.399-7.342 19.844-2.269 29.707l3.557-1.83Zm30 11.814c-11.379 4.114-24.318-.767-30-11.814l-3.557 1.83c6.614 12.858 21.671 18.535 34.917 13.746l-1.36-3.762Zm.161 2.405a29.41 29.41 0 0 1-13.825 15.074l1.83 3.557a33.41 33.41 0 0 0 15.697-17.117l-3.702-1.514Zm-13.825 15.074c-14.506 7.461-32.314 1.75-39.775-12.755l-3.557 1.83c8.472 16.47 28.692 22.954 45.162 14.482l-1.83-3.557Zm-39.775-12.755c-7.462-14.506-1.751-32.314 12.755-39.776l-1.829-3.557c-16.471 8.472-22.955 28.692-14.483 45.162l3.557-1.83Zm12.755-39.776a29.467 29.467 0 0 1 10.366-3.111l-.424-3.978a33.454 33.454 0 0 0-11.771 3.532l1.829 3.557Zm42.044 38.814a.934.934 0 0 1-.954-.2 1.067 1.067 0 0 1-.245-1.157l3.702 1.514c.516-1.262.085-2.515-.713-3.267a3.064 3.064 0 0 0-3.15-.652l1.36 3.762ZM143.313 41.01a3.066 3.066 0 0 0 .245-3.206c-.501-.974-1.585-1.735-2.938-1.59l.424 3.977a1.066 1.066 0 0 1-1.042-.556.933.933 0 0 1 .072-.972l3.239 2.347Z" mask="url(#d)"/></g><g filter="url(#e)"><mask id="h" fill="#fff"><path fill-rule="evenodd" d="m139.655 124.751.177.001c8.382 0 15.178-6.795 15.178-15.178 0-8.383-6.796-15.178-15.178-15.178h-4.098c.142-1.039.215-2.1.215-3.177 0-12.867-10.431-23.297-23.297-23.297-12.867 0-23.297 10.43-23.297 23.297 0 1.214.093 2.406.272 3.57a15.224 15.224 0 0 0-3.449-.393C77.796 94.396 71 101.19 71 109.574c0 8.383 6.796 15.178 15.178 15.178l.177-.001v.001h53.3v-.001Z" clip-rule="evenodd"/></mask><path fill="url(#f)" fill-rule="evenodd" d="m139.655 124.751.177.001c8.382 0 15.178-6.795 15.178-15.178 0-8.383-6.796-15.178-15.178-15.178h-4.098c.142-1.039.215-2.1.215-3.177 0-12.867-10.431-23.297-23.297-23.297-12.867 0-23.297 10.43-23.297 23.297 0 1.214.093 2.406.272 3.57a15.224 15.224 0 0 0-3.449-.393C77.796 94.396 71 101.19 71 109.574c0 8.383 6.796 15.178 15.178 15.178l.177-.001v.001h53.3v-.001Z" clip-rule="evenodd" shape-rendering="crispEdges"/><path fill="url(#g)" d="m139.655 124.751.023-1.999a2 2 0 0 0-2.023 1.999h2Zm0-30.354h-2a2 2 0 0 0 2.023 2l-.023-2Zm0-.001h2a2 2 0 0 0-2-2v2Zm-3.921 0-1.982-.27a2 2 0 0 0 1.982 2.27v-2Zm-46.107.393-.453 1.948a2 2 0 0 0 2.43-2.252l-1.977.304Zm-3.272 29.962 1.57 1.24a2 2 0 0 0-1.593-3.239l.023 1.999Zm0 .001-1.57-1.239a2 2 0 0 0 1.57 3.239v-2Zm53.3 0v2a2 2 0 0 0 2-2h-2Zm-.023 1.999.2.001v-4h-.154l-.046 3.999Zm.2.001c9.487 0 17.178-7.691 17.178-17.178h-4c0 7.278-5.9 13.178-13.178 13.178v4Zm17.178-17.178c0-9.487-7.691-17.178-17.178-17.178v4c7.278 0 13.178 5.9 13.178 13.178h4Zm-17.178-17.178-.2.001.046 4 .154-.001v-4Zm-2.177 2h4-4Zm-1.921 2h3.921v-4h-3.921v4Zm1.982-1.73a25.64 25.64 0 0 0 .233-3.447h-4c0 .987-.067 1.957-.197 2.907l3.964.54Zm.233-3.447c0-13.971-11.326-25.297-25.297-25.297v4c11.762 0 21.297 9.535 21.297 21.297h4Zm-25.297-25.297c-13.971 0-25.297 11.326-25.297 25.297h4c0-11.762 9.535-21.297 21.297-21.297v-4ZM87.355 91.219c0 1.316.1 2.61.295 3.874l3.954-.608a21.477 21.477 0 0 1-.249-3.266h-4Zm2.724 1.622a17.22 17.22 0 0 0-3.9-.445v4c1.032 0 2.035.118 2.995.341l.905-3.896Zm-3.9-.445C76.69 92.396 69 100.087 69 109.574h4c0-7.278 5.9-13.178 13.178-13.178v-4ZM69 109.574c0 9.487 7.691 17.178 17.178 17.178v-4c-7.278 0-13.178-5.9-13.178-13.178h-4Zm17.178 17.178.2-.001-.046-3.999h-.154v4Zm1.746-.76.001-.001-3.14-2.479v.001l3.14 2.479Zm51.731-3.24h-53.3v4h53.3v-4Zm-2 1.999v.001h4v-.001h-4Z" mask="url(#h)"/></g><defs><linearGradient id="b" x1="124.196" x2="153.046" y1="45.012" y2="101.1" gradientUnits="userSpaceOnUse"><stop offset="0" stop-color="#D4C0FF"/><stop offset="1" stop-color="#7E2FFF"/></linearGradient><linearGradient id="c" x1="127.562" x2="145.766" y1="14.056" y2="87.665" gradientUnits="userSpaceOnUse"><stop stop-color="#fff"/><stop offset="1" stop-color="#fff" stop-opacity="0"/></linearGradient><linearGradient id="f" x1="116.912" x2="116.912" y1="69.632" y2="131.174" gradientUnits="userSpaceOnUse"><stop stop-color="#fff"/><stop offset="1" stop-color="#fff" stop-opacity="0"/></linearGradient><linearGradient id="g" x1="113.005" x2="113.005" y1="67.922" y2="124.752" gradientUnits="userSpaceOnUse"><stop stop-color="#fff"/><stop offset="1" stop-color="#fff" stop-opacity="0"/></linearGradient><filter id="a" width="169.802" height="165.914" x="41.645" y=".196" color-interpolation-filters="sRGB" filterUnits="userSpaceOnUse"><feFlood flood-opacity="0" result="BackgroundImageFix"/><feGaussianBlur in="BackgroundImageFix" stdDeviation="7"/><feComposite in2="SourceAlpha" operator="in" result="effect1_backgroundBlur_3_2397"/><feColorMatrix in="SourceAlpha" result="hardAlpha" values="0 0 0 0 0 0 0 0 0 0 0 0 0 0 0 0 0 0 127 0"/><feOffset dx="-21" dy="15"/><feGaussianBlur stdDeviation="25"/><feComposite in2="hardAlpha" operator="out"/><feColorMatrix values="0 0 0 0 0.113438 0 0 0 0 0.148981 0 0 0 0 0.275 0 0 0 0.25 0"/><feBlend in2="effect1_backgroundBlur_3_2397" result="effect2_dropShadow_3_2397"/><feColorMatrix in="SourceAlpha" result="hardAlpha" values="0 0 0 0 0 0 0 0 0 0 0 0 0 0 0 0 0 0 127 0"/><feOffset/><feGaussianBlur stdDeviation="19"/><feComposite in2="hardAlpha" operator="out"/><feColorMatrix values="0 0 0 0 0.619608 0 0 0 0 0.423529 0 0 0 0 1 0 0 0 0.4 0"/><feBlend in2="effect2_dropShadow_3_2397" result="effect3_dropShadow_3_2397"/><feBlend in="SourceGraphic" in2="effect3_dropShadow_3_2397" result="shape"/></filter><filter id="e" width="184.01" height="156.83" x="0" y="32.922" color-interpolation-filters="sRGB" filterUnits="userSpaceOnUse"><feFlood flood-opacity="0" result="BackgroundImageFix"/><feGaussianBlur in="BackgroundImageFix" stdDeviation="7"/><feComposite in2="SourceAlpha" operator="in" result="effect1_backgroundBlur_3_2397"/><feColorMatrix in="SourceAlpha" result="hardAlpha" values="0 0 0 0 0 0 0 0 0 0 0 0 0 0 0 0 0 0 127 0"/><feOffset dx="-21" dy="15"/><feGaussianBlur stdDeviation="25"/><feComposite in2="hardAlpha" operator="out"/><feColorMatrix values="0 0 0 0 0.113438 0 0 0 0 0.148981 0 0 0 0 0.275 0 0 0 0.25 0"/><feBlend in2="effect1_backgroundBlur_3_2397" result="effect2_dropShadow_3_2397"/><feBlend in="SourceGraphic" in2="effect2_dropShadow_3_2397" result="shape"/></filter></defs></svg>