<svg width="25" height="25" viewBox="0 0 25 25" fill="none" xmlns="http://www.w3.org/2000/svg">
<path d="M5.68439 11.126H7.46251M8.64741 11.126H9.94064M15.0594 11.126H13.4969M12.3115 11.126H11.1797M9.29428 11.126L11.8266 17.376L14.2511 11.126" stroke="white" stroke-linecap="round" stroke-linejoin="round"/>
<path d="M11.7188 11.126L8.97084 17.376L6.54636 11.126" stroke="white" stroke-linecap="round" stroke-linejoin="round"/>
<path d="M20.8781 15.9214C22.3328 16.137 22.6562 13.012 22.6562 11.7188C22.6562 9.18646 19.8542 10.4255 18.9385 10.8026C18.7229 10.9104 18.4 11.0724 18.0224 10.8026C17.6448 10.5328 17.6995 9.88698 17.6995 9.88698L18.1302 5.14532C18.1302 4.66094 17.5375 4.3375 17.1068 4.3375L12.7422 4.17605C12.7422 4.17605 11.988 4.17605 12.2036 4.98386C12.3651 5.68438 13.2276 6.86927 13.0656 7.51615C12.85 8.21667 11.4495 8.48594 10.8568 8.59427C7.51615 9.07865 7.9474 5.73802 8.00104 4.49896C8.00104 4.01459 7.62396 4.01459 7.13906 4.01459L3.15208 4.28334C2.66719 4.28334 2.34375 4.55261 2.34375 5.09167V20.0703C2.34375 20.5547 2.72083 20.9859 3.15208 20.9859H16.8375C17.3219 20.9859 17.6453 20.5552 17.6453 20.0703V16.4604C17.6453 16.4604 17.6995 15.275 18.0766 15.0052C18.5609 14.6823 20.1234 15.8135 20.8786 15.9219L20.8781 15.9214Z" stroke="white" stroke-linecap="round" stroke-linejoin="round"/>
</svg>
