<svg width="25" height="25" viewBox="0 0 25 25" fill="none" xmlns="http://www.w3.org/2000/svg">
<path d="M3.88022 2.86458C3.60849 2.87137 3.35018 2.98411 3.16043 3.17873C2.97067 3.37335 2.86451 3.63443 2.86459 3.90624V7.39583L17.6042 22.1354H21.1198C21.3961 22.1354 21.661 22.0257 21.8564 21.8303C22.0517 21.635 22.1615 21.37 22.1615 21.0937V3.8802C22.1547 3.60847 22.0419 3.35016 21.8473 3.16041C21.6527 2.97066 21.3916 2.86449 21.1198 2.86458H3.88022ZM15.7083 4.89062C16.8747 4.89337 17.9926 5.35793 18.8173 6.18269C19.6421 7.00745 20.1066 8.12528 20.1094 9.29166C20.1094 11.8542 18.0261 13.849 15.7083 16.4687C13.4896 13.9583 11.4896 12.0208 11.3229 9.61458V9.29166C11.3229 8.12443 11.7866 7.00501 12.612 6.17966C13.4373 5.3543 14.5567 4.89062 15.724 4.89062H15.7083ZM15.7083 7.17708C15.1475 7.17708 14.6097 7.39986 14.2131 7.79643C13.8165 8.19299 13.5938 8.73084 13.5938 9.29166C13.5938 9.85248 13.8165 10.3903 14.2131 10.7869C14.6097 11.1835 15.1475 11.4062 15.7083 11.4062C16.2692 11.4062 16.807 11.1835 17.2036 10.7869C17.6001 10.3903 17.8229 9.85248 17.8229 9.29166C17.8229 8.73084 17.6001 8.19299 17.2036 7.79643C16.807 7.39986 16.2692 7.17708 15.7083 7.17708ZM2.86459 14.1562V21.1198C2.86459 21.3961 2.97434 21.661 3.16969 21.8564C3.36504 22.0517 3.62999 22.1615 3.90626 22.1615H10.8438L2.86459 14.1562Z" stroke="white" stroke-linecap="round" stroke-linejoin="round"/>
</svg>
