<?xml version="1.0" encoding="utf-8"?>
<!-- Generator: $$$/GeneralStr/196=Adobe Illustrator 27.6.0, SVG Export Plug-In . SVG Version: 6.00 Build 0)  -->
<svg version="1.1" id="Calque_1" xmlns="http://www.w3.org/2000/svg" xmlns:xlink="http://www.w3.org/1999/xlink" x="0px" y="0px"
	 viewBox="0 0 98 80" style="enable-background:new 0 0 98 80;" xml:space="preserve">
<style type="text/css">
	.st0{fill:#FFC701;fill-opacity:0.5;}
	.st1{fill:url(#SVGID_1_);stroke:url(#SVGID_00000140008110823029662390000011027381266737604269_);stroke-width:2;}
	.st2{fill:url(#SVGID_00000135665486013780125740000009973588638007401655_);filter:url(#Adobe_OpacityMaskFilter);}
	.st3{mask:url(#e_00000011715932054504128350000003143145409464128908_);}
	.st4{fill-rule:evenodd;clip-rule:evenodd;fill:#E18700;}
	.st5{fill-rule:evenodd;clip-rule:evenodd;fill:url(#SVGID_00000149352266021748921500000015979755097640630950_);}
	
		.st6{fill-rule:evenodd;clip-rule:evenodd;fill:#FFFFFF;filter:url(#Adobe_OpacityMaskFilter_00000112610531759155712800000004786640407092200328_);}
	
		.st7{mask:url(#j_00000029737540737112325900000003462940912715397767_);fill:url(#SVGID_00000142895205159950439290000008550509363274520746_);}
	.st8{fill-rule:evenodd;clip-rule:evenodd;fill:url(#SVGID_00000114063230487327412540000005003743138847622833_);}
	
		.st9{fill-rule:evenodd;clip-rule:evenodd;fill:#FFFFFF;filter:url(#Adobe_OpacityMaskFilter_00000106112543298320812020000010472072859893512843_);}
	
		.st10{mask:url(#n_00000077314803526651705460000006629155370682010542_);fill:url(#SVGID_00000103232111524065752240000018388077641473014662_);}
	
		.st11{fill:url(#SVGID_00000144308623832253957080000000667220174363232903_);stroke:url(#SVGID_00000016037097293345461030000002035665182564447888_);stroke-width:2;}
	
		.st12{fill:url(#SVGID_00000142160904069475751710000016174338221008538262_);stroke:url(#SVGID_00000162349276158675775010000008443309668304332451_);stroke-width:2;}
	
		.st13{fill:url(#SVGID_00000056407776899041659950000007109582815270255507_);stroke:url(#SVGID_00000039120572709336399660000003852239384436530305_);stroke-width:2;}
	
		.st14{fill:url(#SVGID_00000099622587085297517630000002826474445157901199_);stroke:url(#SVGID_00000031200362092188988960000005831556919836865442_);stroke-width:2;}
	
		.st15{fill:url(#SVGID_00000027583798344167916840000007709314402576229031_);stroke:url(#SVGID_00000181765979014359770580000000493166477421702284_);stroke-width:2;}
</style>
<g>
	<circle class="st0" cx="54.9" cy="17.1" r="17.1"/>
</g>
<linearGradient id="SVGID_1_" gradientUnits="userSpaceOnUse" x1="54.8962" y1="79.8772" x2="54.8962" y2="46.7464" gradientTransform="matrix(1 0 0 -1 0 81)">
	<stop  offset="0" style="stop-color:#FFE600"/>
	<stop  offset="1" style="stop-color:#FF7A00"/>
</linearGradient>
<linearGradient id="SVGID_00000161602678025993449770000007479913130937536703_" gradientUnits="userSpaceOnUse" x1="54.8962" y1="80.1545" x2="54.8962" y2="46.4684" gradientTransform="matrix(1 0 0 -1 0 81)">
	<stop  offset="0" style="stop-color:#FFFFFF"/>
	<stop  offset="1" style="stop-color:#FFFFFF;stop-opacity:0"/>
</linearGradient>
<circle style="fill:url(#SVGID_1_);stroke:url(#SVGID_00000161602678025993449770000007479913130937536703_);stroke-width:2;" cx="54.9" cy="17.7" r="15.8"/>
<defs>
	<filter id="Adobe_OpacityMaskFilter" filterUnits="userSpaceOnUse" x="13.3" y="14.3" width="66.8" height="45.8">
		<feColorMatrix  type="matrix" values="1 0 0 0 0  0 1 0 0 0  0 0 1 0 0  0 0 0 1 0"/>
	</filter>
</defs>
<mask maskUnits="userSpaceOnUse" x="13.3" y="14.3" width="66.8" height="45.8" id="e_00000011715932054504128350000003143145409464128908_">
	
		<linearGradient id="SVGID_00000134967614945221843120000012184164001183589297_" gradientUnits="userSpaceOnUse" x1="54.8958" y1="79.8772" x2="54.8958" y2="46.7464" gradientTransform="matrix(1 0 0 -1 0 81)">
		<stop  offset="0" style="stop-color:#FFD600"/>
		<stop  offset="1" style="stop-color:#FF7A00"/>
	</linearGradient>
	<path style="fill:url(#SVGID_00000134967614945221843120000012184164001183589297_);filter:url(#Adobe_OpacityMaskFilter);" d="
		M71.5,17.7c0,9.1-7.4,16.6-16.6,16.6s-16.6-7.4-16.6-16.6s6.2-7,15.3-7S71.5,8.5,71.5,17.7z"/>
</mask>
<g class="st3">
	<path class="st4" d="M68,60.1l0.1,0c6.7,0,12.1-5.4,12.1-12.1s-5.4-12.1-12.1-12.1h-7.8c0.2-1,0.3-2,0.3-3.1
		c0-10.2-8.3-18.5-18.5-18.5s-18.5,8.3-18.5,18.5c0,1.1,0.1,2.2,0.3,3.2c-5.9,0.8-10.4,5.9-10.4,12c0,6.7,5.4,12.1,12.1,12.1l0.1,0
		v0L68,60.1L68,60.1L68,60.1z"/>
</g>
<g>
	
		<linearGradient id="SVGID_00000147930436107069793870000013801203240005728188_" gradientUnits="userSpaceOnUse" x1="39.7344" y1="79.1747" x2="39.7344" y2="13.1946" gradientTransform="matrix(1 0 0 -1 0 81)">
		<stop  offset="0" style="stop-color:#FFFFFF"/>
		<stop  offset="1" style="stop-color:#FFFFFF;stop-opacity:0"/>
	</linearGradient>
	
		<path shape-rendering="crispEdges" style="fill-rule:evenodd;clip-rule:evenodd;fill:url(#SVGID_00000147930436107069793870000013801203240005728188_);" d="
		M60.9,61.5l0.1,0c6.7,0,12.1-5.4,12.1-12.1c0-6.7-5.4-12.1-12.1-12.1h-3.3c0.1-0.8,0.2-1.7,0.2-2.5c0-10.2-8.3-18.5-18.5-18.5
		s-18.5,8.3-18.5,18.5c0,1,0.1,1.9,0.2,2.8c-0.9-0.2-1.8-0.3-2.7-0.3c-6.7,0-12.1,5.4-12.1,12.1c0,6.7,5.4,12.1,12.1,12.1l0.1,0v0
		L60.9,61.5L60.9,61.5z"/>
	<defs>
		
			<filter id="Adobe_OpacityMaskFilter_00000108991070528110823450000015203885427562142374_" filterUnits="userSpaceOnUse" x="4.9" y="14.8" width="69.7" height="48.1">
			<feColorMatrix  type="matrix" values="1 0 0 0 0  0 1 0 0 0  0 0 1 0 0  0 0 0 1 0"/>
		</filter>
	</defs>
	
		<mask maskUnits="userSpaceOnUse" x="4.9" y="14.8" width="69.7" height="48.1" id="j_00000029737540737112325900000003462940912715397767_">
		
			<path style="fill-rule:evenodd;clip-rule:evenodd;fill:#FFFFFF;filter:url(#Adobe_OpacityMaskFilter_00000108991070528110823450000015203885427562142374_);" d="
			M60.9,61.5l0.1,0c6.7,0,12.1-5.4,12.1-12.1c0-6.7-5.4-12.1-12.1-12.1h-3.3c0.1-0.8,0.2-1.7,0.2-2.5c0-10.2-8.3-18.5-18.5-18.5
			s-18.5,8.3-18.5,18.5c0,1,0.1,1.9,0.2,2.8c-0.9-0.2-1.8-0.3-2.7-0.3c-6.7,0-12.1,5.4-12.1,12.1c0,6.7,5.4,12.1,12.1,12.1l0.1,0v0
			L60.9,61.5L60.9,61.5z"/>
	</mask>
	
		<linearGradient id="SVGID_00000083770960174364886580000012011846555285884086_" gradientUnits="userSpaceOnUse" x1="39.7344" y1="64.7158" x2="39.7344" y2="19.5117" gradientTransform="matrix(1 0 0 -1 0 81)">
		<stop  offset="0" style="stop-color:#FFFFFF"/>
		<stop  offset="1" style="stop-color:#FFFFFF;stop-opacity:0"/>
	</linearGradient>
	
		<path style="mask:url(#j_00000029737540737112325900000003462940912715397767_);fill:url(#SVGID_00000083770960174364886580000012011846555285884086_);" d="
		M60.9,61.5l0-1.4c-0.8,0-1.5,0.6-1.5,1.4c0,0,0,0,0,0H60.9z M60.9,37.3h-1.4c0,0.8,0.6,1.4,1.4,1.4c0,0,0,0,0,0L60.9,37.3z
		 M60.9,37.3h1.4c0-0.8-0.6-1.4-1.4-1.4V37.3z M57.8,37.3l-1.4-0.2c-0.1,0.8,0.4,1.5,1.2,1.6c0.1,0,0.1,0,0.2,0V37.3z M21.1,37.7
		l-0.3,1.4c0.8,0.2,1.6-0.3,1.7-1.1c0-0.2,0-0.4,0-0.5L21.1,37.7z M18.5,61.5l1.1,0.9c0.5-0.6,0.4-1.5-0.2-2
		c-0.3-0.2-0.6-0.3-0.9-0.3L18.5,61.5L18.5,61.5z M18.5,61.5l-1.1-0.9c-0.5,0.6-0.4,1.5,0.2,2c0.3,0.2,0.6,0.3,0.9,0.3L18.5,61.5
		L18.5,61.5z M60.9,61.5v1.4c0.8,0,1.4-0.6,1.4-1.4H60.9z M60.9,62.9l0.2,0V60l-0.1,0L60.9,62.9L60.9,62.9z M61.1,62.9
		c7.5,0,13.5-6.1,13.5-13.5h-2.9c0,5.9-4.8,10.6-10.6,10.6V62.9z M74.6,49.4c0-7.5-6.1-13.5-13.5-13.5v2.9c5.9,0,10.6,4.8,10.6,10.6
		H74.6z M61.1,35.9h-0.2l0,2.9h0.1V35.9z M59.5,37.3h2.9H59.5z M57.8,38.8h3.1v-2.9h-3.1V38.8z M59.2,37.5c0.1-0.9,0.2-1.8,0.2-2.7
		h-2.9c0,0.8-0.1,1.6-0.2,2.3C56.4,37.1,59.2,37.5,59.2,37.5z M59.4,34.8c0-11-8.9-20-20-20v2.9c9.4,0,17.1,7.7,17.1,17.1H59.4z
		 M39.5,14.8c-11,0-20,8.9-20,20h2.9c0-9.4,7.7-17.1,17.1-17.1V14.8z M19.5,34.8c0,1,0.1,2.1,0.2,3.1l2.9-0.4
		c-0.1-0.9-0.2-1.7-0.2-2.6L19.5,34.8L19.5,34.8z M21.5,36.2c-1-0.2-2-0.4-3.1-0.4v2.9c0.8,0,1.6,0.1,2.4,0.3
		C20.8,39.1,21.5,36.2,21.5,36.2z M18.4,35.9c-7.5,0-13.5,6.1-13.5,13.5h2.9c0-5.9,4.8-10.6,10.6-10.6L18.4,35.9L18.4,35.9z
		 M4.9,49.4c0,7.5,6.1,13.5,13.5,13.5V60c-5.9,0-10.6-4.8-10.6-10.6C7.8,49.4,4.9,49.4,4.9,49.4z M18.4,62.9l0.2,0l0-2.9l-0.1,0
		L18.4,62.9L18.4,62.9z M19.7,62.4L19.7,62.4l-2.3-1.8l0,0L19.7,62.4L19.7,62.4z M60.9,60H18.5v2.9h42.4C60.9,62.9,60.9,60,60.9,60z
		 M59.5,61.5L59.5,61.5l2.9,0v0H59.5z"/>
</g>
<g>
	
		<linearGradient id="SVGID_00000025414983167508459660000003048328301666702731_" gradientUnits="userSpaceOnUse" x1="67.5308" y1="63.7324" x2="67.5308" y2="28.356" gradientTransform="matrix(1 0 0 -1 0 81)">
		<stop  offset="0" style="stop-color:#FFFFFF"/>
		<stop  offset="1" style="stop-color:#FFFFFF;stop-opacity:0"/>
	</linearGradient>
	
		<path shape-rendering="crispEdges" style="fill-rule:evenodd;clip-rule:evenodd;fill:url(#SVGID_00000025414983167508459660000003048328301666702731_);" d="
		M82.8,49l0.1,0c4.8,0,8.7-3.9,8.7-8.7s-3.9-8.7-8.7-8.7h-2.4c0.1-0.6,0.1-1.2,0.1-1.8c0-7.4-6-13.4-13.4-13.4
		c-7.4,0-13.4,6-13.4,13.4c0,0.7,0.1,1.4,0.2,2.1c-0.6-0.2-1.3-0.2-2-0.2c-4.8,0-8.7,3.9-8.7,8.7s3.9,8.7,8.7,8.7l0.1,0l0,0L82.8,49
		L82.8,49L82.8,49z"/>
	<defs>
		
			<filter id="Adobe_OpacityMaskFilter_00000060738886253094761220000015949069302997414581_" filterUnits="userSpaceOnUse" x="41.9" y="14.8" width="51.2" height="35.6">
			<feColorMatrix  type="matrix" values="1 0 0 0 0  0 1 0 0 0  0 0 1 0 0  0 0 0 1 0"/>
		</filter>
	</defs>
	
		<mask maskUnits="userSpaceOnUse" x="41.9" y="14.8" width="51.2" height="35.6" id="n_00000077314803526651705460000006629155370682010542_">
		
			<path style="fill-rule:evenodd;clip-rule:evenodd;fill:#FFFFFF;filter:url(#Adobe_OpacityMaskFilter_00000060738886253094761220000015949069302997414581_);" d="
			M82.8,49l0.1,0c4.8,0,8.7-3.9,8.7-8.7s-3.9-8.7-8.7-8.7h-2.4c0.1-0.6,0.1-1.2,0.1-1.8c0-7.4-6-13.4-13.4-13.4
			c-7.4,0-13.4,6-13.4,13.4c0,0.7,0.1,1.4,0.2,2.1c-0.6-0.2-1.3-0.2-2-0.2c-4.8,0-8.7,3.9-8.7,8.7s3.9,8.7,8.7,8.7l0.1,0l0,0
			L82.8,49L82.8,49L82.8,49z"/>
	</mask>
	
		<linearGradient id="SVGID_00000130644203057527402610000007738396132398947998_" gradientUnits="userSpaceOnUse" x1="67.5308" y1="64.7158" x2="67.5308" y2="32.0471" gradientTransform="matrix(1 0 0 -1 0 81)">
		<stop  offset="0" style="stop-color:#FFFFFF"/>
		<stop  offset="1" style="stop-color:#FFFFFF;stop-opacity:0"/>
	</linearGradient>
	
		<path style="mask:url(#n_00000077314803526651705460000006629155370682010542_);fill:url(#SVGID_00000130644203057527402610000007738396132398947998_);" d="
		M82.8,49l0-1.4c-0.8,0-1.5,0.6-1.5,1.4c0,0,0,0,0,0H82.8z M82.8,31.5h-1.4c0,0.8,0.6,1.4,1.4,1.4c0,0,0,0,0,0L82.8,31.5z
		 M82.8,31.5h1.4c0-0.8-0.6-1.4-1.4-1.4V31.5z M80.6,31.5l-1.4-0.2c-0.1,0.8,0.4,1.5,1.2,1.6c0.1,0,0.1,0,0.2,0V31.5L80.6,31.5z
		 M54.1,31.7l-0.3,1.4c0.8,0.2,1.6-0.3,1.7-1.1c0-0.2,0-0.4,0-0.5L54.1,31.7z M52.2,49l1.1,0.9c0.5-0.6,0.4-1.5-0.2-2
		c-0.3-0.2-0.6-0.3-0.9-0.3L52.2,49z M52.2,49l-1.1-0.9c-0.5,0.6-0.4,1.5,0.2,2c0.3,0.2,0.6,0.3,0.9,0.3V49z M82.8,49v1.4
		c0.8,0,1.4-0.6,1.4-1.4H82.8z M82.8,50.4l0.1,0v-2.9l-0.1,0L82.8,50.4z M83,50.4c5.6,0,10.2-4.6,10.2-10.2h-2.9
		c0,4-3.3,7.3-7.3,7.3V50.4z M93.1,40.2c0-5.6-4.6-10.2-10.2-10.2v2.9c4,0,7.3,3.3,7.3,7.3H93.1z M83,30.1l-0.1,0l0,2.9H83V30.1
		L83,30.1z M81.4,31.5h2.9H81.4z M80.6,32.9h2.3v-2.9h-2.3V32.9z M82,31.7c0.1-0.7,0.1-1.3,0.1-2h-2.9c0,0.6,0,1.1-0.1,1.6L82,31.7z
		 M82.2,29.7c0-8.2-6.6-14.8-14.8-14.8v2.9c6.6,0,11.9,5.3,11.9,11.9L82.2,29.7L82.2,29.7z M67.3,14.8c-8.2,0-14.8,6.6-14.8,14.8
		h2.9c0-6.6,5.3-11.9,11.9-11.9C67.3,17.7,67.3,14.8,67.3,14.8z M52.5,29.7c0,0.8,0.1,1.5,0.2,2.3l2.9-0.4c-0.1-0.6-0.1-1.2-0.1-1.8
		H52.5L52.5,29.7z M54.4,30.3c-0.7-0.2-1.5-0.3-2.3-0.3v2.9c0.6,0,1.1,0.1,1.7,0.2C53.8,33.1,54.4,30.3,54.4,30.3z M52.1,30.1
		c-5.6,0-10.2,4.6-10.2,10.2h2.9c0-4,3.3-7.3,7.3-7.3V30.1z M41.9,40.2c0,5.6,4.6,10.2,10.2,10.2v-2.9c-4,0-7.3-3.3-7.3-7.3H41.9z
		 M52.1,50.4l0.1,0l0-2.9l-0.1,0V50.4z M53.3,49.8L53.3,49.8l-2.3-1.8h0L53.3,49.8z M82.8,47.5H52.2v2.9h30.6V47.5z M81.4,49
		L81.4,49l2.9,0v0H81.4z"/>
</g>
<g>
	<g>
		
			<linearGradient id="SVGID_00000010280964246870517930000002535022508650559902_" gradientUnits="userSpaceOnUse" x1="25.6695" y1="26.6477" x2="21.5856" y2="13.2213" gradientTransform="matrix(1 0 0 -1 0 81)">
			<stop  offset="0" style="stop-color:#138EFF"/>
			<stop  offset="1" style="stop-color:#00E0FF"/>
		</linearGradient>
		
			<linearGradient id="SVGID_00000117666030567455980870000010757688173343747730_" gradientUnits="userSpaceOnUse" x1="25.8031" y1="27.0869" x2="21.5047" y2="12.9554" gradientTransform="matrix(1 0 0 -1 0 81)">
			<stop  offset="0" style="stop-color:#FFFFFF"/>
			<stop  offset="1" style="stop-color:#FFFFFF;stop-opacity:0"/>
		</linearGradient>
		
			<path style="fill:url(#SVGID_00000010280964246870517930000002535022508650559902_);stroke:url(#SVGID_00000117666030567455980870000010757688173343747730_);stroke-width:2;" d="
			M23.2,58.8c0.7-0.9,2.1-0.4,2.2,0.7l0.3,4.6c0.1,2.1-1.8,3.7-3.8,3.1c-2-0.6-2.8-3-1.5-4.7C20.3,62.4,23.2,58.8,23.2,58.8z"/>
		
			<linearGradient id="SVGID_00000098222244807632496970000010785490801670912656_" gradientUnits="userSpaceOnUse" x1="41.8157" y1="26.6477" x2="37.7319" y2="13.2213" gradientTransform="matrix(1 0 0 -1 0 81)">
			<stop  offset="0" style="stop-color:#138EFF"/>
			<stop  offset="1" style="stop-color:#00E0FF"/>
		</linearGradient>
		
			<linearGradient id="SVGID_00000054247510717810084350000012978470060415585417_" gradientUnits="userSpaceOnUse" x1="41.9494" y1="27.0869" x2="37.651" y2="12.9554" gradientTransform="matrix(1 0 0 -1 0 81)">
			<stop  offset="0" style="stop-color:#FFFFFF"/>
			<stop  offset="1" style="stop-color:#FFFFFF;stop-opacity:0"/>
		</linearGradient>
		
			<path style="fill:url(#SVGID_00000098222244807632496970000010785490801670912656_);stroke:url(#SVGID_00000054247510717810084350000012978470060415585417_);stroke-width:2;" d="
			M39.3,58.8c0.7-0.9,2.1-0.4,2.2,0.7l0.3,4.6c0.1,2.1-1.8,3.7-3.8,3.1c-2-0.6-2.8-3-1.5-4.7C36.5,62.4,39.3,58.8,39.3,58.8z"/>
		
			<linearGradient id="SVGID_00000158000112057329507030000004680289616597113490_" gradientUnits="userSpaceOnUse" x1="57.962" y1="26.6477" x2="53.8782" y2="13.2213" gradientTransform="matrix(1 0 0 -1 0 81)">
			<stop  offset="0" style="stop-color:#138EFF"/>
			<stop  offset="1" style="stop-color:#00E0FF"/>
		</linearGradient>
		
			<linearGradient id="SVGID_00000165939506914425780450000012873133083358562456_" gradientUnits="userSpaceOnUse" x1="58.0957" y1="27.0869" x2="53.7973" y2="12.9554" gradientTransform="matrix(1 0 0 -1 0 81)">
			<stop  offset="0" style="stop-color:#FFFFFF"/>
			<stop  offset="1" style="stop-color:#FFFFFF;stop-opacity:0"/>
		</linearGradient>
		
			<path style="fill:url(#SVGID_00000158000112057329507030000004680289616597113490_);stroke:url(#SVGID_00000165939506914425780450000012873133083358562456_);stroke-width:2;" d="
			M55.4,58.8c0.7-0.9,2.1-0.4,2.2,0.7l0.3,4.6c0.1,2.1-1.8,3.7-3.8,3.1c-2-0.6-2.8-3-1.5-4.7C52.6,62.4,55.4,58.8,55.4,58.8z"/>
	</g>
</g>
<g>
	<g>
		
			<linearGradient id="SVGID_00000132808444047409206280000004084401124785138560_" gradientUnits="userSpaceOnUse" x1="29.9296" y1="13.8668" x2="25.8457" y2="0.4405" gradientTransform="matrix(1 0 0 -1 0 81)">
			<stop  offset="0" style="stop-color:#138EFF"/>
			<stop  offset="1" style="stop-color:#00E0FF"/>
		</linearGradient>
		
			<linearGradient id="SVGID_00000034800415877934732340000000347313274113064618_" gradientUnits="userSpaceOnUse" x1="30.0632" y1="14.306" x2="25.7648" y2="0.1745" gradientTransform="matrix(1 0 0 -1 0 81)">
			<stop  offset="0" style="stop-color:#FFFFFF"/>
			<stop  offset="1" style="stop-color:#FFFFFF;stop-opacity:0"/>
		</linearGradient>
		
			<path style="fill:url(#SVGID_00000132808444047409206280000004084401124785138560_);stroke:url(#SVGID_00000034800415877934732340000000347313274113064618_);stroke-width:2;" d="
			M27.4,71.5c0.7-0.9,2.1-0.4,2.2,0.7l0.3,4.6c0.1,2.1-1.8,3.7-3.8,3.1c-2-0.6-2.8-3-1.5-4.7L27.4,71.5L27.4,71.5z"/>
		
			<linearGradient id="SVGID_00000075156165197558041450000018197458224663434169_" gradientUnits="userSpaceOnUse" x1="43.5718" y1="13.8668" x2="39.4872" y2="0.4404" gradientTransform="matrix(1 0 0 -1 0 81)">
			<stop  offset="0" style="stop-color:#138EFF"/>
			<stop  offset="1" style="stop-color:#00E0FF"/>
		</linearGradient>
		
			<linearGradient id="SVGID_00000050636600511892506860000010553824315693420164_" gradientUnits="userSpaceOnUse" x1="43.7055" y1="14.306" x2="39.4063" y2="0.1745" gradientTransform="matrix(1 0 0 -1 0 81)">
			<stop  offset="0" style="stop-color:#FFFFFF"/>
			<stop  offset="1" style="stop-color:#FFFFFF;stop-opacity:0"/>
		</linearGradient>
		
			<path style="fill:url(#SVGID_00000075156165197558041450000018197458224663434169_);stroke:url(#SVGID_00000050636600511892506860000010553824315693420164_);stroke-width:2;" d="
			M41.1,71.5c0.7-0.9,2.1-0.4,2.2,0.7l0.3,4.6c0.1,2.1-1.8,3.7-3.8,3.1c-2-0.6-2.8-3-1.5-4.7L41.1,71.5L41.1,71.5z"/>
	</g>
</g>
</svg>
