<?xml version="1.0" encoding="utf-8"?>
<!-- Generator: $$$/GeneralStr/196=Adobe Illustrator 27.6.0, SVG Export Plug-In . SVG Version: 6.00 Build 0)  -->
<svg version="1.1" id="Calque_1" xmlns="http://www.w3.org/2000/svg" xmlns:xlink="http://www.w3.org/1999/xlink" x="0px" y="0px"
	 viewBox="0 0 25 25" style="enable-background:new 0 0 25 25;" xml:space="preserve">
<style type="text/css">
	.st0{fill:#FFC701;fill-opacity:0.5;}
	.st1{fill:url(#SVGID_1_);stroke:url(#SVGID_00000111192074128692386830000017528719591816455323_);stroke-width:2;}
	.st2{fill:url(#SVGID_00000164514791595417588360000016502717719315505556_);filter:url(#Adobe_OpacityMaskFilter);}
	.st3{mask:url(#e_00000018209389495379551760000002215819771392855432_);}
	.st4{fill-rule:evenodd;clip-rule:evenodd;fill:#E18700;}
	.st5{fill-rule:evenodd;clip-rule:evenodd;fill:url(#SVGID_00000013894517438725140680000002308695673453520013_);}
	
		.st6{fill-rule:evenodd;clip-rule:evenodd;fill:#FFFFFF;filter:url(#Adobe_OpacityMaskFilter_00000026857154592545145430000000457101420818128573_);}
	
		.st7{mask:url(#j_00000181780178393643597420000014142786698861478277_);fill:url(#SVGID_00000158743778580231681010000002766289356225730179_);}
	.st8{fill-rule:evenodd;clip-rule:evenodd;fill:url(#SVGID_00000044891363771184967450000001766763926638778756_);}
	
		.st9{fill-rule:evenodd;clip-rule:evenodd;fill:#FFFFFF;filter:url(#Adobe_OpacityMaskFilter_00000106831291763538613550000005696749075385621647_);}
	
		.st10{mask:url(#n_00000060751676740863188210000008163513003262110107_);fill:url(#SVGID_00000158739802710142476460000001665679922060646020_);}
</style>
<g>
	<circle class="st0" cx="14.1" cy="8.4" r="4.8"/>
</g>
<linearGradient id="SVGID_1_" gradientUnits="userSpaceOnUse" x1="14.1453" y1="22.1463" x2="14.1453" y2="12.8163" gradientTransform="matrix(1 0 0 -1 0 26)">
	<stop  offset="0" style="stop-color:#FFE600"/>
	<stop  offset="1" style="stop-color:#FF7A00"/>
</linearGradient>
<linearGradient id="SVGID_00000016038301743416843570000012037902905649551237_" gradientUnits="userSpaceOnUse" x1="14.1453" y1="22.943" x2="14.1453" y2="12.0198" gradientTransform="matrix(1 0 0 -1 0 26)">
	<stop  offset="0" style="stop-color:#FFFFFF"/>
	<stop  offset="1" style="stop-color:#FFFFFF;stop-opacity:0"/>
</linearGradient>
<circle style="fill:url(#SVGID_1_);stroke:url(#SVGID_00000016038301743416843570000012037902905649551237_);stroke-width:2;" cx="14.1" cy="8.5" r="4.5"/>
<defs>
	<filter id="Adobe_OpacityMaskFilter" filterUnits="userSpaceOnUse" x="2.4" y="7.6" width="18.8" height="12.9">
		<feColorMatrix  type="matrix" values="1 0 0 0 0  0 1 0 0 0  0 0 1 0 0  0 0 0 1 0"/>
	</filter>
</defs>
<mask maskUnits="userSpaceOnUse" x="2.4" y="7.6" width="18.8" height="12.9" id="e_00000018209389495379551760000002215819771392855432_">
	
		<linearGradient id="SVGID_00000096778000277869803420000002246849957193984138_" gradientUnits="userSpaceOnUse" x1="14.1452" y1="22.1463" x2="14.1452" y2="12.8163" gradientTransform="matrix(1 0 0 -1 0 26)">
		<stop  offset="0" style="stop-color:#FFD600"/>
		<stop  offset="1" style="stop-color:#FF7A00"/>
	</linearGradient>
	<path style="fill:url(#SVGID_00000096778000277869803420000002246849957193984138_);filter:url(#Adobe_OpacityMaskFilter);" d="
		M18.8,8.5c0,2.6-2.1,4.7-4.7,4.7c-2.6,0-4.7-2.1-4.7-4.7c0-2.6,1.7-2,4.3-2C16.4,6.5,18.8,5.9,18.8,8.5z"/>
</mask>
<g class="st3">
	<path class="st4" d="M17.8,20.5L17.8,20.5c1.9,0,3.4-1.5,3.4-3.4c0-1.9-1.5-3.4-3.4-3.4l0,0v0h-2.2c0-0.3,0.1-0.6,0.1-0.9
		c0-2.9-2.3-5.2-5.2-5.2c-2.9,0-5.2,2.3-5.2,5.2c0,0.3,0,0.6,0.1,0.9c-1.7,0.2-2.9,1.7-2.9,3.4c0,1.9,1.5,3.4,3.4,3.4l0,0v0
		L17.8,20.5L17.8,20.5z"/>
</g>
<g>
	
		<linearGradient id="SVGID_00000126286437564848365840000011563109493703091373_" gradientUnits="userSpaceOnUse" x1="9.8754" y1="21.9487" x2="9.8754" y2="3.3677" gradientTransform="matrix(1 0 0 -1 0 26)">
		<stop  offset="0" style="stop-color:#FFFFFF"/>
		<stop  offset="1" style="stop-color:#FFFFFF;stop-opacity:0"/>
	</linearGradient>
	
		<path shape-rendering="crispEdges" style="fill-rule:evenodd;clip-rule:evenodd;fill:url(#SVGID_00000126286437564848365840000011563109493703091373_);" d="
		M15.8,20.9L15.8,20.9c1.9,0,3.4-1.5,3.4-3.4s-1.5-3.4-3.4-3.4H15c0-0.2,0-0.5,0-0.7c0-2.9-2.3-5.2-5.2-5.2c-2.9,0-5.2,2.3-5.2,5.2
		c0,0.3,0,0.5,0.1,0.8c-0.3-0.1-0.5-0.1-0.8-0.1c-1.9,0-3.4,1.5-3.4,3.4s1.5,3.4,3.4,3.4l0,0l0,0L15.8,20.9L15.8,20.9L15.8,20.9z"/>
	<defs>
		
			<filter id="Adobe_OpacityMaskFilter_00000155833808890693958540000014051610048816471989_" filterUnits="userSpaceOnUse" x="0.1" y="7.7" width="19.6" height="13.5">
			<feColorMatrix  type="matrix" values="1 0 0 0 0  0 1 0 0 0  0 0 1 0 0  0 0 0 1 0"/>
		</filter>
	</defs>
	
		<mask maskUnits="userSpaceOnUse" x="0.1" y="7.7" width="19.6" height="13.5" id="j_00000181780178393643597420000014142786698861478277_">
		
			<path style="fill-rule:evenodd;clip-rule:evenodd;fill:#FFFFFF;filter:url(#Adobe_OpacityMaskFilter_00000155833808890693958540000014051610048816471989_);" d="
			M15.8,20.9L15.8,20.9c1.9,0,3.4-1.5,3.4-3.4s-1.5-3.4-3.4-3.4H15c0-0.2,0-0.5,0-0.7c0-2.9-2.3-5.2-5.2-5.2c-2.9,0-5.2,2.3-5.2,5.2
			c0,0.3,0,0.5,0.1,0.8c-0.3-0.1-0.5-0.1-0.8-0.1c-1.9,0-3.4,1.5-3.4,3.4s1.5,3.4,3.4,3.4l0,0l0,0L15.8,20.9L15.8,20.9L15.8,20.9z"
			/>
	</mask>
	
		<linearGradient id="SVGID_00000074411589193562391160000007156689441688830345_" gradientUnits="userSpaceOnUse" x1="9.8755" y1="17.8767" x2="9.8755" y2="5.1467" gradientTransform="matrix(1 0 0 -1 0 26)">
		<stop  offset="0" style="stop-color:#FFFFFF"/>
		<stop  offset="1" style="stop-color:#FFFFFF;stop-opacity:0"/>
	</linearGradient>
	
		<path style="mask:url(#j_00000181780178393643597420000014142786698861478277_);fill:url(#SVGID_00000074411589193562391160000007156689441688830345_);" d="
		M15.8,20.9l0-0.4c-0.2,0-0.4,0.2-0.4,0.4c0,0,0,0,0,0H15.8z M15.8,14.1h-0.4c0,0.2,0.2,0.4,0.4,0.4c0,0,0,0,0,0L15.8,14.1z
		 M15.8,14.1h0.4c0-0.2-0.2-0.4-0.4-0.4V14.1z M15,14.1L14.6,14c0,0.2,0.1,0.4,0.3,0.5c0,0,0,0,0.1,0V14.1z M4.6,14.1l-0.1,0.4
		C4.8,14.6,5,14.5,5,14.2c0-0.1,0-0.1,0-0.2L4.6,14.1z M3.9,20.9l0.3,0.3c0.1-0.2,0.1-0.4-0.1-0.6c-0.1-0.1-0.2-0.1-0.3-0.1
		L3.9,20.9z M3.9,20.9l-0.3-0.3c-0.1,0.2-0.1,0.4,0.1,0.6c0.1,0.1,0.2,0.1,0.3,0.1V20.9z M15.8,20.9v0.4c0.2,0,0.4-0.2,0.4-0.4H15.8
		z M15.8,21.3L15.8,21.3l0-0.8l0,0C15.8,20.4,15.8,21.3,15.8,21.3z M15.9,21.3c2.1,0,3.8-1.7,3.8-3.8h-0.8c0,1.7-1.3,3-3,3V21.3z
		 M19.7,17.5c0-2.1-1.7-3.8-3.8-3.8v0.8c1.7,0,3,1.3,3,3H19.7z M15.9,13.6L15.9,13.6l0,0.8h0L15.9,13.6L15.9,13.6z M15.4,14.1h0.8
		H15.4z M15,14.5h0.9v-0.8H15V14.5z M15.4,14.1c0-0.3,0.1-0.5,0.1-0.8h-0.8c0,0.2,0,0.4,0,0.7C14.6,14,15.4,14.1,15.4,14.1z
		 M15.4,13.3c0-3.1-2.5-5.6-5.6-5.6v0.8c2.7,0,4.8,2.2,4.8,4.8H15.4z M9.8,7.7c-3.1,0-5.6,2.5-5.6,5.6H5c0-2.7,2.2-4.8,4.8-4.8
		C9.8,8.5,9.8,7.7,9.8,7.7z M4.2,13.3c0,0.3,0,0.6,0.1,0.9L5,14.1C5,13.8,5,13.6,5,13.3L4.2,13.3L4.2,13.3z M4.7,13.7
		c-0.3-0.1-0.6-0.1-0.9-0.1v0.8c0.2,0,0.5,0,0.7,0.1C4.5,14.5,4.7,13.7,4.7,13.7z M3.9,13.6c-2.1,0-3.8,1.7-3.8,3.8h0.8
		c0-1.7,1.3-3,3-3V13.6L3.9,13.6z M0.1,17.5c0,2.1,1.7,3.8,3.8,3.8v-0.8c-1.7,0-3-1.3-3-3C0.9,17.5,0.1,17.5,0.1,17.5z M3.9,21.3
		L3.9,21.3l0-0.8l0,0L3.9,21.3L3.9,21.3z M4.2,21.1L4.2,21.1l-0.6-0.5l0,0L4.2,21.1z M15.8,20.4H3.9v0.8h11.9V20.4z M15.4,20.9
		L15.4,20.9l0.8,0v0H15.4z"/>
</g>
<g>
	
		<linearGradient id="SVGID_00000041289846459895099760000001640343702740482750_" gradientUnits="userSpaceOnUse" x1="17.7033" y1="17.5999" x2="17.7033" y2="7.6373" gradientTransform="matrix(1 0 0 -1 0 26)">
		<stop  offset="0" style="stop-color:#FFFFFF"/>
		<stop  offset="1" style="stop-color:#FFFFFF;stop-opacity:0"/>
	</linearGradient>
	
		<path shape-rendering="crispEdges" style="fill-rule:evenodd;clip-rule:evenodd;fill:url(#SVGID_00000041289846459895099760000001640343702740482750_);" d="
		M22,17.3L22,17.3c1.4,0,2.5-1.1,2.5-2.5c0-1.4-1.1-2.5-2.5-2.5h-0.7c0-0.2,0-0.3,0-0.5c0-2.1-1.7-3.8-3.8-3.8
		c-2.1,0-3.8,1.7-3.8,3.8c0,0.2,0,0.4,0,0.6c-0.2,0-0.4-0.1-0.6-0.1c-1.4,0-2.5,1.1-2.5,2.5c0,1.4,1.1,2.5,2.5,2.5l0,0H22z"/>
	<defs>
		
			<filter id="Adobe_OpacityMaskFilter_00000034803667862613951880000012233461782707422090_" filterUnits="userSpaceOnUse" x="10.5" y="7.7" width="14.4" height="10">
			<feColorMatrix  type="matrix" values="1 0 0 0 0  0 1 0 0 0  0 0 1 0 0  0 0 0 1 0"/>
		</filter>
	</defs>
	
		<mask maskUnits="userSpaceOnUse" x="10.5" y="7.7" width="14.4" height="10" id="n_00000060751676740863188210000008163513003262110107_">
		
			<path style="fill-rule:evenodd;clip-rule:evenodd;fill:#FFFFFF;filter:url(#Adobe_OpacityMaskFilter_00000034803667862613951880000012233461782707422090_);" d="
			M22,17.3L22,17.3c1.4,0,2.5-1.1,2.5-2.5c0-1.4-1.1-2.5-2.5-2.5h-0.7c0-0.2,0-0.3,0-0.5c0-2.1-1.7-3.8-3.8-3.8
			c-2.1,0-3.8,1.7-3.8,3.8c0,0.2,0,0.4,0,0.6c-0.2,0-0.4-0.1-0.6-0.1c-1.4,0-2.5,1.1-2.5,2.5c0,1.4,1.1,2.5,2.5,2.5l0,0H22z"/>
	</mask>
	
		<linearGradient id="SVGID_00000012465992833970859070000013374702557918840212_" gradientUnits="userSpaceOnUse" x1="17.7033" y1="17.8767" x2="17.7033" y2="8.6768" gradientTransform="matrix(1 0 0 -1 0 26)">
		<stop  offset="0" style="stop-color:#FFFFFF"/>
		<stop  offset="1" style="stop-color:#FFFFFF;stop-opacity:0"/>
	</linearGradient>
	
		<path style="mask:url(#n_00000060751676740863188210000008163513003262110107_);fill:url(#SVGID_00000012465992833970859070000013374702557918840212_);" d="
		M22,17.3l0-0.4c-0.2,0-0.4,0.2-0.4,0.4c0,0,0,0,0,0H22z M22,12.4h-0.4c0,0.2,0.2,0.4,0.4,0.4c0,0,0,0,0,0L22,12.4z M22,12.4h0.4
		c0-0.2-0.2-0.4-0.4-0.4V12.4z M21.4,12.4L21,12.4c0,0.2,0.1,0.4,0.3,0.5c0,0,0,0,0.1,0V12.4z M13.9,12.5l-0.1,0.4
		c0.2,0.1,0.4-0.1,0.5-0.3c0-0.1,0-0.1,0-0.2L13.9,12.5z M13.4,17.3l0.3,0.3c0.1-0.2,0.1-0.4-0.1-0.6c-0.1-0.1-0.2-0.1-0.3-0.1
		L13.4,17.3z M13.4,17.3l-0.3-0.3c-0.1,0.2-0.1,0.4,0.1,0.6c0.1,0.1,0.2,0.1,0.3,0.1L13.4,17.3L13.4,17.3z M22,17.3v0.4
		c0.2,0,0.4-0.2,0.4-0.4H22z M22,17.7L22,17.7l0-0.8h0L22,17.7z M22,17.7c1.6,0,2.9-1.3,2.9-2.9h-0.8c0,1.1-0.9,2.1-2.1,2.1V17.7
		L22,17.7z M24.9,14.9c0-1.6-1.3-2.9-2.9-2.9v0.8c1.1,0,2.1,0.9,2.1,2.1H24.9z M22,12L22,12l0,0.8h0V12z M21.6,12.4h0.8
		C22.4,12.4,21.6,12.4,21.6,12.4z M21.4,12.8H22V12h-0.6C21.4,12,21.4,12.8,21.4,12.8z M21.8,12.5c0-0.2,0-0.4,0-0.6H21
		c0,0.2,0,0.3,0,0.5L21.8,12.5z M21.8,11.9c0-2.3-1.9-4.2-4.2-4.2v0.8c1.9,0,3.4,1.5,3.4,3.4H21.8z M17.6,7.7
		c-2.3,0-4.2,1.9-4.2,4.2h0.8c0-1.9,1.5-3.4,3.4-3.4V7.7z M13.5,11.9c0,0.2,0,0.4,0,0.6l0.8-0.1c0-0.2,0-0.3,0-0.5L13.5,11.9
		L13.5,11.9z M14,12.1c-0.2,0-0.4-0.1-0.7-0.1v0.8c0.2,0,0.3,0,0.5,0.1C13.8,12.9,14,12.1,14,12.1z M13.4,12c-1.6,0-2.9,1.3-2.9,2.9
		h0.8c0-1.1,0.9-2.1,2.1-2.1L13.4,12L13.4,12z M10.5,14.9c0,1.6,1.3,2.9,2.9,2.9v-0.8c-1.1,0-2.1-0.9-2.1-2.1H10.5z M13.4,17.7
		L13.4,17.7l0-0.8h0L13.4,17.7L13.4,17.7z M13.7,17.6L13.7,17.6l-0.6-0.5l0,0L13.7,17.6z M22,16.9h-8.6v0.8H22V16.9z M21.6,17.3h0.8
		H21.6z"/>
</g>
</svg>
