<svg width="18" height="19" viewBox="0 0 18 19" fill="none" xmlns="http://www.w3.org/2000/svg">
<path d="M18 5.5H10.4211V3.5H18V5.5ZM4.73684 18.5C3.42632 18.5 2.30905 18.0123 1.38505 17.037C0.461053 16.0617 -0.000630932 14.8827 6.4711e-07 13.5C6.4711e-07 12.7 0.16579 11.954 0.497369 11.262C0.828948 10.57 1.29474 9.98267 1.89474 9.5V3.5C1.89474 2.66667 2.17105 1.95833 2.72369 1.375C3.27632 0.791667 3.94737 0.5 4.73684 0.5C5.52632 0.5 6.19737 0.791667 6.75 1.375C7.30263 1.95833 7.57895 2.66667 7.57895 3.5V9.5C8.17895 9.98333 8.64474 10.571 8.97632 11.263C9.3079 11.955 9.47369 12.7007 9.47369 13.5C9.47369 14.8833 9.01169 16.0627 8.08768 17.038C7.16368 18.0133 6.04674 18.5007 4.73684 18.5ZM3.78947 7.5H5.68421V3.5C5.68421 3.21667 5.59326 2.979 5.41137 2.787C5.22947 2.595 5.00463 2.49933 4.73684 2.5C4.46842 2.5 4.24326 2.596 4.06137 2.788C3.87947 2.98 3.78884 3.21733 3.78947 3.5V7.5Z" fill="white"/>
</svg>
