<?xml version="1.0" encoding="utf-8"?>
<!-- Generator: $$$/GeneralStr/196=Adobe Illustrator 27.6.0, SVG Export Plug-In . SVG Version: 6.00 Build 0)  -->
<svg version="1.1" xmlns="http://www.w3.org/2000/svg" xmlns:xlink="http://www.w3.org/1999/xlink" x="0px" y="0px"
	 viewBox="0 0 30 30" style="enable-background:new 0 0 30 30;" xml:space="preserve">
<style type="text/css">
	.st0{display:none;}
	.st1{display:inline;}
	.st2{fill:#FFC701;fill-opacity:0.35;}
	.st3{fill:url(#SVGID_1_);stroke:url(#SVGID_00000173129743553429184190000003077710532628101770_);stroke-width:2;}
	.st4{fill-rule:evenodd;clip-rule:evenodd;fill:url(#SVGID_00000044166033337586249680000017832783320280870069_);}
	.st5{fill-rule:evenodd;clip-rule:evenodd;fill:#FFFFFF;filter:url(#Adobe_OpacityMaskFilter);}
	
		.st6{mask:url(#path-1-inside-1_34_1120_00000124144887191606585630000013910473347130966695_);fill:url(#SVGID_00000172406832444735867410000011048919724607844488_);}
	.st7{fill:url(#SVGID_00000167394743785618889470000017783718898588998322_);}
	.st8{fill:#FFFFFF;filter:url(#Adobe_OpacityMaskFilter_00000006686040192128071770000005878053328195827842_);}
	
		.st9{mask:url(#path-3-inside-2_34_1120_00000159460253971488864520000008752651479130153406_);fill:url(#SVGID_00000139267313279685337200000017436644320735043998_);}
	.st10{fill:url(#SVGID_00000127729055134228441740000008875917903611902088_);}
	.st11{fill:none;stroke:url(#SVGID_00000130643064423951871720000003094639255658390917_);stroke-width:2;}
	.st12{fill:url(#SVGID_00000036968967343048646460000004331630541718071742_);}
	.st13{fill:none;stroke:url(#SVGID_00000055701478840240640120000017647149772245299328_);stroke-width:2;}
	.st14{fill:url(#SVGID_00000031895616363131353230000008020254133289485755_);}
	.st15{fill:none;stroke:url(#SVGID_00000123411041813661112760000013274031786032920983_);stroke-width:2;}
	.st16{fill-rule:evenodd;clip-rule:evenodd;fill:url(#SVGID_00000036234844741627538390000007950380031284575161_);}
	
		.st17{fill-rule:evenodd;clip-rule:evenodd;fill:#FFFFFF;filter:url(#Adobe_OpacityMaskFilter_00000026860851450737854560000010458775941852296875_);}
	
		.st18{mask:url(#path-1-inside-1_34_1112_00000154385448196801894960000003147644221947810435_);fill:url(#SVGID_00000120528721879875844760000012326979252310207113_);}
	.st19{fill-rule:evenodd;clip-rule:evenodd;fill:url(#SVGID_00000013911460982995818830000006924222673067032969_);}
	
		.st20{fill-rule:evenodd;clip-rule:evenodd;fill:#FFFFFF;filter:url(#Adobe_OpacityMaskFilter_00000042005356758827795050000004016539652724225469_);}
	
		.st21{mask:url(#path-3-inside-2_34_1112_00000076588949146793266500000003648274497246796939_);fill:url(#SVGID_00000039822156893098951840000007069750743757155254_);}
	.st22{fill:url(#SVGID_00000091731718211680978340000002490496640693184652_);}
	.st23{fill:none;stroke:url(#SVGID_00000060712454371724017980000013811088462543710875_);stroke-width:2;}
	.st24{fill-rule:evenodd;clip-rule:evenodd;fill:url(#SVGID_00000070816749661420009180000012865439622471781046_);}
	
		.st25{fill-rule:evenodd;clip-rule:evenodd;fill:#FFFFFF;filter:url(#Adobe_OpacityMaskFilter_00000081643181502825150790000012225322525463267712_);}
	
		.st26{mask:url(#path-7-inside-3_34_1112_00000049903069423919899080000003404231421041622455_);fill:url(#SVGID_00000152975642365323158510000017151690378362193591_);}
	
		.st27{fill:url(#SVGID_00000025402465221654438140000000036594336374979971_);stroke:url(#SVGID_00000168810407583631786930000017564376872450544515_);stroke-width:2;}
	
		.st28{fill:url(#SVGID_00000026842171518206386510000013890349651628414105_);stroke:url(#SVGID_00000107578610111258152320000007624095681782479755_);stroke-width:2;}
	
		.st29{fill:url(#SVGID_00000104678840413034100230000017999845144420047017_);stroke:url(#SVGID_00000114754878555624574720000001188464251974918788_);stroke-width:2;}
	
		.st30{fill:url(#SVGID_00000009547973102578394250000011839602069790513044_);stroke:url(#SVGID_00000080914759656383109490000003157495590641570473_);stroke-width:2;}
	
		.st31{fill:url(#SVGID_00000073714939934329859550000017735825920794461860_);stroke:url(#SVGID_00000025428405403988603630000003514494568027456939_);stroke-width:2;}
	.st32{fill-rule:evenodd;clip-rule:evenodd;fill:url(#SVGID_00000176739148120204713840000017323497706491253439_);}
	
		.st33{fill-rule:evenodd;clip-rule:evenodd;fill:#FFFFFF;filter:url(#Adobe_OpacityMaskFilter_00000006705515050255479060000015864181157620514719_);}
	
		.st34{mask:url(#path-1-inside-1_34_1116_00000047761672076985013690000006517011273557875604_);fill:url(#SVGID_00000026848049006078580080000016700985898866592138_);}
	.st35{fill-rule:evenodd;clip-rule:evenodd;fill:url(#SVGID_00000119106129954458018850000009360804227924938630_);}
	
		.st36{fill-rule:evenodd;clip-rule:evenodd;fill:#FFFFFF;filter:url(#Adobe_OpacityMaskFilter_00000152224702947895356540000004154686181332639409_);}
	
		.st37{mask:url(#path-3-inside-2_34_1116_00000170961652820204966550000004409726547737264269_);fill:url(#SVGID_00000163783463969088110700000015083781759016672696_);}
	
		.st38{fill:url(#SVGID_00000129207169210583506320000004254792890979087507_);stroke:url(#SVGID_00000164491893448017295490000001052055837736293041_);stroke-width:2;}
	
		.st39{fill:url(#SVGID_00000036965796737876995250000003848871800187917465_);stroke:url(#SVGID_00000179630421315629259720000009380321733483675535_);stroke-width:2;}
	
		.st40{fill:url(#SVGID_00000018204243336676764670000001549989814725426324_);stroke:url(#SVGID_00000040543373921105157650000012469666121262618034_);stroke-width:2;}
	
		.st41{fill:url(#SVGID_00000129923477917436727520000018051616051001644422_);stroke:url(#SVGID_00000074425261993269472790000003532880275624555197_);stroke-width:2;}
	
		.st42{fill:url(#SVGID_00000176723163717669936340000017918414672091119234_);stroke:url(#SVGID_00000031888487865045741540000000285040409431624627_);stroke-width:2;}
</style>
<g id="Calque_1" class="st0">
	<g class="st1">
		<g>
			<circle class="st2" cx="15" cy="15" r="15"/>
		</g>
		
			<linearGradient id="SVGID_1_" gradientUnits="userSpaceOnUse" x1="-837" y1="423.6465" x2="-837" y2="394.6306" gradientTransform="matrix(1 0 0 -1 852 424.6306)">
			<stop  offset="0" style="stop-color:#FFE600"/>
			<stop  offset="1" style="stop-color:#FF7A00"/>
		</linearGradient>
		
			<linearGradient id="SVGID_00000012439686737034744580000007231763903923663521_" gradientUnits="userSpaceOnUse" x1="-837" y1="423.6468" x2="-837" y2="394.6304" gradientTransform="matrix(1 0 0 -1 852 424.6306)">
			<stop  offset="0" style="stop-color:#FFFFFF"/>
			<stop  offset="1" style="stop-color:#FFFFFF;stop-opacity:0"/>
		</linearGradient>
		
			<circle style="fill:url(#SVGID_1_);stroke:url(#SVGID_00000012439686737034744580000007231763903923663521_);stroke-width:2;" cx="15" cy="15.5" r="13.5"/>
	</g>
</g>
<g id="Calque_2" class="st0">
	<g class="st1">
		<g>
			
				<linearGradient id="SVGID_00000137120087249968442750000016470686237180907701_" gradientUnits="userSpaceOnUse" x1="-844.9346" y1="419.6291" x2="-835.3584" y2="397.8876" gradientTransform="matrix(1 0 0 -1 852 424.6306)">
				<stop  offset="1.000000e-04" style="stop-color:#D6C2FF"/>
				<stop  offset="1" style="stop-color:#7E2FFF"/>
			</linearGradient>
			<path style="fill-rule:evenodd;clip-rule:evenodd;fill:url(#SVGID_00000137120087249968442750000016470686237180907701_);" d="
				M10.1,3.8c1-0.2,1.8,1,1.4,1.8c-1.3,2.8-0.9,6.2,1.3,9c2.5,3.2,6.8,4.8,10.8,4.4c1.1-0.1,2.1,0.8,1.6,1.6c-0.9,1.5-2.3,2.8-4,3.7
				c-5.8,3.3-14,1.7-18.1-3.6C-1.2,15.5,0.1,8.6,6,5.3C7.3,4.6,8.7,4.1,10.1,3.8z"/>
			<defs>
				<filter id="Adobe_OpacityMaskFilter" filterUnits="userSpaceOnUse" x="-2" y="1.5" width="29.8" height="26.9">
					<feColorMatrix  type="matrix" values="1 0 0 0 0  0 1 0 0 0  0 0 1 0 0  0 0 0 1 0"/>
				</filter>
			</defs>
			
				<mask maskUnits="userSpaceOnUse" x="-2" y="1.5" width="29.8" height="26.9" id="path-1-inside-1_34_1120_00000124144887191606585630000013910473347130966695_">
				<path class="st5" d="M10.1,3.8c1-0.2,1.8,1,1.4,1.8c-1.3,2.8-0.9,6.2,1.3,9c2.5,3.2,6.8,4.8,10.8,4.4c1.1-0.1,2.1,0.8,1.6,1.6
					c-0.9,1.5-2.3,2.8-4,3.7c-5.8,3.3-14,1.7-18.1-3.6C-1.2,15.5,0.1,8.6,6,5.3C7.3,4.6,8.7,4.1,10.1,3.8z"/>
			</mask>
			
				<linearGradient id="SVGID_00000120526223478467957840000007479272062811433125_" gradientUnits="userSpaceOnUse" x1="-843.5724" y1="430.2376" x2="-838.3536" y2="402.9588" gradientTransform="matrix(1 0 0 -1 852 424.6306)">
				<stop  offset="0" style="stop-color:#FFFFFF"/>
				<stop  offset="1" style="stop-color:#FFFFFF;stop-opacity:0"/>
			</linearGradient>
			
				<path style="mask:url(#path-1-inside-1_34_1120_00000124144887191606585630000013910473347130966695_);fill:url(#SVGID_00000120526223478467957840000007479272062811433125_);" d="
				M12.7,14.7l2-1.2L12.7,14.7z M21.1,24.5l-1.5-2L21.1,24.5z M3,20.8l-2,1.2L3,20.8z M6,5.3l1.5,2L6,5.3z M23.5,19.1l-0.4-2.3
				L23.5,19.1z M25.1,20.7l-2.2-1.2L25.1,20.7z M11.5,5.7l-2.4-1L11.5,5.7z M14.8,13.5c-1.7-2.1-1.9-4.6-1-6.8l-4.7-2
				c-1.6,3.5-1.2,7.7,1.6,11.2L14.8,13.5z M23.1,16.8c-3.1,0.3-6.4-1-8.3-3.4l-4.1,2.5c3.1,4,8.4,5.9,13.3,5.5L23.1,16.8z
				 M22.8,19.5c-0.7,1.2-1.8,2.2-3.2,3l2.9,3.9c2.1-1.2,3.7-2.7,4.8-4.5L22.8,19.5z M19.6,22.5C14.9,25.2,8.3,23.8,5,19.6l-4.1,2.5
				c5,6.4,14.7,8.3,21.6,4.4L19.6,22.5z M5,19.6C1.7,15.4,2.7,9.9,7.4,7.3L4.5,3.3c-7,3.9-8.7,12.3-3.6,18.7L5,19.6z M7.4,7.3
				c1-0.6,2.2-1,3.3-1.2L9.4,1.6C7.7,1.9,6.1,2.5,4.5,3.3L7.4,7.3z M24,21.4c-0.3,0-0.6-0.1-0.9-0.3c-0.1-0.1-0.3-0.4-0.4-0.7
				c-0.1-0.3,0-0.6,0.1-0.9l4.5,2.5c0.9-1.4,0.4-2.9-0.6-3.9c-0.9-0.9-2.3-1.4-3.6-1.3L24,21.4z M13.8,6.7c0.5-1.1,0.3-2.4-0.4-3.4
				c-0.8-1.1-2.2-2-4-1.7l1.3,4.5c-0.3,0.1-0.6,0-1-0.1C9.5,5.8,9.3,5.6,9.2,5.5C9,5.2,9,4.9,9.1,4.7L13.8,6.7z"/>
		</g>
		<g>
			
				<linearGradient id="SVGID_00000112594596925975817750000016354676337881646986_" gradientUnits="userSpaceOnUse" x1="-834.5015" y1="421.6362" x2="-834.5015" y2="416.2315" gradientTransform="matrix(1 0 0 -1 852 424.6306)">
				<stop  offset="1.000000e-04" style="stop-color:#D6C2FF"/>
				<stop  offset="1" style="stop-color:#7E2FFF"/>
			</linearGradient>
			<path style="fill:url(#SVGID_00000112594596925975817750000016354676337881646986_);" d="M16.9,4.7c0.2-0.6,1-0.6,1.2,0l0,0
				c0.1,0.2,0.2,0.3,0.4,0.4l0,0c0.6,0.1,0.6,0.9,0,1.1l0,0c-0.2,0-0.3,0.2-0.4,0.4l0,0c-0.2,0.6-1,0.6-1.2,0l0,0
				c-0.1-0.2-0.2-0.3-0.4-0.4l0,0c-0.6-0.1-0.6-0.9,0-1.1l0,0C16.7,5.1,16.8,4.9,16.9,4.7L16.9,4.7z"/>
			<defs>
				
					<filter id="Adobe_OpacityMaskFilter_00000067929042508506944600000000005020373397717123_" filterUnits="userSpaceOnUse" x="13.6" y="1.9" width="7.7" height="7.6">
					<feColorMatrix  type="matrix" values="1 0 0 0 0  0 1 0 0 0  0 0 1 0 0  0 0 0 1 0"/>
				</filter>
			</defs>
			
				<mask maskUnits="userSpaceOnUse" x="13.6" y="1.9" width="7.7" height="7.6" id="path-3-inside-2_34_1120_00000159460253971488864520000008752651479130153406_">
				<path style="fill:#FFFFFF;filter:url(#Adobe_OpacityMaskFilter_00000067929042508506944600000000005020373397717123_);" d="
					M16.9,4.7c0.2-0.6,1-0.6,1.2,0l0,0c0.1,0.2,0.2,0.3,0.4,0.4l0,0c0.6,0.1,0.6,0.9,0,1.1l0,0c-0.2,0-0.3,0.2-0.4,0.4l0,0
					c-0.2,0.6-1,0.6-1.2,0l0,0c-0.1-0.2-0.2-0.3-0.4-0.4l0,0c-0.6-0.1-0.6-0.9,0-1.1l0,0C16.7,5.1,16.8,4.9,16.9,4.7L16.9,4.7z"/>
			</mask>
			
				<linearGradient id="SVGID_00000045593129871079382460000005749353949575268000_" gradientUnits="userSpaceOnUse" x1="-834.5015" y1="421.6839" x2="-834.5015" y2="418.3415" gradientTransform="matrix(1 0 0 -1 852 424.6306)">
				<stop  offset="0" style="stop-color:#FFFFFF"/>
				<stop  offset="1" style="stop-color:#FFFFFF;stop-opacity:0"/>
			</linearGradient>
			
				<path style="mask:url(#path-3-inside-2_34_1120_00000159460253971488864520000008752651479130153406_);fill:url(#SVGID_00000045593129871079382460000005749353949575268000_);" d="
				M16.5,5.1l-0.6-2.3L16.5,5.1z M16.9,6.6l2.3-0.8L16.9,6.6z M18.1,6.6l-2.3-0.8L18.1,6.6z M16.9,6.6l-2.3,0.8L16.9,6.6z M18.1,6.6
				l-2.3-0.8L18.1,6.6z M18.5,6.2l-0.6-2.3L18.5,6.2z M18.1,4.7L20.4,4L18.1,4.7z M15.8,5.5L15.8,5.5L20.4,4l0,0L15.8,5.5z
				 M15.8,5.8L15.8,5.8l4.6,1.6l0,0L15.8,5.8z M19.2,5.8L19.2,5.8l-4.6,1.5l0,0L19.2,5.8z M19.2,5.5L19.2,5.5l-4.6-1.6l0,0L19.2,5.5
				z M17.1,7.5c1-0.2,1.8-1,2.1-1.9L14.6,4c0.2-0.6,0.7-1,1.3-1.2L17.1,7.5z M17.1,3.8C19,4.3,19,7,17.1,7.5l-1.2-4.7
				c-3,0.8-3,5,0,5.8L17.1,3.8z M19.2,5.8c-0.3-1-1.1-1.7-2.1-1.9l-1.2,4.7c-0.6-0.2-1.1-0.6-1.3-1.2L19.2,5.8z M15.8,5.8
				c0.6-1.6,2.8-1.6,3.4,0l-4.6,1.6c0.9,2.8,4.8,2.8,5.8,0L15.8,5.8z M17.9,3.8c-1,0.2-1.8,1-2.1,1.9l4.6,1.6
				c-0.2,0.6-0.7,1-1.3,1.2L17.9,3.8z M17.9,7.5C16,7,16,4.3,17.9,3.8l1.2,4.7c3-0.8,3-5,0-5.8L17.9,7.5z M15.8,5.5
				c0.3,1,1.1,1.7,2.1,1.9l1.2-4.7c0.6,0.2,1.1,0.6,1.3,1.2L15.8,5.5z M20.4,3.9c-0.9-2.8-4.8-2.8-5.8,0l4.6,1.6
				c-0.6,1.6-2.8,1.6-3.4,0L20.4,3.9z"/>
		</g>
		<g>
			
				<linearGradient id="SVGID_00000151537065190504610450000001586444113455099837_" gradientUnits="userSpaceOnUse" x1="-831.8439" y1="414.5724" x2="-831.8439" y2="407.461" gradientTransform="matrix(1 0 0 -1 852 424.6306)">
				<stop  offset="0" style="stop-color:#FFE600"/>
				<stop  offset="1" style="stop-color:#FF7A00"/>
			</linearGradient>
			<path style="fill:url(#SVGID_00000151537065190504610450000001586444113455099837_);" d="M19.4,12.4c0.3-0.8,1.3-0.8,1.6,0l0,0.1
				c0.1,0.2,0.3,0.4,0.5,0.5l0,0c0.7,0.2,0.7,1.2,0,1.4l0,0c-0.2,0.1-0.4,0.2-0.5,0.5l0,0.1c-0.3,0.8-1.3,0.8-1.6,0l0-0.1
				c-0.1-0.2-0.3-0.4-0.5-0.5l0,0c-0.7-0.2-0.7-1.2,0-1.4l0,0C19.1,12.8,19.3,12.7,19.4,12.4L19.4,12.4z"/>
			
				<linearGradient id="SVGID_00000158716952266837916700000012642201072948380051_" gradientUnits="userSpaceOnUse" x1="-831.8446" y1="414.0148" x2="-831.8446" y2="410.3066" gradientTransform="matrix(1 0 0 -1 852 424.6306)">
				<stop  offset="0" style="stop-color:#FFFFFF"/>
				<stop  offset="1" style="stop-color:#FFFFFF;stop-opacity:0"/>
			</linearGradient>
			<path style="fill:none;stroke:url(#SVGID_00000158716952266837916700000012642201072948380051_);stroke-width:2;" d="M20,13.6
				c0.1-0.1,0.1-0.1,0.2-0.2c0.1,0.1,0.1,0.1,0.2,0.2c-0.1,0.1-0.1,0.1-0.2,0.2C20.1,13.7,20,13.7,20,13.6z"/>
		</g>
		<g>
			
				<linearGradient id="SVGID_00000160899735609577042760000013906019764995606192_" gradientUnits="userSpaceOnUse" x1="-823.2068" y1="416.0969" x2="-823.2068" y2="411.5455" gradientTransform="matrix(1 0 0 -1 852 424.6306)">
				<stop  offset="1.000000e-04" style="stop-color:#D6C2FF"/>
				<stop  offset="1" style="stop-color:#7E2FFF"/>
			</linearGradient>
			<path style="fill:url(#SVGID_00000160899735609577042760000013906019764995606192_);" d="M28.3,10c0.2-0.5,0.9-0.5,1,0l0,0
				c0.1,0.2,0.2,0.3,0.3,0.3l0,0c0.5,0.1,0.5,0.8,0,0.9l0,0c-0.2,0-0.3,0.2-0.3,0.3l0,0c-0.2,0.5-0.9,0.5-1,0l0,0
				c-0.1-0.2-0.2-0.3-0.3-0.3l0,0c-0.5-0.1-0.5-0.8,0-0.9l0,0C28.1,10.3,28.2,10.2,28.3,10L28.3,10z"/>
			
				<linearGradient id="SVGID_00000040571346661144280290000002751696613557456276_" gradientUnits="userSpaceOnUse" x1="-823.2069" y1="415.8444" x2="-823.2069" y2="413.3916" gradientTransform="matrix(1 0 0 -1 852 424.6306)">
				<stop  offset="0" style="stop-color:#FFFFFF"/>
				<stop  offset="1" style="stop-color:#FFFFFF;stop-opacity:0"/>
			</linearGradient>
			<path style="fill:none;stroke:url(#SVGID_00000040571346661144280290000002751696613557456276_);stroke-width:2;" d="M28.8,10.8
				c0,0,0-0.1,0-0.1c0,0,0,0,0,0C28.8,10.8,28.8,10.8,28.8,10.8C28.8,10.8,28.8,10.8,28.8,10.8z"/>
		</g>
		<g>
			
				<linearGradient id="SVGID_00000071535948173651506210000016112078528389337220_" gradientUnits="userSpaceOnUse" x1="-826.1966" y1="422.8216" x2="-826.1966" y2="418.2704" gradientTransform="matrix(1 0 0 -1 852 424.6306)">
				<stop  offset="0" style="stop-color:#FFE600"/>
				<stop  offset="1" style="stop-color:#FF7A00"/>
			</linearGradient>
			<path style="fill:url(#SVGID_00000071535948173651506210000016112078528389337220_);" d="M25.3,3.3c0.2-0.5,0.9-0.5,1,0l0,0
				c0.1,0.2,0.2,0.3,0.3,0.3l0,0c0.5,0.1,0.5,0.8,0,0.9l0,0c-0.2,0-0.3,0.2-0.3,0.3l0,0c-0.2,0.5-0.9,0.5-1,0l0,0
				c-0.1-0.2-0.2-0.3-0.3-0.3l0,0c-0.5-0.1-0.5-0.8,0-0.9l0,0C25.1,3.6,25.2,3.5,25.3,3.3L25.3,3.3z"/>
			
				<linearGradient id="SVGID_00000018196005522148452140000007410709891691052439_" gradientUnits="userSpaceOnUse" x1="-826.1966" y1="422.5293" x2="-826.1966" y2="420.0762" gradientTransform="matrix(1 0 0 -1 852 424.6306)">
				<stop  offset="0" style="stop-color:#FFFFFF"/>
				<stop  offset="1" style="stop-color:#FFFFFF;stop-opacity:0"/>
			</linearGradient>
			<path style="fill:none;stroke:url(#SVGID_00000018196005522148452140000007410709891691052439_);stroke-width:2;" d="M25.8,4.1
				c0,0,0-0.1,0-0.1c0,0,0,0,0,0C25.8,4.1,25.8,4.1,25.8,4.1C25.8,4.1,25.8,4.1,25.8,4.1z"/>
		</g>
	</g>
</g>
<g id="Calque_3" class="st0">
	<g class="st1">
		<g>
			
				<linearGradient id="SVGID_00000134210064695328461730000005851846940549998013_" gradientUnits="userSpaceOnUse" x1="-843.6177" y1="417.943" x2="-843.6177" y2="409.3219" gradientTransform="matrix(1 0 0 -1 852 424.6306)">
				<stop  offset="0" style="stop-color:#FFFFFF"/>
				<stop  offset="1" style="stop-color:#FFFFFF;stop-opacity:0"/>
			</linearGradient>
			
				<path shape-rendering="crispEdges" style="fill-rule:evenodd;clip-rule:evenodd;fill:url(#SVGID_00000134210064695328461730000005851846940549998013_);" d="
				M12.6,14.4C12.6,14.4,12.6,14.4,12.6,14.4c1.3,0,2.4-1,2.4-2.1c0-1.2-1.1-2.1-2.4-2.1c0,0,0,0,0,0v0H12c0-0.1,0-0.3,0-0.4
				c0-1.8-1.6-3.3-3.7-3.3c-2,0-3.7,1.5-3.7,3.3c0,0.2,0,0.3,0,0.5c-0.2,0-0.4-0.1-0.5-0.1c-1.3,0-2.4,1-2.4,2.1
				c0,1.2,1.1,2.1,2.4,2.1c0,0,0,0,0,0l0,0L12.6,14.4L12.6,14.4z"/>
			<defs>
				
					<filter id="Adobe_OpacityMaskFilter_00000107552671181127309540000018312487155251072669_" filterUnits="userSpaceOnUse" x="0" y="4.7" width="16.8" height="11.5">
					<feColorMatrix  type="matrix" values="1 0 0 0 0  0 1 0 0 0  0 0 1 0 0  0 0 0 1 0"/>
				</filter>
			</defs>
			
				<mask maskUnits="userSpaceOnUse" x="0" y="4.7" width="16.8" height="11.5" id="path-1-inside-1_34_1112_00000154385448196801894960000003147644221947810435_">
				
					<path style="fill-rule:evenodd;clip-rule:evenodd;fill:#FFFFFF;filter:url(#Adobe_OpacityMaskFilter_00000107552671181127309540000018312487155251072669_);" d="
					M12.6,14.4C12.6,14.4,12.6,14.4,12.6,14.4c1.3,0,2.4-1,2.4-2.1c0-1.2-1.1-2.1-2.4-2.1c0,0,0,0,0,0v0H12c0-0.1,0-0.3,0-0.4
					c0-1.8-1.6-3.3-3.7-3.3c-2,0-3.7,1.5-3.7,3.3c0,0.2,0,0.3,0,0.5c-0.2,0-0.4-0.1-0.5-0.1c-1.3,0-2.4,1-2.4,2.1
					c0,1.2,1.1,2.1,2.4,2.1c0,0,0,0,0,0l0,0L12.6,14.4L12.6,14.4z"/>
			</mask>
			
				<linearGradient id="SVGID_00000071552765827546456970000012264099217856997296_" gradientUnits="userSpaceOnUse" x1="-843.6177" y1="418.1825" x2="-843.6177" y2="410.2215" gradientTransform="matrix(1 0 0 -1 852 424.6306)">
				<stop  offset="0" style="stop-color:#FFFFFF"/>
				<stop  offset="1" style="stop-color:#FFFFFF;stop-opacity:0"/>
			</linearGradient>
			
				<path style="mask:url(#path-1-inside-1_34_1112_00000154385448196801894960000003147644221947810435_);fill:url(#SVGID_00000071552765827546456970000012264099217856997296_);" d="
				M12.6,14.4l0-1.8c-0.5,0-0.9,0.2-1.3,0.5c-0.3,0.3-0.5,0.8-0.5,1.3H12.6z M12.6,10.2h-1.8c0,0.5,0.2,0.9,0.5,1.3
				c0.3,0.3,0.8,0.5,1.3,0.5L12.6,10.2z M12.6,10.2h1.8c0-1-0.8-1.8-1.8-1.8V10.2z M12,10.2l-1.7-0.3c-0.1,0.5,0.1,1,0.4,1.4
				c0.3,0.4,0.8,0.6,1.3,0.6V10.2z M4.7,10.2l-0.4,1.7c0.6,0.1,1.2-0.1,1.6-0.5c0.4-0.4,0.6-1,0.5-1.6L4.7,10.2z M4.2,14.4l1.3,1.2
				c0.5-0.5,0.6-1.3,0.3-1.9c-0.3-0.6-0.9-1-1.6-1L4.2,14.4z M4.2,14.4l-1.3-1.2c-0.5,0.5-0.6,1.3-0.3,1.9c0.3,0.6,0.9,1,1.6,1V14.4
				z M12.6,14.4v1.8c1,0,1.8-0.8,1.8-1.8H12.6z M12.6,16.2C12.6,16.2,12.6,16.2,12.6,16.2l0-3.5c0,0,0,0,0,0L12.6,16.2z M12.6,16.2
				c2.1,0,4.2-1.6,4.2-3.9h-3.5c0,0,0,0.1-0.1,0.2c-0.1,0.1-0.3,0.2-0.5,0.2V16.2z M16.8,12.3c0-2.3-2.1-3.9-4.2-3.9v3.5
				c0.2,0,0.4,0.1,0.5,0.2c0.1,0.1,0.1,0.2,0.1,0.2H16.8z M12.6,8.4C12.6,8.4,12.6,8.4,12.6,8.4l0,3.5c0,0,0,0,0,0V8.4z M10.8,10.2
				L10.8,10.2l3.5,0v0H10.8z M12,11.9h0.6V8.4H12V11.9z M13.7,10.4c0-0.2,0.1-0.5,0.1-0.7h-3.5c0,0.1,0,0.1,0,0.2L13.7,10.4z
				 M13.8,9.7c0-3-2.6-5-5.4-5v3.5c1.3,0,1.9,0.9,1.9,1.5H13.8z M8.3,4.7c-2.8,0-5.4,2.1-5.4,5h3.5c0-0.6,0.7-1.5,1.9-1.5V4.7z
				 M2.9,9.7c0,0.3,0,0.5,0.1,0.8l3.5-0.6c0-0.1,0-0.1,0-0.2H2.9z M5.1,8.5C4.8,8.4,4.5,8.4,4.2,8.4v3.5c0.1,0,0.1,0,0.2,0L5.1,8.5z
				 M4.2,8.4C2.1,8.4,0,9.9,0,12.3h3.5c0,0,0-0.1,0.1-0.2c0.1-0.1,0.3-0.2,0.5-0.2V8.4z M0,12.3c0,2.3,2.1,3.9,4.2,3.9v-3.5
				c-0.2,0-0.4-0.1-0.5-0.2c-0.1-0.1-0.1-0.2-0.1-0.2H0z M4.2,16.2C4.2,16.2,4.2,16.2,4.2,16.2l0-3.5c0,0,0,0,0,0V16.2z M5.5,15.6
				L5.5,15.6l-2.6-2.3l0,0L5.5,15.6z M12.6,12.6H4.2v3.5h8.4V12.6z M10.8,14.4L10.8,14.4l3.5,0v0H10.8z"/>
		</g>
		<g>
			
				<linearGradient id="SVGID_00000020372869722841409850000011323111075713822388_" gradientUnits="userSpaceOnUse" x1="-838.0004" y1="419.3115" x2="-838.0004" y2="403.2323" gradientTransform="matrix(1 0 0 -1 852 424.6306)">
				<stop  offset="0" style="stop-color:#FFFFFF"/>
				<stop  offset="1" style="stop-color:#FFFFFF;stop-opacity:0"/>
			</linearGradient>
			
				<path shape-rendering="crispEdges" style="fill-rule:evenodd;clip-rule:evenodd;fill:url(#SVGID_00000020372869722841409850000011323111075713822388_);" d="
				M19.8,19.9C19.8,19.9,19.8,19.9,19.8,19.9c1.9,0,3.3-1.3,3.3-2.9c0-1.6-1.5-2.9-3.3-2.9c0,0,0,0,0,0v0H19c0-0.2,0-0.4,0-0.6
				c0-2.5-2.3-4.5-5.1-4.5c-2.8,0-5.1,2-5.1,4.5c0,0.2,0,0.5,0.1,0.7C8.7,14,8.4,14,8.2,14c-1.8,0-3.3,1.3-3.3,2.9
				c0,1.6,1.5,2.9,3.3,2.9c0,0,0,0,0,0l0,0L19.8,19.9L19.8,19.9z"/>
			<defs>
				
					<filter id="Adobe_OpacityMaskFilter_00000025437426178216710190000000357292831855792797_" filterUnits="userSpaceOnUse" x="3.1" y="7.1" width="21.8" height="14.5">
					<feColorMatrix  type="matrix" values="1 0 0 0 0  0 1 0 0 0  0 0 1 0 0  0 0 0 1 0"/>
				</filter>
			</defs>
			
				<mask maskUnits="userSpaceOnUse" x="3.1" y="7.1" width="21.8" height="14.5" id="path-3-inside-2_34_1112_00000076588949146793266500000003648274497246796939_">
				
					<path style="fill-rule:evenodd;clip-rule:evenodd;fill:#FFFFFF;filter:url(#Adobe_OpacityMaskFilter_00000025437426178216710190000000357292831855792797_);" d="
					M19.8,19.9C19.8,19.9,19.8,19.9,19.8,19.9c1.9,0,3.3-1.3,3.3-2.9c0-1.6-1.5-2.9-3.3-2.9c0,0,0,0,0,0v0H19c0-0.2,0-0.4,0-0.6
					c0-2.5-2.3-4.5-5.1-4.5c-2.8,0-5.1,2-5.1,4.5c0,0.2,0,0.5,0.1,0.7C8.7,14,8.4,14,8.2,14c-1.8,0-3.3,1.3-3.3,2.9
					c0,1.6,1.5,2.9,3.3,2.9c0,0,0,0,0,0l0,0L19.8,19.9L19.8,19.9z"/>
			</mask>
			
				<linearGradient id="SVGID_00000159466427687394391020000016574862413335291781_" gradientUnits="userSpaceOnUse" x1="-838.0004" y1="415.7877" x2="-838.0004" y2="404.7719" gradientTransform="matrix(1 0 0 -1 852 424.6306)">
				<stop  offset="0" style="stop-color:#FFFFFF"/>
				<stop  offset="1" style="stop-color:#FFFFFF;stop-opacity:0"/>
			</linearGradient>
			
				<path style="mask:url(#path-3-inside-2_34_1112_00000076588949146793266500000003648274497246796939_);fill:url(#SVGID_00000159466427687394391020000016574862413335291781_);" d="
				M19.8,19.9l0-1.8c-0.5,0-0.9,0.2-1.3,0.5c-0.3,0.3-0.5,0.8-0.5,1.3H19.8z M19.8,14H18c0,0.5,0.2,0.9,0.5,1.3
				c0.3,0.3,0.8,0.5,1.3,0.5L19.8,14z M19.8,14h1.8c0-1-0.8-1.8-1.8-1.8V14z M19,14l-1.7-0.3c-0.1,0.5,0.1,1,0.4,1.4
				c0.3,0.4,0.8,0.6,1.3,0.6V14z M8.9,14.1l-0.4,1.7c0.6,0.1,1.2-0.1,1.6-0.5c0.4-0.4,0.6-1,0.5-1.6L8.9,14.1z M8.2,19.9L9.5,21
				c0.5-0.5,0.6-1.3,0.3-1.9c-0.3-0.6-0.9-1-1.6-1L8.2,19.9z M8.2,19.9l-1.3-1.2c-0.5,0.5-0.6,1.3-0.3,1.9c0.3,0.6,0.9,1,1.6,1V19.9
				z M19.8,19.9v1.8c1,0,1.8-0.8,1.8-1.8H19.8z M19.8,21.6C19.8,21.6,19.8,21.6,19.8,21.6l0.1-3.5c0,0,0,0,0,0L19.8,21.6z
				 M19.8,21.6c2.6,0,5.1-1.9,5.1-4.7h-3.5c0,0.5-0.5,1.2-1.5,1.2V21.6z M24.9,16.9c0-2.8-2.5-4.7-5.1-4.7v3.5
				c1.1,0,1.5,0.7,1.5,1.2H24.9z M19.8,12.2C19.8,12.2,19.8,12.2,19.8,12.2l0,3.5c0,0,0,0,0,0V12.2z M18,14L18,14l3.5,0v0H18z
				 M19,15.7h0.9v-3.5H19V15.7z M20.7,14.2c0-0.3,0.1-0.6,0.1-0.9h-3.5c0,0.1,0,0.2,0,0.3L20.7,14.2z M20.8,13.4
				c0-3.7-3.3-6.3-6.8-6.3v3.5c2,0,3.3,1.4,3.3,2.8H20.8z M13.9,7.1c-3.6,0-6.8,2.6-6.8,6.3h3.5c0-1.3,1.3-2.8,3.3-2.8V7.1z
				 M7.1,13.4c0,0.3,0,0.7,0.1,1l3.5-0.6c0-0.1,0-0.3,0-0.4H7.1z M9.3,12.3c-0.4-0.1-0.7-0.1-1.1-0.1v3.5c0.1,0,0.3,0,0.4,0
				L9.3,12.3z M8.2,12.2c-2.6,0-5.1,1.9-5.1,4.7h3.5c0-0.5,0.5-1.2,1.5-1.2V12.2z M3.1,16.9c0,2.8,2.5,4.7,5.1,4.7v-3.5
				c-1.1,0-1.5-0.7-1.5-1.2H3.1z M8.2,21.6C8.2,21.6,8.2,21.6,8.2,21.6l0-3.5c0,0,0,0,0,0V21.6z M9.5,21L9.5,21l-2.6-2.3l0,0L9.5,21
				z M19.8,18.1H8.2v3.5h11.6V18.1z M18,19.9L18,19.9l3.5,0v0H18z"/>
		</g>
		<g>
			
				<linearGradient id="SVGID_00000060737171309227767200000005674305626102261409_" gradientUnits="userSpaceOnUse" x1="-829.7271" y1="409.0453" x2="-831.2643" y2="401.5423" gradientTransform="matrix(1 0 0 -1 852 424.6306)">
				<stop  offset="0" style="stop-color:#FF4D00"/>
				<stop  offset="1" style="stop-color:#FFB800"/>
			</linearGradient>
			<path style="fill:url(#SVGID_00000060737171309227767200000005674305626102261409_);" d="M18.1,19.8l2.5-4.1
				c0.3-0.5,0.9-0.8,1.5-0.8h0.5c1.1,0,1.8,1.2,1.2,2.2l-0.5,0.9c-0.3,0.5,0.1,1.2,0.7,1.2c0.7,0,1.1,0.9,0.6,1.4l-3.2,3.2
				c-0.8,0.8-2.2-0.1-1.7-1.2l0.1-0.3c0.2-0.6-0.2-1.2-0.8-1.2C18.1,21.1,17.7,20.4,18.1,19.8z"/>
			
				<linearGradient id="SVGID_00000025412160579533476440000002551525735613893809_" gradientUnits="userSpaceOnUse" x1="-831.6201" y1="401.369" x2="-828.673" y2="408.4712" gradientTransform="matrix(1 0 0 -1 852 424.6306)">
				<stop  offset="0" style="stop-color:#FFFFFF"/>
				<stop  offset="1" style="stop-color:#FFFFFF;stop-opacity:0"/>
			</linearGradient>
			<path style="fill:none;stroke:url(#SVGID_00000025412160579533476440000002551525735613893809_);stroke-width:2;" d="M18.8,20.2
				l2.5-4.1c0.2-0.2,0.4-0.4,0.7-0.4h0.5c0.4,0,0.7,0.5,0.5,0.8l-0.5,0.9c-0.6,1.1,0.1,2.5,1.3,2.6l-3.1,3.1
				c-0.1,0.1-0.1,0.1-0.1,0.1c0,0-0.1,0-0.1,0c0,0-0.1-0.1-0.1-0.1c0,0,0-0.1,0-0.1l0.1-0.3C20.9,21.5,20.1,20.2,18.8,20.2
				C18.8,20.2,18.8,20.2,18.8,20.2C18.8,20.2,18.8,20.2,18.8,20.2C18.8,20.2,18.8,20.2,18.8,20.2C18.8,20.2,18.8,20.2,18.8,20.2z"/>
		</g>
		<g>
			
				<linearGradient id="SVGID_00000004527634824119935040000017695969076564311438_" gradientUnits="userSpaceOnUse" x1="-830.3823" y1="415.5482" x2="-830.3823" y2="406.9271" gradientTransform="matrix(1 0 0 -1 852 424.6306)">
				<stop  offset="0" style="stop-color:#FFFFFF"/>
				<stop  offset="1" style="stop-color:#FFFFFF;stop-opacity:0"/>
			</linearGradient>
			
				<path shape-rendering="crispEdges" style="fill-rule:evenodd;clip-rule:evenodd;fill:url(#SVGID_00000004527634824119935040000017695969076564311438_);" d="
				M25.8,16.8C25.8,16.8,25.8,16.8,25.8,16.8c1.3,0,2.4-1,2.4-2.1c0-1.2-1.1-2.1-2.4-2.1c0,0,0,0,0,0v0h-0.6c0-0.1,0-0.3,0-0.4
				c0-1.8-1.6-3.3-3.7-3.3c-2,0-3.7,1.5-3.7,3.3c0,0.2,0,0.3,0,0.5c-0.2,0-0.4-0.1-0.5-0.1c-1.3,0-2.4,1-2.4,2.1
				c0,1.2,1.1,2.1,2.4,2.1c0,0,0,0,0,0l0,0L25.8,16.8L25.8,16.8z"/>
			<defs>
				
					<filter id="Adobe_OpacityMaskFilter_00000060746574531541162810000012641321203323842179_" filterUnits="userSpaceOnUse" x="13.2" y="7.1" width="16.8" height="11.5">
					<feColorMatrix  type="matrix" values="1 0 0 0 0  0 1 0 0 0  0 0 1 0 0  0 0 0 1 0"/>
				</filter>
			</defs>
			
				<mask maskUnits="userSpaceOnUse" x="13.2" y="7.1" width="16.8" height="11.5" id="path-7-inside-3_34_1112_00000049903069423919899080000003404231421041622455_">
				
					<path style="fill-rule:evenodd;clip-rule:evenodd;fill:#FFFFFF;filter:url(#Adobe_OpacityMaskFilter_00000060746574531541162810000012641321203323842179_);" d="
					M25.8,16.8C25.8,16.8,25.8,16.8,25.8,16.8c1.3,0,2.4-1,2.4-2.1c0-1.2-1.1-2.1-2.4-2.1c0,0,0,0,0,0v0h-0.6c0-0.1,0-0.3,0-0.4
					c0-1.8-1.6-3.3-3.7-3.3c-2,0-3.7,1.5-3.7,3.3c0,0.2,0,0.3,0,0.5c-0.2,0-0.4-0.1-0.5-0.1c-1.3,0-2.4,1-2.4,2.1
					c0,1.2,1.1,2.1,2.4,2.1c0,0,0,0,0,0l0,0L25.8,16.8L25.8,16.8z"/>
			</mask>
			
				<linearGradient id="SVGID_00000076585760557682987620000010105344956634112685_" gradientUnits="userSpaceOnUse" x1="-830.3823" y1="415.7877" x2="-830.3823" y2="407.8267" gradientTransform="matrix(1 0 0 -1 852 424.6306)">
				<stop  offset="0" style="stop-color:#FFFFFF"/>
				<stop  offset="1" style="stop-color:#FFFFFF;stop-opacity:0"/>
			</linearGradient>
			
				<path style="mask:url(#path-7-inside-3_34_1112_00000049903069423919899080000003404231421041622455_);fill:url(#SVGID_00000076585760557682987620000010105344956634112685_);" d="
				M25.8,16.8l0-1.8c-0.5,0-0.9,0.2-1.3,0.5c-0.3,0.3-0.5,0.8-0.5,1.3H25.8z M25.8,12.6h-1.8c0,0.5,0.2,0.9,0.5,1.3
				c0.3,0.3,0.8,0.5,1.3,0.5L25.8,12.6z M25.8,12.6h1.8c0-1-0.8-1.8-1.8-1.8V12.6z M25.2,12.6l-1.7-0.3c-0.1,0.5,0.1,1,0.4,1.4
				c0.3,0.4,0.8,0.6,1.3,0.6V12.6z M17.9,12.6l-0.4,1.7c0.6,0.1,1.2-0.1,1.6-0.5c0.4-0.4,0.6-1,0.5-1.6L17.9,12.6z M17.4,16.8
				l1.3,1.2c0.5-0.5,0.6-1.3,0.3-1.9c-0.3-0.6-0.9-1-1.6-1L17.4,16.8z M17.4,16.8l-1.3-1.2c-0.5,0.5-0.6,1.3-0.3,1.9
				c0.3,0.6,0.9,1,1.6,1V16.8z M25.8,16.8v1.8c1,0,1.8-0.8,1.8-1.8H25.8z M25.8,18.6C25.8,18.6,25.8,18.6,25.8,18.6l0-3.5
				c0,0,0,0,0,0L25.8,18.6z M25.8,18.6c2.1,0,4.2-1.6,4.2-3.9h-3.5c0,0,0,0.1-0.1,0.2C26.3,15,26.1,15,25.8,15V18.6z M30,14.7
				c0-2.3-2.1-3.9-4.2-3.9v3.5c0.2,0,0.4,0.1,0.5,0.2c0.1,0.1,0.1,0.2,0.1,0.2H30z M25.8,10.8C25.8,10.8,25.8,10.8,25.8,10.8l0,3.5
				c0,0,0,0,0,0V10.8z M24.1,12.6L24.1,12.6l3.5,0v0H24.1z M25.2,14.3h0.6v-3.5h-0.6V14.3z M26.9,12.8c0-0.2,0.1-0.5,0.1-0.7h-3.5
				c0,0.1,0,0.1,0,0.2L26.9,12.8z M27,12.1c0-3-2.6-5-5.4-5v3.5c1.3,0,1.9,0.9,1.9,1.5H27z M21.6,7.1c-2.8,0-5.4,2.1-5.4,5h3.5
				c0-0.6,0.7-1.5,1.9-1.5V7.1z M16.1,12.1c0,0.3,0,0.5,0.1,0.8l3.5-0.6c0-0.1,0-0.1,0-0.2H16.1z M18.3,10.9
				c-0.3-0.1-0.6-0.1-0.9-0.1v3.5c0.1,0,0.1,0,0.2,0L18.3,10.9z M17.4,10.8c-2.1,0-4.2,1.6-4.2,3.9h3.5c0,0,0-0.1,0.1-0.2
				c0.1-0.1,0.3-0.2,0.5-0.2V10.8z M13.2,14.7c0,2.3,2.1,3.9,4.2,3.9V15c-0.2,0-0.4-0.1-0.5-0.2c-0.1-0.1-0.1-0.2-0.1-0.2H13.2z
				 M17.4,18.6C17.4,18.6,17.4,18.6,17.4,18.6l0-3.5c0,0,0,0,0,0V18.6z M18.7,18L18.7,18l-2.6-2.3l0,0L18.7,18z M25.8,15h-8.4v3.5
				h8.4V15z M24.1,16.8L24.1,16.8l3.5,0v0H24.1z"/>
		</g>
		<g>
			
				<linearGradient id="SVGID_00000181050493094473888510000009208327801502701194_" gradientUnits="userSpaceOnUse" x1="-846.0905" y1="404.9112" x2="-846.9915" y2="401.5803" gradientTransform="matrix(1 0 0 -1 852 424.6306)">
				<stop  offset="0" style="stop-color:#138EFF"/>
				<stop  offset="1" style="stop-color:#00E0FF"/>
			</linearGradient>
			
				<linearGradient id="SVGID_00000137098856260165107540000014270351496408118701_" gradientUnits="userSpaceOnUse" x1="-846.0118" y1="405.202" x2="-847.0222" y2="401.4669" gradientTransform="matrix(1 0 0 -1 852 424.6306)">
				<stop  offset="0" style="stop-color:#FFFFFF"/>
				<stop  offset="1" style="stop-color:#FFFFFF;stop-opacity:0"/>
			</linearGradient>
			
				<path style="fill:url(#SVGID_00000181050493094473888510000009208327801502701194_);stroke:url(#SVGID_00000137098856260165107540000014270351496408118701_);stroke-width:2;" d="
				M5.2,22.1l0.1-0.2l0,0.2c0,0.1-0.1,0.1-0.1,0.1C5.2,22.2,5.2,22.1,5.2,22.1z"/>
			
				<linearGradient id="SVGID_00000006696988402309472660000012805320979789931176_" gradientUnits="userSpaceOnUse" x1="-841.6653" y1="404.9112" x2="-842.5663" y2="401.5803" gradientTransform="matrix(1 0 0 -1 852 424.6306)">
				<stop  offset="0" style="stop-color:#138EFF"/>
				<stop  offset="1" style="stop-color:#00E0FF"/>
			</linearGradient>
			
				<linearGradient id="SVGID_00000067957354941005375290000003110538533635046306_" gradientUnits="userSpaceOnUse" x1="-841.5867" y1="405.202" x2="-842.597" y2="401.4669" gradientTransform="matrix(1 0 0 -1 852 424.6306)">
				<stop  offset="0" style="stop-color:#FFFFFF"/>
				<stop  offset="1" style="stop-color:#FFFFFF;stop-opacity:0"/>
			</linearGradient>
			
				<path style="fill:url(#SVGID_00000006696988402309472660000012805320979789931176_);stroke:url(#SVGID_00000067957354941005375290000003110538533635046306_);stroke-width:2;" d="
				M9.6,22.1l0.1-0.2l0,0.2c0,0.1-0.1,0.1-0.1,0.1C9.6,22.2,9.6,22.1,9.6,22.1z"/>
			
				<linearGradient id="SVGID_00000139258655572888594380000010785379598364981695_" gradientUnits="userSpaceOnUse" x1="-837.2402" y1="404.9112" x2="-838.1412" y2="401.5803" gradientTransform="matrix(1 0 0 -1 852 424.6306)">
				<stop  offset="0" style="stop-color:#138EFF"/>
				<stop  offset="1" style="stop-color:#00E0FF"/>
			</linearGradient>
			
				<linearGradient id="SVGID_00000047740418709121695770000014022540826430706314_" gradientUnits="userSpaceOnUse" x1="-837.1616" y1="405.202" x2="-838.1719" y2="401.4669" gradientTransform="matrix(1 0 0 -1 852 424.6306)">
				<stop  offset="0" style="stop-color:#FFFFFF"/>
				<stop  offset="1" style="stop-color:#FFFFFF;stop-opacity:0"/>
			</linearGradient>
			
				<path style="fill:url(#SVGID_00000139258655572888594380000010785379598364981695_);stroke:url(#SVGID_00000047740418709121695770000014022540826430706314_);stroke-width:2;" d="
				M14,22.1l0.1-0.2l0,0.2c0,0.1-0.1,0.1-0.1,0.1C14,22.2,14,22.1,14,22.1z"/>
		</g>
		<g>
			
				<linearGradient id="SVGID_00000034780026661076788810000012335026439226080949_" gradientUnits="userSpaceOnUse" x1="-844.3976" y1="401.7966" x2="-845.2986" y2="398.4657" gradientTransform="matrix(1 0 0 -1 852 424.6306)">
				<stop  offset="0" style="stop-color:#138EFF"/>
				<stop  offset="1" style="stop-color:#00E0FF"/>
			</linearGradient>
			
				<linearGradient id="SVGID_00000015329403658897134440000002884281231384404110_" gradientUnits="userSpaceOnUse" x1="-844.319" y1="402.0874" x2="-845.3292" y2="398.3523" gradientTransform="matrix(1 0 0 -1 852 424.6306)">
				<stop  offset="0" style="stop-color:#FFFFFF"/>
				<stop  offset="1" style="stop-color:#FFFFFF;stop-opacity:0"/>
			</linearGradient>
			
				<path style="fill:url(#SVGID_00000034780026661076788810000012335026439226080949_);stroke:url(#SVGID_00000015329403658897134440000002884281231384404110_);stroke-width:2;" d="
				M6.9,25.2L7,25l0,0.2c0,0.1-0.1,0.1-0.1,0.1C6.9,25.3,6.8,25.2,6.9,25.2z"/>
			
				<linearGradient id="SVGID_00000042003538588024329180000016958999234549585572_" gradientUnits="userSpaceOnUse" x1="-839.9346" y1="401.7966" x2="-840.8355" y2="398.4657" gradientTransform="matrix(1 0 0 -1 852 424.6306)">
				<stop  offset="0" style="stop-color:#138EFF"/>
				<stop  offset="1" style="stop-color:#00E0FF"/>
			</linearGradient>
			
				<linearGradient id="SVGID_00000162354756973310106080000014551873262937270660_" gradientUnits="userSpaceOnUse" x1="-839.856" y1="402.0874" x2="-840.8661" y2="398.3523" gradientTransform="matrix(1 0 0 -1 852 424.6306)">
				<stop  offset="0" style="stop-color:#FFFFFF"/>
				<stop  offset="1" style="stop-color:#FFFFFF;stop-opacity:0"/>
			</linearGradient>
			
				<path style="fill:url(#SVGID_00000042003538588024329180000016958999234549585572_);stroke:url(#SVGID_00000162354756973310106080000014551873262937270660_);stroke-width:2;" d="
				M11.4,25.2l0.1-0.2l0,0.2c0,0.1-0.1,0.1-0.1,0.1C11.3,25.3,11.3,25.2,11.4,25.2z"/>
		</g>
	</g>
</g>
<g id="Calque_4">
	<g>
		<g>
			
				<linearGradient id="SVGID_00000102537592250165026740000017091475207148776576_" gradientUnits="userSpaceOnUse" x1="-839.8735" y1="423.6396" x2="-839.8735" y2="400.8649" gradientTransform="matrix(1 0 0 -1 852 424.6306)">
				<stop  offset="0" style="stop-color:#FFFFFF"/>
				<stop  offset="1" style="stop-color:#FFFFFF;stop-opacity:0"/>
			</linearGradient>
			
				<path shape-rendering="crispEdges" style="fill-rule:evenodd;clip-rule:evenodd;fill:url(#SVGID_00000102537592250165026740000017091475207148776576_);" d="
				M18.7,21.6C18.7,21.6,18.7,21.6,18.7,21.6c2.1,0,3.8-1.9,3.8-4.2c0-2.3-1.7-4.2-3.7-4.2c0,0,0,0,0,0v0h-1c0-0.3,0.1-0.6,0.1-0.9
				C17.8,8.8,15.2,6,12,6c-3.2,0-5.7,2.9-5.7,6.4c0,0.3,0,0.7,0.1,1c-0.3-0.1-0.6-0.1-0.9-0.1c-2.1,0-3.7,1.9-3.7,4.2
				c0,2.3,1.7,4.2,3.7,4.2c0,0,0,0,0,0l0,0L18.7,21.6L18.7,21.6z"/>
			<defs>
				
					<filter id="Adobe_OpacityMaskFilter_00000099627044587127449600000014455916911215013053_" filterUnits="userSpaceOnUse" x="0" y="4.2" width="24.3" height="19.1">
					<feColorMatrix  type="matrix" values="1 0 0 0 0  0 1 0 0 0  0 0 1 0 0  0 0 0 1 0"/>
				</filter>
			</defs>
			
				<mask maskUnits="userSpaceOnUse" x="0" y="4.2" width="24.3" height="19.1" id="path-1-inside-1_34_1116_00000047761672076985013690000006517011273557875604_">
				
					<path style="fill-rule:evenodd;clip-rule:evenodd;fill:#FFFFFF;filter:url(#Adobe_OpacityMaskFilter_00000099627044587127449600000014455916911215013053_);" d="
					M18.7,21.6C18.7,21.6,18.7,21.6,18.7,21.6c2.1,0,3.8-1.9,3.8-4.2c0-2.3-1.7-4.2-3.7-4.2c0,0,0,0,0,0v0h-1c0-0.3,0.1-0.6,0.1-0.9
					C17.8,8.8,15.2,6,12,6c-3.2,0-5.7,2.9-5.7,6.4c0,0.3,0,0.7,0.1,1c-0.3-0.1-0.6-0.1-0.9-0.1c-2.1,0-3.7,1.9-3.7,4.2
					c0,2.3,1.7,4.2,3.7,4.2c0,0,0,0,0,0l0,0L18.7,21.6L18.7,21.6z"/>
			</mask>
			
				<linearGradient id="SVGID_00000049194959627355927750000001755986494959664053_" gradientUnits="userSpaceOnUse" x1="-839.8735" y1="418.6485" x2="-839.8735" y2="403.0454" gradientTransform="matrix(1 0 0 -1 852 424.6306)">
				<stop  offset="0" style="stop-color:#FFFFFF"/>
				<stop  offset="1" style="stop-color:#FFFFFF;stop-opacity:0"/>
			</linearGradient>
			
				<path style="mask:url(#path-1-inside-1_34_1116_00000047761672076985013690000006517011273557875604_);fill:url(#SVGID_00000049194959627355927750000001755986494959664053_);" d="
				M18.7,21.6l0-1.8c-0.5,0-0.9,0.2-1.3,0.5c-0.3,0.3-0.5,0.8-0.5,1.3H18.7z M18.7,13.3h-1.8c0,0.5,0.2,0.9,0.5,1.3
				c0.3,0.3,0.8,0.5,1.3,0.5L18.7,13.3z M18.7,13.3h1.8c0-1-0.8-1.8-1.8-1.8V13.3z M17.7,13.3L16,13c-0.1,0.5,0.1,1,0.4,1.4
				c0.3,0.4,0.8,0.6,1.3,0.6V13.3z M6.4,13.4l-0.4,1.7c0.6,0.1,1.2,0,1.6-0.4c0.4-0.4,0.7-1,0.6-1.6L6.4,13.4z M5.6,21.6l1.4,1
				c0.4-0.5,0.4-1.3,0.1-1.8c-0.3-0.6-0.9-1-1.6-0.9L5.6,21.6z M5.6,21.6l-1.4-1c-0.4,0.5-0.4,1.2-0.1,1.8c0.3,0.6,0.9,1,1.6,1V21.6
				z M18.7,21.6v1.8c1,0,1.8-0.8,1.8-1.8H18.7z M18.7,23.3C18.7,23.3,18.7,23.3,18.7,23.3l0.1-3.5c0,0,0,0,0,0L18.7,23.3z
				 M18.7,23.3c3.2,0,5.5-2.8,5.5-5.9h-3.5c0,1.5-1.1,2.4-2,2.4V23.3z M24.3,17.4c0-3.1-2.3-5.9-5.5-5.9V15c0.9,0,2,0.9,2,2.4H24.3z
				 M18.7,11.5C18.7,11.5,18.7,11.5,18.7,11.5l0,3.5c0,0,0,0,0,0V11.5z M16.9,13.3L16.9,13.3l3.5,0v0H16.9z M17.7,15h1v-3.5h-1V15z
				 M19.5,13.5c0-0.4,0.1-0.7,0.1-1.1H16c0,0.2,0,0.4,0,0.7L19.5,13.5z M19.6,12.4c0-4.3-3.2-8.2-7.5-8.2v3.5c2,0,4,1.9,4,4.6H19.6z
				 M12,4.2c-4.3,0-7.5,3.8-7.5,8.2h3.5c0-2.7,2-4.6,4-4.6V4.2z M4.5,12.4c0,0.4,0,0.8,0.1,1.2l3.5-0.5c0-0.2-0.1-0.5-0.1-0.7H4.5z
				 M6.8,11.7c-0.4-0.1-0.8-0.2-1.3-0.2V15c0.1,0,0.3,0,0.4,0.1L6.8,11.7z M5.5,11.5c-3.2,0-5.5,2.8-5.5,5.9h3.5
				c0-1.5,1.1-2.4,2-2.4V11.5z M0,17.4c0,3.1,2.3,5.9,5.5,5.9v-3.5c-0.9,0-2-0.9-2-2.4H0z M5.5,23.3C5.5,23.3,5.6,23.3,5.5,23.3
				l0-3.5c0,0,0,0,0,0V23.3z M7,22.6L7,22.6l-2.9-2l0,0L7,22.6z M18.7,19.8H5.6v3.5h13.1V19.8z M16.9,21.6L16.9,21.6l3.5,0v0H16.9z"
				/>
		</g>
		<g>
			
				<linearGradient id="SVGID_00000062161895647720216730000015839672733732945311_" gradientUnits="userSpaceOnUse" x1="-831.2531" y1="418.3094" x2="-831.2531" y2="406.0982" gradientTransform="matrix(1 0 0 -1 852 424.6306)">
				<stop  offset="0" style="stop-color:#FFFFFF"/>
				<stop  offset="1" style="stop-color:#FFFFFF;stop-opacity:0"/>
			</linearGradient>
			
				<path shape-rendering="crispEdges" style="fill-rule:evenodd;clip-rule:evenodd;fill:url(#SVGID_00000062161895647720216730000015839672733732945311_);" d="
				M25.5,17.3C25.5,17.3,25.5,17.3,25.5,17.3c1.5,0,2.7-1.3,2.7-3c0-1.7-1.2-3-2.7-3c0,0,0,0,0,0v0h-0.7c0-0.2,0-0.4,0-0.6
				C24.8,8.1,23,6,20.7,6c-2.3,0-4.2,2.1-4.2,4.6c0,0.2,0,0.5,0,0.7c-0.2-0.1-0.4-0.1-0.6-0.1c-1.5,0-2.7,1.3-2.7,3
				c0,1.7,1.2,3,2.7,3c0,0,0,0,0,0l0,0L25.5,17.3L25.5,17.3z"/>
			<defs>
				
					<filter id="Adobe_OpacityMaskFilter_00000100361695861394533440000000975287510188710535_" filterUnits="userSpaceOnUse" x="11.5" y="4.2" width="18.5" height="14.8">
					<feColorMatrix  type="matrix" values="1 0 0 0 0  0 1 0 0 0  0 0 1 0 0  0 0 0 1 0"/>
				</filter>
			</defs>
			
				<mask maskUnits="userSpaceOnUse" x="11.5" y="4.2" width="18.5" height="14.8" id="path-3-inside-2_34_1116_00000170961652820204966550000004409726547737264269_">
				
					<path style="fill-rule:evenodd;clip-rule:evenodd;fill:#FFFFFF;filter:url(#Adobe_OpacityMaskFilter_00000100361695861394533440000000975287510188710535_);" d="
					M25.5,17.3C25.5,17.3,25.5,17.3,25.5,17.3c1.5,0,2.7-1.3,2.7-3c0-1.7-1.2-3-2.7-3c0,0,0,0,0,0v0h-0.7c0-0.2,0-0.4,0-0.6
					C24.8,8.1,23,6,20.7,6c-2.3,0-4.2,2.1-4.2,4.6c0,0.2,0,0.5,0,0.7c-0.2-0.1-0.4-0.1-0.6-0.1c-1.5,0-2.7,1.3-2.7,3
					c0,1.7,1.2,3,2.7,3c0,0,0,0,0,0l0,0L25.5,17.3L25.5,17.3z"/>
			</mask>
			
				<linearGradient id="SVGID_00000041257279469010752510000017717906293116527782_" gradientUnits="userSpaceOnUse" x1="-831.2531" y1="418.6485" x2="-831.2531" y2="407.3724" gradientTransform="matrix(1 0 0 -1 852 424.6306)">
				<stop  offset="0" style="stop-color:#FFFFFF"/>
				<stop  offset="1" style="stop-color:#FFFFFF;stop-opacity:0"/>
			</linearGradient>
			
				<path style="mask:url(#path-3-inside-2_34_1116_00000170961652820204966550000004409726547737264269_);fill:url(#SVGID_00000041257279469010752510000017717906293116527782_);" d="
				M25.5,17.3l0-1.8c-0.5,0-0.9,0.2-1.3,0.5c-0.3,0.3-0.5,0.8-0.5,1.3H25.5z M25.5,11.2h-1.8c0,0.5,0.2,0.9,0.5,1.3
				c0.3,0.3,0.8,0.5,1.3,0.5L25.5,11.2z M25.5,11.2h1.8c0-1-0.8-1.8-1.8-1.8V11.2z M24.8,11.2L23,11c-0.1,0.5,0.1,1,0.4,1.4
				c0.3,0.4,0.8,0.6,1.3,0.6V11.2z M16.6,11.3L16.1,13c0.6,0.1,1.2,0,1.6-0.4c0.4-0.4,0.7-1,0.6-1.6L16.6,11.3z M16,17.3l1.4,1
				c0.4-0.5,0.4-1.3,0.1-1.8c-0.3-0.6-0.9-1-1.6-0.9L16,17.3z M16,17.3l-1.4-1c-0.4,0.5-0.4,1.2-0.1,1.8c0.3,0.6,0.9,1,1.6,1V17.3z
				 M25.5,17.3V19c1,0,1.8-0.8,1.8-1.8H25.5z M25.5,19C25.5,19,25.5,19,25.5,19l0.1-3.5c0,0,0,0,0,0L25.5,19z M25.5,19
				c2.6,0,4.5-2.3,4.5-4.8h-3.5c0,0.9-0.6,1.2-0.9,1.2V19z M30,14.2c0-2.5-1.8-4.8-4.5-4.8V13c0.3,0,0.9,0.4,0.9,1.2H30z M25.5,9.5
				C25.5,9.5,25.5,9.5,25.5,9.5l0,3.5c0,0,0,0,0,0V9.5z M23.7,11.2L23.7,11.2l3.5,0v0H23.7z M24.8,13h0.7V9.5h-0.7V13z M26.6,11.4
				c0-0.3,0.1-0.6,0.1-0.8h-3.5c0,0.1,0,0.3,0,0.4L26.6,11.4z M26.6,10.6c0-3.3-2.5-6.4-5.9-6.4v3.5c1.1,0,2.4,1.1,2.4,2.9H26.6z
				 M20.7,4.2c-3.4,0-5.9,3-5.9,6.4h3.5c0-1.8,1.2-2.9,2.4-2.9V4.2z M14.8,10.6c0,0.3,0,0.6,0.1,0.9l3.5-0.5c0-0.2,0-0.3,0-0.5H14.8
				z M17,9.6c-0.3-0.1-0.7-0.1-1.1-0.1V13c0.1,0,0.1,0,0.2,0L17,9.6z M16,9.5c-2.6,0-4.5,2.3-4.5,4.8H15c0-0.9,0.6-1.2,0.9-1.2V9.5z
				 M11.5,14.2c0,2.5,1.8,4.8,4.5,4.8v-3.5c-0.3,0-0.9-0.4-0.9-1.2H11.5z M16,19C16,19,16,19,16,19l0-3.5c0,0,0,0,0,0V19z
				 M17.4,18.3L17.4,18.3l-2.9-2l0,0L17.4,18.3z M25.5,15.5H16V19h9.5V15.5z M23.7,17.3L23.7,17.3l3.5,0v0H23.7z"/>
		</g>
		<g>
			
				<linearGradient id="SVGID_00000027590865741139588660000013598548178955013800_" gradientUnits="userSpaceOnUse" x1="-840.897" y1="406.9902" x2="-842.4348" y2="402.4477" gradientTransform="matrix(1 0 0 -1 852 424.6306)">
				<stop  offset="0" style="stop-color:#FFFFFF"/>
				<stop  offset="1" style="stop-color:#00E0FF"/>
			</linearGradient>
			
				<linearGradient id="SVGID_00000021081728490795926210000018097342306898255755_" gradientUnits="userSpaceOnUse" x1="-840.7819" y1="407.3301" x2="-842.4711" y2="402.3405" gradientTransform="matrix(1 0 0 -1 852 424.6306)">
				<stop  offset="0" style="stop-color:#FFFFFF"/>
				<stop  offset="1" style="stop-color:#FFFFFF;stop-opacity:0"/>
			</linearGradient>
			
				<path style="fill:url(#SVGID_00000027590865741139588660000013598548178955013800_);stroke:url(#SVGID_00000021081728490795926210000018097342306898255755_);stroke-width:2;" d="
				M9.7,20.9l0.5-0.7l0.1,0.9c0,0.2-0.2,0.4-0.4,0.3C9.7,21.3,9.6,21,9.7,20.9z"/>
			
				<linearGradient id="SVGID_00000031173508145965049370000009866482412878611633_" gradientUnits="userSpaceOnUse" x1="-835.8895" y1="406.9902" x2="-837.4274" y2="402.4477" gradientTransform="matrix(1 0 0 -1 852 424.6306)">
				<stop  offset="0" style="stop-color:#FFFFFF"/>
				<stop  offset="1" style="stop-color:#00E0FF"/>
			</linearGradient>
			
				<linearGradient id="SVGID_00000044879415414287870410000005264820116415949741_" gradientUnits="userSpaceOnUse" x1="-835.7745" y1="407.3301" x2="-837.4636" y2="402.3405" gradientTransform="matrix(1 0 0 -1 852 424.6306)">
				<stop  offset="0" style="stop-color:#FFFFFF"/>
				<stop  offset="1" style="stop-color:#FFFFFF;stop-opacity:0"/>
			</linearGradient>
			
				<path style="fill:url(#SVGID_00000031173508145965049370000009866482412878611633_);stroke:url(#SVGID_00000044879415414287870410000005264820116415949741_);stroke-width:2;" d="
				M14.7,20.9l0.5-0.7l0.1,0.9c0,0.2-0.2,0.4-0.4,0.3C14.7,21.3,14.6,21,14.7,20.9z"/>
			
				<linearGradient id="SVGID_00000173844826653538303350000002917820128408839811_" gradientUnits="userSpaceOnUse" x1="-830.8821" y1="406.9902" x2="-832.42" y2="402.4477" gradientTransform="matrix(1 0 0 -1 852 424.6306)">
				<stop  offset="0" style="stop-color:#FFFFFF"/>
				<stop  offset="1" style="stop-color:#00E0FF"/>
			</linearGradient>
			
				<linearGradient id="SVGID_00000147180239596782595540000014658656232835806604_" gradientUnits="userSpaceOnUse" x1="-830.767" y1="407.3304" x2="-832.4561" y2="402.3408" gradientTransform="matrix(1 0 0 -1 852 424.6306)">
				<stop  offset="0" style="stop-color:#FFFFFF"/>
				<stop  offset="1" style="stop-color:#FFFFFF;stop-opacity:0"/>
			</linearGradient>
			
				<path style="fill:url(#SVGID_00000173844826653538303350000002917820128408839811_);stroke:url(#SVGID_00000147180239596782595540000014658656232835806604_);stroke-width:2;" d="
				M19.7,20.9l0.5-0.7l0.1,0.9c0,0.2-0.2,0.4-0.4,0.3C19.7,21.3,19.6,21,19.7,20.9z"/>
		</g>
		<g>
			
				<linearGradient id="SVGID_00000155148789045462636650000014447767515234171049_" gradientUnits="userSpaceOnUse" x1="-839.5757" y1="402.5787" x2="-841.1135" y2="398.0362" gradientTransform="matrix(1 0 0 -1 852 424.6306)">
				<stop  offset="0" style="stop-color:#FFFFFF"/>
				<stop  offset="1" style="stop-color:#00E0FF"/>
			</linearGradient>
			
				<linearGradient id="SVGID_00000170963271863895953030000002958565143827917221_" gradientUnits="userSpaceOnUse" x1="-839.4606" y1="402.9188" x2="-841.1498" y2="397.9292" gradientTransform="matrix(1 0 0 -1 852 424.6306)">
				<stop  offset="0" style="stop-color:#FFFFFF"/>
				<stop  offset="1" style="stop-color:#FFFFFF;stop-opacity:0"/>
			</linearGradient>
			
				<path style="fill:url(#SVGID_00000155148789045462636650000014447767515234171049_);stroke:url(#SVGID_00000170963271863895953030000002958565143827917221_);stroke-width:2;" d="
				M11,25.3l0.5-0.7l0.1,0.9c0,0.2-0.2,0.4-0.4,0.3C11,25.7,10.9,25.4,11,25.3z"/>
			
				<linearGradient id="SVGID_00000151527392857959401900000004736488248470942870_" gradientUnits="userSpaceOnUse" x1="-835.345" y1="402.5787" x2="-836.8829" y2="398.0361" gradientTransform="matrix(1 0 0 -1 852 424.6306)">
				<stop  offset="0" style="stop-color:#FFFFFF"/>
				<stop  offset="0.6079" style="stop-color:#64ECFF"/>
				<stop  offset="1" style="stop-color:#00E0FF"/>
			</linearGradient>
			
				<linearGradient id="SVGID_00000121246187992886241910000010404376446200927115_" gradientUnits="userSpaceOnUse" x1="-835.2297" y1="402.9192" x2="-836.919" y2="397.9296" gradientTransform="matrix(1 0 0 -1 852 424.6306)">
				<stop  offset="0" style="stop-color:#FFFFFF"/>
				<stop  offset="1" style="stop-color:#FFFFFF;stop-opacity:0"/>
			</linearGradient>
			
				<path style="fill:url(#SVGID_00000151527392857959401900000004736488248470942870_);stroke:url(#SVGID_00000121246187992886241910000010404376446200927115_);stroke-width:2;" d="
				M15.2,25.3l0.5-0.7l0.1,0.9c0,0.2-0.2,0.4-0.4,0.3C15.2,25.7,15.1,25.4,15.2,25.3z"/>
		</g>
	</g>
</g>
</svg>
