<?xml version="1.0" encoding="utf-8"?>
<!-- Generator: $$$/GeneralStr/196=Adobe Illustrator 27.6.0, SVG Export Plug-In . SVG Version: 6.00 Build 0)  -->
<svg version="1.1" id="Calque_1" xmlns="http://www.w3.org/2000/svg" xmlns:xlink="http://www.w3.org/1999/xlink" x="0px" y="0px"
	 viewBox="0 0 25 20" style="enable-background:new 0 0 25 20;" xml:space="preserve">
<style type="text/css">
	.st0{fill-rule:evenodd;clip-rule:evenodd;fill:url(#SVGID_1_);}
	.st1{fill-rule:evenodd;clip-rule:evenodd;fill:#FFFFFF;filter:url(#Adobe_OpacityMaskFilter);}
	
		.st2{mask:url(#path-1-inside-1_53_842_00000031202081164371630150000014252348223625559202_);fill:url(#SVGID_00000032636525402198467550000015441511463579552922_);}
	.st3{fill-rule:evenodd;clip-rule:evenodd;fill:url(#SVGID_00000045609963080572709980000008860749173277940642_);}
	
		.st4{fill-rule:evenodd;clip-rule:evenodd;fill:#FFFFFF;filter:url(#Adobe_OpacityMaskFilter_00000126324917474082245500000001306042315071393211_);}
	
		.st5{mask:url(#path-3-inside-2_53_842_00000160180286256064582350000006502377805130074796_);fill:url(#SVGID_00000083811735498865847560000007214840920582354354_);}
	
		.st6{fill:url(#SVGID_00000116939987025936694050000005804402938761358521_);stroke:url(#SVGID_00000126296676200742909020000009186087188783986826_);stroke-width:2;}
	
		.st7{fill:url(#SVGID_00000157289446264112041110000013003693916502370978_);stroke:url(#SVGID_00000181077606378274467830000016779252706283715256_);stroke-width:2;}
	
		.st8{fill:url(#SVGID_00000145048964816447857350000015455634509411461534_);stroke:url(#SVGID_00000167358674360396314770000017901945156497259454_);stroke-width:2;}
	
		.st9{fill:url(#SVGID_00000085956475113864861250000002201648598133953668_);stroke:url(#SVGID_00000114058538881377099150000017813116462420896920_);stroke-width:2;}
	
		.st10{fill:url(#SVGID_00000054250138818314664920000017310671421820371604_);stroke:url(#SVGID_00000049200172840387372200000008228398642542779071_);stroke-width:2;}
</style>
<g>
	
		<linearGradient id="SVGID_1_" gradientUnits="userSpaceOnUse" x1="10.1605" y1="22.994" x2="10.1605" y2="4.7419" gradientTransform="matrix(1 0 0 -1 0 22)">
		<stop  offset="0" style="stop-color:#FFFFFF"/>
		<stop  offset="1" style="stop-color:#FFFFFF;stop-opacity:0"/>
	</linearGradient>
	<path shape-rendering="crispEdges" class="st0" d="M15.5,15.5C15.5,15.5,15.5,15.5,15.5,15.5c1.7,0,3.1-1.5,3.1-3.3
		c0-1.8-1.4-3.3-3-3.3c0,0,0,0,0,0v0h-0.8c0-0.2,0-0.5,0-0.7c0-2.8-2.1-5.1-4.7-5.1C7.5,3,5.4,5.3,5.4,8.1c0,0.3,0,0.5,0.1,0.8
		C5.2,8.9,5,8.8,4.8,8.8c-1.7,0-3,1.5-3,3.3c0,1.8,1.4,3.3,3,3.3c0,0,0,0,0,0l0,0L15.5,15.5L15.5,15.5z"/>
	<defs>
		<filter id="Adobe_OpacityMaskFilter" filterUnits="userSpaceOnUse" x="0" y="1.3" width="20.3" height="16">
			<feColorMatrix  type="matrix" values="1 0 0 0 0  0 1 0 0 0  0 0 1 0 0  0 0 0 1 0"/>
		</filter>
	</defs>
	
		<mask maskUnits="userSpaceOnUse" x="0" y="1.3" width="20.3" height="16" id="path-1-inside-1_53_842_00000031202081164371630150000014252348223625559202_">
		<path class="st1" d="M15.5,15.5C15.5,15.5,15.5,15.5,15.5,15.5c1.7,0,3.1-1.5,3.1-3.3c0-1.8-1.4-3.3-3-3.3c0,0,0,0,0,0v0h-0.8
			c0-0.2,0-0.5,0-0.7c0-2.8-2.1-5.1-4.7-5.1C7.5,3,5.4,5.3,5.4,8.1c0,0.3,0,0.5,0.1,0.8C5.2,8.9,5,8.8,4.8,8.8c-1.7,0-3,1.5-3,3.3
			c0,1.8,1.4,3.3,3,3.3c0,0,0,0,0,0l0,0L15.5,15.5L15.5,15.5z"/>
	</mask>
	
		<linearGradient id="SVGID_00000005254338366753682840000017406722391797266329_" gradientUnits="userSpaceOnUse" x1="10.1605" y1="18.9941" x2="10.1605" y2="6.4894" gradientTransform="matrix(1 0 0 -1 0 22)">
		<stop  offset="0" style="stop-color:#FFFFFF"/>
		<stop  offset="1" style="stop-color:#FFFFFF;stop-opacity:0"/>
	</linearGradient>
	
		<path style="mask:url(#path-1-inside-1_53_842_00000031202081164371630150000014252348223625559202_);fill:url(#SVGID_00000005254338366753682840000017406722391797266329_);" d="
		M15.5,15.5l0-1.7c-0.5,0-0.9,0.2-1.2,0.5c-0.3,0.3-0.5,0.8-0.5,1.2H15.5z M15.5,8.8h-1.7c0,0.5,0.2,0.9,0.5,1.2
		c0.3,0.3,0.8,0.5,1.2,0.5L15.5,8.8z M15.5,8.8h1.7c0-1-0.8-1.7-1.7-1.7V8.8z M14.7,8.8L13,8.6c-0.1,0.5,0.1,1,0.4,1.4
		c0.3,0.4,0.8,0.6,1.3,0.6V8.8z M5.5,8.9L5,10.6c0.6,0.1,1.1,0,1.6-0.4c0.4-0.4,0.6-1,0.6-1.5L5.5,8.9z M4.8,15.5l1.4,1
		c0.4-0.5,0.4-1.2,0.1-1.8c-0.3-0.6-0.9-0.9-1.6-0.9L4.8,15.5z M4.8,15.5l-1.4-1C3,15,3,15.7,3.3,16.3c0.3,0.6,0.9,0.9,1.5,0.9V15.5
		z M15.5,15.5v1.7c1,0,1.7-0.8,1.7-1.7H15.5z M15.5,17.2C15.5,17.2,15.5,17.2,15.5,17.2l0.1-3.4c0,0,0,0,0,0L15.5,17.2z M15.5,17.2
		c2.8,0,4.8-2.4,4.8-5.1h-3.4c0,1-0.7,1.6-1.3,1.6V17.2z M20.3,12.2c0-2.6-2-5.1-4.8-5.1v3.4c0.6,0,1.3,0.6,1.3,1.6H20.3z M15.5,7.1
		C15.5,7.1,15.5,7.1,15.5,7.1l0,3.4c0,0,0,0,0,0V7.1z M13.8,8.8L13.8,8.8l3.4,0v0H13.8z M14.7,10.6h0.8V7.1h-0.8V10.6z M16.4,9
		c0-0.3,0.1-0.6,0.1-0.9H13c0,0.2,0,0.3,0,0.5L16.4,9z M16.5,8.1c0-3.6-2.7-6.9-6.4-6.9v3.4c1.5,0,3,1.4,3,3.4H16.5z M10.1,1.3
		c-3.7,0-6.4,3.2-6.4,6.9h3.4c0-2,1.5-3.4,3-3.4V1.3z M3.7,8.1c0,0.3,0,0.7,0.1,1l3.4-0.5c0-0.2,0-0.4,0-0.5H3.7z M5.9,7.2
		C5.5,7.2,5.2,7.1,4.8,7.1v3.4c0.1,0,0.2,0,0.3,0L5.9,7.2z M4.8,7.1C2,7.1,0,9.5,0,12.2h3.4c0-1,0.7-1.6,1.3-1.6V7.1z M0,12.2
		c0,2.6,2,5.1,4.8,5.1v-3.4c-0.6,0-1.3-0.6-1.3-1.6H0z M4.8,17.2C4.8,17.2,4.8,17.2,4.8,17.2l0-3.4c0,0,0,0,0,0V17.2z M6.2,16.5
		L6.2,16.5l-2.8-2l0,0L6.2,16.5z M15.5,13.8H4.8v3.4h10.7V13.8z M13.8,15.5L13.8,15.5l3.4,0v0H13.8z"/>
</g>
<g>
	
		<linearGradient id="SVGID_00000047060243231778879520000016537000653509649839_" gradientUnits="userSpaceOnUse" x1="17.179" y1="18.7223" x2="17.179" y2="8.936" gradientTransform="matrix(1 0 0 -1 0 22)">
		<stop  offset="0" style="stop-color:#FFFFFF"/>
		<stop  offset="1" style="stop-color:#FFFFFF;stop-opacity:0"/>
	</linearGradient>
	
		<path shape-rendering="crispEdges" style="fill-rule:evenodd;clip-rule:evenodd;fill:url(#SVGID_00000047060243231778879520000016537000653509649839_);" d="
		M21,12C21.1,12,21.1,12,21,12c1.2,0,2.2-1.1,2.2-2.4c0-1.3-1-2.4-2.2-2.4c0,0,0,0,0,0v0h-0.6c0-0.2,0-0.3,0-0.5
		c0-2-1.5-3.7-3.4-3.7c-1.9,0-3.4,1.7-3.4,3.7c0,0.2,0,0.4,0,0.6c-0.2,0-0.3-0.1-0.5-0.1c-1.2,0-2.2,1.1-2.2,2.4
		c0,1.3,1,2.4,2.2,2.4c0,0,0,0,0,0l0,0L21,12L21,12z"/>
	<defs>
		
			<filter id="Adobe_OpacityMaskFilter_00000023248704735727928030000010924121670412596143_" filterUnits="userSpaceOnUse" x="9.4" y="1.3" width="15.6" height="12.5">
			<feColorMatrix  type="matrix" values="1 0 0 0 0  0 1 0 0 0  0 0 1 0 0  0 0 0 1 0"/>
		</filter>
	</defs>
	
		<mask maskUnits="userSpaceOnUse" x="9.4" y="1.3" width="15.6" height="12.5" id="path-3-inside-2_53_842_00000160180286256064582350000006502377805130074796_">
		
			<path style="fill-rule:evenodd;clip-rule:evenodd;fill:#FFFFFF;filter:url(#Adobe_OpacityMaskFilter_00000023248704735727928030000010924121670412596143_);" d="
			M21,12C21.1,12,21.1,12,21,12c1.2,0,2.2-1.1,2.2-2.4c0-1.3-1-2.4-2.2-2.4c0,0,0,0,0,0v0h-0.6c0-0.2,0-0.3,0-0.5
			c0-2-1.5-3.7-3.4-3.7c-1.9,0-3.4,1.7-3.4,3.7c0,0.2,0,0.4,0,0.6c-0.2,0-0.3-0.1-0.5-0.1c-1.2,0-2.2,1.1-2.2,2.4
			c0,1.3,1,2.4,2.2,2.4c0,0,0,0,0,0l0,0L21,12L21,12z"/>
	</mask>
	
		<linearGradient id="SVGID_00000047036573061853661360000000092833053172586142_" gradientUnits="userSpaceOnUse" x1="17.179" y1="18.9941" x2="17.179" y2="9.9571" gradientTransform="matrix(1 0 0 -1 0 22)">
		<stop  offset="0" style="stop-color:#FFFFFF"/>
		<stop  offset="1" style="stop-color:#FFFFFF;stop-opacity:0"/>
	</linearGradient>
	
		<path style="mask:url(#path-3-inside-2_53_842_00000160180286256064582350000006502377805130074796_);fill:url(#SVGID_00000047036573061853661360000000092833053172586142_);" d="
		M21,12l0-1.7c-0.5,0-0.9,0.2-1.2,0.5c-0.3,0.3-0.5,0.8-0.5,1.2H21z M21,7.2h-1.7c0,0.5,0.2,0.9,0.5,1.2c0.3,0.3,0.8,0.5,1.2,0.5
		L21,7.2z M21,7.2h1.7c0-1-0.8-1.7-1.7-1.7V7.2z M20.5,7.2L18.8,7c-0.1,0.5,0.1,1,0.4,1.4c0.3,0.4,0.8,0.6,1.3,0.6V7.2z M13.8,7.3
		l-0.4,1.7c0.6,0.1,1.1,0,1.6-0.4c0.4-0.4,0.6-1,0.6-1.5L13.8,7.3z M13.3,12l1.4,1c0.4-0.5,0.4-1.2,0.1-1.8
		c-0.3-0.6-0.9-0.9-1.6-0.9L13.3,12z M13.3,12l-1.4-1c-0.4,0.5-0.4,1.2-0.1,1.8c0.3,0.6,0.9,0.9,1.5,0.9V12z M21,12v1.7
		c1,0,1.7-0.8,1.7-1.7H21z M21,13.8C21,13.8,21.1,13.8,21,13.8l0-3.4c0,0,0,0,0,0L21,13.8z M21.1,13.8c2.3,0,3.9-2,3.9-4.1h-3.4
		c0,0.2-0.1,0.4-0.2,0.5c-0.1,0.1-0.2,0.1-0.3,0.1V13.8z M25,9.6c0-2.1-1.6-4.1-3.9-4.1v3.4c0.1,0,0.2,0,0.3,0.1
		c0.1,0.1,0.2,0.3,0.2,0.5H25z M21.1,5.5C21.1,5.5,21,5.5,21.1,5.5l0,3.4c0,0,0,0,0,0V5.5z M19.3,7.2L19.3,7.2l3.4,0v0H19.3z
		 M20.5,8.9H21V5.5h-0.6V8.9z M22.2,7.4c0-0.2,0-0.5,0-0.7h-3.4c0,0.1,0,0.2,0,0.3L22.2,7.4z M22.2,6.7c0-2.8-2.1-5.4-5.1-5.4v3.4
		c0.8,0,1.7,0.7,1.7,2H22.2z M17.1,1.3c-3,0-5.1,2.6-5.1,5.4h3.4c0-1.2,0.9-2,1.7-2V1.3z M12,6.7c0,0.3,0,0.5,0.1,0.8L15.5,7
		c0-0.1,0-0.2,0-0.3H12z M14.2,5.6c-0.3-0.1-0.6-0.1-0.9-0.1v3.4c0,0,0.1,0,0.1,0L14.2,5.6z M13.3,5.5c-2.3,0-3.9,2-3.9,4.1h3.4
		c0-0.2,0.1-0.4,0.2-0.5c0.1-0.1,0.2-0.1,0.3-0.1V5.5z M9.4,9.6c0,2.1,1.6,4.1,3.9,4.1v-3.4c-0.1,0-0.2,0-0.3-0.1
		c-0.1-0.1-0.2-0.3-0.2-0.5H9.4z M13.3,13.8C13.3,13.8,13.3,13.8,13.3,13.8l0-3.4c0,0,0,0,0,0V13.8z M14.7,13.1L14.7,13.1l-2.8-2
		l0,0L14.7,13.1z M21,10.3h-7.7v3.4H21V10.3z M19.3,12L19.3,12l3.4,0v0H19.3z"/>
</g>
<g>
	
		<linearGradient id="SVGID_00000115516815222024345620000010751029194498875583_" gradientUnits="userSpaceOnUse" x1="9.3005" y1="9.6598" x2="8.0834" y2="6.0076" gradientTransform="matrix(1 0 0 -1 0 22)">
		<stop  offset="0" style="stop-color:#138EFF"/>
		<stop  offset="1" style="stop-color:#00E0FF"/>
	</linearGradient>
	
		<linearGradient id="SVGID_00000176039104171553400150000010401662880359523474_" gradientUnits="userSpaceOnUse" x1="9.4314" y1="10.0528" x2="8.0409" y2="5.8801" gradientTransform="matrix(1 0 0 -1 0 22)">
		<stop  offset="0" style="stop-color:#FFFFFF"/>
		<stop  offset="1" style="stop-color:#FFFFFF;stop-opacity:0"/>
	</linearGradient>
	
		<path style="fill:url(#SVGID_00000115516815222024345620000010751029194498875583_);stroke:url(#SVGID_00000176039104171553400150000010401662880359523474_);stroke-width:2;" d="
		M8.3,15l0.2-0.2l0,0.3c0,0.1-0.1,0.1-0.1,0.1C8.3,15.2,8.3,15.1,8.3,15z"/>
	
		<linearGradient id="SVGID_00000179646860734743613380000014167272003402916006_" gradientUnits="userSpaceOnUse" x1="13.3774" y1="9.6598" x2="12.1603" y2="6.0076" gradientTransform="matrix(1 0 0 -1 0 22)">
		<stop  offset="0" style="stop-color:#138EFF"/>
		<stop  offset="1" style="stop-color:#00E0FF"/>
	</linearGradient>
	
		<linearGradient id="SVGID_00000070841260403312962270000012351274947739850393_" gradientUnits="userSpaceOnUse" x1="13.5081" y1="10.0519" x2="12.1164" y2="5.8757" gradientTransform="matrix(1 0 0 -1 0 22)">
		<stop  offset="0" style="stop-color:#FFFFFF"/>
		<stop  offset="1" style="stop-color:#FFFFFF;stop-opacity:0"/>
	</linearGradient>
	
		<path style="fill:url(#SVGID_00000179646860734743613380000014167272003402916006_);stroke:url(#SVGID_00000070841260403312962270000012351274947739850393_);stroke-width:2;" d="
		M12.4,15l0.2-0.2l0,0.3c0,0.1-0.1,0.1-0.1,0.1C12.4,15.2,12.3,15.1,12.4,15z"/>
	
		<linearGradient id="SVGID_00000038415052038536396550000010431530799965440442_" gradientUnits="userSpaceOnUse" x1="17.4543" y1="9.6598" x2="16.2373" y2="6.0076" gradientTransform="matrix(1 0 0 -1 0 22)">
		<stop  offset="0" style="stop-color:#138EFF"/>
		<stop  offset="1" style="stop-color:#00E0FF"/>
	</linearGradient>
	
		<linearGradient id="SVGID_00000178898321340316005190000003034443695139282595_" gradientUnits="userSpaceOnUse" x1="17.5853" y1="10.0528" x2="16.1948" y2="5.8801" gradientTransform="matrix(1 0 0 -1 0 22)">
		<stop  offset="0" style="stop-color:#FFFFFF"/>
		<stop  offset="1" style="stop-color:#FFFFFF;stop-opacity:0"/>
	</linearGradient>
	
		<path style="fill:url(#SVGID_00000038415052038536396550000010431530799965440442_);stroke:url(#SVGID_00000178898321340316005190000003034443695139282595_);stroke-width:2;" d="
		M16.5,15l0.2-0.2l0,0.3c0,0.1-0.1,0.1-0.1,0.1C16.4,15.2,16.4,15.1,16.5,15z"/>
</g>
<g>
	
		<linearGradient id="SVGID_00000062163078263922868180000010084785425225721270_" gradientUnits="userSpaceOnUse" x1="10.3762" y1="6.1243" x2="9.1591" y2="2.4721" gradientTransform="matrix(1 0 0 -1 0 22)">
		<stop  offset="0" style="stop-color:#138EFF"/>
		<stop  offset="1" style="stop-color:#00E0FF"/>
	</linearGradient>
	
		<linearGradient id="SVGID_00000178896485121521058170000009308397824726664112_" gradientUnits="userSpaceOnUse" x1="10.5074" y1="6.518" x2="9.1168" y2="2.3454" gradientTransform="matrix(1 0 0 -1 0 22)">
		<stop  offset="0" style="stop-color:#FFFFFF"/>
		<stop  offset="1" style="stop-color:#FFFFFF;stop-opacity:0"/>
	</linearGradient>
	
		<path style="fill:url(#SVGID_00000062163078263922868180000010084785425225721270_);stroke:url(#SVGID_00000178896485121521058170000009308397824726664112_);stroke-width:2;" d="
		M9.4,18.5l0.2-0.2l0,0.3c0,0.1-0.1,0.1-0.1,0.1C9.4,18.7,9.3,18.6,9.4,18.5z"/>
	
		<linearGradient id="SVGID_00000134970135898390991030000014441475046793464202_" gradientUnits="userSpaceOnUse" x1="13.8207" y1="6.1243" x2="12.6036" y2="2.4721" gradientTransform="matrix(1 0 0 -1 0 22)">
		<stop  offset="0" style="stop-color:#138EFF"/>
		<stop  offset="1" style="stop-color:#00E0FF"/>
	</linearGradient>
	
		<linearGradient id="SVGID_00000052818893120059472720000000159463183387701935_" gradientUnits="userSpaceOnUse" x1="13.9516" y1="6.5171" x2="12.5611" y2="2.3445" gradientTransform="matrix(1 0 0 -1 0 22)">
		<stop  offset="0" style="stop-color:#FFFFFF"/>
		<stop  offset="1" style="stop-color:#FFFFFF;stop-opacity:0"/>
	</linearGradient>
	
		<path style="fill:url(#SVGID_00000134970135898390991030000014441475046793464202_);stroke:url(#SVGID_00000052818893120059472720000000159463183387701935_);stroke-width:2;" d="
		M12.8,18.5l0.2-0.2l0,0.3c0,0.1-0.1,0.1-0.1,0.1C12.8,18.7,12.8,18.6,12.8,18.5z"/>
</g>
</svg>
