<?xml version="1.0" encoding="utf-8"?>
<!-- Generator: $$$/GeneralStr/196=Adobe Illustrator 27.6.0, SVG Export Plug-In . SVG Version: 6.00 Build 0)  -->
<svg version="1.1" xmlns="http://www.w3.org/2000/svg" xmlns:xlink="http://www.w3.org/1999/xlink" x="0px" y="0px"
	 viewBox="0 0 30 30" style="enable-background:new 0 0 30 30;" xml:space="preserve">
<style type="text/css">
	.st0{display:none;}
	.st1{display:inline;}
	.st2{fill:#FFC701;fill-opacity:0.35;}
	.st3{fill:url(#SVGID_1_);stroke:url(#SVGID_00000096023291502780442180000007283013586744663692_);stroke-width:2;}
	.st4{fill-rule:evenodd;clip-rule:evenodd;fill:url(#SVGID_00000002364496117646244570000015955962715030267274_);}
	.st5{fill-rule:evenodd;clip-rule:evenodd;fill:#FFFFFF;filter:url(#Adobe_OpacityMaskFilter);}
	
		.st6{mask:url(#path-1-inside-1_34_1120_00000124144887191606585630000013910473347130966695_);fill:url(#SVGID_00000042711652999177608390000015424559674584236718_);}
	.st7{fill:url(#SVGID_00000076566014518388599070000017061655234057788346_);}
	.st8{fill:#FFFFFF;filter:url(#Adobe_OpacityMaskFilter_00000130646695502823058620000017713233926257349552_);}
	
		.st9{mask:url(#path-3-inside-2_34_1120_00000159460253971488864520000008752651479130153406_);fill:url(#SVGID_00000122707149286006333470000018068540948238562720_);}
	.st10{fill:url(#SVGID_00000064338912094320539630000010864831457658251403_);}
	.st11{fill:none;stroke:url(#SVGID_00000031205313028618791650000016979972055620057766_);stroke-width:2;}
	.st12{fill:url(#SVGID_00000150800632787126297990000006964936386515283875_);}
	.st13{fill:none;stroke:url(#SVGID_00000178165452664560881310000012271943168815940013_);stroke-width:2;}
	.st14{fill:url(#SVGID_00000036950037933418461490000016930501234758016167_);}
	.st15{fill:none;stroke:url(#SVGID_00000110446697437057826700000000601371818017860255_);stroke-width:2;}
	.st16{fill-rule:evenodd;clip-rule:evenodd;fill:url(#SVGID_00000127750933419166587990000017349793346013019573_);}
	
		.st17{fill-rule:evenodd;clip-rule:evenodd;fill:#FFFFFF;filter:url(#Adobe_OpacityMaskFilter_00000178198980058401580180000008071067720855118231_);}
	
		.st18{mask:url(#path-1-inside-1_34_1112_00000154385448196801894960000003147644221947810435_);fill:url(#SVGID_00000125571193806296143580000017694808191794989708_);}
	.st19{fill-rule:evenodd;clip-rule:evenodd;fill:url(#SVGID_00000016774169324763405560000013940877356440717983_);}
	
		.st20{fill-rule:evenodd;clip-rule:evenodd;fill:#FFFFFF;filter:url(#Adobe_OpacityMaskFilter_00000062150354474854423510000002820164739115824266_);}
	
		.st21{mask:url(#path-3-inside-2_34_1112_00000076588949146793266500000003648274497246796939_);fill:url(#SVGID_00000082345823818027715950000012530847557174890907_);}
	.st22{fill:url(#SVGID_00000110440433316356018190000005805373247176976275_);}
	.st23{fill:none;stroke:url(#SVGID_00000023262727172410515990000007262577053258807218_);stroke-width:2;}
	.st24{fill-rule:evenodd;clip-rule:evenodd;fill:url(#SVGID_00000150074012329033919670000006905970205806748314_);}
	
		.st25{fill-rule:evenodd;clip-rule:evenodd;fill:#FFFFFF;filter:url(#Adobe_OpacityMaskFilter_00000093141586810878231930000009378898884393580980_);}
	
		.st26{mask:url(#path-7-inside-3_34_1112_00000049903069423919899080000003404231421041622455_);fill:url(#SVGID_00000006684292040686092830000012003249260786869418_);}
	
		.st27{fill:url(#SVGID_00000108296610677142109740000015210674779252229548_);stroke:url(#SVGID_00000010276014617639873690000015920619038527907969_);stroke-width:2;}
	
		.st28{fill:url(#SVGID_00000085962220360053233980000011709442262020684689_);stroke:url(#SVGID_00000041272657383154851930000003395819877391378584_);stroke-width:2;}
	
		.st29{fill:url(#SVGID_00000142885616795240397580000013915592578350184377_);stroke:url(#SVGID_00000083789946449066218870000008509279036429900432_);stroke-width:2;}
	
		.st30{fill:url(#SVGID_00000093166715982545908230000009879401570789461400_);stroke:url(#SVGID_00000027596766181597193210000009742501515096831911_);stroke-width:2;}
	
		.st31{fill:url(#SVGID_00000101080307240174981960000012714325407925936022_);stroke:url(#SVGID_00000168104848058046600950000010698270029274236326_);stroke-width:2;}
</style>
<g id="Calque_1" class="st0">
	<g class="st1">
		<g>
			<circle class="st2" cx="15" cy="15" r="15"/>
		</g>
		
			<linearGradient id="SVGID_1_" gradientUnits="userSpaceOnUse" x1="-837" y1="423.6465" x2="-837" y2="394.6306" gradientTransform="matrix(1 0 0 -1 852 424.6306)">
			<stop  offset="0" style="stop-color:#FFE600"/>
			<stop  offset="1" style="stop-color:#FF7A00"/>
		</linearGradient>
		
			<linearGradient id="SVGID_00000116199794571276253200000010394236507714889631_" gradientUnits="userSpaceOnUse" x1="-837" y1="423.6468" x2="-837" y2="394.6304" gradientTransform="matrix(1 0 0 -1 852 424.6306)">
			<stop  offset="0" style="stop-color:#FFFFFF"/>
			<stop  offset="1" style="stop-color:#FFFFFF;stop-opacity:0"/>
		</linearGradient>
		
			<circle style="fill:url(#SVGID_1_);stroke:url(#SVGID_00000116199794571276253200000010394236507714889631_);stroke-width:2;" cx="15" cy="15.5" r="13.5"/>
	</g>
</g>
<g id="Calque_2" class="st0">
	<g class="st1">
		<g>
			
				<linearGradient id="SVGID_00000069391273272578731540000013114830004839900309_" gradientUnits="userSpaceOnUse" x1="-844.9346" y1="419.6291" x2="-835.3584" y2="397.8876" gradientTransform="matrix(1 0 0 -1 852 424.6306)">
				<stop  offset="1.000000e-04" style="stop-color:#D6C2FF"/>
				<stop  offset="1" style="stop-color:#7E2FFF"/>
			</linearGradient>
			<path style="fill-rule:evenodd;clip-rule:evenodd;fill:url(#SVGID_00000069391273272578731540000013114830004839900309_);" d="
				M10.1,3.8c1-0.2,1.8,1,1.4,1.8c-1.3,2.8-0.9,6.2,1.3,9c2.5,3.2,6.8,4.8,10.8,4.4c1.1-0.1,2.1,0.8,1.6,1.6c-0.9,1.5-2.3,2.8-4,3.7
				c-5.8,3.3-14,1.7-18.1-3.6C-1.2,15.5,0.1,8.6,6,5.3C7.3,4.6,8.7,4.1,10.1,3.8z"/>
			<defs>
				<filter id="Adobe_OpacityMaskFilter" filterUnits="userSpaceOnUse" x="-2" y="1.5" width="29.8" height="26.9">
					<feColorMatrix  type="matrix" values="1 0 0 0 0  0 1 0 0 0  0 0 1 0 0  0 0 0 1 0"/>
				</filter>
			</defs>
			
				<mask maskUnits="userSpaceOnUse" x="-2" y="1.5" width="29.8" height="26.9" id="path-1-inside-1_34_1120_00000124144887191606585630000013910473347130966695_">
				<path class="st5" d="M10.1,3.8c1-0.2,1.8,1,1.4,1.8c-1.3,2.8-0.9,6.2,1.3,9c2.5,3.2,6.8,4.8,10.8,4.4c1.1-0.1,2.1,0.8,1.6,1.6
					c-0.9,1.5-2.3,2.8-4,3.7c-5.8,3.3-14,1.7-18.1-3.6C-1.2,15.5,0.1,8.6,6,5.3C7.3,4.6,8.7,4.1,10.1,3.8z"/>
			</mask>
			
				<linearGradient id="SVGID_00000138548514788825259000000008359514156813493386_" gradientUnits="userSpaceOnUse" x1="-843.5724" y1="430.2376" x2="-838.3536" y2="402.9588" gradientTransform="matrix(1 0 0 -1 852 424.6306)">
				<stop  offset="0" style="stop-color:#FFFFFF"/>
				<stop  offset="1" style="stop-color:#FFFFFF;stop-opacity:0"/>
			</linearGradient>
			
				<path style="mask:url(#path-1-inside-1_34_1120_00000124144887191606585630000013910473347130966695_);fill:url(#SVGID_00000138548514788825259000000008359514156813493386_);" d="
				M12.7,14.7l2-1.2L12.7,14.7z M21.1,24.5l-1.5-2L21.1,24.5z M3,20.8l-2,1.2L3,20.8z M6,5.3l1.5,2L6,5.3z M23.5,19.1l-0.4-2.3
				L23.5,19.1z M25.1,20.7l-2.2-1.2L25.1,20.7z M11.5,5.7l-2.4-1L11.5,5.7z M14.8,13.5c-1.7-2.1-1.9-4.6-1-6.8l-4.7-2
				c-1.6,3.5-1.2,7.7,1.6,11.2L14.8,13.5z M23.1,16.8c-3.1,0.3-6.4-1-8.3-3.4l-4.1,2.5c3.1,4,8.4,5.9,13.3,5.5L23.1,16.8z
				 M22.8,19.5c-0.7,1.2-1.8,2.2-3.2,3l2.9,3.9c2.1-1.2,3.7-2.7,4.8-4.5L22.8,19.5z M19.6,22.5C14.9,25.2,8.3,23.8,5,19.6l-4.1,2.5
				c5,6.4,14.7,8.3,21.6,4.4L19.6,22.5z M5,19.6C1.7,15.4,2.7,9.9,7.4,7.3L4.5,3.3c-7,3.9-8.7,12.3-3.6,18.7L5,19.6z M7.4,7.3
				c1-0.6,2.2-1,3.3-1.2L9.4,1.6C7.7,1.9,6.1,2.5,4.5,3.3L7.4,7.3z M24,21.4c-0.3,0-0.6-0.1-0.9-0.3c-0.1-0.1-0.3-0.4-0.4-0.7
				c-0.1-0.3,0-0.6,0.1-0.9l4.5,2.5c0.9-1.4,0.4-2.9-0.6-3.9c-0.9-0.9-2.3-1.4-3.6-1.3L24,21.4z M13.8,6.7c0.5-1.1,0.3-2.4-0.4-3.4
				c-0.8-1.1-2.2-2-4-1.7l1.3,4.5c-0.3,0.1-0.6,0-1-0.1C9.5,5.8,9.3,5.6,9.2,5.5C9,5.2,9,4.9,9.1,4.7L13.8,6.7z"/>
		</g>
		<g>
			
				<linearGradient id="SVGID_00000070080821368370279240000000301756168242601903_" gradientUnits="userSpaceOnUse" x1="-834.5015" y1="421.6362" x2="-834.5015" y2="416.2315" gradientTransform="matrix(1 0 0 -1 852 424.6306)">
				<stop  offset="1.000000e-04" style="stop-color:#D6C2FF"/>
				<stop  offset="1" style="stop-color:#7E2FFF"/>
			</linearGradient>
			<path style="fill:url(#SVGID_00000070080821368370279240000000301756168242601903_);" d="M16.9,4.7c0.2-0.6,1-0.6,1.2,0l0,0
				c0.1,0.2,0.2,0.3,0.4,0.4l0,0c0.6,0.1,0.6,0.9,0,1.1l0,0c-0.2,0-0.3,0.2-0.4,0.4l0,0c-0.2,0.6-1,0.6-1.2,0l0,0
				c-0.1-0.2-0.2-0.3-0.4-0.4l0,0c-0.6-0.1-0.6-0.9,0-1.1l0,0C16.7,5.1,16.8,4.9,16.9,4.7L16.9,4.7z"/>
			<defs>
				
					<filter id="Adobe_OpacityMaskFilter_00000086666851681182687160000009421214849545175680_" filterUnits="userSpaceOnUse" x="13.6" y="1.9" width="7.7" height="7.6">
					<feColorMatrix  type="matrix" values="1 0 0 0 0  0 1 0 0 0  0 0 1 0 0  0 0 0 1 0"/>
				</filter>
			</defs>
			
				<mask maskUnits="userSpaceOnUse" x="13.6" y="1.9" width="7.7" height="7.6" id="path-3-inside-2_34_1120_00000159460253971488864520000008752651479130153406_">
				<path style="fill:#FFFFFF;filter:url(#Adobe_OpacityMaskFilter_00000086666851681182687160000009421214849545175680_);" d="
					M16.9,4.7c0.2-0.6,1-0.6,1.2,0l0,0c0.1,0.2,0.2,0.3,0.4,0.4l0,0c0.6,0.1,0.6,0.9,0,1.1l0,0c-0.2,0-0.3,0.2-0.4,0.4l0,0
					c-0.2,0.6-1,0.6-1.2,0l0,0c-0.1-0.2-0.2-0.3-0.4-0.4l0,0c-0.6-0.1-0.6-0.9,0-1.1l0,0C16.7,5.1,16.8,4.9,16.9,4.7L16.9,4.7z"/>
			</mask>
			
				<linearGradient id="SVGID_00000150789446046364118280000013795111999221807755_" gradientUnits="userSpaceOnUse" x1="-834.5015" y1="421.6839" x2="-834.5015" y2="418.3415" gradientTransform="matrix(1 0 0 -1 852 424.6306)">
				<stop  offset="0" style="stop-color:#FFFFFF"/>
				<stop  offset="1" style="stop-color:#FFFFFF;stop-opacity:0"/>
			</linearGradient>
			
				<path style="mask:url(#path-3-inside-2_34_1120_00000159460253971488864520000008752651479130153406_);fill:url(#SVGID_00000150789446046364118280000013795111999221807755_);" d="
				M16.5,5.1l-0.6-2.3L16.5,5.1z M16.9,6.6l2.3-0.8L16.9,6.6z M18.1,6.6l-2.3-0.8L18.1,6.6z M16.9,6.6l-2.3,0.8L16.9,6.6z M18.1,6.6
				l-2.3-0.8L18.1,6.6z M18.5,6.2l-0.6-2.3L18.5,6.2z M18.1,4.7L20.4,4L18.1,4.7z M15.8,5.5L15.8,5.5L20.4,4l0,0L15.8,5.5z
				 M15.8,5.8L15.8,5.8l4.6,1.6l0,0L15.8,5.8z M19.2,5.8L19.2,5.8l-4.6,1.5l0,0L19.2,5.8z M19.2,5.5L19.2,5.5l-4.6-1.6l0,0L19.2,5.5
				z M17.1,7.5c1-0.2,1.8-1,2.1-1.9L14.6,4c0.2-0.6,0.7-1,1.3-1.2L17.1,7.5z M17.1,3.8C19,4.3,19,7,17.1,7.5l-1.2-4.7
				c-3,0.8-3,5,0,5.8L17.1,3.8z M19.2,5.8c-0.3-1-1.1-1.7-2.1-1.9l-1.2,4.7c-0.6-0.2-1.1-0.6-1.3-1.2L19.2,5.8z M15.8,5.8
				c0.6-1.6,2.8-1.6,3.4,0l-4.6,1.6c0.9,2.8,4.8,2.8,5.8,0L15.8,5.8z M17.9,3.8c-1,0.2-1.8,1-2.1,1.9l4.6,1.6
				c-0.2,0.6-0.7,1-1.3,1.2L17.9,3.8z M17.9,7.5C16,7,16,4.3,17.9,3.8l1.2,4.7c3-0.8,3-5,0-5.8L17.9,7.5z M15.8,5.5
				c0.3,1,1.1,1.7,2.1,1.9l1.2-4.7c0.6,0.2,1.1,0.6,1.3,1.2L15.8,5.5z M20.4,3.9c-0.9-2.8-4.8-2.8-5.8,0l4.6,1.6
				c-0.6,1.6-2.8,1.6-3.4,0L20.4,3.9z"/>
		</g>
		<g>
			
				<linearGradient id="SVGID_00000032626675061445362840000012402202596070236093_" gradientUnits="userSpaceOnUse" x1="-831.8439" y1="414.5724" x2="-831.8439" y2="407.461" gradientTransform="matrix(1 0 0 -1 852 424.6306)">
				<stop  offset="0" style="stop-color:#FFE600"/>
				<stop  offset="1" style="stop-color:#FF7A00"/>
			</linearGradient>
			<path style="fill:url(#SVGID_00000032626675061445362840000012402202596070236093_);" d="M19.4,12.4c0.3-0.8,1.3-0.8,1.6,0l0,0.1
				c0.1,0.2,0.3,0.4,0.5,0.5l0,0c0.7,0.2,0.7,1.2,0,1.4l0,0c-0.2,0.1-0.4,0.2-0.5,0.5l0,0.1c-0.3,0.8-1.3,0.8-1.6,0l0-0.1
				c-0.1-0.2-0.3-0.4-0.5-0.5l0,0c-0.7-0.2-0.7-1.2,0-1.4l0,0C19.1,12.8,19.3,12.7,19.4,12.4L19.4,12.4z"/>
			
				<linearGradient id="SVGID_00000017501456633308472860000010150673673587528367_" gradientUnits="userSpaceOnUse" x1="-831.8446" y1="414.0148" x2="-831.8446" y2="410.3066" gradientTransform="matrix(1 0 0 -1 852 424.6306)">
				<stop  offset="0" style="stop-color:#FFFFFF"/>
				<stop  offset="1" style="stop-color:#FFFFFF;stop-opacity:0"/>
			</linearGradient>
			<path style="fill:none;stroke:url(#SVGID_00000017501456633308472860000010150673673587528367_);stroke-width:2;" d="M20,13.6
				c0.1-0.1,0.1-0.1,0.2-0.2c0.1,0.1,0.1,0.1,0.2,0.2c-0.1,0.1-0.1,0.1-0.2,0.2C20.1,13.7,20,13.7,20,13.6z"/>
		</g>
		<g>
			
				<linearGradient id="SVGID_00000067232628555560124070000005601498152120742302_" gradientUnits="userSpaceOnUse" x1="-823.2068" y1="416.0969" x2="-823.2068" y2="411.5455" gradientTransform="matrix(1 0 0 -1 852 424.6306)">
				<stop  offset="1.000000e-04" style="stop-color:#D6C2FF"/>
				<stop  offset="1" style="stop-color:#7E2FFF"/>
			</linearGradient>
			<path style="fill:url(#SVGID_00000067232628555560124070000005601498152120742302_);" d="M28.3,10c0.2-0.5,0.9-0.5,1,0l0,0
				c0.1,0.2,0.2,0.3,0.3,0.3l0,0c0.5,0.1,0.5,0.8,0,0.9l0,0c-0.2,0-0.3,0.2-0.3,0.3l0,0c-0.2,0.5-0.9,0.5-1,0l0,0
				c-0.1-0.2-0.2-0.3-0.3-0.3l0,0c-0.5-0.1-0.5-0.8,0-0.9l0,0C28.1,10.3,28.2,10.2,28.3,10L28.3,10z"/>
			
				<linearGradient id="SVGID_00000018232680858351296290000001868872932121368493_" gradientUnits="userSpaceOnUse" x1="-823.2069" y1="415.8444" x2="-823.2069" y2="413.3916" gradientTransform="matrix(1 0 0 -1 852 424.6306)">
				<stop  offset="0" style="stop-color:#FFFFFF"/>
				<stop  offset="1" style="stop-color:#FFFFFF;stop-opacity:0"/>
			</linearGradient>
			<path style="fill:none;stroke:url(#SVGID_00000018232680858351296290000001868872932121368493_);stroke-width:2;" d="M28.8,10.8
				c0,0,0-0.1,0-0.1c0,0,0,0,0,0C28.8,10.8,28.8,10.8,28.8,10.8C28.8,10.8,28.8,10.8,28.8,10.8z"/>
		</g>
		<g>
			
				<linearGradient id="SVGID_00000082356889349959691960000006926860904125161151_" gradientUnits="userSpaceOnUse" x1="-826.1966" y1="422.8216" x2="-826.1966" y2="418.2704" gradientTransform="matrix(1 0 0 -1 852 424.6306)">
				<stop  offset="0" style="stop-color:#FFE600"/>
				<stop  offset="1" style="stop-color:#FF7A00"/>
			</linearGradient>
			<path style="fill:url(#SVGID_00000082356889349959691960000006926860904125161151_);" d="M25.3,3.3c0.2-0.5,0.9-0.5,1,0l0,0
				c0.1,0.2,0.2,0.3,0.3,0.3l0,0c0.5,0.1,0.5,0.8,0,0.9l0,0c-0.2,0-0.3,0.2-0.3,0.3l0,0c-0.2,0.5-0.9,0.5-1,0l0,0
				c-0.1-0.2-0.2-0.3-0.3-0.3l0,0c-0.5-0.1-0.5-0.8,0-0.9l0,0C25.1,3.6,25.2,3.5,25.3,3.3L25.3,3.3z"/>
			
				<linearGradient id="SVGID_00000130633702651005864420000006624963806754173631_" gradientUnits="userSpaceOnUse" x1="-826.1966" y1="422.5293" x2="-826.1966" y2="420.0762" gradientTransform="matrix(1 0 0 -1 852 424.6306)">
				<stop  offset="0" style="stop-color:#FFFFFF"/>
				<stop  offset="1" style="stop-color:#FFFFFF;stop-opacity:0"/>
			</linearGradient>
			<path style="fill:none;stroke:url(#SVGID_00000130633702651005864420000006624963806754173631_);stroke-width:2;" d="M25.8,4.1
				c0,0,0-0.1,0-0.1c0,0,0,0,0,0C25.8,4.1,25.8,4.1,25.8,4.1C25.8,4.1,25.8,4.1,25.8,4.1z"/>
		</g>
	</g>
</g>
<g id="Calque_3">
	<g>
		<g>
			
				<linearGradient id="SVGID_00000056416047130938850740000013354533474133648806_" gradientUnits="userSpaceOnUse" x1="-843.6177" y1="417.943" x2="-843.6177" y2="409.3219" gradientTransform="matrix(1 0 0 -1 852 424.6306)">
				<stop  offset="0" style="stop-color:#FFFFFF"/>
				<stop  offset="1" style="stop-color:#FFFFFF;stop-opacity:0"/>
			</linearGradient>
			
				<path shape-rendering="crispEdges" style="fill-rule:evenodd;clip-rule:evenodd;fill:url(#SVGID_00000056416047130938850740000013354533474133648806_);" d="
				M12.6,14.4C12.6,14.4,12.6,14.4,12.6,14.4c1.3,0,2.4-1,2.4-2.1c0-1.2-1.1-2.1-2.4-2.1c0,0,0,0,0,0v0H12c0-0.1,0-0.3,0-0.4
				c0-1.8-1.6-3.3-3.7-3.3c-2,0-3.7,1.5-3.7,3.3c0,0.2,0,0.3,0,0.5c-0.2,0-0.4-0.1-0.5-0.1c-1.3,0-2.4,1-2.4,2.1
				c0,1.2,1.1,2.1,2.4,2.1c0,0,0,0,0,0l0,0L12.6,14.4L12.6,14.4z"/>
			<defs>
				
					<filter id="Adobe_OpacityMaskFilter_00000018234172192484333720000002101522172695715002_" filterUnits="userSpaceOnUse" x="0" y="4.7" width="16.8" height="11.5">
					<feColorMatrix  type="matrix" values="1 0 0 0 0  0 1 0 0 0  0 0 1 0 0  0 0 0 1 0"/>
				</filter>
			</defs>
			
				<mask maskUnits="userSpaceOnUse" x="0" y="4.7" width="16.8" height="11.5" id="path-1-inside-1_34_1112_00000154385448196801894960000003147644221947810435_">
				
					<path style="fill-rule:evenodd;clip-rule:evenodd;fill:#FFFFFF;filter:url(#Adobe_OpacityMaskFilter_00000018234172192484333720000002101522172695715002_);" d="
					M12.6,14.4C12.6,14.4,12.6,14.4,12.6,14.4c1.3,0,2.4-1,2.4-2.1c0-1.2-1.1-2.1-2.4-2.1c0,0,0,0,0,0v0H12c0-0.1,0-0.3,0-0.4
					c0-1.8-1.6-3.3-3.7-3.3c-2,0-3.7,1.5-3.7,3.3c0,0.2,0,0.3,0,0.5c-0.2,0-0.4-0.1-0.5-0.1c-1.3,0-2.4,1-2.4,2.1
					c0,1.2,1.1,2.1,2.4,2.1c0,0,0,0,0,0l0,0L12.6,14.4L12.6,14.4z"/>
			</mask>
			
				<linearGradient id="SVGID_00000070830030627053757980000004618861897401493165_" gradientUnits="userSpaceOnUse" x1="-843.6177" y1="418.1825" x2="-843.6177" y2="410.2215" gradientTransform="matrix(1 0 0 -1 852 424.6306)">
				<stop  offset="0" style="stop-color:#FFFFFF"/>
				<stop  offset="1" style="stop-color:#FFFFFF;stop-opacity:0"/>
			</linearGradient>
			
				<path style="mask:url(#path-1-inside-1_34_1112_00000154385448196801894960000003147644221947810435_);fill:url(#SVGID_00000070830030627053757980000004618861897401493165_);" d="
				M12.6,14.4l0-1.8c-0.5,0-0.9,0.2-1.3,0.5c-0.3,0.3-0.5,0.8-0.5,1.3H12.6z M12.6,10.2h-1.8c0,0.5,0.2,0.9,0.5,1.3
				c0.3,0.3,0.8,0.5,1.3,0.5L12.6,10.2z M12.6,10.2h1.8c0-1-0.8-1.8-1.8-1.8V10.2z M12,10.2l-1.7-0.3c-0.1,0.5,0.1,1,0.4,1.4
				c0.3,0.4,0.8,0.6,1.3,0.6V10.2z M4.7,10.2l-0.4,1.7c0.6,0.1,1.2-0.1,1.6-0.5c0.4-0.4,0.6-1,0.5-1.6L4.7,10.2z M4.2,14.4l1.3,1.2
				c0.5-0.5,0.6-1.3,0.3-1.9c-0.3-0.6-0.9-1-1.6-1L4.2,14.4z M4.2,14.4l-1.3-1.2c-0.5,0.5-0.6,1.3-0.3,1.9c0.3,0.6,0.9,1,1.6,1V14.4
				z M12.6,14.4v1.8c1,0,1.8-0.8,1.8-1.8H12.6z M12.6,16.2C12.6,16.2,12.6,16.2,12.6,16.2l0-3.5c0,0,0,0,0,0L12.6,16.2z M12.6,16.2
				c2.1,0,4.2-1.6,4.2-3.9h-3.5c0,0,0,0.1-0.1,0.2c-0.1,0.1-0.3,0.2-0.5,0.2V16.2z M16.8,12.3c0-2.3-2.1-3.9-4.2-3.9v3.5
				c0.2,0,0.4,0.1,0.5,0.2c0.1,0.1,0.1,0.2,0.1,0.2H16.8z M12.6,8.4C12.6,8.4,12.6,8.4,12.6,8.4l0,3.5c0,0,0,0,0,0V8.4z M10.8,10.2
				L10.8,10.2l3.5,0v0H10.8z M12,11.9h0.6V8.4H12V11.9z M13.7,10.4c0-0.2,0.1-0.5,0.1-0.7h-3.5c0,0.1,0,0.1,0,0.2L13.7,10.4z
				 M13.8,9.7c0-3-2.6-5-5.4-5v3.5c1.3,0,1.9,0.9,1.9,1.5H13.8z M8.3,4.7c-2.8,0-5.4,2.1-5.4,5h3.5c0-0.6,0.7-1.5,1.9-1.5V4.7z
				 M2.9,9.7c0,0.3,0,0.5,0.1,0.8l3.5-0.6c0-0.1,0-0.1,0-0.2H2.9z M5.1,8.5C4.8,8.4,4.5,8.4,4.2,8.4v3.5c0.1,0,0.1,0,0.2,0L5.1,8.5z
				 M4.2,8.4C2.1,8.4,0,9.9,0,12.3h3.5c0,0,0-0.1,0.1-0.2c0.1-0.1,0.3-0.2,0.5-0.2V8.4z M0,12.3c0,2.3,2.1,3.9,4.2,3.9v-3.5
				c-0.2,0-0.4-0.1-0.5-0.2c-0.1-0.1-0.1-0.2-0.1-0.2H0z M4.2,16.2C4.2,16.2,4.2,16.2,4.2,16.2l0-3.5c0,0,0,0,0,0V16.2z M5.5,15.6
				L5.5,15.6l-2.6-2.3l0,0L5.5,15.6z M12.6,12.6H4.2v3.5h8.4V12.6z M10.8,14.4L10.8,14.4l3.5,0v0H10.8z"/>
		</g>
		<g>
			
				<linearGradient id="SVGID_00000013904655978054554110000014377685818606158510_" gradientUnits="userSpaceOnUse" x1="-838.0004" y1="419.3115" x2="-838.0004" y2="403.2323" gradientTransform="matrix(1 0 0 -1 852 424.6306)">
				<stop  offset="0" style="stop-color:#FFFFFF"/>
				<stop  offset="1" style="stop-color:#FFFFFF;stop-opacity:0"/>
			</linearGradient>
			
				<path shape-rendering="crispEdges" style="fill-rule:evenodd;clip-rule:evenodd;fill:url(#SVGID_00000013904655978054554110000014377685818606158510_);" d="
				M19.8,19.9C19.8,19.9,19.8,19.9,19.8,19.9c1.9,0,3.3-1.3,3.3-2.9c0-1.6-1.5-2.9-3.3-2.9c0,0,0,0,0,0v0H19c0-0.2,0-0.4,0-0.6
				c0-2.5-2.3-4.5-5.1-4.5c-2.8,0-5.1,2-5.1,4.5c0,0.2,0,0.5,0.1,0.7C8.7,14,8.4,14,8.2,14c-1.8,0-3.3,1.3-3.3,2.9
				c0,1.6,1.5,2.9,3.3,2.9c0,0,0,0,0,0l0,0L19.8,19.9L19.8,19.9z"/>
			<defs>
				
					<filter id="Adobe_OpacityMaskFilter_00000150076014645726138040000007595232365641212071_" filterUnits="userSpaceOnUse" x="3.1" y="7.1" width="21.8" height="14.5">
					<feColorMatrix  type="matrix" values="1 0 0 0 0  0 1 0 0 0  0 0 1 0 0  0 0 0 1 0"/>
				</filter>
			</defs>
			
				<mask maskUnits="userSpaceOnUse" x="3.1" y="7.1" width="21.8" height="14.5" id="path-3-inside-2_34_1112_00000076588949146793266500000003648274497246796939_">
				
					<path style="fill-rule:evenodd;clip-rule:evenodd;fill:#FFFFFF;filter:url(#Adobe_OpacityMaskFilter_00000150076014645726138040000007595232365641212071_);" d="
					M19.8,19.9C19.8,19.9,19.8,19.9,19.8,19.9c1.9,0,3.3-1.3,3.3-2.9c0-1.6-1.5-2.9-3.3-2.9c0,0,0,0,0,0v0H19c0-0.2,0-0.4,0-0.6
					c0-2.5-2.3-4.5-5.1-4.5c-2.8,0-5.1,2-5.1,4.5c0,0.2,0,0.5,0.1,0.7C8.7,14,8.4,14,8.2,14c-1.8,0-3.3,1.3-3.3,2.9
					c0,1.6,1.5,2.9,3.3,2.9c0,0,0,0,0,0l0,0L19.8,19.9L19.8,19.9z"/>
			</mask>
			
				<linearGradient id="SVGID_00000140012554619378913930000001327819775138819713_" gradientUnits="userSpaceOnUse" x1="-838.0004" y1="415.7877" x2="-838.0004" y2="404.7719" gradientTransform="matrix(1 0 0 -1 852 424.6306)">
				<stop  offset="0" style="stop-color:#FFFFFF"/>
				<stop  offset="1" style="stop-color:#FFFFFF;stop-opacity:0"/>
			</linearGradient>
			
				<path style="mask:url(#path-3-inside-2_34_1112_00000076588949146793266500000003648274497246796939_);fill:url(#SVGID_00000140012554619378913930000001327819775138819713_);" d="
				M19.8,19.9l0-1.8c-0.5,0-0.9,0.2-1.3,0.5c-0.3,0.3-0.5,0.8-0.5,1.3H19.8z M19.8,14H18c0,0.5,0.2,0.9,0.5,1.3
				c0.3,0.3,0.8,0.5,1.3,0.5L19.8,14z M19.8,14h1.8c0-1-0.8-1.8-1.8-1.8V14z M19,14l-1.7-0.3c-0.1,0.5,0.1,1,0.4,1.4
				c0.3,0.4,0.8,0.6,1.3,0.6V14z M8.9,14.1l-0.4,1.7c0.6,0.1,1.2-0.1,1.6-0.5c0.4-0.4,0.6-1,0.5-1.6L8.9,14.1z M8.2,19.9L9.5,21
				c0.5-0.5,0.6-1.3,0.3-1.9c-0.3-0.6-0.9-1-1.6-1L8.2,19.9z M8.2,19.9l-1.3-1.2c-0.5,0.5-0.6,1.3-0.3,1.9c0.3,0.6,0.9,1,1.6,1V19.9
				z M19.8,19.9v1.8c1,0,1.8-0.8,1.8-1.8H19.8z M19.8,21.6C19.8,21.6,19.8,21.6,19.8,21.6l0.1-3.5c0,0,0,0,0,0L19.8,21.6z
				 M19.8,21.6c2.6,0,5.1-1.9,5.1-4.7h-3.5c0,0.5-0.5,1.2-1.5,1.2V21.6z M24.9,16.9c0-2.8-2.5-4.7-5.1-4.7v3.5
				c1.1,0,1.5,0.7,1.5,1.2H24.9z M19.8,12.2C19.8,12.2,19.8,12.2,19.8,12.2l0,3.5c0,0,0,0,0,0V12.2z M18,14L18,14l3.5,0v0H18z
				 M19,15.7h0.9v-3.5H19V15.7z M20.7,14.2c0-0.3,0.1-0.6,0.1-0.9h-3.5c0,0.1,0,0.2,0,0.3L20.7,14.2z M20.8,13.4
				c0-3.7-3.3-6.3-6.8-6.3v3.5c2,0,3.3,1.4,3.3,2.8H20.8z M13.9,7.1c-3.6,0-6.8,2.6-6.8,6.3h3.5c0-1.3,1.3-2.8,3.3-2.8V7.1z
				 M7.1,13.4c0,0.3,0,0.7,0.1,1l3.5-0.6c0-0.1,0-0.3,0-0.4H7.1z M9.3,12.3c-0.4-0.1-0.7-0.1-1.1-0.1v3.5c0.1,0,0.3,0,0.4,0
				L9.3,12.3z M8.2,12.2c-2.6,0-5.1,1.9-5.1,4.7h3.5c0-0.5,0.5-1.2,1.5-1.2V12.2z M3.1,16.9c0,2.8,2.5,4.7,5.1,4.7v-3.5
				c-1.1,0-1.5-0.7-1.5-1.2H3.1z M8.2,21.6C8.2,21.6,8.2,21.6,8.2,21.6l0-3.5c0,0,0,0,0,0V21.6z M9.5,21L9.5,21l-2.6-2.3l0,0L9.5,21
				z M19.8,18.1H8.2v3.5h11.6V18.1z M18,19.9L18,19.9l3.5,0v0H18z"/>
		</g>
		<g>
			
				<linearGradient id="SVGID_00000098187337204523146680000001338638769673546175_" gradientUnits="userSpaceOnUse" x1="-829.7271" y1="409.0453" x2="-831.2643" y2="401.5423" gradientTransform="matrix(1 0 0 -1 852 424.6306)">
				<stop  offset="0" style="stop-color:#FF4D00"/>
				<stop  offset="1" style="stop-color:#FFB800"/>
			</linearGradient>
			<path style="fill:url(#SVGID_00000098187337204523146680000001338638769673546175_);" d="M18.1,19.8l2.5-4.1
				c0.3-0.5,0.9-0.8,1.5-0.8h0.5c1.1,0,1.8,1.2,1.2,2.2l-0.5,0.9c-0.3,0.5,0.1,1.2,0.7,1.2c0.7,0,1.1,0.9,0.6,1.4l-3.2,3.2
				c-0.8,0.8-2.2-0.1-1.7-1.2l0.1-0.3c0.2-0.6-0.2-1.2-0.8-1.2C18.1,21.1,17.7,20.4,18.1,19.8z"/>
			
				<linearGradient id="SVGID_00000138544831192167247520000015572416635469731478_" gradientUnits="userSpaceOnUse" x1="-831.6201" y1="401.369" x2="-828.673" y2="408.4712" gradientTransform="matrix(1 0 0 -1 852 424.6306)">
				<stop  offset="0" style="stop-color:#FFFFFF"/>
				<stop  offset="1" style="stop-color:#FFFFFF;stop-opacity:0"/>
			</linearGradient>
			<path style="fill:none;stroke:url(#SVGID_00000138544831192167247520000015572416635469731478_);stroke-width:2;" d="M18.8,20.2
				l2.5-4.1c0.2-0.2,0.4-0.4,0.7-0.4h0.5c0.4,0,0.7,0.5,0.5,0.8l-0.5,0.9c-0.6,1.1,0.1,2.5,1.3,2.6l-3.1,3.1
				c-0.1,0.1-0.1,0.1-0.1,0.1c0,0-0.1,0-0.1,0c0,0-0.1-0.1-0.1-0.1c0,0,0-0.1,0-0.1l0.1-0.3C20.9,21.5,20.1,20.2,18.8,20.2
				C18.8,20.2,18.8,20.2,18.8,20.2C18.8,20.2,18.8,20.2,18.8,20.2C18.8,20.2,18.8,20.2,18.8,20.2C18.8,20.2,18.8,20.2,18.8,20.2z"/>
		</g>
		<g>
			
				<linearGradient id="SVGID_00000029753266637756850080000016108954228959298973_" gradientUnits="userSpaceOnUse" x1="-830.3823" y1="415.5482" x2="-830.3823" y2="406.9271" gradientTransform="matrix(1 0 0 -1 852 424.6306)">
				<stop  offset="0" style="stop-color:#FFFFFF"/>
				<stop  offset="1" style="stop-color:#FFFFFF;stop-opacity:0"/>
			</linearGradient>
			
				<path shape-rendering="crispEdges" style="fill-rule:evenodd;clip-rule:evenodd;fill:url(#SVGID_00000029753266637756850080000016108954228959298973_);" d="
				M25.8,16.8C25.8,16.8,25.8,16.8,25.8,16.8c1.3,0,2.4-1,2.4-2.1c0-1.2-1.1-2.1-2.4-2.1c0,0,0,0,0,0v0h-0.6c0-0.1,0-0.3,0-0.4
				c0-1.8-1.6-3.3-3.7-3.3c-2,0-3.7,1.5-3.7,3.3c0,0.2,0,0.3,0,0.5c-0.2,0-0.4-0.1-0.5-0.1c-1.3,0-2.4,1-2.4,2.1
				c0,1.2,1.1,2.1,2.4,2.1c0,0,0,0,0,0l0,0L25.8,16.8L25.8,16.8z"/>
			<defs>
				
					<filter id="Adobe_OpacityMaskFilter_00000001656608022762367340000014316604301617552512_" filterUnits="userSpaceOnUse" x="13.2" y="7.1" width="16.8" height="11.5">
					<feColorMatrix  type="matrix" values="1 0 0 0 0  0 1 0 0 0  0 0 1 0 0  0 0 0 1 0"/>
				</filter>
			</defs>
			
				<mask maskUnits="userSpaceOnUse" x="13.2" y="7.1" width="16.8" height="11.5" id="path-7-inside-3_34_1112_00000049903069423919899080000003404231421041622455_">
				
					<path style="fill-rule:evenodd;clip-rule:evenodd;fill:#FFFFFF;filter:url(#Adobe_OpacityMaskFilter_00000001656608022762367340000014316604301617552512_);" d="
					M25.8,16.8C25.8,16.8,25.8,16.8,25.8,16.8c1.3,0,2.4-1,2.4-2.1c0-1.2-1.1-2.1-2.4-2.1c0,0,0,0,0,0v0h-0.6c0-0.1,0-0.3,0-0.4
					c0-1.8-1.6-3.3-3.7-3.3c-2,0-3.7,1.5-3.7,3.3c0,0.2,0,0.3,0,0.5c-0.2,0-0.4-0.1-0.5-0.1c-1.3,0-2.4,1-2.4,2.1
					c0,1.2,1.1,2.1,2.4,2.1c0,0,0,0,0,0l0,0L25.8,16.8L25.8,16.8z"/>
			</mask>
			
				<linearGradient id="SVGID_00000124133820808852697020000002870987084334079151_" gradientUnits="userSpaceOnUse" x1="-830.3823" y1="415.7877" x2="-830.3823" y2="407.8267" gradientTransform="matrix(1 0 0 -1 852 424.6306)">
				<stop  offset="0" style="stop-color:#FFFFFF"/>
				<stop  offset="1" style="stop-color:#FFFFFF;stop-opacity:0"/>
			</linearGradient>
			
				<path style="mask:url(#path-7-inside-3_34_1112_00000049903069423919899080000003404231421041622455_);fill:url(#SVGID_00000124133820808852697020000002870987084334079151_);" d="
				M25.8,16.8l0-1.8c-0.5,0-0.9,0.2-1.3,0.5c-0.3,0.3-0.5,0.8-0.5,1.3H25.8z M25.8,12.6h-1.8c0,0.5,0.2,0.9,0.5,1.3
				c0.3,0.3,0.8,0.5,1.3,0.5L25.8,12.6z M25.8,12.6h1.8c0-1-0.8-1.8-1.8-1.8V12.6z M25.2,12.6l-1.7-0.3c-0.1,0.5,0.1,1,0.4,1.4
				c0.3,0.4,0.8,0.6,1.3,0.6V12.6z M17.9,12.6l-0.4,1.7c0.6,0.1,1.2-0.1,1.6-0.5c0.4-0.4,0.6-1,0.5-1.6L17.9,12.6z M17.4,16.8
				l1.3,1.2c0.5-0.5,0.6-1.3,0.3-1.9c-0.3-0.6-0.9-1-1.6-1L17.4,16.8z M17.4,16.8l-1.3-1.2c-0.5,0.5-0.6,1.3-0.3,1.9
				c0.3,0.6,0.9,1,1.6,1V16.8z M25.8,16.8v1.8c1,0,1.8-0.8,1.8-1.8H25.8z M25.8,18.6C25.8,18.6,25.8,18.6,25.8,18.6l0-3.5
				c0,0,0,0,0,0L25.8,18.6z M25.8,18.6c2.1,0,4.2-1.6,4.2-3.9h-3.5c0,0,0,0.1-0.1,0.2C26.3,15,26.1,15,25.8,15V18.6z M30,14.7
				c0-2.3-2.1-3.9-4.2-3.9v3.5c0.2,0,0.4,0.1,0.5,0.2c0.1,0.1,0.1,0.2,0.1,0.2H30z M25.8,10.8C25.8,10.8,25.8,10.8,25.8,10.8l0,3.5
				c0,0,0,0,0,0V10.8z M24.1,12.6L24.1,12.6l3.5,0v0H24.1z M25.2,14.3h0.6v-3.5h-0.6V14.3z M26.9,12.8c0-0.2,0.1-0.5,0.1-0.7h-3.5
				c0,0.1,0,0.1,0,0.2L26.9,12.8z M27,12.1c0-3-2.6-5-5.4-5v3.5c1.3,0,1.9,0.9,1.9,1.5H27z M21.6,7.1c-2.8,0-5.4,2.1-5.4,5h3.5
				c0-0.6,0.7-1.5,1.9-1.5V7.1z M16.1,12.1c0,0.3,0,0.5,0.1,0.8l3.5-0.6c0-0.1,0-0.1,0-0.2H16.1z M18.3,10.9
				c-0.3-0.1-0.6-0.1-0.9-0.1v3.5c0.1,0,0.1,0,0.2,0L18.3,10.9z M17.4,10.8c-2.1,0-4.2,1.6-4.2,3.9h3.5c0,0,0-0.1,0.1-0.2
				c0.1-0.1,0.3-0.2,0.5-0.2V10.8z M13.2,14.7c0,2.3,2.1,3.9,4.2,3.9V15c-0.2,0-0.4-0.1-0.5-0.2c-0.1-0.1-0.1-0.2-0.1-0.2H13.2z
				 M17.4,18.6C17.4,18.6,17.4,18.6,17.4,18.6l0-3.5c0,0,0,0,0,0V18.6z M18.7,18L18.7,18l-2.6-2.3l0,0L18.7,18z M25.8,15h-8.4v3.5
				h8.4V15z M24.1,16.8L24.1,16.8l3.5,0v0H24.1z"/>
		</g>
		<g>
			
				<linearGradient id="SVGID_00000033335312798068695940000002646131815726981013_" gradientUnits="userSpaceOnUse" x1="-846.0905" y1="404.9112" x2="-846.9915" y2="401.5803" gradientTransform="matrix(1 0 0 -1 852 424.6306)">
				<stop  offset="0" style="stop-color:#138EFF"/>
				<stop  offset="1" style="stop-color:#00E0FF"/>
			</linearGradient>
			
				<linearGradient id="SVGID_00000019674435199714983940000003946419074457228180_" gradientUnits="userSpaceOnUse" x1="-846.0118" y1="405.202" x2="-847.0222" y2="401.4669" gradientTransform="matrix(1 0 0 -1 852 424.6306)">
				<stop  offset="0" style="stop-color:#FFFFFF"/>
				<stop  offset="1" style="stop-color:#FFFFFF;stop-opacity:0"/>
			</linearGradient>
			
				<path style="fill:url(#SVGID_00000033335312798068695940000002646131815726981013_);stroke:url(#SVGID_00000019674435199714983940000003946419074457228180_);stroke-width:2;" d="
				M5.2,22.1l0.1-0.2l0,0.2c0,0.1-0.1,0.1-0.1,0.1C5.2,22.2,5.2,22.1,5.2,22.1z"/>
			
				<linearGradient id="SVGID_00000050654836816128180660000001464272564598449852_" gradientUnits="userSpaceOnUse" x1="-841.6653" y1="404.9112" x2="-842.5663" y2="401.5803" gradientTransform="matrix(1 0 0 -1 852 424.6306)">
				<stop  offset="0" style="stop-color:#138EFF"/>
				<stop  offset="1" style="stop-color:#00E0FF"/>
			</linearGradient>
			
				<linearGradient id="SVGID_00000026128533565459938490000010552986878627508902_" gradientUnits="userSpaceOnUse" x1="-841.5867" y1="405.202" x2="-842.597" y2="401.4669" gradientTransform="matrix(1 0 0 -1 852 424.6306)">
				<stop  offset="0" style="stop-color:#FFFFFF"/>
				<stop  offset="1" style="stop-color:#FFFFFF;stop-opacity:0"/>
			</linearGradient>
			
				<path style="fill:url(#SVGID_00000050654836816128180660000001464272564598449852_);stroke:url(#SVGID_00000026128533565459938490000010552986878627508902_);stroke-width:2;" d="
				M9.6,22.1l0.1-0.2l0,0.2c0,0.1-0.1,0.1-0.1,0.1C9.6,22.2,9.6,22.1,9.6,22.1z"/>
			
				<linearGradient id="SVGID_00000158716839429073371650000003490167999386266812_" gradientUnits="userSpaceOnUse" x1="-837.2402" y1="404.9112" x2="-838.1412" y2="401.5803" gradientTransform="matrix(1 0 0 -1 852 424.6306)">
				<stop  offset="0" style="stop-color:#138EFF"/>
				<stop  offset="1" style="stop-color:#00E0FF"/>
			</linearGradient>
			
				<linearGradient id="SVGID_00000014627393196470913480000008200807807492651952_" gradientUnits="userSpaceOnUse" x1="-837.1616" y1="405.202" x2="-838.1719" y2="401.4669" gradientTransform="matrix(1 0 0 -1 852 424.6306)">
				<stop  offset="0" style="stop-color:#FFFFFF"/>
				<stop  offset="1" style="stop-color:#FFFFFF;stop-opacity:0"/>
			</linearGradient>
			
				<path style="fill:url(#SVGID_00000158716839429073371650000003490167999386266812_);stroke:url(#SVGID_00000014627393196470913480000008200807807492651952_);stroke-width:2;" d="
				M14,22.1l0.1-0.2l0,0.2c0,0.1-0.1,0.1-0.1,0.1C14,22.2,14,22.1,14,22.1z"/>
		</g>
		<g>
			
				<linearGradient id="SVGID_00000007413540927878128240000005130437078227423626_" gradientUnits="userSpaceOnUse" x1="-844.3976" y1="401.7966" x2="-845.2986" y2="398.4657" gradientTransform="matrix(1 0 0 -1 852 424.6306)">
				<stop  offset="0" style="stop-color:#138EFF"/>
				<stop  offset="1" style="stop-color:#00E0FF"/>
			</linearGradient>
			
				<linearGradient id="SVGID_00000109021655184443928570000014660674312377127350_" gradientUnits="userSpaceOnUse" x1="-844.319" y1="402.0874" x2="-845.3292" y2="398.3523" gradientTransform="matrix(1 0 0 -1 852 424.6306)">
				<stop  offset="0" style="stop-color:#FFFFFF"/>
				<stop  offset="1" style="stop-color:#FFFFFF;stop-opacity:0"/>
			</linearGradient>
			
				<path style="fill:url(#SVGID_00000007413540927878128240000005130437078227423626_);stroke:url(#SVGID_00000109021655184443928570000014660674312377127350_);stroke-width:2;" d="
				M6.9,25.2L7,25l0,0.2c0,0.1-0.1,0.1-0.1,0.1C6.9,25.3,6.8,25.2,6.9,25.2z"/>
			
				<linearGradient id="SVGID_00000047053546294432196060000004018253957910342532_" gradientUnits="userSpaceOnUse" x1="-839.9346" y1="401.7966" x2="-840.8355" y2="398.4657" gradientTransform="matrix(1 0 0 -1 852 424.6306)">
				<stop  offset="0" style="stop-color:#138EFF"/>
				<stop  offset="1" style="stop-color:#00E0FF"/>
			</linearGradient>
			
				<linearGradient id="SVGID_00000073719570891316298280000008056107955086266035_" gradientUnits="userSpaceOnUse" x1="-839.856" y1="402.0874" x2="-840.8661" y2="398.3523" gradientTransform="matrix(1 0 0 -1 852 424.6306)">
				<stop  offset="0" style="stop-color:#FFFFFF"/>
				<stop  offset="1" style="stop-color:#FFFFFF;stop-opacity:0"/>
			</linearGradient>
			
				<path style="fill:url(#SVGID_00000047053546294432196060000004018253957910342532_);stroke:url(#SVGID_00000073719570891316298280000008056107955086266035_);stroke-width:2;" d="
				M11.4,25.2l0.1-0.2l0,0.2c0,0.1-0.1,0.1-0.1,0.1C11.3,25.3,11.3,25.2,11.4,25.2z"/>
		</g>
	</g>
</g>
</svg>
